<?xml version="1.0" encoding="UTF-8"?>
<svg width="24px" height="24px" viewBox="0 0 24 24" version="1.1" xmlns="http://www.w3.org/2000/svg" xmlns:xlink="http://www.w3.org/1999/xlink">
    <title>A003E640-6571-498F-91BA-9352BB2EF899</title>
    <g id="Main-Feature" stroke="none" stroke-width="1" fill="none" fill-rule="evenodd">
        <g id="5.1-Your-Post" transform="translate(-676.000000, -775.000000)" fill="#61BE5A">
            <g id="Dropdown" transform="translate(660.000000, 707.000000)">
                <g id="1" transform="translate(4.000000, 16.000000)">
                    <g id="Dropdown-/-iL" transform="translate(0.000000, 44.000000)">
                        <g id="Icon/Base" transform="translate(12.000000, 8.000000)">
                            <g id="Edit">
                                <path d="M15.6099,2.58877 C16.3949,1.80374 17.6677,1.80374 18.4527,2.58877 L21.4112,5.54729 C22.1963,6.33232 22.1963,7.6051 21.4112,8.39012 L9.14172,20.6596 C8.86229,20.9391 8.5067,21.1299 8.1194,21.2084 L4.40932,21.96 C3.74887,22.0937 3.0653,21.8877 2.5888,21.4112 C2.1123,20.9347 1.90626,20.2511 2.04005,19.5907 L2.79161,15.8806 C2.87007,15.4933 3.06094,15.1377 3.34036,14.8583 L15.6099,2.58877 Z M4.44348,17.851 L4.57274,17.2129 L6.78709,19.4273 L6.14901,19.5565 L4.01022,19.9898 L4.44348,17.851 Z M8.58059,18.3779 L5.62208,15.4194 L14.2516,6.78988 L17.2101,9.7484 L8.58059,18.3779 Z M18.6315,8.32699 L19.9898,6.96871 L18.5684,5.54729 L18.4527,5.43161 L17.0313,4.01019 L15.673,5.36847 L18.6315,8.32699 Z" id="Main"></path>
                            </g>
                        </g>
                    </g>
                </g>
            </g>
        </g>
    </g>
</svg>