<?xml version="1.0" encoding="UTF-8"?>
<svg width="24px" height="24px" viewBox="0 0 24 24" version="1.1" xmlns="http://www.w3.org/2000/svg" xmlns:xlink="http://www.w3.org/1999/xlink">
    <title>157B96BC-35F3-4C8A-B5C7-869554CEE5FE</title>
    <g id="Main-Feature" stroke="none" stroke-width="1" fill="none" fill-rule="evenodd">
        <g id="5.1-Your-Post" transform="translate(-676.000000, -731.000000)" fill="#61BE5A">
            <g id="Dropdown" transform="translate(660.000000, 707.000000)">
                <g id="1" transform="translate(4.000000, 16.000000)">
                    <g id="Dropdown-/-iL">
                        <g id="Icon/Base" transform="translate(12.000000, 8.000000)">
                            <g id="Share">
                                <path d="M18,10 C17.181,10 16.4196,9.75388 15.7855,9.33158 L10.236,12.0133 L15.6115,14.7911 C16.2781,14.2942 17.1047,14 18,14 C20.2091,14 22,15.7909 22,18 C22,20.2091 20.2091,22 18,22 C15.7909,22 14,20.2091 14,18 C14,17.4253 14.1212,16.8789 14.3394,16.385 L9.52292,13.8961 C8.84729,15.1488 7.52306,16 6,16 C3.79086,16 2,14.2091 2,12 C2,9.79086 3.79086,8 6,8 C7.53358,8 8.86559,8.86304 9.53684,10.1299 L14.4136,7.77328 C14.1488,7.23886 14,6.63681 14,6 C14,3.79086 15.7909,2 18,2 C20.2091,2 22,3.79086 22,6 C22,8.20914 20.2091,10 18,10 Z M18,4 C16.8954,4 16,4.89543 16,6 C16,7.10457 16.8954,8 18,8 C19.1046,8 20,7.10457 20,6 C20,4.89543 19.1046,4 18,4 Z M6,10 C4.89543,10 4,10.8954 4,12 C4,13.1046 4.89543,14 6,14 C7.10457,14 8,13.1046 8,12 C8,10.8954 7.10457,10 6,10 Z M16,18 C16,16.8954 16.8954,16 18,16 C19.1046,16 20,16.8954 20,18 C20,19.1046 19.1046,20 18,20 C16.8954,20 16,19.1046 16,18 Z" id="Main"></path>
                            </g>
                        </g>
                    </g>
                </g>
            </g>
        </g>
    </g>
</svg>