<?xml version="1.0" encoding="UTF-8"?>
<svg width="24px" height="24px" viewBox="0 0 24 24" version="1.1" xmlns="http://www.w3.org/2000/svg" xmlns:xlink="http://www.w3.org/1999/xlink">
    <title>46C68300-9A3B-452B-ABEF-266EF7AA2BE0</title>
    <g id="Main-Feature" stroke="none" stroke-width="1" fill="none" fill-rule="evenodd">
        <g id="5.1-Your-Post" transform="translate(-676.000000, -819.000000)" fill="#FF5656">
            <g id="Dropdown" transform="translate(660.000000, 707.000000)">
                <g id="1" transform="translate(4.000000, 16.000000)">
                    <g id="Dropdown-/-iL" transform="translate(0.000000, 88.000000)">
                        <g id="Icon/Base" transform="translate(12.000000, 8.000000)">
                            <g id="User">
                                <path d="M13.4687499,18.2500003 L14.4062499,18.2500003 C14.6651334,18.2500003 14.8749999,18.0401337 14.8749999,17.7812503 L14.8749999,9.34375035 C14.8749999,9.08486687 14.6651334,8.87500035 14.4062499,8.87500035 L13.4687499,8.87500035 C13.2098664,8.87500035 12.9999999,9.08486687 12.9999999,9.34375035 L12.9999999,17.7812503 C12.9999999,18.0401337 13.2098664,18.2500003 13.4687499,18.2500003 Z M19.8749998,5.12500039 L16.6558592,5.12500039 L15.3277342,2.91015667 C14.9886918,2.34521663 14.3780084,1.99968666 13.7191405,2.00000021 L9.7808593,2.00000021 C9.12226987,2.00000021 8.51194596,2.3454555 8.17304682,2.91015667 L6.84414058,5.12500039 L3.62499999,5.12500039 C3.27982203,5.12500039 3,5.40482242 3,5.75000039 L3,6.37500038 C3,6.72017835 3.27982203,7.00000021 3.62499999,7.00000021 L4.24999999,7.00000021 L4.24999999,20.1250002 C4.24999999,21.1605341 5.08946607,22.0000002 6.12499997,22.0000002 L17.3749998,22.0000002 C18.4105337,22.0000002 19.2499998,21.1605341 19.2499998,20.1250002 L19.2499998,7.00000021 L19.8749998,7.00000021 C20.2201778,7.00000021 20.5,6.72017835 20.5,6.37500038 L20.5,5.75000039 C20.5,5.40482242 20.2201778,5.12500039 19.8749998,5.12500039 Z M9.71249993,3.98867228 C9.75499383,3.9179427 9.83154969,3.87476876 9.91406243,3.87499948 L13.5859374,3.87499948 C13.668311,3.87490627 13.7446869,3.91806238 13.7871093,3.98867228 L14.4691405,5.12500039 L9.03085931,5.12500039 L9.71249993,3.98867228 Z M17.3749998,20.1250002 L6.12499997,20.1250002 L6.12499997,7.00000037 L17.3749998,7.00000037 L17.3749998,20.1250002 Z M9.09374994,18.2500003 L10.0312499,18.2500003 C10.2901334,18.2500003 10.4999999,18.0401337 10.4999999,17.7812503 L10.4999999,9.34375035 C10.4999999,9.08486687 10.2901334,8.87500035 10.0312499,8.87500035 L9.09374994,8.87500035 C8.83486646,8.87500035 8.62499994,9.08486687 8.62499994,9.34375035 L8.62499994,17.7812503 C8.62499994,18.0401337 8.83486646,18.2500003 9.09374994,18.2500003 Z" id="Main"></path>
                            </g>
                        </g>
                    </g>
                </g>
            </g>
        </g>
    </g>
</svg>