<?xml version="1.0" encoding="UTF-8"?>
<svg width="24px" height="24px" viewBox="0 0 24 24" version="1.1" xmlns="http://www.w3.org/2000/svg" xmlns:xlink="http://www.w3.org/1999/xlink">
    <title>4233A973-84C0-455C-A216-9F0895E5A1BC</title>
    <g id="Page-1" stroke="none" stroke-width="1" fill="none" fill-rule="evenodd">
        <g id="1.1-Bộ-lọc" transform="translate(-467.000000, -664.000000)" fill="#DADBDB">
            <g id="Popup" transform="translate(435.000000, 100.000000)">
                <g id="Dang-boi" transform="translate(32.000000, 444.000000)">
                    <g id="Select-/-Text-/-iLR" transform="translate(0.000000, 120.000000)">
                        <g id="Icon/Base">
                            <g id="Group">
                                <path d="M8.4,9.33333333 L19.2,9.33333333 L19.2,13.7777778 L12.9,13.7777778 L12.9,12 C12.9,11.5090802 12.4970563,11.1111111 12,11.1111111 C11.5029437,11.1111111 11.1,11.5090802 11.1,12 L11.1,13.7777778 L4.8,13.7777778 L4.8,9.33333333 L8.4,9.33333333 Z M4.8,16.4444444 L4.8,15.5555556 L19.2,15.5555556 L19.2,18.2222222 L4.8,18.2222222 L4.8,16.4444444 Z M8.4,7.55555556 L8.4,6.66666667 C8.4,5.19390733 9.60883118,4 11.1,4 L12.9,4 C14.3911688,4 15.6,5.19390733 15.6,6.66666667 L15.6,7.55555556 L19.2,7.55555556 C20.1941125,7.55555556 21,8.35149378 21,9.33333333 L21,18.2222222 C21,19.2040618 20.1941125,20 19.2,20 L4.8,20 C3.80588745,20 3,19.2040618 3,18.2222222 L3,9.33333333 C3,8.35149378 3.80588745,7.55555556 4.8,7.55555556 L8.4,7.55555556 Z M13.8,7.55555556 L13.8,6.66666667 C13.8,6.17574689 13.3970563,5.77777778 12.9,5.77777778 L11.1,5.77777778 C10.6029437,5.77777778 10.2,6.17574689 10.2,6.66666667 L10.2,7.55555556 L13.8,7.55555556 Z" id="Main"></path>
                            </g>
                        </g>
                    </g>
                </g>
            </g>
        </g>
    </g>
</svg>