<?xml version="1.0" encoding="UTF-8"?>
<svg width="25px" height="24px" viewBox="0 0 25 24" version="1.1" xmlns="http://www.w3.org/2000/svg" xmlns:xlink="http://www.w3.org/1999/xlink">
    <title>C2580965-B920-4776-866F-54899517BC63</title>
    <g id="Page-1" stroke="none" stroke-width="1" fill="none" fill-rule="evenodd">
        <g id="1.1-Bộ-lọc" transform="translate(-467.000000, -488.000000)" fill="#DADBDB">
            <g id="Popup" transform="translate(435.000000, 100.000000)">
                <g id="Sap-xep-theo" transform="translate(32.000000, 308.000000)">
                    <g id="Select-/-Text-/-iLR" transform="translate(0.000000, 80.000000)">
                        <g id="Icon/Base">
                            <g id="Tag" transform="translate(0.000009, 0.000156)">
                                <path d="M21.9550529,9.07284402 L21.2660529,5.03384402 C21.0280529,3.63684402 19.9010529,2.57384402 18.5130529,2.43884402 L14.1330529,2.01384402 C13.2113219,1.92596413 12.2993056,2.2597452 11.6520529,2.92184402 L2.90605287,11.818844 C1.69798238,13.0562053 1.69798238,15.0314828 2.90605287,16.268844 L7.63405287,21.078844 C8.20914991,21.6680811 8.99768359,22.000326 9.82105287,22.000326 C10.6444222,22.000326 11.4329558,21.6680811 12.0080529,21.078844 L21.0940529,11.834844 C21.7594494,11.15395 22.0824151,10.2137787 21.9820652,9.27410124 L21.9550529,9.07284402 Z M18.3170529,4.52784402 C18.7790529,4.57284402 19.1550529,4.92684402 19.2350529,5.39284402 L19.9230529,9.42984402 C19.9800529,9.76584402 19.8730529,10.109844 19.6360529,10.350844 L10.5500529,19.593844 C10.1480529,20.003844 9.49505287,20.003844 9.09205287,19.593844 L4.36405287,14.783844 C3.9617561,14.3713597 3.9617561,13.7133284 4.36405287,13.300844 L13.1100529,4.40484402 C13.3256621,4.1838979 13.6297374,4.07248943 13.9370529,4.10184402 L18.3170529,4.52784402 Z M15.2340529,6.96384402 C14.8071031,7.40126407 14.8071031,8.09942397 15.2340529,8.53684402 C15.4373016,8.74514935 15.7160183,8.86260865 16.0070529,8.86260865 C16.2980875,8.86260865 16.5768042,8.74514935 16.7800529,8.53684402 C17.2070027,8.09942397 17.2070027,7.40126407 16.7800529,6.96384402 C16.5768042,6.75553869 16.2980875,6.6380794 16.0070529,6.6380794 C15.7575946,6.6380794 15.5171863,6.72437602 15.3255958,6.8802099 L15.2340529,6.96384402 Z" id="Main"></path>
                            </g>
                        </g>
                    </g>
                </g>
            </g>
        </g>
    </g>
</svg>