<?xml version="1.0" encoding="UTF-8"?>
<svg width="24px" height="24px" viewBox="0 0 24 24" version="1.1" xmlns="http://www.w3.org/2000/svg" xmlns:xlink="http://www.w3.org/1999/xlink">
    <title>16FE092C-A78A-4666-9E67-265E52D082BD</title>
    <g id="Page-1" stroke="none" stroke-width="1" fill="none" fill-rule="evenodd">
        <g id="1.1-Bộ-lọc" transform="translate(-467.000000, -584.000000)" fill="#DADBDB">
            <g id="Popup" transform="translate(435.000000, 100.000000)">
                <g id="Dang-boi" transform="translate(32.000000, 444.000000)">
                    <g id="Select-/-Text-/-iLR" transform="translate(0.000000, 40.000000)">
                        <g id="Icon/Base">
                            <g id="Mall">
                                <path d="M8.39999779,5.69999945 L4.79999926,5.69999945 L4.79999926,4.79999963 L8.39999779,4.79999963 L8.39999779,5.69999945 Z M10.1999971,8.39999889 L10.1999971,7.49999908 L13.7999956,7.49999908 L13.7999956,8.39999889 C13.7999956,9.39411124 12.9941085,10.1999985 11.9999963,10.1999985 C11.0058842,10.1999985 10.1999971,9.39411124 10.1999971,8.39999889 Z M8.39999779,7.49999908 L8.39999779,8.39999889 C8.39999779,9.39411124 7.59411067,10.1999985 6.59999853,10.1999985 C5.60588638,10.1999985 4.79999926,9.39411124 4.79999926,8.39999889 L4.79999926,7.49999908 L8.39999779,7.49999908 Z M11.9999963,11.9999982 C10.9665786,12.0012243 9.98272629,11.5571788 9.29999742,10.7813984 C8.40489899,11.7999267 7.0124173,12.2274186 5.6999989,11.8865982 L5.6999989,19.1999967 L9.29999742,19.1999967 L9.29999742,15.5999974 C9.29999742,14.1088289 10.5088281,12.899998 11.9999963,12.899998 C13.4911645,12.899998 14.6999989,14.1088289 14.6999989,15.5999974 L14.6999989,19.1999967 L18.2999937,19.1999967 L18.2999937,11.8865982 C16.9876733,12.2230984 15.5974367,11.7962957 14.6999989,10.7813984 C14.0172663,11.5571788 13.0334141,12.0012243 11.9999963,11.9999982 Z M13.7999956,21 L18.2999937,21 C19.2941059,21 20.099993,20.194109 20.099993,19.1999967 L20.099993,11.0999983 C20.0999034,11.0077661 20.0856368,10.9160957 20.057693,10.8281984 C20.6649849,10.1654823 21.0012815,9.29888409 21,8.39999889 L21,4.79999963 C21,3.80588729 20.1941055,3 19.1999934,3 L4.79999926,3 C3.80588712,3 3,3.80588729 3,4.79999963 L3,8.39999889 C3,9.3359987 3.35729985,10.1873985 3.94229961,10.8281984 C3.91435585,10.9160957 3.90008926,11.0077661 3.89999963,11.0999983 L3.89999963,19.1999967 C3.89999963,20.194109 4.70588675,21 5.6999989,21 L13.7999956,21 Z M12.899996,19.1999976 L12.899996,15.5999974 C12.899996,15.1029412 12.4970524,14.6999976 11.9999963,14.6999976 C11.5029402,14.6999976 11.0999967,15.1029412 11.0999967,15.5999974 L11.0999967,19.1999976 L12.899996,19.1999976 Z M19.1999934,5.69999945 L19.1999934,4.79999963 L15.5999948,4.79999963 L15.5999948,5.69999945 L19.1999934,5.69999945 Z M15.5999948,7.49999908 L15.5999948,8.39999889 C15.5999948,9.39411124 16.405882,10.1999985 17.3999941,10.1999985 C18.3941063,10.1999985 19.1999934,9.39411124 19.1999934,8.39999889 L19.1999934,7.49999908 L15.5999948,7.49999908 Z M13.7999956,5.69999945 L10.1999971,5.69999945 L10.1999971,4.79999963 L13.7999956,4.79999963 L13.7999956,5.69999945 Z" id="Main"></path>
                            </g>
                        </g>
                    </g>
                </g>
            </g>
        </g>
    </g>
</svg>