<?xml version="1.0" encoding="UTF-8"?>
<svg width="24px" height="24px" viewBox="0 0 24 24" version="1.1" xmlns="http://www.w3.org/2000/svg" xmlns:xlink="http://www.w3.org/1999/xlink">
    <title>3B9577F5-97B4-4606-A04A-0CE175C9DF8A</title>
    <g id="Page-1" stroke="none" stroke-width="1" fill="none" fill-rule="evenodd">
        <g id="1.1-Bộ-lọc" transform="translate(-467.000000, -448.000000)" fill="#DADBDB">
            <g id="Popup" transform="translate(435.000000, 100.000000)">
                <g id="Sap-xep-theo" transform="translate(32.000000, 308.000000)">
                    <g id="Select-/-Text-/-iLR" transform="translate(0.000000, 40.000000)">
                        <g id="Icon/Base">
                            <g id="Timer">
                                <path d="M20,12 C20,16.418278 16.418278,20 12,20 C7.581722,20 4,16.418278 4,12 C4,7.581722 7.581722,4 12,4 C16.418278,4 20,7.581722 20,12 Z M22,12 C22,17.523 17.523,22 12,22 C6.477,22 2,17.523 2,12 C2,6.477 6.477,2 12,2 C17.523,2 22,6.477 22,12 Z M13,7 C13,6.44771525 12.5522847,6 12,6 C11.4477153,6 11,6.44771525 11,7 L11,12 C11,12.3147573 11.1481942,12.6111456 11.4,12.8 L15.4,15.8 C15.8418278,16.1313708 16.4686292,16.0418278 16.8,15.6 C17.1313708,15.1581722 17.0418278,14.5313708 16.6,14.2 L13,11.5 L13,7 Z" id="Main"></path>
                            </g>
                        </g>
                    </g>
                </g>
            </g>
        </g>
    </g>
</svg>