<?xml version="1.0" encoding="UTF-8"?>
<svg width="24px" height="24px" viewBox="0 0 24 24" version="1.1" xmlns="http://www.w3.org/2000/svg" xmlns:xlink="http://www.w3.org/1999/xlink">
    <title>BABD5F73-9BA2-459A-9E89-A6D63902D5BE</title>
    <g id="Page-1" stroke="none" stroke-width="1" fill="none" fill-rule="evenodd">
        <g id="1.1-Bộ-lọc" transform="translate(-467.000000, -624.000000)" fill="#DADBDB">
            <g id="Popup" transform="translate(435.000000, 100.000000)">
                <g id="Dang-boi" transform="translate(32.000000, 444.000000)">
                    <g id="Select-/-Text-/-iLR" transform="translate(0.000000, 80.000000)">
                        <g id="Icon/Base" transform="translate(0.000000, 0.000000)">
                            <g id="User">
                                <path d="M12,15.5996748 C11.31575,15.5996748 10.76625,15.6473777 10.299,15.7175819 C8.36875,16.0082994 6.75,18.028021 6.75,20.0999458 C6.75,20.597032 6.35824916,21 5.875,21 C5.39175084,21 5,20.597032 5,20.0999458 C5,17.7661053 6.421875,15.4736672 8.465,14.4449052 C6.28638556,12.8605479 5.35546959,10.0077901 6.1635504,7.39219754 C6.97163122,4.77660498 9.33277729,3 12.000875,3 C14.6689727,3 17.0301188,4.77660498 17.8381996,7.39219754 C18.6462804,10.0077901 17.7153644,12.8605479 15.53675,14.4449052 C17.578125,15.4736672 19,17.7661053 19,20.0999458 C19,20.597032 18.6082492,21 18.125,21 C17.6417508,21 17.25,20.597032 17.25,20.0999458 C17.25,18.028021 15.63125,16.0082994 13.701,15.7175819 C13.1375768,15.6354377 12.5690434,15.5960291 12,15.5996748 Z M12,13.7995664 C9.58375422,13.7995664 7.625,11.7847264 7.625,9.29929537 C7.625,6.81386432 9.58375422,4.79902435 12,4.79902435 C14.4162458,4.79902435 16.375,6.81386432 16.375,9.29929537 C16.375,11.7847264 14.4162458,13.7995664 12,13.7995664 L12,13.7995664 Z" id="Main"></path>
                            </g>
                        </g>
                    </g>
                </g>
            </g>
        </g>
    </g>
</svg>