<svg width="48" height="48" viewBox="0 0 48 48" fill="none" xmlns="http://www.w3.org/2000/svg">
<path fill-rule="evenodd" clip-rule="evenodd" d="M19.2381 10.9524V19.5238H8.76195C8.23597 19.5238 7.80957 19.9502 7.80957 20.4762C7.80957 21.0022 8.23597 21.4286 8.76195 21.4286H33.5239C34.0498 21.4286 34.4762 21.0022 34.4762 20.4762C34.4762 19.9502 34.0498 19.5238 33.5239 19.5238H21.1429V10.9524C21.1429 10.4264 20.7165 10 20.1905 10C19.6645 10 19.2381 10.4264 19.2381 10.9524ZM38.2857 26.1905C38.2857 24.6125 39.5649 23.3333 41.1428 23.3333H42.0952V25.2381H41.1428C40.6169 25.2381 40.1905 25.6645 40.1905 26.1905C40.1905 26.7165 40.6169 27.1429 41.1428 27.1429H42.0952V29.0476H41.1428C39.5649 29.0476 38.2857 27.7684 38.2857 26.1905Z" fill="#61BE5A"/>
<path fill-rule="evenodd" clip-rule="evenodd" d="M29.7359 12.3119C28.8753 10.8776 27.3253 10 25.6526 10H15.1506C13.2034 10 11.4524 11.1855 10.7293 12.9934L8.01212 19.7863L6.63232 20.4762C5.01906 21.2828 4 22.9317 4 24.7354V31.9048C4 33.4827 5.27919 34.7619 6.85714 34.7619H7.9048C7.84234 35.0696 7.80955 35.3881 7.80955 35.7143C7.80955 38.3442 9.94152 40.4762 12.5715 40.4762C15.2014 40.4762 17.3334 38.3442 17.3334 35.7143C17.3334 35.3881 17.3006 35.0696 17.2381 34.7619H30.7618C30.6994 35.0696 30.6666 35.3881 30.6666 35.7143C30.6666 38.3442 32.7986 40.4762 35.4285 40.4762C38.0584 40.4762 40.1904 38.3442 40.1904 35.7143C40.1904 35.3881 40.1576 35.0696 40.0951 34.7619H41.1429C42.7208 34.7619 44 33.4827 44 31.9048V25.504C44 23.2341 42.3978 21.2797 40.172 20.8346L34.1237 19.6249L29.7359 12.3119ZM12.5715 30.9524C11.0135 30.9524 9.63035 31.7005 8.76158 32.8571H6.85714C6.33116 32.8571 5.90476 32.4307 5.90476 31.9048V24.7354C5.90476 23.6532 6.5162 22.6638 7.48415 22.1799L9.18782 21.328C9.39645 21.2237 9.55954 21.0465 9.64617 20.8299L12.4978 13.7008C12.9317 12.6161 13.9823 11.9048 15.1506 11.9048H25.6526C26.6562 11.9048 27.5862 12.4313 28.1026 13.2919L32.7071 20.9662C32.8452 21.1963 33.0739 21.3575 33.337 21.4101L39.7984 22.7024C41.1339 22.9695 42.0952 24.1421 42.0952 25.504V31.9048C42.0952 32.4307 41.6688 32.8571 41.1429 32.8571H39.2384C38.3696 31.7005 36.9864 30.9524 35.4285 30.9524C33.8706 30.9524 32.4874 31.7005 31.6186 32.8571H16.3813C15.5126 31.7005 14.1294 30.9524 12.5715 30.9524ZM35.4285 38.5714C37.0065 38.5714 38.2856 37.2922 38.2856 35.7143C38.2856 34.1363 37.0065 32.8571 35.4285 32.8571C33.8505 32.8571 32.5714 34.1363 32.5714 35.7143C32.5714 37.2922 33.8505 38.5714 35.4285 38.5714ZM15.4286 35.7143C15.4286 37.2922 14.1494 38.5714 12.5715 38.5714C10.9935 38.5714 9.71432 37.2922 9.71432 35.7143C9.71432 34.1363 10.9935 32.8571 12.5715 32.8571C14.1494 32.8571 15.4286 34.1363 15.4286 35.7143ZM25.9049 25.2381H24.0001C23.4741 25.2381 23.0477 24.8117 23.0477 24.2857C23.0477 23.7597 23.4741 23.3333 24.0001 23.3333H25.9049C26.4309 23.3333 26.8573 23.7597 26.8573 24.2857C26.8573 24.8117 26.4309 25.2381 25.9049 25.2381Z" fill="#0B0F17"/>
</svg>
