<svg width="48" height="48" viewBox="0 0 48 48" fill="none" xmlns="http://www.w3.org/2000/svg">
<path fill-rule="evenodd" clip-rule="evenodd" d="M25 13V22.2676C24.7058 22.0974 24.3642 22 24 22C23.6357 22 23.2941 22.0974 23 22.2676V13H25ZM22.9996 22.2678L14.9736 17.634L13.9736 19.366L21.9999 24L13.9736 28.634L14.9736 30.366L22.9996 25.7322C22.402 25.3864 22 24.7401 22 24C22 23.2599 22.402 22.6136 22.9996 22.2678ZM23 25.7324V35H25V25.7324C24.7058 25.9026 24.3642 26 24 26C23.6357 26 23.2941 25.9026 23 25.7324ZM25.0003 25.7322L33.0263 30.366L34.0263 28.634L26 24L34.0263 19.366L33.0263 17.634L25.0003 22.2678C25.5979 22.6136 26 23.2599 26 24C26 24.7401 25.5979 25.3864 25.0003 25.7322Z" fill="#61BE5A"/>
<path fill-rule="evenodd" clip-rule="evenodd" d="M42 24C42 14.0589 33.9411 6 24 6C14.0589 6 6 14.0589 6 24C6 33.9411 14.0589 42 24 42C33.9411 42 42 33.9411 42 24ZM8 24C8 15.1634 15.1634 8 24 8C32.8366 8 40 15.1634 40 24C40 32.8366 32.8366 40 24 40C15.1634 40 8 32.8366 8 24ZM36 24C36 17.3726 30.6274 12 24 12C17.3726 12 12 17.3726 12 24C12 30.6274 17.3726 36 24 36C30.6274 36 36 30.6274 36 24ZM14 24C14 18.4772 18.4772 14 24 14C29.5228 14 34 18.4772 34 24C34 29.5228 29.5228 34 24 34C18.4772 34 14 29.5228 14 24ZM24 20C26.2091 20 28 21.7909 28 24C28 26.2091 26.2091 28 24 28C21.7909 28 20 26.2091 20 24C20 21.7909 21.7909 20 24 20ZM24 22C22.8954 22 22 22.8954 22 24C22 25.1046 22.8954 26 24 26C25.1046 26 26 25.1046 26 24C26 22.8954 25.1046 22 24 22Z" fill="#0B0F17"/>
</svg>
