<svg width="48" height="48" viewBox="0 0 48 48" fill="none" xmlns="http://www.w3.org/2000/svg">
<path fill-rule="evenodd" clip-rule="evenodd" d="M11.3143 39.2571C7.27472 39.2571 4 35.9824 4 31.9428C4 27.9033 7.27472 24.6286 11.3143 24.6286C15.3539 24.6286 18.6286 27.9033 18.6286 31.9428C18.6286 35.9824 15.3539 39.2571 11.3143 39.2571ZM11.3143 37.4285C14.344 37.4285 16.8 34.9725 16.8 31.9428C16.8 28.9132 14.344 26.4571 11.3143 26.4571C8.28463 26.4571 5.82859 28.9132 5.82859 31.9428C5.82859 34.9725 8.28463 37.4285 11.3143 37.4285ZM35.0857 39.2571C31.0462 39.2571 27.7715 35.9824 27.7715 31.9428C27.7715 27.9033 31.0462 24.6286 35.0857 24.6286C39.1253 24.6286 42.4 27.9033 42.4 31.9428C42.4 35.9824 39.1253 39.2571 35.0857 39.2571ZM35.0858 37.4285C38.1154 37.4285 40.5715 34.9725 40.5715 31.9428C40.5715 28.9132 38.1154 26.4571 35.0858 26.4571C32.0561 26.4571 29.6 28.9132 29.6 31.9428C29.6 34.9725 32.0561 37.4285 35.0858 37.4285Z" fill="#61BE5A"/>
<path fill-rule="evenodd" clip-rule="evenodd" d="M17.9208 22.8234L17.0007 19.1429H15.8858C15.3809 19.1429 14.9715 18.7335 14.9715 18.2286C14.9715 17.7236 15.3809 17.3143 15.8858 17.3143H21.3715C21.8765 17.3143 22.2858 17.7236 22.2858 18.2286C22.2858 18.7335 21.8765 19.1429 21.3715 19.1429H18.8855L20.7704 26.6825C20.7802 26.674 20.7902 26.6657 20.8004 26.6575L29.8662 19.4049L29.6326 18.4704C29.6168 18.4128 29.6066 18.353 29.6024 18.2915C29.5968 18.2132 29.6016 18.1358 29.6156 18.0608C29.6178 18.0498 29.62 18.0388 29.6225 18.0278C29.6819 17.7649 29.8563 17.5361 30.1032 17.412C30.2093 17.3585 30.3272 17.3251 30.4519 17.3166C30.4798 17.3146 30.5075 17.3139 30.5351 17.3145H31.1722L29.8007 11.8286H28.6858C28.1809 11.8286 27.7715 11.4192 27.7715 10.9143C27.7715 10.4093 28.1809 10 28.6858 10H30.5144C30.9462 10 31.3081 10.2994 31.4039 10.7019L32.5998 15.4857H39.6579C40.282 15.4857 40.7226 16.0971 40.5253 16.6891L38.6967 22.1748C38.5723 22.5482 38.2229 22.8 37.8294 22.8H34.1722C33.7787 22.8 33.4293 22.5482 33.3048 22.1748L32.2943 19.1431H31.6856L35.0587 32.6356C35.1812 33.1255 34.8833 33.6219 34.3935 33.7443C33.9036 33.8668 33.4072 33.569 33.2847 33.0791L30.7675 23.0102L22.0739 33.4425C21.9062 33.6435 21.6538 33.7714 21.3715 33.7714H10.4001C9.89514 33.7714 9.4858 33.3621 9.4858 32.8571C9.4858 32.6369 9.56369 32.4348 9.69344 32.277L17.0005 23.1432C17.2274 22.8595 17.589 22.7468 17.9208 22.8234ZM18.32 24.4207L12.3023 31.9429H20.2006L18.32 24.4207ZM21.1654 28.2622L21.822 30.8885L28.5883 22.769L21.9428 28.0854C21.7156 28.2671 21.4284 28.3229 21.1654 28.2622ZM6.7429 22.8C6.23795 22.8 5.82861 22.3907 5.82861 21.8857C5.82861 21.3808 6.23795 20.9714 6.7429 20.9714H14.0572C14.5621 20.9714 14.9715 21.3808 14.9715 21.8857C14.9715 22.3907 14.5621 22.8 14.0572 22.8H6.7429ZM33.6122 17.3143L34.8313 20.9714H37.1704L38.3895 17.3143H33.6122Z" fill="#0B0F17"/>
</svg>
