<svg width="48" height="48" viewBox="0 0 48 48" fill="none" xmlns="http://www.w3.org/2000/svg">
<path fill-rule="evenodd" clip-rule="evenodd" d="M4 30.5585C4 27.5231 5.62747 24.7848 8.16701 23.4286L9.0643 25.1087C7.14746 26.1324 5.90476 28.2233 5.90476 30.5585C5.90476 33.9339 8.4752 36.6496 11.619 36.6496C14.7629 36.6496 17.3333 33.9339 17.3333 30.5585H19.2381C19.2381 34.9632 15.839 38.5544 11.619 38.5544C7.3991 38.5544 4 34.9632 4 30.5585ZM36.3809 38.6667C32.1796 38.6667 28.7618 35.3547 28.7618 31.2539C28.7618 30.7279 29.1882 30.3015 29.7142 30.3015C30.2402 30.3015 30.6666 30.7279 30.6666 31.2539C30.6666 34.2891 33.2184 36.7619 36.3809 36.7619C39.5434 36.7619 42.0951 34.2891 42.0951 31.2539C42.0951 29.6021 41.337 28.0692 40.0447 27.0271C39.6353 26.6969 39.5711 26.0973 39.9012 25.6879C40.2314 25.2784 40.831 25.2142 41.2404 25.5444C42.9741 26.9424 43.9999 29.0165 43.9999 31.2539C43.9999 35.3547 40.5822 38.6667 36.3809 38.6667Z" fill="#61BE5A"/>
<path fill-rule="evenodd" clip-rule="evenodd" d="M19.3056 23.4286C19.7677 20.1978 22.5462 17.7143 25.9048 17.7143H27.745L25.2146 14.9217C24.777 14.4387 24.9428 13.6688 25.5405 13.4088L27.3927 12.6032C29.4057 11.7277 31.726 11.8088 33.6685 12.8232L37.5396 14.8446C39.9977 16.1282 40.9158 19.1089 39.5711 21.4911C39.4383 21.7264 39.2859 21.9503 39.1156 22.1608C40.2864 22.8111 41.2743 23.768 41.9667 24.9605C42.2316 25.4169 42.0749 26.0018 41.6172 26.2646L36.8881 28.9798L38.1854 31.5743C38.4206 32.0447 38.2299 32.6168 37.7595 32.852C37.289 33.0873 36.7169 32.8966 36.4817 32.4261L35.2335 29.9297L30.1886 32.8262C29.7325 33.0881 29.1504 32.9306 28.8885 32.4745C28.8655 32.4343 28.8457 32.3933 28.8291 32.3515L26.5672 34.5828C26.389 34.7586 26.1487 34.8571 25.8984 34.8571H18.2857C17.7597 34.8571 17.3333 34.4307 17.3333 33.9048C17.3333 33.3788 17.7597 32.9524 18.2857 32.9524H20.3278C20.3081 32.9519 20.2885 32.9509 20.2688 32.9492C20.243 32.9513 20.2169 32.9524 20.1905 32.9524H10.6667C10.1407 32.9524 9.71429 32.526 9.71429 32C9.71429 31.474 10.1407 31.0476 10.6667 31.0476H17.0002L4.45141 23.2862C4.17079 23.1126 4 22.8061 4 22.4762C4 20.8982 5.27919 19.619 6.85714 19.619H12.5714C12.9322 19.619 13.2619 19.8229 13.4233 20.1455L15.0648 23.4286H19.3056V23.4286ZM21.2382 23.4286H23.7753L30.0707 20.2809L29.471 19.619L25.9048 19.619C23.6011 19.619 21.6794 21.255 21.2382 23.4286V23.4286ZM20.371 32.9524H25.5078L36.6761 21.9352C36.7447 21.8358 36.8308 21.7517 36.9287 21.686L37.407 21.2141C37.6067 21.0172 37.7767 20.7953 37.9125 20.5548C38.7234 19.1182 38.1703 17.3227 36.6581 16.533L32.7869 14.5116C31.355 13.7639 29.638 13.7038 28.1525 14.3499L27.5173 14.6262L32.3249 19.9319C32.7482 20.3991 32.609 21.1413 32.0451 21.4233L24.718 25.0868L21.2096 32.4114C21.0479 32.749 20.7163 32.9446 20.371 32.9524H20.371ZM37.7119 23.5888L31.1114 30.1L39.7682 25.1298C39.2096 24.4614 38.5066 23.9367 37.7119 23.5888V23.5888ZM6.85711 21.5238C6.49723 21.5238 6.18397 21.7234 6.02201 22.018L19.9497 30.6322L22.4878 25.3333H14.4762C14.1154 25.3333 13.7856 25.1295 13.6243 24.8069L11.9828 21.5238H6.85711Z" fill="#0B0F17"/>
</svg>
