<svg width="48" height="48" viewBox="0 0 48 48" fill="none" xmlns="http://www.w3.org/2000/svg">
<path fill-rule="evenodd" clip-rule="evenodd" d="M11.619 38.5714C7.41116 38.5714 4 35.1603 4 30.9524C4 26.7445 7.41116 23.3333 11.619 23.3333C15.8269 23.3333 19.2381 26.7445 19.2381 30.9524C19.2381 35.1603 15.8269 38.5714 11.619 38.5714ZM11.6191 36.6667C14.775 36.6667 17.3333 34.1083 17.3333 30.9524C17.3333 27.7965 14.775 25.2381 11.6191 25.2381C8.46315 25.2381 5.90477 27.7965 5.90477 30.9524C5.90477 34.1083 8.46315 36.6667 11.6191 36.6667ZM36.3809 38.5714C32.173 38.5714 28.7618 35.1603 28.7618 30.9524C28.7618 26.7445 32.173 23.3333 36.3809 23.3333C40.5887 23.3333 43.9999 26.7445 43.9999 30.9524C43.9999 35.1603 40.5887 38.5714 36.3809 38.5714ZM36.3809 36.6667C39.5368 36.6667 42.0952 34.1083 42.0952 30.9524C42.0952 27.7965 39.5368 25.2381 36.3809 25.2381C33.225 25.2381 30.6666 27.7965 30.6666 30.9524C30.6666 34.1083 33.225 36.6667 36.3809 36.6667Z" fill="#61BE5A"/>
<path fill-rule="evenodd" clip-rule="evenodd" d="M10.6758 32.8571C10.4577 32.8593 10.2377 32.787 10.0571 32.6364C9.65299 32.2997 9.59839 31.6992 9.93512 31.2951L18.4168 21.117L17.5424 17.619H16.381C15.855 17.619 15.4286 17.1927 15.4286 16.6667C15.4286 16.1407 15.855 15.7143 16.381 15.7143H22.0953C22.6213 15.7143 23.0477 16.1407 23.0477 16.6667C23.0477 17.1927 22.6213 17.619 22.0953 17.619H19.5057L19.9874 19.5455C20.0528 19.5313 20.1208 19.5238 20.1905 19.5238H31.3519L30.7003 16.9175C30.6786 16.8377 30.667 16.7537 30.667 16.6669C30.667 16.1409 31.0934 15.7145 31.6194 15.7145H32.2028L30.9329 11.9048H29.7144C29.1884 11.9048 28.762 11.4784 28.762 10.9524C28.762 10.4264 29.1884 10 29.7144 10H31.6191C32.018 9.99983 32.3898 10.2523 32.5229 10.6515L34.4276 16.3658C34.6332 16.9825 34.1742 17.6193 33.5241 17.6193H32.8391L36.3528 31.674C36.4804 32.1843 36.1701 32.7014 35.6599 32.8289C35.1496 32.9565 34.6325 32.6463 34.5049 32.136L31.8828 21.6475L22.843 32.4953C22.717 32.655 22.5391 32.7758 22.3265 32.8289C22.2391 32.8508 22.1515 32.8598 22.0656 32.8571H10.6758ZM12.7002 30.9524H20.8757L18.989 23.4057L12.7002 30.9524ZM20.6368 21.4286L20.4994 21.5934L22.5646 29.8541L29.5859 21.4286H20.6368Z" fill="#0B0F17"/>
</svg>
