<svg width="48" height="48" viewBox="0 0 48 48" fill="none" xmlns="http://www.w3.org/2000/svg">
<path fill-rule="evenodd" clip-rule="evenodd" d="M8.76193 21.1429C8.9354 21.1429 9.09804 21.0965 9.23812 21.0155C9.3782 21.0965 9.54084 21.1429 9.71431 21.1429C10.7663 21.1429 11.6191 21.9957 11.6191 23.0476C11.6191 24.0996 10.7663 24.9524 9.71431 24.9524C8.66234 24.9524 7.80955 24.0996 7.80955 23.0476C7.80955 22.5216 7.38315 22.0952 6.85717 22.0952C6.33118 22.0952 5.90479 22.5216 5.90479 23.0476C5.90479 25.1516 7.61037 26.8572 9.71431 26.8572C11.8183 26.8572 13.5238 25.1516 13.5238 23.0476C13.5238 20.9437 11.8183 19.2381 9.71431 19.2381V6.85715C9.71431 6.33117 9.28791 5.90477 8.76193 5.90477C8.23594 5.90477 7.80955 6.33117 7.80955 6.85715V20.1905C7.80955 20.7165 8.23594 21.1429 8.76193 21.1429ZM42.5128 23.0476C42.5906 23.0476 42.6682 23.0381 42.7437 23.0192C43.254 22.8916 43.7711 23.2019 43.8987 23.7121C44.0262 24.2224 43.716 24.7395 43.2057 24.8671C42.9791 24.9237 42.7464 24.9524 42.5128 24.9524H37.3333C35.7553 24.9524 34.4761 23.6732 34.4761 22.0952V18.2857C34.4761 16.7078 35.7553 15.4286 37.3333 15.4286H41.5604C42.0864 15.4286 42.5128 15.855 42.5128 16.381C42.5128 16.9069 42.0864 17.3333 41.5604 17.3333H37.3333C36.8073 17.3333 36.3809 17.7597 36.3809 18.2857V22.0952C36.3809 22.6212 36.8073 23.0476 37.3333 23.0476H42.5128Z" fill="#61BE5A"/>
<path fill-rule="evenodd" clip-rule="evenodd" d="M13.6864 28.7619C13.5811 28.464 13.5238 28.1435 13.5238 27.8095C13.5238 26.2316 14.803 24.9524 16.381 24.9524H17.4669L8.18635 8.36617C7.41 6.97868 7.87018 5.20657 9.22723 4.39813C10.6018 3.57923 12.3616 4.06578 13.1477 5.47067L22.6715 22.4916C23.1252 23.3023 23.1566 24.2443 22.8337 25.0487C24.0537 25.3742 24.9524 26.4869 24.9524 27.8095C24.9524 28.1435 24.8951 28.464 24.7898 28.7619H27.0198C26.9145 28.4639 26.8571 28.1433 26.8571 27.8092V14.4762C26.8571 12.8982 28.1363 11.619 29.7143 11.619C29.8518 11.619 29.9891 11.629 30.1252 11.6487L40.0102 13.0853C41.1614 13.2526 42.0963 14.1012 42.3739 15.2309L43.9174 21.5119C43.9723 21.735 44 21.964 44 22.1937V27.8092C44 28.541 43.7248 29.2086 43.2723 29.7141C43.7248 30.2196 44 30.8872 44 31.619V33.5238C44 35.1018 42.7208 36.381 41.1429 36.381H40.0951C40.1576 36.6887 40.1904 37.0072 40.1904 37.3333C40.1904 39.9633 38.0584 42.0952 35.4285 42.0952C32.7986 42.0952 30.6666 39.9633 30.6666 37.3333C30.6666 37.0072 30.6994 36.6887 30.7618 36.381H19.1429C19.2053 36.6887 19.2381 37.0072 19.2381 37.3333C19.2381 39.9633 17.1062 42.0952 14.4762 42.0952C11.8463 42.0952 9.71432 39.9633 9.71432 37.3333C9.71432 37.0072 9.74711 36.6887 9.80958 36.381H6.85714C5.27919 36.381 4 35.1018 4 33.5238V31.619C4 30.0411 5.27919 28.7619 6.85714 28.7619H13.6864ZM10.6144 34.5467C11.4794 33.3501 12.8869 32.5714 14.4762 32.5714C16.054 32.5714 17.4526 33.3388 18.3191 34.5207C18.4101 34.4918 18.5071 34.4762 18.6077 34.4762H31.6159L31.6186 34.4762C32.4874 33.3196 33.8706 32.5714 35.4285 32.5714C36.9864 32.5714 38.3696 33.3196 39.2384 34.4762L39.2407 34.4762H41.1429C41.6688 34.4762 42.0952 34.0498 42.0952 33.5238V31.619C42.0952 31.0931 41.6688 30.6667 41.1429 30.6667H6.85714C6.33116 30.6667 5.90476 31.0931 5.90476 31.619V33.5238C5.90476 34.0498 6.33116 34.4762 6.85714 34.4762H10.2542C10.3816 34.4762 10.5033 34.5012 10.6144 34.5467ZM10.2021 6.03454C9.73705 6.31156 9.57295 6.9435 9.84857 7.43609L19.3724 24.457C19.6383 24.9322 20.2083 25.0898 20.6558 24.8232C21.1208 24.5462 21.2849 23.9143 21.0093 23.4217L11.4855 6.40077C11.2196 5.92559 10.6495 5.76797 10.2021 6.03454ZM23.0477 27.8095C23.0477 28.3355 22.6213 28.7619 22.0953 28.7619H16.381C15.855 28.7619 15.4286 28.3355 15.4286 27.8095C15.4286 27.2835 15.855 26.8571 16.381 26.8571H22.0953C22.6213 26.8571 23.0477 27.2835 23.0477 27.8095ZM29.7142 13.5238C29.1882 13.5238 28.7618 13.9502 28.7618 14.4762V27.8092C28.7618 28.3352 29.1882 28.7616 29.7142 28.7616H41.1428C41.6688 28.7616 42.0951 28.3352 42.0951 27.8092V22.1937C42.0951 22.1172 42.0859 22.0408 42.0676 21.9665L40.5241 15.6855C40.4315 15.3089 40.1199 15.026 39.7362 14.9703L29.8512 13.5337C29.8058 13.5271 29.76 13.5238 29.7142 13.5238ZM38.2856 37.3333C38.2856 38.9113 37.0065 40.1905 35.4285 40.1905C33.8505 40.1905 32.5714 38.9113 32.5714 37.3333C32.5714 35.7554 33.8505 34.4762 35.4285 34.4762C37.0065 34.4762 38.2856 35.7554 38.2856 37.3333ZM14.4762 40.1905C16.0542 40.1905 17.3334 38.9113 17.3334 37.3333C17.3334 35.7554 16.0542 34.4762 14.4762 34.4762C12.8983 34.4762 11.6191 35.7554 11.6191 37.3333C11.6191 38.9113 12.8983 40.1905 14.4762 40.1905Z" fill="#0B0F17"/>
</svg>
