<svg width="48" height="48" viewBox="0 0 48 48" fill="none" xmlns="http://www.w3.org/2000/svg">
<path fill-rule="evenodd" clip-rule="evenodd" d="M6.85714 9H25.9048C27.4827 9 28.7619 10.2792 28.7619 11.8571V27.0952C28.7619 28.6732 27.4827 29.9524 25.9048 29.9524H6.85714C5.27919 29.9524 4 28.6732 4 27.0952V11.8571C4 10.2792 5.27919 9 6.85714 9ZM6.85715 10.9048C6.33117 10.9048 5.90477 11.3312 5.90477 11.8572V27.0952C5.90477 27.6212 6.33117 28.0476 6.85715 28.0476H25.9048C26.4308 28.0476 26.8572 27.6212 26.8572 27.0952V11.8572C26.8572 11.3312 26.4308 10.9048 25.9048 10.9048H6.85715ZM42.5127 22.3333C42.5906 22.3333 42.6682 22.3238 42.7437 22.3049C43.254 22.1773 43.7711 22.4876 43.8987 22.9979C44.0262 23.5081 43.716 24.0252 43.2057 24.1528C42.9791 24.2094 42.7464 24.2381 42.5127 24.2381H37.3333C35.7553 24.2381 34.4761 22.9589 34.4761 21.381V17.5714C34.4761 15.9935 35.7553 14.7143 37.3333 14.7143H41.5604C42.0864 14.7143 42.5127 15.1407 42.5127 15.6667C42.5127 16.1927 42.0864 16.6191 41.5604 16.6191H37.3333C36.8073 16.6191 36.3809 17.0454 36.3809 17.5714V21.381C36.3809 21.9069 36.8073 22.3333 37.3333 22.3333H42.5127Z" fill="#61BE5A"/>
<path fill-rule="evenodd" clip-rule="evenodd" d="M43.1325 28.8543C43.6675 29.3735 44 30.1003 44 30.9048V32.8095C44 34.3875 42.7208 35.6667 41.1429 35.6667H40.0951C40.1576 35.9744 40.1904 36.2929 40.1904 36.6191C40.1904 39.249 38.0584 41.381 35.4285 41.381C32.7986 41.381 30.6666 39.249 30.6666 36.6191C30.6666 36.2929 30.6994 35.9744 30.7618 35.6667H19.1429C19.2053 35.9744 19.2381 36.2929 19.2381 36.6191C19.2381 39.249 17.1062 41.381 14.4762 41.381C11.8463 41.381 9.71432 39.249 9.71432 36.6191C9.71432 36.2929 9.74711 35.9744 9.80958 35.6667H6.85714C5.27919 35.6667 4 34.3875 4 32.8095V30.9048C4 29.3268 5.27919 28.0476 6.85714 28.0476H27.1414C26.9593 27.6716 26.8571 27.2496 26.8571 26.8038V13.7619C26.8571 12.184 28.1363 10.9048 29.7143 10.9048C29.8495 10.9048 29.9845 10.9144 30.1183 10.9335L40.0097 12.3465C41.1596 12.5108 42.0957 13.355 42.3774 14.482L43.9147 20.631C43.9713 20.8577 44 21.0904 44 21.324V26.8038C44 27.6082 43.6675 28.335 43.1325 28.8543ZM10.6144 33.8324C11.4794 32.6358 12.8869 31.8572 14.4762 31.8572C16.054 31.8572 17.4526 32.6245 18.3191 33.8064C18.4101 33.7775 18.5071 33.7619 18.6077 33.7619H31.6159L31.6186 33.7619C32.4874 32.6053 33.8706 31.8572 35.4285 31.8572C36.9864 31.8572 38.3696 32.6053 39.2384 33.7619L39.2407 33.7619H41.1429C41.6688 33.7619 42.0952 33.3355 42.0952 32.8095V30.9048C42.0952 30.3788 41.6688 29.9524 41.1429 29.9524H6.85714C6.33116 29.9524 5.90476 30.3788 5.90476 30.9048V32.8095C5.90476 33.3355 6.33116 33.7619 6.85714 33.7619H10.2542C10.3816 33.7619 10.5033 33.787 10.6144 33.8324ZM29.7142 12.8095C29.1882 12.8095 28.7618 13.2359 28.7618 13.7619V26.8038C28.7618 27.3298 29.1882 27.7562 29.7142 27.7562H41.1428C41.6688 27.7562 42.0951 27.3298 42.0951 26.8038V21.324C42.0951 21.2461 42.0856 21.1686 42.0667 21.093L40.5294 14.944C40.4355 14.5683 40.1235 14.2869 39.7402 14.2322L29.8489 12.8191C29.8043 12.8127 29.7593 12.8095 29.7142 12.8095ZM38.2856 36.6191C38.2856 38.197 37.0065 39.4762 35.4285 39.4762C33.8505 39.4762 32.5714 38.197 32.5714 36.6191C32.5714 35.0411 33.8505 33.7619 35.4285 33.7619C37.0065 33.7619 38.2856 35.0411 38.2856 36.6191ZM14.4762 39.4762C16.0542 39.4762 17.3334 38.197 17.3334 36.6191C17.3334 35.0411 16.0542 33.7619 14.4762 33.7619C12.8983 33.7619 11.6191 35.0411 11.6191 36.6191C11.6191 38.197 12.8983 39.4762 14.4762 39.4762Z" fill="#0B0F17"/>
</svg>
