<svg width="80" height="74" viewBox="0 0 80 74" fill="none" xmlns="http://www.w3.org/2000/svg">
<path fill-rule="evenodd" clip-rule="evenodd" d="M64.5001 49.6639C64.0127 46.0398 60.9068 43.2331 57.1516 43.2331C53.3964 43.2331 50.2906 46.0398 49.8032 49.6639H39.8603H31.8833C31.4004 46.0342 28.2928 43.2224 24.5331 43.2224C20.7735 43.2224 17.6653 46.0342 17.1824 49.6639H8.62781V42.4594H11.0088C11.5499 42.4594 11.9892 42.0202 11.9892 41.479C11.9892 40.9373 11.5499 40.4986 11.0088 40.4986H8.62781V38.7227C8.62781 38.4045 8.84013 38.126 9.14658 38.0443L17.8132 35.7025C18.1757 35.6045 18.4497 35.3087 18.5202 34.9406L19.9768 27.3322C20.1404 26.4756 20.8922 25.8543 21.7651 25.8543H39.8603H49.0866C49.7371 25.8543 50.341 26.2022 50.6648 26.7664C52.7169 30.3036 55.6379 35.2543 55.6379 35.2543C55.7852 35.5053 56.0373 35.6767 56.3236 35.7238L70.6127 38.0555C70.8973 38.149 71.0928 38.4179 71.0928 38.7227V40.4986H68.7118C68.1701 40.4986 67.7315 40.9373 67.7315 41.479C67.7315 42.0202 68.1701 42.4594 68.7118 42.4594H71.0928V49.6639H64.5001Z" fill="white"/>
<path fill-rule="evenodd" clip-rule="evenodd" d="M66.7056 52.2232C66.2183 48.5992 63.1124 45.7924 59.3572 45.7924C55.602 45.7924 52.4961 48.5992 52.0087 52.2232H42.0659H34.0888C33.6059 48.5936 30.4984 45.7818 26.7387 45.7818C22.979 45.7818 19.8709 48.5936 19.388 52.2232H10.8334V45.0188H13.2143C13.7555 45.0188 14.1947 44.5796 14.1947 44.0384C14.1947 43.4966 13.7555 43.058 13.2143 43.058H10.8334V41.2821C10.8334 40.9639 11.0457 40.6854 11.3521 40.6036L20.0188 38.2619C20.3813 38.1639 20.6552 37.8681 20.7258 37.5L57.8435 37.8137C57.9908 38.0647 58.2429 38.2361 58.5292 38.2832L72.8183 40.6148C73.1028 40.7084 73.2984 40.9773 73.2984 41.2821V43.058H70.9174C70.3757 43.058 69.937 43.4966 69.937 44.0384C69.937 44.5796 70.3757 45.0188 70.9174 45.0188H73.2984V52.2232H66.7056Z" fill="#61BE5A"/>
<path fill-rule="evenodd" clip-rule="evenodd" d="M57.1517 43.2331C60.9069 43.2331 64.0127 46.0398 64.5001 49.6639H71.0929V42.4594H68.7119C68.1702 42.4594 67.7315 42.0202 67.7315 41.479C67.7315 40.9373 68.1702 40.4986 68.7119 40.4986H71.0929V38.7227C71.0929 38.4179 70.8973 38.149 70.6127 38.0555L56.3237 35.7238C56.0374 35.6768 55.7853 35.5053 55.638 35.2544C55.638 35.2544 52.7169 30.3037 50.6648 26.7664C50.341 26.2023 49.7371 25.8544 49.0867 25.8544H39.8604H21.7651C20.8923 25.8544 20.1405 26.4756 19.9769 27.3322L18.5203 34.9406C18.4497 35.3087 18.1758 35.6045 17.8133 35.7025L9.14663 38.0443C8.84019 38.1261 8.62787 38.4045 8.62787 38.7227V40.4986H11.0088C11.55 40.4986 11.9892 40.9373 11.9892 41.479C11.9892 42.0202 11.55 42.4594 11.0088 42.4594H8.62787V49.6639H17.1825C17.6654 46.0342 20.7735 43.2224 24.5332 43.2224C28.2929 43.2224 31.4004 46.0342 31.8833 49.6639H39.8604H49.8032C50.2906 46.0398 53.3965 43.2331 57.1517 43.2331ZM51.6896 50.6661C51.6952 53.6734 54.1428 56.1182 57.1512 56.1182C60.163 56.1182 62.6134 53.6678 62.6134 50.656C62.6134 47.6448 60.163 45.1939 57.1512 45.1939C54.1479 45.1939 51.7042 47.6303 51.6902 50.6303L51.6908 50.6345C51.6913 50.6376 51.6918 50.6408 51.6918 50.6443C51.6918 50.647 51.6916 50.6495 51.6912 50.652L51.6907 50.6556L51.6899 50.6613L51.6896 50.6661ZM19.0707 50.6454C19.0707 53.6571 21.5211 56.1075 24.5329 56.1075C27.5435 56.1075 29.9934 53.6588 29.9945 50.6482V50.6442V50.6409C29.9923 47.6314 27.543 45.1832 24.5329 45.1832C21.5211 45.1832 19.0707 47.6336 19.0707 50.6454ZM70.9872 36.13C71.0191 36.1356 71.0511 36.1423 71.0824 36.1507C72.2427 36.4616 73.0533 37.5188 73.0533 38.7227V50.6443C73.0533 51.186 72.6141 51.6246 72.0729 51.6246H64.5037C64.0264 55.2605 60.9155 58.079 57.1513 58.079C53.3872 58.079 50.2757 55.2605 49.799 51.6246H39.86H31.8836C31.4012 55.2549 28.2931 58.0683 24.5329 58.0683C20.7721 58.0683 17.6639 55.2549 17.1822 51.6246H7.64714C7.1054 51.6246 6.66675 51.186 6.66675 50.6443V38.7227C6.66675 37.5188 7.47683 36.4616 8.63706 36.1507L16.7093 33.9692L18.0511 26.9636C18.3906 25.1854 19.9519 23.8936 21.7648 23.8936H39.86H49.0864C50.4371 23.8936 51.6925 24.619 52.3625 25.7866C54.0623 28.7165 56.362 32.6224 57.0925 33.8627L70.9872 36.13ZM55.0505 50.6557C55.0505 51.8137 55.9933 52.7566 57.1513 52.7566C58.3093 52.7566 59.2522 51.8137 59.2522 50.6557C59.2522 49.4978 58.3093 48.5549 57.1513 48.5549C55.9933 48.5549 55.0505 49.4978 55.0505 50.6557ZM53.0894 50.6557C53.0894 48.416 54.9112 46.5941 57.151 46.5941C59.3908 46.5941 61.2126 48.416 61.2126 50.6557C61.2126 52.8955 59.3908 54.7174 57.151 54.7174C54.9112 54.7174 53.0894 52.8955 53.0894 50.6557ZM24.5326 52.7462C23.3741 52.7462 22.4318 51.8034 22.4318 50.6454C22.4318 49.4874 23.3741 48.5445 24.5326 48.5445C25.6911 48.5445 26.6334 49.4874 26.6334 50.6454C26.6334 51.8034 25.6911 52.7462 24.5326 52.7462ZM24.5323 46.5837C22.2925 46.5837 20.4706 48.4056 20.4706 50.6454C20.4706 52.8851 22.2925 54.707 24.5323 54.707C26.772 54.707 28.5939 52.8851 28.5939 50.6454C28.5939 48.4056 26.772 46.5837 24.5323 46.5837ZM22.1647 33.7736H28.2337V29.2128H23.0387L22.1647 33.7736ZM22.2279 27.252H29.2139C29.7551 27.252 30.1943 27.6912 30.1943 28.2324V34.7539C30.1943 35.2957 29.7551 35.7343 29.2139 35.7343H20.9786C20.6862 35.7343 20.4095 35.6044 20.2235 35.3786C20.0369 35.1534 19.9607 34.857 20.0162 34.5696L21.2655 28.048C21.3534 27.5864 21.7579 27.252 22.2279 27.252ZM33.5562 33.7734H38.7326V29.2126H33.5562V33.7734ZM39.7127 27.2524H32.5754C32.0343 27.2524 31.595 27.691 31.595 28.2328V34.7538C31.595 35.2955 32.0343 35.7342 32.5754 35.7342H39.7127C40.2544 35.7342 40.6931 35.2955 40.6931 34.7538V28.2328C40.6931 27.691 40.2544 27.2524 39.7127 27.2524ZM44.0544 29.2128V33.7736H50.8639C50.0438 32.3747 49.0701 30.7119 48.2006 29.2128H44.0544ZM49.6143 27.7416C50.6423 29.5186 51.8675 31.6088 52.8216 33.2363L53.421 34.2581C53.5986 34.5612 53.6003 34.9366 53.4261 35.2413C53.2507 35.5461 52.9264 35.7343 52.5751 35.7343H43.0737C42.532 35.7343 42.0933 35.2957 42.0933 34.7539V28.2324C42.0933 27.6912 42.532 27.252 43.0737 27.252H48.7656C49.1157 27.252 49.439 27.4385 49.6143 27.7416ZM46.435 38.257H43.0737C42.532 38.257 42.0933 38.6956 42.0933 39.2374C42.0933 39.7791 42.532 40.2177 43.0737 40.2177H46.435C46.9768 40.2177 47.4154 39.7791 47.4154 39.2374C47.4154 38.6956 46.9768 38.257 46.435 38.257ZM20.9788 38.257H24.3402C24.8814 38.257 25.3206 38.6956 25.3206 39.2374C25.3206 39.7791 24.8814 40.2177 24.3402 40.2177H20.9788C20.4377 40.2177 19.9984 39.7791 19.9984 39.2374C19.9984 38.6956 20.4377 38.257 20.9788 38.257Z" fill="#0B0F17"/>
</svg>
