<svg width="128" height="128" viewBox="0 0 128 128" fill="none" xmlns="http://www.w3.org/2000/svg">
<path fill-rule="evenodd" clip-rule="evenodd" d="M113.466 118.8H119.066L121.772 110.678C122.362 108.912 121.56 106.984 119.893 106.155L119.045 105.733L117.8 99.7936C117.014 96.0528 114.03 93.1707 110.264 92.5155L95.0325 89.8667L73.3325 72.3387C71.673 70.9984 69.6029 70.2667 67.4674 70.2667H29.813C26.8114 70.2667 23.9946 71.7077 22.2399 74.1419L13.5991 86.1333H7.5642C6.11194 86.1333 5.21594 87.7163 5.9626 88.9613L9.8658 95.4667V105.733C7.46527 105.733 5.67514 107.949 6.17727 110.295L7.99914 118.8H13.5991" fill="#61BE5A"/>
<path fill-rule="evenodd" clip-rule="evenodd" d="M32.9968 77.9613L30.8968 83.5613C29.7525 86.6114 32.0074 89.8669 35.2666 89.8669H95.0336L76.5442 74.9335H37.3666C35.4216 74.9335 33.68 76.1394 32.9968 77.9613ZM29.4667 126.267C36.168 126.267 41.6 120.835 41.6 114.133C41.6 107.432 36.168 102 29.4667 102C22.7654 102 17.3334 107.432 17.3334 114.133C17.3334 120.835 22.7654 126.267 29.4667 126.267ZM97.5991 126.267C104.3 126.267 109.732 120.835 109.732 114.133C109.732 107.432 104.3 102 97.5991 102C90.8978 102 85.4658 107.432 85.4658 114.133C85.4658 120.835 90.8978 126.267 97.5991 126.267ZM117.801 99.7936L119.046 105.733H113.87L111.488 100.968C110.868 99.7264 111.77 98.2667 113.156 98.2667H117.328C117.523 98.7576 117.689 99.2635 117.801 99.7936Z" fill="white"/>
<path fill-rule="evenodd" clip-rule="evenodd" d="M119.066 119.733H113.466C112.951 119.733 112.532 119.315 112.532 118.8C112.532 118.285 112.951 117.867 113.466 117.867H118.394L120.888 110.383C121.326 109.067 120.722 107.609 119.478 106.991L118.829 106.667H113.87C113.517 106.667 113.194 106.467 113.035 106.151L110.653 101.386C110.215 100.51 110.261 99.4931 110.775 98.6624C111.288 97.8299 112.179 97.3333 113.159 97.3333H115.842C114.61 95.3019 112.548 93.8596 110.104 93.4339L94.9567 90.7998H55.6182L55.5991 90.8L55.5801 90.7998H35.2672C33.4304 90.7998 31.7093 89.8982 30.664 88.3899C29.6187 86.8817 29.3779 84.9515 30.0219 83.2323L32.1219 77.6323C32.9376 75.4595 35.0451 73.9998 37.3672 73.9998H73.9039L72.7463 73.0648C71.2567 71.8608 69.3826 71.2 67.4674 71.2H29.813C27.1194 71.2 24.5714 72.5029 22.9978 74.6888L14.357 86.6784C14.1815 86.9229 13.8996 87.0667 13.5991 87.0667H7.56417C7.07137 87.0667 6.83244 87.3971 6.75217 87.5389C6.67191 87.6827 6.51137 88.0579 6.76337 88.4797L10.6666 94.9851C10.7543 95.1307 10.7991 95.2968 10.7991 95.4667V105.733C10.7991 106.249 10.3828 106.667 9.86577 106.667C9.00524 106.667 8.20071 107.051 7.65937 107.719C7.11804 108.391 6.91084 109.258 7.09004 110.099L8.75511 117.867H13.5991C14.1162 117.867 14.5324 118.285 14.5324 118.8C14.5324 119.315 14.1162 119.733 13.5991 119.733H7.99911C7.56044 119.733 7.17964 119.425 7.08817 118.994L5.26631 110.491C4.96577 109.095 5.30924 107.658 6.20711 106.547C6.90524 105.683 7.86844 105.106 8.93244 104.891V95.7261L5.16177 89.4392C4.63724 88.5637 4.62231 87.5091 5.12631 86.6205C5.63031 85.7301 6.54124 85.2 7.56417 85.2H13.1231L21.482 73.5968C23.4066 70.9275 26.5202 69.3333 29.813 69.3333H67.4674C69.8063 69.3333 72.0986 70.1435 73.9186 71.6125L77.0919 74.1756C77.1051 74.1851 77.1181 74.195 77.1309 74.2052L95.4365 88.9886L110.425 91.5952C114.593 92.3195 117.845 95.4629 118.713 99.6032L119.867 105.099L120.309 105.319C122.379 106.349 123.389 108.78 122.659 110.975L119.952 119.095C119.824 119.476 119.467 119.733 119.066 119.733ZM117.896 104.8H114.447L112.322 100.551C112.111 100.13 112.281 99.7768 112.363 99.6424C112.445 99.5099 112.688 99.2 113.159 99.2H116.672C116.747 99.4288 116.809 99.6484 116.859 99.8632C116.868 99.904 116.877 99.9449 116.886 99.9859L117.865 104.649L117.896 104.8ZM56.5325 88.9331H92.3916L80.4972 79.3255L76.2144 75.8665H56.5325V88.9331ZM54.6658 75.8665V88.9331H35.2672C34.024 88.9331 32.9059 88.347 32.1984 87.3259C31.4909 86.3049 31.3341 85.0523 31.7709 83.8894L33.8709 78.2894C34.4141 76.8409 35.8197 75.8665 37.3672 75.8665H54.6658ZM5.20006 127.2H10.8001C11.3153 127.2 11.7334 126.782 11.7334 126.267C11.7334 125.751 11.3153 125.333 10.8001 125.333H5.20006C4.68486 125.333 4.26672 125.751 4.26672 126.267C4.26672 126.782 4.68486 127.2 5.20006 127.2ZM14.5324 127.2H29.4667H97.5991H122.799C123.314 127.2 123.732 126.782 123.732 126.267C123.732 125.751 123.314 125.333 122.799 125.333H104.322C108.12 123.045 110.666 118.88 110.666 114.133C110.666 106.928 104.803 101.067 97.5991 101.067C90.3956 101.067 84.5324 106.928 84.5324 114.133C84.5324 118.88 87.0782 123.045 90.8757 125.333H36.1909C39.9884 123.045 42.5334 118.88 42.5334 114.133C42.5334 106.928 36.6721 101.067 29.4667 101.067C22.2614 101.067 16.4001 106.928 16.4001 114.133C16.4001 118.88 18.945 123.045 22.7425 125.333H14.5324C14.0172 125.333 13.5991 125.751 13.5991 126.267C13.5991 126.782 14.0172 127.2 14.5324 127.2ZM18.2667 114.133C18.2667 120.31 23.2899 125.333 29.4667 125.333C35.6435 125.333 40.6667 120.31 40.6667 114.133C40.6667 107.957 35.6435 102.933 29.4667 102.933C23.2899 102.933 18.2667 107.957 18.2667 114.133ZM108.799 114.133C108.799 120.31 103.776 125.333 97.5991 125.333C91.4223 125.333 86.3991 120.31 86.3991 114.133C86.3991 107.957 91.4223 102.933 97.5991 102.933C103.776 102.933 108.799 107.957 108.799 114.133ZM45.3325 119.733H81.7325C82.2477 119.733 82.6658 119.315 82.6658 118.8C82.6658 118.285 82.2477 117.867 81.7325 117.867H45.3325C44.8173 117.867 44.3991 118.285 44.3991 118.8C44.3991 119.315 44.8173 119.733 45.3325 119.733ZM91.9991 114.133C91.9991 111.046 94.5116 108.533 97.5991 108.533C100.687 108.533 103.199 111.046 103.199 114.133C103.199 117.221 100.687 119.733 97.5991 119.733C94.5116 119.733 91.9991 117.221 91.9991 114.133ZM90.1324 114.133C90.1324 118.249 93.4812 121.6 97.5991 121.6C101.717 121.6 105.066 118.249 105.066 114.133C105.066 110.015 101.717 106.667 97.5991 106.667C93.4812 106.667 90.1324 110.015 90.1324 114.133ZM23.8667 114.133C23.8667 111.046 26.3793 108.533 29.4667 108.533C32.5542 108.533 35.0667 111.046 35.0667 114.133C35.0667 117.221 32.5542 119.733 29.4667 119.733C26.3793 119.733 23.8667 117.221 23.8667 114.133ZM22.0001 114.133C22.0001 118.249 25.3489 121.6 29.4667 121.6C33.5846 121.6 36.9334 118.249 36.9334 114.133C36.9334 110.015 33.5846 106.667 29.4667 106.667C25.3489 106.667 22.0001 110.015 22.0001 114.133ZM92.2324 99.1054C92.2324 99.6206 92.6506 100.039 93.1658 100.039C93.681 100.039 94.0991 99.6206 94.0991 99.1054V93.6006C94.0991 93.0835 93.681 92.6672 93.1658 92.6672C92.6506 92.6672 92.2324 93.0835 92.2324 93.6006V99.1054ZM55.5991 116C55.0839 116 54.6658 115.582 54.6658 115.067V93.6C54.6658 93.0848 55.0839 92.6667 55.5991 92.6667C56.1143 92.6667 56.5325 93.0848 56.5325 93.6V115.067C56.5325 115.582 56.1143 116 55.5991 116ZM17.5667 91.7333C17.0515 91.7333 16.6334 92.1515 16.6334 92.6667V96.3981C16.6334 96.9133 17.0515 97.3315 17.5667 97.3315H21.3001C21.8153 97.3315 22.2334 96.9133 22.2334 96.3981V92.6667C22.2334 92.1515 21.8153 91.7333 21.3001 91.7333H17.5667ZM21.3001 99.1981H17.5667C16.023 99.1981 14.7667 97.9419 14.7667 96.3981V92.6667C14.7667 91.1229 16.023 89.8667 17.5667 89.8667H21.3001C22.8438 89.8667 24.1001 91.1229 24.1001 92.6667V96.3981C24.1001 97.9419 22.8438 99.1981 21.3001 99.1981Z" fill="#0B0F17"/>
<path fill-rule="evenodd" clip-rule="evenodd" d="M110.756 49.467H75.2892C72.7132 49.467 70.6226 47.3782 70.6226 44.8004V20.5337C70.6226 17.9558 72.7132 15.867 75.2892 15.867H110.756C113.334 15.867 115.423 17.9558 115.423 20.5337V44.8004C115.423 47.3782 113.334 49.467 110.756 49.467" fill="#F9DF13"/>
<path fill-rule="evenodd" clip-rule="evenodd" d="M87.1638 42.1463C86.5404 42.1463 85.9561 41.9037 85.5137 41.4632C84.6046 40.5522 84.6046 39.0738 85.5137 38.1629L94.9198 28.7567H88.5937C87.3057 28.7567 86.2604 27.7114 86.2604 26.4234C86.2604 25.1373 87.3057 24.0901 88.5937 24.0901H100.553C101.84 24.0901 102.887 25.1373 102.887 26.4234V38.3831C102.887 39.6711 101.84 40.7165 100.553 40.7165C99.2654 40.7165 98.2201 39.6711 98.2201 38.3831V32.057L88.814 41.4632C88.3716 41.9037 87.7873 42.1463 87.1638 42.1463" fill="white"/>
<path fill-rule="evenodd" clip-rule="evenodd" d="M35.7812 35.8208H58.1812C58.6964 35.8208 59.1146 35.4026 59.1146 34.8874C59.1146 34.3722 58.6964 33.9541 58.1812 33.9541H35.7812C35.266 33.9541 34.8479 34.3722 34.8479 34.8874C34.8479 35.4026 35.266 35.8208 35.7812 35.8208ZM22.2333 41.4208H20.3667C19.8515 41.4208 19.4333 41.0026 19.4333 40.4874C19.4333 39.9722 19.8515 39.5541 20.3667 39.5541H22.2333C22.7485 39.5541 23.1667 39.9722 23.1667 40.4874C23.1667 41.0026 22.7485 41.4208 22.2333 41.4208ZM48.3667 41.4208H25.9667C25.4515 41.4208 25.0333 41.0026 25.0333 40.4874C25.0333 39.9722 25.4515 39.5541 25.9667 39.5541H48.3667C48.8819 39.5541 49.3 39.9722 49.3 40.4874C49.3 41.0026 48.8819 41.4208 48.3667 41.4208Z" fill="#0B0F17"/>
<path fill-rule="evenodd" clip-rule="evenodd" d="M71.5569 20.5337C71.5569 18.4729 73.2313 16.8004 75.2902 16.8004H110.757C112.816 16.8004 114.49 18.4729 114.49 20.5337V44.8004C114.49 46.8593 112.816 48.5337 110.757 48.5337H75.2902C73.2313 48.5337 71.5569 46.8593 71.5569 44.8004V20.5337ZM75.2902 50.4004H110.757C113.844 50.4004 116.357 47.8878 116.357 44.8004V20.5337C116.357 17.4462 113.844 14.9337 110.757 14.9337H75.2902C72.2027 14.9337 69.6902 17.4462 69.6902 20.5337V44.8004C69.6902 47.8878 72.2027 50.4004 75.2902 50.4004ZM88.5933 23.1569H100.553C102.354 23.1569 103.82 24.6223 103.82 26.4236V38.3833C103.82 40.1847 102.354 41.65 100.553 41.65C98.7517 41.65 97.2864 40.1847 97.2864 38.3833V34.3103L89.4725 42.1223C88.8565 42.7401 88.0352 43.0799 87.1635 43.0799C86.2917 43.0799 85.4704 42.7401 84.8544 42.1223C83.5795 40.8492 83.5795 38.7772 84.8544 37.5041L92.6664 29.6903H88.5933C86.792 29.6903 85.3267 28.2249 85.3267 26.4236C85.3267 24.6223 86.792 23.1569 88.5933 23.1569ZM101.953 26.4236C101.953 25.6508 101.326 25.0236 100.553 25.0236H88.5933C87.8205 25.0236 87.1933 25.6508 87.1933 26.4236C87.1933 27.1964 87.8205 27.8236 88.5933 27.8236H97.1725L86.1741 38.8239C85.6272 39.3708 85.6272 40.2556 86.1741 40.8025C86.4467 41.0769 86.8051 41.2132 87.1635 41.2132C87.5219 41.2132 87.8803 41.0769 88.1528 40.8025L99.1531 29.8041V38.3833C99.1531 39.1561 99.7803 39.7833 100.553 39.7833C101.326 39.7833 101.953 39.1561 101.953 38.3833V26.4236Z" fill="#0B0F17"/>
</svg>
