<svg width="128" height="128" viewBox="0 0 128 128" fill="none" xmlns="http://www.w3.org/2000/svg">
<path fill-rule="evenodd" clip-rule="evenodd" d="M109.907 29.4993C109.708 17.8903 100.098 8.53333 88.2667 8.53333C76.3107 8.53333 66.6237 18.0883 66.6237 29.8667C66.6237 41.645 76.3107 51.2 88.2667 51.2C100.098 51.2 109.708 41.8431 109.907 30.234L109.91 29.8667L109.907 29.4993Z" fill="#2A77FC"/>
<path fill-rule="evenodd" clip-rule="evenodd" d="M113.466 111.334H119.066L121.772 103.212C122.362 101.446 121.56 99.5177 119.893 98.6889L119.045 98.267L117.8 92.3273C117.014 88.5865 114.03 85.7044 110.264 85.0492L95.0325 82.4004L73.3325 64.8724C71.673 63.5321 69.6029 62.8004 67.4674 62.8004H29.813C26.8114 62.8004 23.9946 64.2414 22.2399 66.6756L13.5991 78.667H7.5642C6.11194 78.667 5.21594 80.25 5.9626 81.495L9.8658 88.0004V98.267C7.46527 98.267 5.67514 100.483 6.17727 102.829L7.99914 111.334H13.5991" fill="#61BE5A"/>
<path fill-rule="evenodd" clip-rule="evenodd" d="M32.9968 70.495L30.8968 76.095C29.7525 79.1451 32.0074 82.4006 35.2666 82.4006H95.0336L76.5442 67.4672H37.3666C35.4216 67.4672 33.68 68.6731 32.9968 70.495ZM29.4667 118.8C36.168 118.8 41.6 113.368 41.6 106.667C41.6 99.9657 36.168 94.5337 29.4667 94.5337C22.7654 94.5337 17.3334 99.9657 17.3334 106.667C17.3334 113.368 22.7654 118.8 29.4667 118.8ZM97.5991 118.8C104.3 118.8 109.732 113.368 109.732 106.667C109.732 99.9657 104.3 94.5337 97.5991 94.5337C90.8978 94.5337 85.4658 99.9657 85.4658 106.667C85.4658 113.368 90.8978 118.8 97.5991 118.8ZM117.801 92.3273L119.046 98.267H113.87L111.488 93.5014C110.868 92.2601 111.77 90.8004 113.156 90.8004H117.328C117.523 91.2913 117.689 91.7972 117.801 92.3273Z" fill="white"/>
<path fill-rule="evenodd" clip-rule="evenodd" d="M119.066 112.267H113.466C112.951 112.267 112.532 111.849 112.532 111.334C112.532 110.819 112.951 110.4 113.466 110.4H118.394L120.888 102.917C121.326 101.601 120.722 100.143 119.478 99.5252L118.829 99.2004H113.87C113.517 99.2004 113.194 99.0006 113.035 98.6852L110.653 93.9196C110.215 93.0441 110.261 92.0268 110.775 91.1961C111.288 90.3636 112.179 89.867 113.159 89.867H115.842C114.61 87.8356 112.548 86.3933 110.104 85.9676L94.9567 83.3335H55.6182L55.5991 83.3337L55.5801 83.3335H35.2672C33.4304 83.3335 31.7093 82.4319 30.664 80.9237C29.6187 79.4154 29.3779 77.4853 30.0219 75.7661L32.1219 70.1661C32.9376 67.9933 35.0451 66.5335 37.3672 66.5335H73.9039L72.7463 65.5985C71.2567 64.3945 69.3826 63.7337 67.4674 63.7337H29.813C27.1194 63.7337 24.5714 65.0366 22.9978 67.2225L14.357 79.2121C14.1815 79.4566 13.8996 79.6004 13.5991 79.6004H7.56417C7.07137 79.6004 6.83244 79.9308 6.75217 80.0726C6.67191 80.2164 6.51137 80.5916 6.76337 81.0134L10.6666 87.5188C10.7543 87.6644 10.7991 87.8305 10.7991 88.0004V98.267C10.7991 98.7822 10.3828 99.2004 9.86577 99.2004C9.00524 99.2004 8.20071 99.5849 7.65937 100.253C7.11804 100.925 6.91084 101.791 7.09004 102.633L8.75511 110.4H13.5991C14.1162 110.4 14.5324 110.819 14.5324 111.334C14.5324 111.849 14.1162 112.267 13.5991 112.267H7.99911C7.56044 112.267 7.17964 111.959 7.08817 111.528L5.26631 103.025C4.96577 101.629 5.30924 100.192 6.20711 99.0809C6.90524 98.2166 7.86844 97.6398 8.93244 97.4252V88.2598L5.16177 81.9729C4.63724 81.0974 4.62231 80.0428 5.12631 79.1542C5.63031 78.2638 6.54124 77.7337 7.56417 77.7337H13.1231L21.482 66.1305C23.4066 63.4612 26.5202 61.867 29.813 61.867H67.4674C69.8063 61.867 72.0986 62.6772 73.9186 64.1462L77.0919 66.7093C77.1051 66.7188 77.1181 66.7287 77.1309 66.7389L95.4365 81.5223L110.425 84.1289C114.593 84.8532 117.845 87.9966 118.713 92.1369L119.867 97.6324L120.309 97.8526C122.379 98.883 123.389 101.313 122.659 103.509L119.952 111.629C119.824 112.009 119.467 112.267 119.066 112.267ZM117.896 97.3337H114.447L112.322 93.0852C112.111 92.6633 112.281 92.3105 112.363 92.1761C112.445 92.0436 112.688 91.7337 113.159 91.7337H116.672C116.747 91.9625 116.809 92.1821 116.859 92.3969C116.868 92.4376 116.877 92.4785 116.886 92.5196L117.867 97.1928L117.896 97.3337ZM56.5325 81.4669H92.3916L80.4662 71.8342L76.2144 68.4002H56.5325V81.4669ZM54.6658 68.4002V81.4669H35.2672C34.024 81.4669 32.9059 80.8807 32.1984 79.8596C31.4909 78.8386 31.3341 77.5861 31.7709 76.4231L33.8709 70.8231C34.4141 69.3746 35.8197 68.4002 37.3672 68.4002H54.6658ZM5.20006 119.734H10.8001C11.3153 119.734 11.7334 119.316 11.7334 118.8C11.7334 118.285 11.3153 117.867 10.8001 117.867H5.20006C4.68486 117.867 4.26672 118.285 4.26672 118.8C4.26672 119.316 4.68486 119.734 5.20006 119.734ZM14.5324 119.734H29.4667H97.5991H122.799C123.314 119.734 123.732 119.316 123.732 118.8C123.732 118.285 123.314 117.867 122.799 117.867H104.322C108.12 115.578 110.666 111.414 110.666 106.667C110.666 99.4617 104.803 93.6004 97.5991 93.6004C90.3956 93.6004 84.5324 99.4617 84.5324 106.667C84.5324 111.414 87.0782 115.578 90.8757 117.867H36.1909C39.9884 115.578 42.5334 111.414 42.5334 106.667C42.5334 99.4617 36.6721 93.6004 29.4667 93.6004C22.2614 93.6004 16.4001 99.4617 16.4001 106.667C16.4001 111.414 18.945 115.578 22.7425 117.867H14.5324C14.0172 117.867 13.5991 118.285 13.5991 118.8C13.5991 119.316 14.0172 119.734 14.5324 119.734ZM18.2667 106.667C18.2667 112.844 23.2899 117.867 29.4667 117.867C35.6435 117.867 40.6667 112.844 40.6667 106.667C40.6667 100.49 35.6435 95.467 29.4667 95.467C23.2899 95.467 18.2667 100.49 18.2667 106.667ZM108.799 106.667C108.799 112.844 103.776 117.867 97.5991 117.867C91.4223 117.867 86.3991 112.844 86.3991 106.667C86.3991 100.49 91.4223 95.467 97.5991 95.467C103.776 95.467 108.799 100.49 108.799 106.667ZM45.3325 112.267H81.7325C82.2477 112.267 82.6658 111.849 82.6658 111.334C82.6658 110.819 82.2477 110.4 81.7325 110.4H45.3325C44.8173 110.4 44.3991 110.819 44.3991 111.334C44.3991 111.849 44.8173 112.267 45.3325 112.267ZM91.9991 106.667C91.9991 103.58 94.5116 101.067 97.5991 101.067C100.687 101.067 103.199 103.58 103.199 106.667C103.199 109.755 100.687 112.267 97.5991 112.267C94.5116 112.267 91.9991 109.755 91.9991 106.667ZM90.1324 106.667C90.1324 110.783 93.4812 114.134 97.5991 114.134C101.717 114.134 105.066 110.783 105.066 106.667C105.066 102.549 101.717 99.2004 97.5991 99.2004C93.4812 99.2004 90.1324 102.549 90.1324 106.667ZM23.8667 106.667C23.8667 103.58 26.3793 101.067 29.4667 101.067C32.5542 101.067 35.0667 103.58 35.0667 106.667C35.0667 109.755 32.5542 112.267 29.4667 112.267C26.3793 112.267 23.8667 109.755 23.8667 106.667ZM22.0001 106.667C22.0001 110.783 25.3489 114.134 29.4667 114.134C33.5846 114.134 36.9334 110.783 36.9334 106.667C36.9334 102.549 33.5846 99.2004 29.4667 99.2004C25.3489 99.2004 22.0001 102.549 22.0001 106.667ZM92.2324 91.6391C92.2324 92.1543 92.6506 92.5724 93.1658 92.5724C93.681 92.5724 94.0991 92.1543 94.0991 91.6391V86.1343C94.0991 85.6172 93.681 85.2009 93.1658 85.2009C92.6506 85.2009 92.2324 85.6172 92.2324 86.1343V91.6391ZM55.5991 108.534C55.0839 108.534 54.6658 108.116 54.6658 107.6V86.1337C54.6658 85.6185 55.0839 85.2004 55.5991 85.2004C56.1143 85.2004 56.5325 85.6185 56.5325 86.1337V107.6C56.5325 108.116 56.1143 108.534 55.5991 108.534ZM17.5667 84.267C17.0515 84.267 16.6334 84.6852 16.6334 85.2004V88.9318C16.6334 89.447 17.0515 89.8652 17.5667 89.8652H21.3001C21.8153 89.8652 22.2334 89.447 22.2334 88.9318V85.2004C22.2334 84.6852 21.8153 84.267 21.3001 84.267H17.5667ZM21.3001 91.7318H17.5667C16.023 91.7318 14.7667 90.4756 14.7667 88.9318V85.2004C14.7667 83.6566 16.023 82.4004 17.5667 82.4004H21.3001C22.8438 82.4004 24.1001 83.6566 24.1001 85.2004V88.9318C24.1001 90.4756 22.8438 91.7318 21.3001 91.7318Z" fill="#0B0F17"/>
<path fill-rule="evenodd" clip-rule="evenodd" d="M84.7991 60.8C84.7991 61.2784 85.1873 61.6667 85.6657 61.6667C86.1441 61.6667 86.5324 61.2784 86.5324 60.8V47.8C86.5324 47.3216 86.1441 46.9333 85.6657 46.9333C85.1873 46.9333 84.7991 47.3216 84.7991 47.8V60.8ZM84.7991 66C84.7991 66.4784 85.1873 66.8667 85.6657 66.8667C86.1441 66.8667 86.5324 66.4784 86.5324 66V64.2667C86.5324 63.7883 86.1441 63.4 85.6657 63.4C85.1873 63.4 84.7991 63.7883 84.7991 64.2667V66ZM90.8657 58.9333C90.3873 58.9333 89.9991 58.5451 89.9991 58.0667V56.3333C89.9991 55.8549 90.3873 55.4667 90.8657 55.4667C91.3441 55.4667 91.7324 55.8549 91.7324 56.3333V58.0667C91.7324 58.5451 91.3441 58.9333 90.8657 58.9333ZM89.9991 74.5333C89.9991 75.0117 90.3873 75.4 90.8657 75.4C91.3441 75.4 91.7324 75.0117 91.7324 74.5333V61.5333C91.7324 61.0549 91.3441 60.6667 90.8657 60.6667C90.3873 60.6667 89.9991 61.0549 89.9991 61.5333V74.5333Z" fill="#0B0F17"/>
<path fill-rule="evenodd" clip-rule="evenodd" d="M86.2815 23.2791C85.7603 23.6532 85.4155 24.1622 85.3033 24.7326C85.1333 25.5927 85.5262 26.4252 86.2815 26.968V23.2791ZM89.7214 37.8106C91.1727 37.3016 92.2456 36.2161 92.5005 34.9206C92.8453 33.1758 91.6394 31.4771 89.7214 30.8009V37.8106ZM88.0006 43.7333C87.0529 43.7333 86.2815 43.0986 86.2815 42.3182V40.8249C83.2233 40.3082 80.7953 38.3979 80.0496 35.8865C79.9406 35.5185 80.0127 35.1398 80.2517 34.8163C80.4906 34.4944 80.8675 34.2675 81.3117 34.177C81.4528 34.1509 81.5811 34.1402 81.711 34.1402C82.5129 34.1402 83.204 34.5833 83.3917 35.2165C83.7621 36.466 84.8542 37.4549 86.2815 37.8919V30.1417C83.2906 29.3475 81.3983 26.8744 81.9083 24.2818C82.2996 22.301 83.985 20.7095 86.2815 20.1054V18.4818C86.2815 17.7014 87.0529 17.0667 88.0006 17.0667C88.95 17.0667 89.7214 17.7014 89.7214 18.4818V19.9782C91.9024 20.3952 93.66 21.7091 94.3672 23.4738C94.6655 24.2144 94.1748 25.0162 93.2735 25.2585C93.0923 25.306 92.9159 25.329 92.7379 25.329C91.9938 25.329 91.3347 24.9396 91.1021 24.3616C90.8648 23.7667 90.3661 23.2822 89.7214 22.9878V27.8388C93.8973 28.6775 96.5723 31.9355 95.8955 35.3729C95.3663 38.0667 92.9239 40.1763 89.7214 40.7758V42.3182C89.7214 43.0986 88.95 43.7333 88.0006 43.7333V43.7333Z" fill="white"/>
<path fill-rule="evenodd" clip-rule="evenodd" d="M112.04 30.2548C111.83 43.0389 101.263 53.3333 88.2667 53.3333C75.1391 53.3333 64.4904 42.8298 64.4904 29.8667C64.4904 16.9035 75.1391 6.4 88.2667 6.4C101.263 6.4 111.83 16.6945 112.04 29.4785L112.043 29.8667L112.04 30.2548ZM109.907 29.4993C109.708 17.8903 100.098 8.53334 88.2667 8.53334C76.3108 8.53334 66.6237 18.0883 66.6237 29.8667C66.6237 41.645 76.3108 51.2 88.2667 51.2C100.098 51.2 109.708 41.8431 109.907 30.234L109.91 29.8667L109.907 29.4993ZM90.3973 32.0409V36.8096C91.0057 36.3265 91.4274 35.6762 91.5643 34.9469C91.7682 33.8435 91.2873 32.7622 90.3973 32.0409ZM85.519 18.1294C85.519 16.955 86.6129 16 87.9574 16C89.3034 16 90.3973 16.955 90.3973 18.1294V19.1602C92.4964 19.7584 94.1614 21.1886 94.8694 23.0591C95.2896 24.1735 94.5924 25.3795 93.2947 25.7521C93.0551 25.8184 92.8061 25.8515 92.5556 25.8515C91.639 25.8515 90.8174 25.4111 90.3973 24.7245V27.2374C94.4493 28.3187 97.0744 31.8799 96.3788 35.6273C95.8466 38.4923 93.5125 40.7748 90.3973 41.5988V42.6722C90.3973 43.845 89.3034 44.8 87.9574 44.8C86.6129 44.8 85.519 43.845 85.519 42.6722V41.6603C82.5516 40.9279 80.2378 38.8664 79.494 36.2081C79.3399 35.6572 79.4411 35.0842 79.7787 34.5996C80.1179 34.1135 80.6517 33.7709 81.3099 33.6304C81.4888 33.5957 81.6724 33.5768 81.8561 33.5768C82.9904 33.5768 83.9692 34.2445 84.2337 35.1979C84.4329 35.913 84.8935 36.5254 85.519 36.9674V30.6013C82.5703 29.5373 80.7606 26.827 81.285 23.9936C81.6787 21.8673 83.2892 20.131 85.519 19.3307V18.1294ZM93.0862 35.1616C92.7205 37.1237 90.9699 38.5759 88.8553 38.9342V29.9099C91.6499 30.3755 93.5421 32.6975 93.0862 35.1616ZM87.0595 21.9415V28.0062C85.3743 27.5216 84.2866 26.0346 84.5792 24.4593C84.7363 23.6148 85.2607 22.8729 86.0559 22.3709C86.3671 22.1751 86.7079 22.0426 87.0595 21.9415ZM88.8552 18.1294C88.8552 17.6969 88.4538 17.3465 87.9574 17.3465C87.4626 17.3465 87.0595 17.6969 87.0595 18.1294V20.3157C84.9262 20.7182 83.1772 22.2162 82.8084 24.2099C82.3416 26.7229 84.2384 29.0859 87.0595 29.6178V38.9769C87.0541 38.9761 87.0487 38.9761 87.043 38.9761C87.0374 38.9761 87.0315 38.9761 87.0253 38.9753C84.9246 38.6801 83.241 37.321 82.7368 35.5183C82.6357 35.1569 82.2606 34.9232 81.8561 34.9232C81.7876 34.9232 81.7191 34.9296 81.6507 34.9422C81.1698 35.0464 80.8742 35.4694 80.9925 35.8893C81.6693 38.3044 83.9241 40.1229 86.739 40.5207C86.7979 40.5285 86.8568 40.531 86.9155 40.5336C86.9637 40.5357 87.0118 40.5378 87.0595 40.5428V42.6722C87.0595 43.1031 87.4626 43.4535 87.9574 43.4535C88.4538 43.4535 88.8552 43.1031 88.8552 42.6722V40.5238C91.8444 40.1529 94.3497 38.1434 94.857 35.411C95.481 32.0519 92.8543 28.8775 89.0015 28.3314L88.8552 28.3108V21.8231C90.1872 22.0331 91.2749 22.846 91.6997 23.9699C91.8242 24.2998 92.1759 24.5066 92.5556 24.5066C92.6474 24.5066 92.7407 24.494 92.8325 24.4687C93.304 24.3346 93.5592 23.8894 93.4052 23.4806C92.7625 21.7805 91.1053 20.5477 89.0809 20.262C89.0389 20.2559 88.9979 20.2551 88.9568 20.2543C88.9232 20.2536 88.8895 20.2529 88.8552 20.2494V18.1294Z" fill="#0B0F17"/>
</svg>
