<svg width="96" height="96" viewBox="0 0 96 96" fill="none" xmlns="http://www.w3.org/2000/svg">
<path fill-rule="evenodd" clip-rule="evenodd" d="M86.2731 64.8018H83.2166C82.5998 59.8739 78.3928 56.0466 73.3011 56.0466C68.2087 56.0466 64.0017 59.8739 63.3849 64.8018H39.264C38.6473 59.8739 34.4403 56.0466 29.3478 56.0466C24.3316 56.0466 20.1782 59.7622 19.4656 64.5837L8.64047 63.3713V59.4119C8.64047 59.0971 8.76503 58.8035 8.99074 58.5846C9.20588 58.377 9.48444 58.2638 9.82414 58.2638C10.4681 58.26 11.0508 57.8259 11.1701 57.185C11.1701 57.185 11.3173 56.3931 11.5725 55.0177H15.2941C16.0233 55.0177 16.6151 54.4267 16.6151 53.6967C16.6151 52.9675 16.0233 52.3756 15.2941 52.3756H12.0616C12.4118 50.4849 13.3317 45.5064 13.3317 45.5064C13.3317 45.5064 68.4253 45.639 72.5478 46.1025L86.1282 47.6047C86.1765 47.61 86.2248 47.613 86.2731 47.613C87.7753 47.613 89.0926 48.6782 89.4059 50.1487L89.8868 52.3756H86.6483C85.9191 52.3756 85.3272 52.9675 85.3272 53.6967C85.3272 54.4267 85.9191 55.0177 86.6483 55.0177H90.4567L91.2403 58.6487C91.5656 60.1563 91.1957 61.7091 90.2265 62.9108C89.2564 64.1126 87.8154 64.8018 86.2731 64.8018Z" fill="white"/>
<path fill-rule="evenodd" clip-rule="evenodd" d="M84.2751 60.8018C85.8173 60.8018 87.2584 60.1126 88.2285 58.9109C89.1977 57.7091 89.5676 56.1563 89.2423 54.6488L88.4587 51.0177H84.6503C83.9211 51.0177 83.3292 50.4267 83.3292 49.6967C83.3292 48.9675 83.9211 48.3756 84.6503 48.3756H87.8888L87.4079 46.1487C87.0946 44.6782 85.7773 43.6131 84.2751 43.6131C84.2268 43.6131 84.1785 43.61 84.1302 43.6047L70.5497 42.1025C66.4273 41.639 64.0645 40.1557 61.3748 37.7506C59.9685 36.4945 58.6346 35.1062 57.3452 33.764C55.0066 31.3295 52.3456 28.5772 50.8275 28.6421C40.3663 29.1426 30.432 29.7397 18.9305 30.4312L13.3111 30.7679C12.0588 37.5875 10.8487 44.1362 10.0636 48.3756H13.296C14.0253 48.3756 14.6171 48.9675 14.6171 49.6967C14.6171 50.4267 14.0253 51.0177 13.296 51.0177H9.57444C9.31929 52.3931 9.17209 53.185 9.17209 53.185C9.05282 53.8259 8.47004 54.26 7.82612 54.2638C7.48642 54.2638 7.20787 54.377 6.99273 54.5846C6.76702 54.8035 6.64246 55.0972 6.64246 55.4119V59.3713L17.4675 60.5837C18.1802 55.7622 22.3336 52.0467 27.3498 52.0467C32.4423 52.0467 36.6492 55.8739 37.266 60.8018H61.3869C62.0037 55.8739 66.2106 52.0467 71.3031 52.0467C76.3948 52.0467 80.6018 55.8739 81.2186 60.8018H84.2751ZM63.9432 62.0489C63.9432 66.1072 67.245 69.409 71.3033 69.409C75.3616 69.409 78.6635 66.1072 78.6635 62.0489C78.6635 57.9906 75.3616 54.6887 71.3033 54.6887C67.245 54.6887 63.9432 57.9906 63.9432 62.0489ZM19.99 62.0489C19.99 66.1072 23.2926 69.409 27.3501 69.409C31.4084 69.409 34.7103 66.1072 34.7103 62.0489C34.7103 57.9906 31.4084 54.6887 27.3501 54.6887C23.2926 54.6887 19.99 57.9906 19.99 62.0489ZM89.9908 45.5946L91.8244 54.0917C92.3188 56.3827 91.758 58.744 90.2837 60.5701C88.8101 62.3962 86.6194 63.444 84.2747 63.444H81.1956C80.5131 68.2994 76.3431 72.0512 71.3028 72.0512C66.2616 72.0512 62.0916 68.2994 61.4092 63.444H37.243C36.5606 68.2994 32.3906 72.0512 27.3494 72.0512C22.2373 72.0512 18.0152 68.193 17.4249 63.2371L5.17461 61.8655C4.50577 61.7908 4 61.2253 4 60.5527V55.412C4 54.3747 4.41066 53.407 5.15498 52.6861C5.61169 52.2444 6.15671 51.9312 6.74779 51.7636C7.26866 48.9599 8.88186 40.2576 10.5947 30.9294L9.82698 30.9755C9.7998 30.977 9.77338 30.9777 9.74696 30.9777C9.05322 30.9777 8.4712 30.4365 8.42968 29.7352C8.3859 29.0067 8.94149 28.3809 9.66996 28.3379L12.1233 28.1915C12.1252 28.1911 12.1271 28.1913 12.129 28.1914C12.131 28.1916 12.1331 28.1918 12.1354 28.1915L18.7716 27.7936L18.9511 27.7828C30.3856 27.0959 40.2778 26.5017 50.7026 26.003C53.4165 25.8951 56.1273 28.6829 59.251 31.9342L59.2605 31.9441C60.5122 33.247 61.8066 34.5944 63.1349 35.7803C65.5354 37.9272 67.3864 39.0883 70.8423 39.4763L84.3525 40.9709C87.061 41.0079 89.4253 42.9405 89.9908 45.5946ZM41.3034 45.3564H45.8327C46.5619 45.3564 47.1537 45.9483 47.1537 46.6775C47.1537 47.4067 46.5619 47.9985 45.8327 47.9985H41.3034C40.5741 47.9985 39.9823 47.4067 39.9823 46.6775C39.9823 45.9483 40.5741 45.3564 41.3034 45.3564ZM71.3032 64.8795C69.7421 64.8795 68.4724 63.6098 68.4724 62.0487C68.4724 60.4876 69.7421 59.2179 71.3032 59.2179C72.8643 59.2179 74.1341 60.4876 74.1341 62.0487C74.1341 63.6098 72.8643 64.8795 71.3032 64.8795ZM71.3029 56.5758C68.2848 56.5758 65.8299 59.0307 65.8299 62.0487C65.8299 65.0668 68.2848 67.5217 71.3029 67.5217C74.3209 67.5217 76.7758 65.0668 76.7758 62.0487C76.7758 59.0307 74.3209 56.5758 71.3029 56.5758ZM24.5194 62.0487C24.5194 63.6098 25.7891 64.8795 27.3502 64.8795C28.9113 64.8795 30.181 63.6098 30.181 62.0487C30.181 60.4876 28.9113 59.2179 27.3502 59.2179C25.7891 59.2179 24.5194 60.4876 24.5194 62.0487ZM21.8769 62.0487C21.8769 59.0307 24.3318 56.5758 27.3499 56.5758C30.3679 56.5758 32.8228 59.0307 32.8228 62.0487C32.8228 65.0668 30.3679 67.5217 27.3499 67.5217C24.3318 67.5217 21.8769 65.0668 21.8769 62.0487ZM32.4445 39.3177H15.5742L16.4884 34.3611L19.5631 34.1746C24.0577 33.9036 28.3152 33.6507 32.4445 33.4099V39.3177ZM33.6892 30.6915C29.1206 30.9558 24.4094 31.2351 19.4037 31.537H19.403L15.2964 31.7861C14.6902 31.8231 14.1867 32.2685 14.0765 32.8656L12.6882 40.3979C12.6165 40.7836 12.7207 41.1815 12.9721 41.4834C13.2227 41.7854 13.5949 41.9598 13.9874 41.9598H33.7655C34.4947 41.9598 35.0865 41.3679 35.0865 40.6387V32.0103C35.0865 31.6465 34.9363 31.2992 34.6721 31.0494C34.4079 30.8002 34.0493 30.6719 33.6892 30.6915ZM39.6091 33.003V39.3176H57.5158C56.5556 38.3891 55.6225 37.4213 54.6276 36.3804L54.571 36.3215L54.567 36.3174C53.5822 35.294 51.3834 33.009 50.4772 32.4398C47.1648 32.5961 43.6749 32.7773 39.6091 33.003ZM56.5341 34.552C57.948 36.0308 59.229 37.3534 60.6165 38.599C61.0098 38.9492 61.4001 39.2889 61.7971 39.6068C62.2357 39.957 62.4048 40.5458 62.2191 41.0758C62.0334 41.6049 61.5329 41.9597 60.972 41.9597H38.2877C37.5585 41.9597 36.9666 41.3679 36.9666 40.6387V31.7537C36.9666 31.0531 37.5139 30.4741 38.2137 30.4349C42.974 30.1669 46.9402 29.9608 50.6965 29.7849C50.8792 29.7774 51.0611 29.8053 51.2317 29.871C52.4041 30.3209 54.2211 32.1477 56.4744 34.4894L56.5341 34.552Z" fill="#0B0F17"/>
</svg>
