<svg width="96" height="96" viewBox="0 0 96 96" fill="none" xmlns="http://www.w3.org/2000/svg">
<path fill-rule="evenodd" clip-rule="evenodd" d="M25.3308 78.987C39.944 93.5995 63.7214 93.5995 78.3339 78.987C85.4129 71.908 89.3113 62.4963 89.3113 52.4855C89.3113 42.4741 85.4129 33.0623 78.3339 25.9833C71.0276 18.6771 61.4297 15.024 51.8324 15.024C42.235 15.024 32.6371 18.6771 25.3308 25.9833C18.2519 33.0623 14.3534 42.4741 14.3534 52.4855C14.3534 62.4963 18.2519 71.908 25.3308 78.987ZM34.1255 34.778C38.8482 30.0553 45.1366 27.4543 51.833 27.4543C58.5295 27.4543 64.8172 30.0553 69.5406 34.778C79.304 44.5413 79.304 60.4284 69.5406 70.1924C64.8172 74.9151 58.5295 77.5161 51.833 77.5161C45.1366 77.5161 38.8482 74.9151 34.1255 70.1924C24.3614 60.429 24.3614 44.542 34.1255 34.778Z" fill="white"/>
<path fill-rule="evenodd" clip-rule="evenodd" d="M74.3338 74.987C59.7214 89.5994 35.9439 89.5994 21.3308 74.987C14.2518 67.908 10.3533 58.4963 10.3533 48.4855C10.3533 38.4741 14.2518 29.0623 21.3308 21.9833C28.637 14.6771 38.235 11.024 47.8323 11.024C57.4296 11.024 67.0276 14.6771 74.3338 21.9833C81.4128 29.0623 85.3113 38.4741 85.3113 48.4855C85.3113 58.4963 81.4128 67.908 74.3338 74.987ZM75.9973 20.3201C60.4672 4.78938 35.1966 4.78938 19.6672 20.3201C12.1432 27.8428 7.99997 37.8455 7.99997 48.4855C7.99997 59.1248 12.1432 69.1275 19.6672 76.6509C27.4319 84.4156 37.6316 88.2986 47.8319 88.2986C58.0322 88.2986 68.2319 84.4156 75.9973 76.6509C83.5206 69.1275 87.6638 59.1248 87.6638 48.4855C87.6638 37.8455 83.5206 27.8428 75.9973 20.3201ZM67.2347 60.2408L58.3224 52.5736C58.8219 51.2869 59.0922 49.908 59.0922 48.4855C59.0922 47.0623 58.8219 45.6835 58.3224 44.3974L67.2353 36.7295C71.5957 43.9282 71.5957 53.0421 67.2347 60.2408ZM63.876 64.5285C63.1405 65.264 62.3607 65.9383 61.5466 66.5581L54.0702 57.8684C54.6847 57.4583 55.2635 56.985 55.7973 56.4512C56.3311 55.9168 56.8044 55.3386 57.2151 54.7235L65.9029 62.1985C65.2871 63.0085 64.6155 63.7897 63.876 64.5285ZM36.0722 67.8932L43.7435 58.9763C45.0302 59.4758 46.409 59.746 47.8322 59.746C49.2554 59.746 50.6342 59.4758 51.921 58.9763L59.5922 67.8932C56.085 70.023 52.048 71.1632 47.8322 71.1632C43.6157 71.1632 39.5788 70.023 36.0722 67.8932ZM29.7617 62.1985L38.4494 54.7242C38.8595 55.3386 39.3328 55.9174 39.8665 56.4512C40.4003 56.985 40.9791 57.4583 41.5936 57.8684L34.1173 66.5581C33.3032 65.9383 32.5233 65.264 31.7879 64.5285C31.0491 63.7897 30.3775 63.0085 29.7617 62.1985ZM28.4274 36.7295L37.3397 44.3974C36.8402 45.6835 36.5706 47.0623 36.5706 48.4855C36.5706 49.908 36.8402 51.2875 37.3397 52.5736L28.4267 60.2408C24.0664 53.0421 24.0664 43.9282 28.4274 36.7295ZM31.7879 32.4418C32.5233 31.7064 33.3032 31.0321 34.1173 30.4122L41.5936 39.1027C40.9791 39.5127 40.4003 39.9853 39.8665 40.5198C39.3328 41.0536 38.8595 41.6317 38.4494 42.2469L29.7617 34.7719C30.3775 33.9618 31.0491 33.1813 31.7879 32.4418ZM59.5922 29.0778L51.921 37.9941C50.6342 37.4946 49.2554 37.225 47.8322 37.225C46.409 37.225 45.0302 37.4946 43.7435 37.9941L36.0722 29.0778C39.5788 26.948 43.6157 25.8072 47.8322 25.8072C52.048 25.8072 56.085 26.948 59.5922 29.0778ZM47.8316 57.3931C45.4477 57.3931 43.2097 56.4674 41.5297 54.7874C39.8497 53.1074 38.924 50.8694 38.924 48.4855C38.924 46.1016 39.8497 43.8637 41.5297 42.183C43.2097 40.503 45.4477 39.5779 47.8316 39.5779C50.2154 39.5779 52.4534 40.503 54.1334 42.183C55.8134 43.8637 56.7391 46.1016 56.7391 48.4855C56.7391 50.8687 55.8134 53.1074 54.1334 54.7874C52.4534 56.4674 50.2154 57.3931 47.8316 57.3931ZM65.9029 34.7719L57.2151 42.2462C56.8044 41.6317 56.3311 41.0529 55.7973 40.5198C55.2635 39.9853 54.6847 39.5127 54.0702 39.1027L61.5466 30.4122C62.3607 31.0321 63.1405 31.7064 63.876 32.4418C64.6155 33.1813 65.2871 33.9618 65.9029 34.7719ZM47.8315 23.4543C41.1351 23.4543 34.8467 26.0553 30.124 30.7779C20.36 40.542 20.36 56.429 30.124 66.1924C34.8467 70.9151 41.1351 73.5161 47.8315 73.5161C54.528 73.5161 60.8157 70.9151 65.5391 66.1924C75.3025 56.4284 75.3025 40.5413 65.5391 30.7779C60.8157 26.0553 54.528 23.4543 47.8315 23.4543ZM45.4557 46.1086C44.1448 47.4188 44.1448 49.5513 45.4557 50.8622C46.766 52.1731 48.8984 52.1731 50.2086 50.8622C51.5202 49.5513 51.5202 47.4188 50.2086 46.1086C48.8984 44.7976 46.766 44.7976 45.4557 46.1086Z" fill="#0B0F17"/>
</svg>
