<svg width="96" height="96" viewBox="0 0 96 96" fill="none" xmlns="http://www.w3.org/2000/svg">
<path fill-rule="evenodd" clip-rule="evenodd" d="M39.2818 61.5835C36.566 57.5214 31.9551 54.9133 26.7887 54.9133C21.6223 54.9133 17.0114 57.5214 14.2956 61.5835H9.453C8.98218 61.5835 8.59973 61.2003 8.59973 60.7295V54.3875C8.59973 47.7329 14.0127 42.32 20.6673 42.32H45.6178L44.5038 50.0202C44.2009 52.101 41.7478 61.5835 43.8479 61.5835H39.2818Z" fill="white"/>
<path fill-rule="evenodd" clip-rule="evenodd" d="M65.2832 64.2869C65.5676 63.3564 65.959 62.4794 66.4372 61.6618C66.4899 61.592 66.536 61.517 66.5731 61.4368C68.7757 57.8455 72.7264 55.5166 77.1703 55.5166C82.7028 55.5166 87.4778 59.1228 89.0574 64.2869H65.2832ZM79.7318 66.8861C79.8729 67.224 79.9546 67.5842 79.9546 67.957C79.9546 69.4927 78.7047 70.7418 77.1697 70.7418C75.634 70.7418 74.3849 69.4927 74.3849 67.957C74.3849 67.5842 74.4651 67.224 74.6077 66.8861H79.7318ZM84.4107 67.957C84.4107 71.9493 81.1625 75.1975 77.1702 75.1975C73.1779 75.1975 69.9297 71.9493 69.9297 67.957C69.9297 67.5983 69.9601 67.2411 70.0129 66.8861H71.9065C71.8352 67.2366 71.7862 67.5931 71.7862 67.957C71.7862 70.9252 74.2012 73.3409 77.1702 73.3409C80.1392 73.3409 82.5542 70.9252 82.5542 67.957C82.5542 67.5931 82.5044 67.2366 82.4339 66.8861H84.3276C84.3803 67.2411 84.4107 67.5983 84.4107 67.957V67.957ZM37.2815 59.5876C34.5658 55.5255 29.9548 52.9174 24.7884 52.9174C19.6221 52.9174 15.0111 55.5255 12.2954 59.5876H7.45277C6.98195 59.5876 6.5995 59.2044 6.5995 58.7336V52.3917C6.5995 45.7371 12.0124 40.3241 18.667 40.3241H43.6175L42.5036 48.0243C42.2006 50.1051 42.8177 52.2112 44.1953 53.8034C45.5706 55.3933 47.5638 56.3053 49.6639 56.3053H58.9095C60.224 56.3053 61.5354 55.9993 62.6917 55.4253C63.8606 54.8586 64.9054 54.0076 65.7141 52.9642C67.486 50.6762 67.9895 47.6738 67.0613 44.935C65.8679 41.4098 63.0734 34.0987 61.7768 30.7295H63.5242L65.9652 35.6523C65.9704 35.6642 65.9763 35.6753 65.9815 35.6865L74.6337 53.1358C70.5144 53.8338 66.9387 56.205 64.6775 59.5876H37.2815ZM12.9022 64.2869C13.1874 63.3535 13.5802 62.4727 14.0607 61.6529C14.1052 61.5927 14.1431 61.5274 14.1773 61.459C16.3769 57.8551 20.3358 55.5166 24.7885 55.5166C29.2198 55.5166 33.1601 57.8336 35.3671 61.4078C35.4087 61.5036 35.4652 61.5912 35.5283 61.6729C36.0028 62.4876 36.3927 63.3609 36.6756 64.2869H12.9022ZM27.3486 66.8861C27.4897 67.224 27.5714 67.5842 27.5714 67.957C27.5714 69.4927 26.3223 70.7418 24.7866 70.7418C23.2508 70.7418 22.0017 69.4927 22.0017 67.957C22.0017 67.5842 22.0827 67.224 22.2245 66.8861H27.3486ZM32.0261 67.957C32.0261 71.9493 28.7779 75.1975 24.7856 75.1975C20.7932 75.1975 17.545 71.9493 17.545 67.957C17.545 67.5983 17.5755 67.2411 17.6282 66.8861H19.5211C19.4506 67.2366 19.4016 67.5931 19.4016 67.957C19.4016 70.9252 21.8166 73.3409 24.7856 73.3409C27.7538 73.3409 30.1695 70.9252 30.1695 67.957C30.1695 67.5931 30.1198 67.2366 30.0492 66.8861H31.9422C31.9956 67.2411 32.0261 67.5983 32.0261 67.957V67.957ZM19.7381 37.5059C19.7381 36.1759 20.8208 35.0924 22.1516 35.0924H43.8197V37.7235H19.7381V37.5059ZM68.6444 30.2023H70.9918V34.2198H68.6444C68.4573 34.2198 68.2783 34.179 68.1053 34.1188L66.9765 31.8427C66.9936 30.936 67.734 30.2023 68.6444 30.2023V30.2023ZM91.981 65.3645C90.743 58.2383 84.6461 53.0533 77.4316 52.9293L69.4447 36.8189H72.2912C73.0086 36.8189 73.5908 36.2375 73.5908 35.5194V28.9026C73.5908 28.1853 73.0086 27.6031 72.2912 27.6031H68.6442C67.4218 27.6031 66.3205 28.1221 65.5415 28.9487L65.494 28.8529C65.2749 28.4103 64.8242 28.1303 64.3303 28.1303H60.7754L58.7466 22.8347C58.5542 22.3312 58.0715 22 57.5331 22H51.9546C51.2365 22 50.655 22.5815 50.655 23.2996C50.655 24.017 51.2365 24.5992 51.9546 24.5992H56.639L58.6693 29.897C58.6693 29.8985 58.6693 29.8992 58.6701 29.9C58.6723 29.9052 58.6849 29.9386 58.7028 29.9846L61.1526 36.3786C61.1526 36.3801 61.1534 36.3808 61.1534 36.3815C62.4158 39.7092 63.8394 43.524 64.5991 45.7682C65.2467 47.6805 64.8954 49.7754 63.659 51.3728C63.0953 52.1005 62.3683 52.6932 61.5462 53.0919C60.7368 53.4937 59.8241 53.7061 58.9092 53.7061H49.6636C48.3187 53.7061 47.0422 53.1216 46.1599 52.1028C45.277 51.0817 44.8811 49.7316 45.0757 48.3971L46.405 39.2102C46.4087 39.182 46.4057 39.1545 46.408 39.1263C46.4102 39.0914 46.4184 39.0587 46.4184 39.023V33.7928C46.4184 33.0754 45.8361 32.4932 45.1188 32.4932H22.1511C19.3871 32.4932 17.1384 34.7418 17.1384 37.5059V37.8051C9.76643 38.5723 4 44.8207 4 52.3917V58.7336C4 60.6377 5.54836 62.1868 7.45243 62.1868H10.9115C10.4957 63.193 10.1712 64.2513 9.97733 65.3645C9.91198 65.7417 10.0167 66.1294 10.2632 66.4227C10.5105 66.7168 10.8744 66.8861 11.2576 66.8861H15.0108C14.9714 67.2418 14.9462 67.5983 14.9462 67.9569C14.9462 73.3825 19.3603 77.7966 24.7859 77.7966C30.2115 77.7966 34.6256 73.3825 34.6256 67.9569C34.6256 67.5983 34.6003 67.2418 34.561 66.8861H38.3186C38.7026 66.8861 39.0664 66.7168 39.3137 66.4227C39.5603 66.1294 39.665 65.7417 39.5996 65.3637C39.4058 64.2513 39.0813 63.193 38.6654 62.1868H63.2921C62.8763 63.193 62.5517 64.2513 62.3587 65.3637C62.2933 65.7417 62.3973 66.1294 62.6446 66.4227C62.8911 66.7168 63.2557 66.8861 63.6389 66.8861H67.3951C67.3557 67.2418 67.3305 67.5983 67.3305 67.9569C67.3305 73.3825 71.7446 77.7966 77.1702 77.7966C82.595 77.7966 87.0099 73.3825 87.0099 67.9569C87.0099 67.5983 86.9846 67.2418 86.9453 66.8861H90.7007C91.0839 66.8861 91.4478 66.7168 91.6943 66.4227C91.9416 66.1294 92.0463 65.7417 91.981 65.3645V65.3645Z" fill="#0B0F17"/>
</svg>
