<svg width="96" height="96" viewBox="0 0 96 96" fill="none" xmlns="http://www.w3.org/2000/svg">
<path fill-rule="evenodd" clip-rule="evenodd" d="M11 29H49V69H9V31C9 29.8954 9.89543 29 11 29Z" fill="white"/>
<path fill-rule="evenodd" clip-rule="evenodd" d="M82.0649 67.6193C82.0642 67.6372 82.0638 67.6552 82.0638 67.6732C82.0638 67.6913 82.0642 67.7092 82.0649 67.7271C82.0356 71.6945 78.7988 74.9134 74.8246 74.9134C70.8323 74.9134 67.5841 71.6652 67.5841 67.6729C67.5841 63.6806 70.8323 60.4324 74.8246 60.4324C78.799 60.4324 82.036 63.6515 82.0649 67.6193ZM90.7004 68.9728H84.5784C83.9403 73.7863 79.8092 77.5126 74.8242 77.5126C69.8393 77.5126 65.7081 73.7862 65.0701 68.9728H37.4374C36.7994 73.7862 32.6682 77.5126 27.6833 77.5126C22.6983 77.5126 18.5672 73.7863 17.9291 68.9728H5.29958C4.58221 68.9728 4 68.3906 4 67.6732V50.5709V29.0127C4 26.2486 6.24864 24 9.01266 24H58.7382C60.4084 24 61.9641 24.828 62.8984 26.2152L72.0474 39.7977C72.2996 40.1734 72.6479 40.4683 73.0562 40.6514L73.0805 40.6622C73.2625 40.7418 73.4508 40.798 73.6455 40.8314L89.6407 43.5494C90.9707 43.7372 92 44.9225 92 46.3008V50.553L92.0001 50.5709L92 50.5889V67.6732C92 68.3906 91.4178 68.9728 90.7004 68.9728ZM60.7422 27.6675L69.4172 40.546H66.8392L55.1072 40.4858V26.5996H58.7386C59.3919 26.5996 60.0089 26.8632 60.4587 27.3203C60.4933 27.3555 60.5269 27.3918 60.5595 27.4293C60.6246 27.5041 60.6856 27.5835 60.7418 27.667L60.7422 27.6675ZM52.5077 26.5992V40.546H49.1654V26.5992H52.5077ZM66.8233 43.1452L72.3675 43.1736C72.64 43.2708 72.9219 43.3444 73.2096 43.3934L89.2412 46.1173C89.3355 46.1307 89.4008 46.2064 89.4008 46.3008V49.2714H86.2448C85.5275 49.2714 84.9453 49.8536 84.9453 50.5709C84.9453 51.2883 85.5275 51.8705 86.2448 51.8705H89.4008V66.3737H84.5785C83.9407 61.5599 79.8094 57.8332 74.8242 57.8332C69.839 57.8332 65.7078 61.5599 65.07 66.3737H49.1654V43.1452H66.8233ZM46.5662 26.5992V66.3737H37.4375C36.7997 61.5599 32.6685 57.8332 27.6833 57.8332C22.6981 57.8332 18.5668 61.5599 17.929 66.3737H6.59916V51.8705H9.75527C10.4726 51.8705 11.0549 51.2883 11.0549 50.5709C11.0549 49.8536 10.4726 49.2714 9.75527 49.2714H6.59916V29.0127C6.59916 27.6819 7.68189 26.5992 9.01266 26.5992H46.5662ZM34.9221 67.6732C34.9221 67.6505 34.9226 67.6278 34.9238 67.6053C34.8874 63.644 31.6534 60.4324 27.6836 60.4324C23.6913 60.4324 20.4431 63.6806 20.4431 67.6729C20.4431 71.6652 23.6913 74.9134 27.6836 74.9134C31.6532 74.9134 34.8871 71.7021 34.9238 67.7411L34.9227 67.7136C34.9223 67.7002 34.9221 67.6867 34.9221 67.6732ZM14.9849 32.8718H33.5503C34.2677 32.8718 34.8499 32.2896 34.8499 31.5723C34.8499 30.8549 34.2677 30.2727 33.5503 30.2727H14.9849C14.2676 30.2727 13.6854 30.8549 13.6854 31.5723C13.6854 32.2896 14.2676 32.8718 14.9849 32.8718ZM58.8919 48.9001H54.4362C53.7188 48.9001 53.1366 48.3179 53.1366 47.6005C53.1366 46.8831 53.7188 46.3009 54.4362 46.3009H58.8919C59.6093 46.3009 60.1915 46.8831 60.1915 47.6005C60.1915 48.3179 59.6093 48.9001 58.8919 48.9001ZM74.8256 64.8888C73.2899 64.8888 72.0408 66.1379 72.0408 67.6736C72.0408 69.2093 73.2899 70.4584 74.8256 70.4584C76.3613 70.4584 77.6104 69.2093 77.6104 67.6736C77.6104 66.1379 76.3613 64.8888 74.8256 64.8888ZM74.8252 73.0576C71.8563 73.0576 69.4413 70.6426 69.4413 67.6736C69.4413 64.7047 71.8563 62.2897 74.8252 62.2897C77.7942 62.2897 80.2092 64.7047 80.2092 67.6736C80.2092 70.6426 77.7942 73.0576 74.8252 73.0576ZM24.8983 67.6736C24.8983 66.1379 26.1474 64.8888 27.6831 64.8888C29.2189 64.8888 30.468 66.1379 30.468 67.6736C30.468 69.2093 29.2189 70.4584 27.6831 70.4584C26.1474 70.4584 24.8983 69.2093 24.8983 67.6736ZM22.2988 67.6736C22.2988 70.6426 24.7138 73.0576 27.6828 73.0576C30.6518 73.0576 33.0668 70.6426 33.0668 67.6736C33.0668 64.7047 30.6518 62.2897 27.6828 62.2897C24.7138 62.2897 22.2988 64.7047 22.2988 67.6736Z" fill="#0B0F17"/>
</svg>
