<svg width="96" height="96" viewBox="0 0 96 96" fill="none" xmlns="http://www.w3.org/2000/svg">
<path fill-rule="evenodd" clip-rule="evenodd" d="M41 65C41 73.8366 33.8366 81 25 81C16.1634 81 9 73.8366 9 65C9 56.1634 16.1634 49 25 49C33.8366 49 41 56.1634 41 65ZM95 65C95 73.8366 87.8366 81 79 81C70.1634 81 63 73.8366 63 65C63 56.1634 70.1634 49 79 49C87.8366 49 95 56.1634 95 65Z" fill="white"/>
<path fill-rule="evenodd" clip-rule="evenodd" d="M75.0311 75.5122C67.1066 75.5122 60.66 69.0655 60.66 61.1411C60.66 55.6918 63.7106 50.9405 68.1931 48.5055L74.7437 62.5758C74.9642 63.0496 75.4336 63.3273 75.9229 63.3273C76.1064 63.3273 76.2935 63.288 76.4703 63.2063C77.1215 62.9033 77.403 62.1295 77.1007 61.4797L70.585 47.4836C71.9863 47.0262 73.4783 46.7715 75.0311 46.7715C82.9548 46.7715 89.4014 53.2181 89.4014 61.1411C89.4014 69.0655 82.9548 75.5122 75.0311 75.5122V75.5122ZM50.4869 55.3858C47.7607 55.3858 45.4757 57.2936 44.8846 59.843H37.8847C37.4287 53.8501 33.8486 48.7201 28.7713 46.0786L33.7609 34.3156H60.4505L51.4783 55.4771C51.156 55.4207 50.8255 55.3858 50.4869 55.3858V55.3858ZM50.4857 64.2972C48.7472 64.2972 47.334 62.8847 47.3303 61.147C47.3303 61.1455 47.331 61.144 47.331 61.1426C47.331 61.1403 47.3303 61.1388 47.3303 61.1374C47.3325 59.3981 48.7465 57.985 50.4857 57.985C50.9141 57.985 51.3218 58.0726 51.6946 58.2285C51.7035 58.2315 51.7102 58.2367 51.7177 58.2404C51.7236 58.2434 51.7303 58.2434 51.737 58.2464C52.8561 58.7313 53.6418 59.8452 53.6418 61.1411C53.6418 62.8818 52.2264 64.2972 50.4857 64.2972V64.2972ZM27.7527 48.4787C31.9032 50.711 34.8305 54.9231 35.2739 59.843H22.9316L27.7527 48.4787ZM20.9699 75.5122C13.0454 75.5122 6.5995 69.0655 6.5995 61.1411C6.5995 53.2181 13.0454 46.7715 20.9699 46.7715C22.5011 46.7715 23.9752 47.0173 25.3602 47.4628L19.7794 60.6198C19.6079 61.0104 19.6383 61.4611 19.8634 61.8258C20.1003 62.209 20.5183 62.4421 20.9691 62.4421H35.2741C34.6139 69.7584 28.4547 75.5122 20.9699 75.5122V75.5122ZM75.0305 44.1723C73.0863 44.1723 71.2194 44.505 69.4787 45.1102L63.6172 32.5177C63.6135 32.5102 63.609 32.5028 63.6053 32.4939L59.9301 24.5992H69.5359C70.2532 24.5992 70.8354 24.0177 70.8354 23.2996C70.8354 22.5822 70.2532 22 69.5359 22H57.8916C57.4476 22 57.0347 22.2265 56.7955 22.6015C56.5572 22.9758 56.526 23.4459 56.7131 23.8484L60.3764 31.7164H33.7269L30.4052 24.6021H32.9011C33.6185 24.6021 34.2007 24.0207 34.2007 23.3025C34.2007 22.5852 33.6185 22.003 32.9011 22.003H28.3474C28.3318 22.003 28.3162 22.0022 28.2999 22.003H23.8249C23.1075 22.003 22.5253 22.5852 22.5253 23.3025C22.5253 24.0207 23.1075 24.6021 23.8249 24.6021H27.5372L31.4775 33.042L26.3787 45.0612C24.6781 44.4879 22.861 44.1723 20.9695 44.1723C11.6126 44.1723 4 51.7848 4 61.1411C4 70.4988 11.6126 78.1113 20.9695 78.1113C29.8883 78.1113 37.2165 71.1939 37.8841 62.4421H44.8847C45.4773 64.9908 47.7609 66.8963 50.4863 66.8963C53.6602 66.8963 56.2416 64.315 56.2416 61.1411C56.2416 59.2325 55.3044 57.5431 53.8696 56.496L62.4691 36.2114L67.0949 46.1484C61.7265 49.0008 58.0602 54.6499 58.0602 61.1411C58.0602 70.4988 65.6728 78.1113 75.0305 78.1113C84.3874 78.1113 92 70.4988 92 61.1411C92 51.7848 84.3874 44.1723 75.0305 44.1723V44.1723Z" fill="#0B0F17"/>
</svg>
