<svg width="96" height="96" viewBox="0 0 96 96" fill="none" xmlns="http://www.w3.org/2000/svg">
<path fill-rule="evenodd" clip-rule="evenodd" d="M12 48H23.838H28.2937H36.2434L41.2999 60.6208C41.4982 61.1134 41.975 61.437 42.5067 61.437H52.4102C52.4161 61.437 52.4213 61.4384 52.4265 61.4384C52.431 61.4384 52.4354 61.437 52.4406 61.437H68.5279V74.2031C66.7278 72.2428 64.1532 71.0051 61.2874 71.0051C56.3052 71.0051 52.1852 74.7285 51.5443 79.5352H33.8537C33.2128 74.7285 29.0928 71.0051 24.1106 71.0051C19.1284 71.0051 15.0083 74.7285 14.3675 79.5352H12V48Z" fill="white"/>
<path fill-rule="evenodd" clip-rule="evenodd" d="M72.0665 14.5978V71.0769H73.923V17.7506V14.5978H72.0665ZM79.1654 16.452H76.5232V14.597H79.1654V16.452ZM78.2646 71.0769H76.5232V55.762H78.2646V71.0769ZM50.6464 76.9684C50.6464 80.9575 53.8946 84.203 57.8869 84.203C61.8792 84.203 65.1274 80.9575 65.1274 76.9684C65.1274 72.9794 61.8792 69.7339 57.8869 69.7339C53.8946 69.7339 50.6464 72.9794 50.6464 76.9684ZM13.4705 76.9759C13.4742 80.9612 16.7202 84.203 20.7103 84.203C24.7026 84.203 27.9508 80.9575 27.9508 76.9684C27.9508 72.9794 24.7026 69.7339 20.7103 69.7339C16.7224 69.7339 13.4772 72.9735 13.4705 76.9566C13.4705 76.958 13.4707 76.9595 13.4709 76.961C13.4711 76.9625 13.4713 76.964 13.4713 76.9655C13.4713 76.9669 13.4711 76.9684 13.4709 76.9701L13.4706 76.973L13.4705 76.9759ZM20.4375 44.1317H8.5995V75.6669H10.967C11.6078 70.8602 15.7279 67.1368 20.7101 67.1368C25.6923 67.1368 29.8123 70.8602 30.4532 75.6669H48.1438C48.7847 70.8602 52.9047 67.1368 57.8869 67.1368C60.7527 67.1368 63.3273 68.3745 65.1274 70.3349V57.5687H49.0401C49.0349 57.5687 49.0305 57.5702 49.026 57.5702C49.0208 57.5702 49.0156 57.5687 49.0097 57.5687H39.1062C38.5744 57.5687 38.0977 57.2452 37.8994 56.7525L32.8429 44.1317H24.8932H20.4375ZM55.5096 51.3322C55.5029 51.3396 55.4962 51.3463 55.4888 51.3545L52.0527 54.9717H59.7737L57.5629 49.1715L55.5096 51.3322ZM34.9293 42.3502L39.9865 54.9717H48.4694L52.8367 50.3735L42.0628 35.9111L40.262 37.2504C40.0288 37.424 39.7563 37.5079 39.4867 37.5079C39.0902 37.5079 38.6981 37.3276 38.4441 36.9848C38.0156 36.409 38.1344 35.5965 38.7099 35.1676L44.3954 30.9389C44.9709 30.5093 45.7856 30.6288 46.2141 31.2053C46.6426 31.7804 46.5237 32.5936 45.9475 33.0217L44.1466 34.361L54.6524 48.4614L56.5364 46.478L46.0826 19.0513H26.1931V41.5347H33.7225C34.2542 41.5347 34.7317 41.8575 34.9293 42.3502ZM49.1048 14.5992H21.7364V41.5347H23.593V17.7528C23.593 17.0352 24.1744 16.4543 24.8926 16.4543H46.9772C47.5164 16.4543 47.9998 16.7867 48.1921 17.2905L59.2319 46.2539C59.2348 46.2598 59.2363 46.2658 59.2393 46.271L62.5543 54.9717H64.5386L49.1048 14.5992ZM80.8631 71.0769H92.7004C93.4185 71.0769 94 71.6579 94 72.3754C94 73.0929 93.4185 73.6739 92.7004 73.6739H75.223H70.7673H67.7262V76.9655V76.9662V76.9684C67.7262 82.3895 63.3121 86.8 57.8866 86.8C52.9014 86.8 48.7806 83.0737 48.1427 78.264H30.4536C29.8157 83.0737 25.6949 86.8 20.7097 86.8C15.7246 86.8 11.603 83.0737 10.9659 78.264H7.29958C6.58147 78.264 6 77.6822 6 76.9655V42.8333C6 42.1157 6.58147 41.5348 7.29958 41.5348H19.1376V13.3007C19.1376 12.5832 19.7191 12.0022 20.4372 12.0022H50C50.5391 12.0022 51.0218 12.3339 51.2142 12.8377L67.6408 55.8072C67.6476 55.8239 67.6514 55.8409 67.6551 55.8578C67.6575 55.8687 67.6599 55.8796 67.6631 55.8903L67.6691 55.9095C67.682 55.9511 67.6948 55.992 67.7025 56.0357C67.7098 56.0748 67.7126 56.1133 67.7154 56.1521L67.7155 56.1523L67.7173 56.1775C67.7182 56.1899 67.7198 56.2022 67.7214 56.2144C67.7228 56.2244 67.7241 56.2345 67.725 56.2447C67.7258 56.2531 67.7262 56.2616 67.7262 56.2702V71.0769H69.4677V13.2993C69.4677 12.5817 70.0491 12.0007 70.7673 12.0007H75.2155C75.2166 12.0007 75.2179 12.0006 75.2192 12.0004C75.2205 12.0002 75.2218 12 75.223 12H80.4643C81.1817 12 81.7639 12.581 81.7639 13.2985V17.7505C81.7639 18.4681 81.1817 19.049 80.4643 19.049H76.5225V53.1649H78.264V42.8362C78.264 42.1195 78.8454 41.5377 79.5635 41.5377C80.2817 41.5377 80.8631 42.1195 80.8631 42.8362V71.0769ZM14.8681 50.071H26.0074C26.7255 50.071 27.307 49.49 27.307 48.7725C27.307 48.055 26.7255 47.474 26.0074 47.474H14.8681C14.15 47.474 13.5686 48.055 13.5686 48.7725C13.5686 49.49 14.15 50.071 14.8681 50.071ZM14.8681 55.2651H26.0074C26.7255 55.2651 27.307 54.6841 27.307 53.9666C27.307 53.2491 26.7255 52.6681 26.0074 52.6681H14.8681C14.15 52.6681 13.5686 53.2491 13.5686 53.9666C13.5686 54.6841 14.15 55.2651 14.8681 55.2651ZM20.7103 79.7513C19.1754 79.7513 17.9255 78.5025 17.9255 76.9688C17.9255 75.4351 19.1754 74.1863 20.7103 74.1863C22.2453 74.1863 23.4952 75.4351 23.4952 76.9688C23.4952 78.5025 22.2453 79.7513 20.7103 79.7513ZM20.71 71.5892C17.741 71.5892 15.326 74.0022 15.326 76.9688C15.326 79.9353 17.741 82.3483 20.71 82.3483C23.679 82.3483 26.094 79.9353 26.094 76.9688C26.094 74.0022 23.679 71.5892 20.71 71.5892ZM55.1017 76.9688C55.1017 78.5025 56.3515 79.7513 57.8865 79.7513C59.4215 79.7513 60.6713 78.5025 60.6713 76.9688C60.6713 75.4351 59.4215 74.1863 57.8865 74.1863C56.3515 74.1863 55.1017 75.4351 55.1017 76.9688ZM52.5022 76.9688C52.5022 74.0022 54.9172 71.5892 57.8861 71.5892C60.8551 71.5892 63.2701 74.0022 63.2701 76.9688C63.2701 79.9353 60.8551 82.3483 57.8861 82.3483C54.9172 82.3483 52.5022 79.9353 52.5022 76.9688Z" fill="#0B0F17"/>
</svg>
