<svg width="96" height="96" viewBox="0 0 96 96" fill="none" xmlns="http://www.w3.org/2000/svg">
<path fill-rule="evenodd" clip-rule="evenodd" d="M28.1991 61.5307C27.7247 53.7776 20.8227 45.9672 10.6112 41.6938V36.4515C13.6829 37.1467 17.1312 38.1306 20.7496 39.1644C24.201 40.149 27.7888 41.1702 31.3782 42.0414C31.3804 42.0422 31.3827 42.0429 31.3856 42.0437C31.3894 42.0452 31.3946 42.0459 31.3991 42.0474C50.4027 46.9369 59.3888 53.4666 62.4142 64.5852C62.4209 64.6098 62.4284 64.6352 62.4366 64.659C62.4403 64.6725 62.4433 64.6837 62.4448 64.6896C62.5656 65.1394 62.676 65.5967 62.7782 66.0606L62.8767 66.5484C62.946 66.8901 63.0124 67.2354 63.0728 67.5853C63.1034 67.7628 63.1325 67.9418 63.1601 68.1223C63.2183 68.4923 63.2712 68.8682 63.3197 69.2457L63.3779 69.6992C63.3861 69.773 63.3921 69.8506 63.4003 69.9252H38.7486C37.1963 65.3953 33.1199 62.0267 28.1991 61.5307V61.5307Z" fill="white"/>
<path fill-rule="evenodd" clip-rule="evenodd" d="M79.5063 79.8439C74.0566 79.8439 69.6229 75.4102 69.6229 69.9606C69.6229 64.5109 74.0566 60.0772 79.5063 60.0772C84.9559 60.0772 89.3897 64.5109 89.3897 69.9606C89.3897 75.4102 84.9559 79.8439 79.5063 79.8439ZM62.0024 65.706L62.0023 65.7055C61.9927 65.6022 61.983 65.4986 61.9708 65.3971L61.9097 64.9152C61.8582 64.5109 61.8015 64.1119 61.7396 63.718C61.7098 63.5256 61.6784 63.3324 61.6456 63.1429C61.5815 62.767 61.5099 62.3955 61.4345 62.0263L61.3987 61.8458L61.3885 61.7942L61.3885 61.794C61.3689 61.6951 61.3495 61.597 61.3279 61.5004C61.2175 60.9962 61.0966 60.5001 60.9661 60.0116C60.9616 59.9907 60.9422 59.9124 60.9363 59.8922C60.9266 59.8572 60.9161 59.8229 60.9034 59.7893C58.4874 51.033 52.82 44.9284 42.2869 40.2739C45.3802 40.3217 48.3117 40.0144 50.9582 39.1677C60.1881 36.2176 67.3638 36.3579 72.8962 39.5966C74.5634 40.573 76.0813 41.8486 77.459 43.3993H71.5834C70.8629 43.3993 70.2781 43.9841 70.2781 44.7047V48.4342C70.2781 49.0362 70.6898 49.5598 71.2746 49.7023L82.752 52.4995C83.4673 54.3613 84.0947 56.3864 84.631 58.5787C83.0653 57.8708 81.334 57.4665 79.5065 57.4665C74.0308 57.4665 69.377 61.0126 67.6942 65.9252H62.0238C62.0161 65.8528 62.0092 65.7794 62.0024 65.706ZM24.1991 57.5307C23.7247 49.7776 16.8227 41.9672 6.61117 37.6938V32.4515C9.68285 33.1467 13.1312 34.1306 16.7496 35.1644C20.201 36.149 23.7888 37.1702 27.3782 38.0414L27.3824 38.0428L27.3856 38.0437C27.3877 38.0445 27.3901 38.0451 27.3927 38.0457L27.3927 38.0457C27.3948 38.0462 27.397 38.0467 27.3991 38.0474C46.4027 42.9369 55.3888 49.4666 58.4142 60.5852C58.4209 60.6098 58.4284 60.6352 58.4366 60.659L58.44 60.6714L58.4448 60.6896C58.5656 61.1394 58.676 61.5967 58.7782 62.0606L58.8766 62.5484C58.946 62.8901 59.0124 63.2354 59.0728 63.5853C59.1034 63.7628 59.1325 63.9418 59.1601 64.1223C59.2183 64.4923 59.2712 64.8682 59.3197 65.2457L59.3779 65.6992C59.3821 65.7366 59.3856 65.775 59.3892 65.8135V65.8135C59.3927 65.8509 59.3962 65.8884 59.4003 65.9252H34.7486C33.1963 61.3953 29.1199 58.0267 24.1991 57.5307ZM22.9344 79.8439C17.4847 79.8439 13.051 75.4102 13.051 69.9606C13.051 64.5109 17.4847 60.0772 22.9344 60.0772H22.9381H22.9396C28.387 60.0802 32.8177 64.5124 32.8177 69.9606C32.8177 75.4102 28.384 79.8439 22.9344 79.8439ZM79.613 46.2189C79.7075 46.3634 79.7989 46.5147 79.8902 46.666L79.8903 46.6661C79.9337 46.7381 79.9772 46.81 80.021 46.8812C80.3305 47.3855 80.6297 47.9084 80.9191 48.4514L80.999 48.601L80.9992 48.6013C81.0891 48.7692 81.1791 48.9371 81.2659 49.1108C81.3029 49.1839 81.3383 49.2592 81.3738 49.3345L81.3739 49.3348L81.374 49.335C81.3992 49.3887 81.4244 49.4422 81.4502 49.4949L72.8885 47.4086V46.01H79.4683C79.4896 46.0417 79.5114 46.0725 79.5332 46.1033C79.5601 46.1413 79.587 46.1793 79.613 46.2189ZM87.7483 60.5956C87.747 60.5854 87.7458 60.5743 87.7447 60.5631L87.7408 60.5218C87.7364 60.4905 87.7311 60.4591 87.7252 60.4278C87.0106 56.9362 86.0879 53.7914 84.966 50.9905C84.9621 50.9786 84.9597 50.9665 84.9574 50.9543C84.9565 50.9498 84.9556 50.9454 84.9547 50.9409C84.9524 50.93 84.9496 50.9191 84.9451 50.9085C84.2604 49.2025 83.4906 47.6413 82.6626 46.2084C82.6421 46.1732 82.6219 46.1376 82.6019 46.1021C82.579 46.0617 82.5563 46.0214 82.5329 45.9817C82.3083 45.6013 82.0786 45.2343 81.8451 44.8755C81.7489 44.7271 81.6512 44.5801 81.5535 44.4347C81.5088 44.3687 81.4649 44.3005 81.4211 44.2323C81.3589 44.1356 81.2967 44.0389 81.232 43.9483C81.2165 43.9265 81.1979 43.9076 81.1794 43.8888L81.1793 43.8888C81.1675 43.8768 81.1557 43.8649 81.1447 43.8521C79.1695 41.0743 76.8609 38.894 74.2152 37.344C72.6972 36.4556 71.0793 35.7746 69.357 35.2942L60.5164 20.631C60.2807 20.2394 59.8563 20 59.3991 20H53.7003C52.9797 20 52.3949 20.5841 52.3949 21.3054C52.3949 22.0259 52.9797 22.6107 53.7003 22.6107H58.6621L65.9072 34.6281C61.3489 34.0926 56.1364 34.7713 50.1632 36.6809C44.1004 38.6188 36.1511 37.4812 28.1154 35.5367L28.049 35.5187V35.5195C28.0319 35.5143 28.0155 35.5105 27.9991 35.5068C27.996 35.5058 27.9933 35.5055 27.9905 35.5051L27.9864 35.5046C24.4433 34.643 20.8853 33.6293 17.466 32.6537L17.4547 32.6505L17.4546 32.6504C13.1609 31.4246 9.10564 30.2669 5.5612 29.5581C5.17929 29.4821 4.78023 29.5813 4.47813 29.8282C4.17529 30.0766 4 30.4465 4 30.8381V38.5725C4 39.1096 4.3282 39.5914 4.82797 39.7876C14.4905 43.5851 21.0874 50.6347 21.5849 57.5426C15.3289 58.2184 10.441 63.5278 10.441 69.9606C10.441 76.8499 16.0458 82.4547 22.935 82.4547C29.8243 82.4547 35.4291 76.8499 35.4291 69.9606C35.4291 69.4787 35.3955 69.0043 35.3418 68.5359H60.8364C60.8379 68.5359 60.8394 68.5366 60.8409 68.5366L60.8444 68.5363C60.8459 68.5361 60.8475 68.5359 60.8491 68.5359H67.0991C67.0454 69.0043 67.0119 69.4787 67.0119 69.9606C67.0119 76.8499 72.6167 82.4547 79.5059 82.4547C86.3952 82.4547 92 76.8499 92 69.9606C92 66.231 90.3485 62.8871 87.7483 60.5956ZM79.5059 73.877C77.3465 73.877 75.5899 72.1204 75.5899 69.961C75.5899 67.8016 77.3465 66.0449 79.5059 66.0449C81.6653 66.0449 83.422 67.8016 83.422 69.961C83.422 72.1204 81.6653 73.877 79.5059 73.877ZM79.5054 63.4342C75.9064 63.4342 72.9787 66.3619 72.9787 69.961C72.9787 73.56 75.9064 76.4877 79.5054 76.4877C83.1045 76.4877 86.0322 73.56 86.0322 69.961C86.0322 66.3619 83.1045 63.4342 79.5054 63.4342ZM19.0194 69.961C19.0194 72.1204 20.7761 73.877 22.9355 73.877C25.0949 73.877 26.8515 72.1204 26.8515 69.961C26.8515 67.8016 25.0949 66.0449 22.9355 66.0449C20.7761 66.0449 19.0194 67.8016 19.0194 69.961ZM16.4083 69.961C16.4083 66.3619 19.336 63.4342 22.935 63.4342C26.534 63.4342 29.4618 66.3619 29.4618 69.961C29.4618 73.56 26.534 76.4877 22.935 76.4877C19.336 76.4877 16.4083 73.56 16.4083 69.961Z" fill="#0B0F17"/>
</svg>
