<svg width="24" height="24" viewBox="0 0 24 24" fill="none" xmlns="http://www.w3.org/2000/svg">
<path fill-rule="evenodd" clip-rule="evenodd" d="M3 5.03583C3 3.35919 4.34315 2 6 2H18C19.6569 2 21 3.35919 21 5.03583V15.9283C21 17.0782 20.358 18.1294 19.3416 18.6437L13.3416 21.6795C12.4971 22.1068 11.5029 22.1068 10.6584 21.6795L4.65836 18.6437C3.64201 18.1294 3 17.0782 3 15.9283V5.03583ZM6 4.02389C5.44772 4.02389 5 4.47695 5 5.03583V15.9283C5 16.3116 5.214 16.662 5.55279 16.8334L8 18.0717V4.02389H6ZM11.5528 19.8693L10 19.0836V4.02389H14V19.0836L12.4472 19.8693C12.1657 20.0117 11.8343 20.0117 11.5528 19.8693ZM16 18.0717L18.4472 16.8334C18.786 16.662 19 16.3116 19 15.9283V5.03583C19 4.47695 18.5523 4.02389 18 4.02389H16V18.0717Z" fill="#DADBDB"/>
</svg>
