<svg width="24" height="24" viewBox="0 0 24 24" fill="none" xmlns="http://www.w3.org/2000/svg">
<path fill-rule="evenodd" clip-rule="evenodd" d="M9.77072 3.04091C9.17905 3.71214 8.92211 4.55044 9.03478 5.44061L9.16705 6.56299L9.3804 8.51011C9.41328 8.79874 9.44231 9.04077 9.47523 9.30189L9.4852 9.40631C9.55504 9.85279 9.96453 10.214 10.4564 10.214L11.1477 10.213V13.78L11.0024 13.7805L10.8131 13.7859C9.4337 13.8653 8.25547 14.8064 7.85902 16.1106L7.83173 16.211L7.75105 16.2327C6.78369 16.5279 6.03897 17.3701 5.74683 18.4158L5.73173 18.475L5.65476 18.483C4.93578 18.5716 4.32287 18.9035 3.82713 19.4751C3.28759 20.0972 3 20.8958 3 21.7828C3 22.3267 3.44092 22.7676 3.9848 22.7676H20.2811C20.825 22.7676 21.2659 22.3267 21.2659 21.7828L21.2614 21.5941C21.1834 19.9697 20.1028 18.6586 18.57 18.4796L18.5337 18.476L18.5191 18.4158C18.227 17.3701 17.4822 16.5279 16.5148 16.2326L16.4337 16.211L16.4069 16.1105C15.9923 14.7471 14.7234 13.7804 13.2634 13.7804L13.1177 13.78V10.212L13.8098 10.2118C14.3015 10.2125 14.7214 9.84541 14.7838 9.35252L15.2085 5.61037L15.2298 5.44102C15.3426 4.55087 15.0857 3.71252 14.494 3.04106C13.2709 1.65303 10.994 1.65298 9.77072 3.04091ZM10.6355 4.61994C10.5759 4.81389 10.5595 5.02313 10.5875 5.24419C10.6705 5.90018 10.7475 6.60791 10.8231 7.30256L10.8231 7.30268L10.8231 7.30276L10.8231 7.30283C10.873 7.76198 10.9224 8.2154 10.9724 8.64438H13.2928C13.342 8.22155 13.3905 7.77454 13.4396 7.32174L13.4396 7.32169C13.5157 6.62041 13.5934 5.90525 13.6771 5.2445C13.7333 4.80091 13.6138 4.41467 13.3168 4.0776C12.8661 3.56625 12.0559 3.42543 11.4463 3.70076C11.0769 3.86758 10.7543 4.23354 10.6355 4.61994ZM13.2635 15.3501C14.008 15.3501 14.6574 15.8327 14.8895 16.5197H9.37641C9.60846 15.8327 10.258 15.3501 11.0025 15.3501H13.2635ZM17.0153 18.8588C16.8592 18.2609 16.396 17.6893 15.7588 17.6893H8.5071C7.86994 17.6893 7.40674 18.261 7.2506 18.8588H17.0153ZM4.64288 21.198C4.81513 20.5774 5.31641 20.0284 5.97969 20.0284H18.2862C18.9495 20.0284 19.4508 20.5774 19.623 21.198H4.64288Z" fill="#DADBDB"/>
<mask id="mask0" mask-type="alpha" maskUnits="userSpaceOnUse" x="3" y="2" width="19" height="21">
<path fill-rule="evenodd" clip-rule="evenodd" d="M9.77072 3.04091C9.17905 3.71214 8.92211 4.55044 9.03478 5.44061L9.16705 6.56299L9.3804 8.51011C9.41328 8.79874 9.44231 9.04077 9.47523 9.30189L9.4852 9.40631C9.55504 9.85279 9.96453 10.214 10.4564 10.214L11.1477 10.213V13.78L11.0024 13.7805L10.8131 13.7859C9.4337 13.8653 8.25547 14.8064 7.85902 16.1106L7.83173 16.211L7.75105 16.2327C6.78369 16.5279 6.03897 17.3701 5.74683 18.4158L5.73173 18.475L5.65476 18.483C4.93578 18.5716 4.32287 18.9035 3.82713 19.4751C3.28759 20.0972 3 20.8958 3 21.7828C3 22.3267 3.44092 22.7676 3.9848 22.7676H20.2811C20.825 22.7676 21.2659 22.3267 21.2659 21.7828L21.2614 21.5941C21.1834 19.9697 20.1028 18.6586 18.57 18.4796L18.5337 18.476L18.5191 18.4158C18.227 17.3701 17.4822 16.5279 16.5148 16.2326L16.4337 16.211L16.4069 16.1105C15.9923 14.7471 14.7234 13.7804 13.2634 13.7804L13.1177 13.78V10.212L13.8098 10.2118C14.3015 10.2125 14.7214 9.84541 14.7838 9.35252L15.2085 5.61037L15.2298 5.44102C15.3426 4.55087 15.0857 3.71252 14.494 3.04106C13.2709 1.65303 10.994 1.65298 9.77072 3.04091ZM10.6355 4.61994C10.5759 4.81389 10.5595 5.02313 10.5875 5.24419C10.6705 5.90018 10.7475 6.60791 10.8231 7.30256L10.8231 7.30268L10.8231 7.30276L10.8231 7.30283C10.873 7.76198 10.9224 8.2154 10.9724 8.64438H13.2928C13.342 8.22155 13.3905 7.77454 13.4396 7.32174L13.4396 7.32169C13.5157 6.62041 13.5934 5.90525 13.6771 5.2445C13.7333 4.80091 13.6138 4.41467 13.3168 4.0776C12.8661 3.56625 12.0559 3.42543 11.4463 3.70076C11.0769 3.86758 10.7543 4.23354 10.6355 4.61994ZM13.2635 15.3501C14.008 15.3501 14.6574 15.8327 14.8895 16.5197H9.37641C9.60846 15.8327 10.258 15.3501 11.0025 15.3501H13.2635ZM17.0153 18.8588C16.8592 18.2609 16.396 17.6893 15.7588 17.6893H8.5071C7.86994 17.6893 7.40674 18.261 7.2506 18.8588H17.0153ZM4.64288 21.198C4.81513 20.5774 5.31641 20.0284 5.97969 20.0284H18.2862C18.9495 20.0284 19.4508 20.5774 19.623 21.198H4.64288Z" fill="white"/>
</mask>
<g mask="url(#mask0)">
</g>
</svg>
