<svg width="24" height="24" viewBox="0 0 24 24" fill="none" xmlns="http://www.w3.org/2000/svg">
<path fill-rule="evenodd" clip-rule="evenodd" d="M9.95221 6C9.96397 5.99976 9.97576 5.99975 9.98756 6H12.7446C13.7357 6 14.6578 6.39073 15.3653 7.11521L15.4954 7.25495L17.8141 10.0615H19.4462C21.3538 10.0615 22.9199 11.58 22.997 13.4693L23 13.6154V14.9692C23 15.8063 22.4034 16.4378 21.5849 16.489L21.4769 16.4923H19.4889C19.1276 17.6682 18.0329 18.5231 16.7385 18.5231C15.4441 18.5231 14.3493 17.6682 13.988 16.4923H8.65817C8.29684 17.6682 7.20209 18.5231 5.90769 18.5231C4.61329 18.5231 3.51855 17.6682 3.15722 16.4923H2.52308C1.686 16.4923 1.05452 15.8957 1.00335 15.0772L1 14.9692V12.2615C1 11.0914 1.9211 10.1299 3.07546 10.065L3.2 10.0615H3.35366L4.41806 7.93423C5.02066 6.81512 6.18708 6.06212 7.44263 6.00367L7.6 6H9.95221ZM8.65817 14.8H13.988C14.3493 13.6241 15.4441 12.7692 16.7385 12.7692C18.0329 12.7692 19.1276 13.6241 19.4889 14.8H21.3077V13.7846H20.1231C19.6558 13.7846 19.2769 13.4058 19.2769 12.9385C19.2769 12.5004 19.6099 12.14 20.0366 12.0967L20.1231 12.0923H20.5116C20.238 11.8997 19.9111 11.7787 19.5589 11.7573L19.4462 11.7538H17.4154H7.95547C7.94371 11.7541 7.93193 11.7541 7.92014 11.7538H3.87692H3.2C2.94581 11.7538 2.73103 11.9474 2.697 12.1933L2.69231 12.2615V14.8H3.15722C3.51855 13.6241 4.61329 12.7692 5.90769 12.7692C7.20209 12.7692 8.29683 13.6241 8.65817 14.8ZM15.5538 15.6462C15.5538 16.3004 16.0842 16.8308 16.7385 16.8308C17.3927 16.8308 17.9231 16.3004 17.9231 15.6462C17.9231 14.9919 17.3927 14.4615 16.7385 14.4615C16.0842 14.4615 15.5538 14.9919 15.5538 15.6462ZM9.30757 10.0615H15.6192L14.2107 8.356C13.8598 7.96132 13.3976 7.73254 12.8855 7.69715L12.7446 7.69231H10.4922L9.30757 10.0615ZM5.9199 8.7138L5.24603 10.0615H7.41551L8.60013 7.69231H7.6C6.96147 7.69231 6.32978 8.05921 5.98496 8.60278L5.9199 8.7138ZM7.09231 15.6462C7.09231 14.9919 6.56194 14.4615 5.90769 14.4615C5.25345 14.4615 4.72308 14.9919 4.72308 15.6462C4.72308 16.3004 5.25345 16.8308 5.90769 16.8308C6.56194 16.8308 7.09231 16.3004 7.09231 15.6462Z" fill="#DADBDB"/>
</svg>
