<svg width="24" height="24" viewBox="0 0 24 24" fill="none" xmlns="http://www.w3.org/2000/svg">
<path fill-rule="evenodd" clip-rule="evenodd" d="M8.91228 4H15.0175C16.4498 4 17.7462 4.86422 18.4185 6.21164L19.2876 8.21053H21.1228C21.6073 8.21053 22 8.60326 22 9.08772C22 9.5419 21.6548 9.91546 21.2125 9.96038L21.1228 9.96491H20.8893C21.5739 10.6346 22 11.5676 22 12.5965V15.4035C22 16.048 21.7304 16.6315 21.2982 17.0469V18.2105C21.2982 19.4669 20.2739 20.4912 19.0175 20.4912H17.614C16.3576 20.4912 15.3333 19.4669 15.3333 18.2105V17.6842H8.66667V18.2105C8.66667 19.4669 7.64235 20.4912 6.38596 20.4912H4.98246C3.72607 20.4912 2.70175 19.4669 2.70175 18.2105V17.0469C2.26957 16.6315 2 16.048 2 15.4035V12.5965C2 11.5676 2.42606 10.6346 3.11066 9.96491H2.87719C2.39273 9.96491 2 9.57218 2 9.08772C2 8.63354 2.34518 8.25998 2.78751 8.21506L2.87719 8.21053H4.71244L5.5797 6.21586C6.14727 4.89151 7.45832 4 8.91228 4ZM9.88842 15.9298H14.0688L13.6499 15.1175C13.5955 14.9907 13.467 14.9018 13.2778 14.8816L13.193 14.8772H10.7368C10.501 14.8772 10.3421 14.9726 10.2636 15.1533L9.88842 15.9298ZM16.0426 15.9298L15.2353 14.3689C14.9116 13.6077 14.1033 13.1228 13.193 13.1228H10.7368C9.82648 13.1228 9.01827 13.6077 8.66742 14.4264L7.94088 15.9298H7.78947H4.2807C3.99323 15.9298 3.75439 15.691 3.75439 15.4035V12.5965C3.75439 11.5371 4.62481 10.6667 5.68421 10.6667H18.3158C19.3752 10.6667 20.2456 11.5371 20.2456 12.5965V15.4035C20.2456 15.691 20.0068 15.9298 19.7193 15.9298H16.2105H16.0426ZM17.0877 18.2105V17.6842H19.5439V18.2105C19.5439 18.498 19.305 18.7368 19.0175 18.7368H17.614L17.5433 18.732C17.2884 18.6967 17.0877 18.474 17.0877 18.2105ZM4.45614 17.6842V18.2105C4.45614 18.474 4.65684 18.6967 4.91171 18.732L4.98246 18.7368H6.38596C6.67343 18.7368 6.91228 18.498 6.91228 18.2105V17.6842H4.45614ZM16.8295 6.9537L17.68 8.91228H6.32L7.19041 6.91116C7.48713 6.21884 8.17016 5.75439 8.91228 5.75439H15.0175L15.1482 5.75921C15.8423 5.81048 16.4858 6.26645 16.8295 6.9537ZM7.08772 12.4211C7.57218 12.4211 7.96491 12.8138 7.96491 13.2982C7.96491 13.7524 7.61974 14.126 7.17741 14.1709L7.08772 14.1754H4.98246C4.498 14.1754 4.10526 13.7827 4.10526 13.2982C4.10526 12.8441 4.45044 12.4705 4.89277 12.4256L4.98246 12.4211H7.08772ZM19.8947 13.2982C19.8947 12.8138 19.502 12.4211 19.0175 12.4211H16.9123L16.8226 12.4256C16.3803 12.4705 16.0351 12.8441 16.0351 13.2982C16.0351 13.7827 16.4278 14.1754 16.9123 14.1754H19.0175L19.1072 14.1709C19.5496 14.126 19.8947 13.7524 19.8947 13.2982Z" fill="#DADBDB"/>
</svg>
