<svg width="24" height="24" viewBox="0 0 24 24" fill="none" xmlns="http://www.w3.org/2000/svg">
<path fill-rule="evenodd" clip-rule="evenodd" d="M16.7927 4.67868C16.706 3.18657 15.4654 2 13.9518 2H6.14656L5.97956 2.00484L5.8088 2.01991C4.39794 2.18736 3.30088 3.39036 3.30088 4.84568L3.30056 20.2117L2.89411 20.2123L2.78981 20.2184C2.34502 20.27 2 20.648 2 21.1067C2 21.6006 2.40014 22.0011 2.89436 22.0011H17.2041L17.3084 21.995C17.7534 21.9434 18.0984 21.5654 18.0984 21.1067L18.0924 21.0024L18.0728 20.8934C17.9772 20.5025 17.6247 20.2123 17.2041 20.2123L16.7959 20.2117L16.7969 14.7363L16.9292 14.7352L17.0956 14.7438C17.3655 14.766 17.5959 14.828 17.7531 14.927C18.1657 15.1866 18.1844 15.4447 17.6993 16.4467L17.6191 16.6213L17.5474 16.7973C17.0577 18.0812 17.3613 19.2146 18.3896 19.7706C18.7315 19.9554 19.1128 20.0497 19.4988 20.0497C20.2137 20.0497 20.8853 19.7255 21.2839 19.1662C21.569 18.7645 21.7112 18.3247 21.8074 17.7212C22.0315 16.334 22.0595 14.7193 21.8941 12.7863C21.7889 11.5537 21.5418 10.4117 21.1588 9.39112L21.1041 9.25027L21.0476 9.11367C20.9318 8.84277 20.7966 8.5799 20.5935 8.2204L20.1834 7.50663L20.4965 7.18924L20.7866 6.88894C20.9148 6.75215 20.9941 6.65811 21.0562 6.5702L21.0959 6.51249L21.1796 6.37649C21.2555 6.23972 21.308 6.09851 21.335 5.9336C21.3848 5.62005 21.3317 5.38263 21.2035 5.06418L21.0633 4.72805L20.8517 4.23914L21.5321 3.55991L21.6123 3.46826C21.8793 3.11753 21.8526 2.61564 21.5322 2.29519C21.1826 1.94562 20.6171 1.94562 20.2675 2.29519L19.0844 3.47834L18.5893 3.95022L18.4256 4.11998C18.2201 4.34339 18.0647 4.55814 17.9424 4.80099C17.6264 5.42864 17.6627 6.06066 17.9134 6.82706L17.9919 7.05621L18.0564 7.23164C18.212 7.63573 18.4084 8.01325 18.7351 8.57668L18.9755 8.99153L19.0754 9.16795C19.2639 9.50585 19.3872 9.75911 19.4844 10.0184C19.8088 10.882 20.0205 11.8643 20.1131 12.9373C20.2662 14.7259 20.2426 16.1969 20.0424 17.4351C19.9884 17.7735 19.9252 17.9901 19.827 18.1279C19.7248 18.2719 19.4432 18.3066 19.2412 18.1969C19.0351 18.0855 19.0607 17.7371 19.309 17.2269L19.4271 16.9784L19.503 16.8078C20.1079 15.3968 20.03 14.245 18.7056 13.4129L18.5262 13.3103L18.3364 13.2209C17.9469 13.055 17.4997 12.967 17.0234 12.9504L16.7969 12.9479L16.7975 4.84568L16.7927 4.67868ZM6.14656 3.78871H13.9518L14.0668 3.79493C14.5957 3.85243 15.0088 4.3018 15.0088 4.84568L15.0085 20.2117H5.08797L5.08959 4.84569L5.09581 4.7307C5.15331 4.20183 5.60268 3.78871 6.14656 3.78871ZM19.6426 4.71954L19.3289 5.06144L19.2388 5.17295C19.1842 5.24565 19.14 5.31572 19.1044 5.38704C18.9884 5.61791 18.9973 5.88371 19.0933 6.23537L19.2055 6.6463L19.7886 6.04937L19.855 5.97879C19.9153 5.91396 19.9572 5.86596 19.9834 5.8311L20.0661 5.72079L19.9544 5.44657L19.6426 4.71954ZM13.1795 4.92698C13.4435 4.92698 13.6603 5.12288 13.7011 5.37694L13.7079 5.4636V10.7322C13.7079 10.9975 13.5175 11.2199 13.2655 11.2617L13.1795 11.2688H6.91896C6.65494 11.2688 6.43808 11.0729 6.39735 10.8188L6.39047 10.7322V5.4636C6.39047 5.19831 6.58093 4.97588 6.83288 4.93405L6.91896 4.92698H13.1795ZM12.25 6.25H7.75V10H12.25V6.25Z" fill="#DADBDB"/>
</svg>
