<svg width="24" height="24" viewBox="0 0 24 24" fill="none" xmlns="http://www.w3.org/2000/svg">
<path fill-rule="evenodd" clip-rule="evenodd" d="M17.817 21.4427H19.9042C21.0617 21.4427 22 20.5044 22 19.347C22 18.1895 21.0617 17.2512 19.9042 17.2512H7.65597L6.21338 4.9892C6.07993 3.85488 5.11858 3 3.97644 3C3.91076 3 3.84513 3.00327 3.77979 3.00981C2.69373 3.11841 1.90135 4.08688 2.00996 5.17294L3.41047 19.178C3.53903 20.4637 4.62086 21.4427 5.9129 21.4427H6.06369H17.817ZM7.65597 18.9278H19.9042C20.1357 18.9278 20.3234 19.1155 20.3234 19.347C20.3234 19.5784 20.1357 19.7661 19.9042 19.7661H5.9129C5.48222 19.7661 5.12161 19.4398 5.07876 19.0112L3.67825 5.00611C3.66178 4.84142 3.78193 4.69457 3.94662 4.6781C3.95653 4.67711 3.96648 4.67661 3.97644 4.67661C4.2684 4.67661 4.51414 4.89514 4.54825 5.1851L5.99084 17.4471C6.09018 18.2914 6.80578 18.9278 7.65597 18.9278Z" fill="#DADBDB"/>
</svg>
