<svg width="24" height="24" viewBox="0 0 24 24" fill="none" xmlns="http://www.w3.org/2000/svg">
<path fill-rule="evenodd" clip-rule="evenodd" d="M14.702 2C14.9954 2 15.271 2.14123 15.4385 2.37726C15.5854 2.5804 15.6409 2.83406 15.5954 3.07649L15.5641 3.19649L13.3649 9.79143L16.4336 9.79221C16.6776 9.79221 16.9081 9.89022 17.0769 10.0591L17.156 10.1493L17.2234 10.2506C17.3634 10.4971 17.3801 10.7939 17.2726 11.0516L17.2189 11.1594L11.159 21.5479C10.9956 21.8297 10.6948 22 10.373 22C10.2737 22 10.1761 21.9841 10.0877 21.9535C9.71399 21.83 9.46615 21.4821 9.46384 21.096L9.46938 20.9899L10.222 14.2076L6.90976 14.2078C6.69015 14.2078 6.48069 14.1287 6.31805 13.9893L6.2408 13.9147L6.17237 13.8305C6.02547 13.6274 5.96996 13.3737 6.01551 13.1313L6.04675 13.0113L9.51062 2.61972C9.62321 2.28685 9.91529 2.05117 10.2573 2.00737L10.373 2H14.702ZM13.4391 3.8181H11.0277L8.16961 12.3895L11.2388 12.3896C11.4603 12.3896 11.6713 12.4703 11.8373 12.615L11.9163 12.6926C12.0646 12.858 12.146 13.0706 12.148 13.2898L12.1423 13.3998L11.7506 16.9248L14.8506 11.6095L12.1046 11.6104C11.8484 11.6104 11.606 11.5028 11.4356 11.3173L11.3672 11.2331C11.2203 11.03 11.1648 10.7763 11.2103 10.5339L11.2416 10.4139L13.4391 3.8181Z" fill="#DADBDB"/>
</svg>
