<svg width="24" height="24" viewBox="0 0 24 24" fill="none" xmlns="http://www.w3.org/2000/svg">
<path fill-rule="evenodd" clip-rule="evenodd" d="M6 2C6.55228 2 7 2.44772 7 3V4.06635C7.05073 4.11031 7.10773 4.15831 7.1705 4.20911C7.47301 4.45398 7.89109 4.74911 8.37147 4.97655C9.32586 5.42841 10.3652 5.56065 11.3598 4.73178C12.9678 3.39181 14.6992 3.30681 16.031 3.58713C17.3308 3.86071 18.2898 4.48435 18.5275 4.64837C18.843 4.86606 19 5.21359 19 5.5505V12.573C19 13.5987 17.8651 14.0796 17.1119 13.5938C16.3327 13.0913 14.4983 12.2198 12.6402 13.7682C11.7268 14.5294 10.7653 14.8667 9.83019 14.8979C8.91357 14.9284 8.09048 14.6633 7.42779 14.3319C7.27881 14.2574 7.13604 14.1787 7 14.0976V21C7 21.5523 6.55228 22 6 22C5.44772 22 5 21.5523 5 21V3C5 2.44772 5.44772 2 6 2ZM7 11.5955V6.51359C7.16279 6.6074 7.33505 6.69869 7.51564 6.78419C8.85696 7.41924 10.8177 7.787 12.6402 6.26822C13.6638 5.41525 14.7234 5.35573 15.6191 5.54425C16.1906 5.66454 16.6776 5.88474 17 6.05866V11.3047C15.62 10.7667 13.4836 10.4619 11.3598 12.2318C10.7732 12.7206 10.2347 12.8833 9.76356 12.899C9.27393 12.9153 8.78452 12.7742 8.32221 12.5431C7.86036 12.3121 7.4632 12.0099 7.17666 11.7575C7.11068 11.6993 7.05159 11.6448 7 11.5955Z" fill="#DADBDB"/>
</svg>
