<?xml version="1.0" encoding="UTF-8"?>
<svg width="24px" height="24px" viewBox="0 0 24 24" version="1.1" xmlns="http://www.w3.org/2000/svg" xmlns:xlink="http://www.w3.org/1999/xlink">
    <title>675E067D-E34B-4AAE-8288-B2C57B446233</title>
    <g id="Main-Feature" stroke="none" stroke-width="1" fill="none" fill-rule="evenodd">
        <g id="5.1-Your-Post" transform="translate(-676.000000, -863.000000)" fill="#FF5656">
            <g id="Dropdown" transform="translate(660.000000, 707.000000)">
                <g id="1" transform="translate(4.000000, 16.000000)">
                    <g id="Dropdown-/-iL" transform="translate(0.000000, 132.000000)">
                        <g id="Icon/Base" transform="translate(12.000000, 8.000000)">
                            <g id="Eye-Close">
                                <path d="M20.2929,2.29289 C20.6834,1.90237 21.3166,1.90237 21.7071,2.29289 C22.0976,2.68342 22.0976,3.31658 21.7071,3.70711 L18.297,7.11721 C18.7987,7.49865 19.2424,7.90337 19.6306,8.30586 C20.4164,9.12085 20.9822,9.93352 21.3526,10.5435 C21.5383,10.8494 21.6763,11.1067 21.7696,11.2913 C21.8162,11.3837 21.8518,11.4581 21.8766,11.5115 C21.889,11.5382 21.8987,11.5597 21.9058,11.5756 L21.9144,11.5952 L21.9173,11.6017 L21.9183,11.6042 L21.9188,11.6052 C21.919,11.6057 21.9191,11.6061 21,12 C21.9191,12.3939 21.919,12.3943 21.9188,12.3948 L21.9183,12.3958 L21.9173,12.3983 L21.9144,12.4048 L21.9058,12.4244 C21.8987,12.4403 21.889,12.4618 21.8766,12.4885 C21.8518,12.5419 21.8162,12.6163 21.7696,12.7087 C21.6763,12.8933 21.5383,13.1506 21.3526,13.4565 C20.9822,14.0665 20.4164,14.8792 19.6306,15.6941 C18.0543,17.3288 15.5601,19 12,19 C10.2242,19 8.71354,18.5842 7.44976,17.9645 L3.70711,21.7071 C3.31658,22.0976 2.68342,22.0976 2.29289,21.7071 C1.90237,21.3166 1.90237,20.6834 2.29289,20.2929 L20.2929,2.29289 Z M8.96694,16.4473 C9.84792,16.7884 10.8553,17 12,17 C14.8685,17 16.8743,15.6712 18.1909,14.3059 C18.8514,13.6208 19.3303,12.9335 19.643,12.4185 C19.7392,12.26 19.8192,12.1187 19.8833,12 C19.8192,11.8813 19.7392,11.74 19.643,11.5815 C19.3303,11.0665 18.8514,10.3792 18.1909,9.69414 C17.809,9.29816 17.3692,8.90526 16.8672,8.54697 L15.4462,9.96803 C15.7981,10.5635 16,11.2582 16,12 C16,14.2091 14.2091,16 12,16 C11.2582,16 10.5635,15.7981 9.96803,15.4462 L8.96694,16.4473 Z M11.482,13.9323 C11.6472,13.9764 11.8208,14 12,14 C13.1046,14 14,13.1046 14,12 C14,11.8208 13.9764,11.6472 13.9323,11.482 L11.482,13.9323 Z M21,12 L21.9191,12.3939 C22.027,12.1424 22.027,11.8576 21.9191,11.6061 L21,12 Z M12,5 C12.8982,5 13.7285,5.10637 14.4933,5.29169 L12.7537,7.03135 C12.5093,7.01076 12.2582,7 12,7 C9.13149,7 7.12574,8.32877 5.80913,9.69414 C5.14858,10.3792 4.6697,11.0665 4.35702,11.5815 C4.26075,11.74 4.18081,11.8813 4.11667,12 C4.18081,12.1187 4.26075,12.26 4.35702,12.4185 C4.64385,12.8909 5.07053,13.5084 5.649,14.136 L4.23381,15.5512 C3.51805,14.7848 2.99614,14.0308 2.64744,13.4565 C2.46175,13.1506 2.3237,12.8933 2.23045,12.7087 C2.18379,12.6163 2.14823,12.5419 2.12344,12.4885 C2.11104,12.4618 2.10132,12.4403 2.09424,12.4244 L2.08559,12.4048 L2.08273,12.3983 L2.08167,12.3958 L2.08123,12.3948 C2.08104,12.3943 2.08085,12.3939 2.99979,12.0001 L2.08085,12.3939 C1.97305,12.1424 1.97305,11.8576 2.08085,11.6061 L2.99979,11.9999 C2.08085,11.6061 2.08104,11.6057 2.08123,11.6052 L2.08167,11.6042 L2.08273,11.6017 L2.08559,11.5952 L2.09424,11.5756 C2.10132,11.5597 2.11104,11.5382 2.12344,11.5115 C2.14823,11.4581 2.18379,11.3837 2.23045,11.2913 C2.3237,11.1067 2.46175,10.8494 2.64744,10.5435 C3.0178,9.93352 3.58356,9.12085 4.36944,8.30586 C5.94569,6.67123 8.43994,5 12,5 Z M8.006,11.779 C8.11671,9.74581 9.74581,8.11671 11.779,8.006 L8.006,11.779 Z" id="Main"></path>
                            </g>
                        </g>
                    </g>
                </g>
            </g>
        </g>
    </g>
</svg>