<?xml version="1.0" encoding="UTF-8"?>
<svg width="48px" height="48px" viewBox="0 0 48 48" version="1.1" xmlns="http://www.w3.org/2000/svg" xmlns:xlink="http://www.w3.org/1999/xlink">
    <!-- Generator: sketchtool 64 (101010) - https://sketch.com -->
    <title>B355817C-7713-4DA6-B9E8-07009E5D5760</title>
    <desc>Created with sketchtool.</desc>
    <g id="New-Post" stroke="none" stroke-width="1" fill="none" fill-rule="evenodd">
        <g id="6.00-Full" transform="translate(-793.000000, -424.000000)">
            <g id="2" transform="translate(167.000000, 360.000000)">
                <g id="Box" transform="translate(0.000000, 48.000000)">
                    <g id="Right" transform="translate(561.000000, 8.000000)">
                        <g id="Illus-/-Car-Buy" transform="translate(65.000000, 8.000000)">
                            <g id="Group">
                                <path d="M41.2149497,11.0622468 C41.1403565,6.70885321 37.5367774,3.2 33.1,3.2 C28.6165197,3.2 24.983871,6.78311259 24.983871,11.2 C24.983871,15.6168874 28.6165197,19.2 33.1,19.2 C37.5367774,19.2 41.1403565,15.6911468 41.2149497,11.3377532 L41.216129,11.2 L41.2149497,11.0622468 Z" id="Path" fill="#2A77FC"></path>
                                <g id="Car" transform="translate(1.600000, 23.200140)">
                                    <path d="M40.94965,18.55 L43.04965,18.55 L44.06465,15.5043 C44.28585,14.8421 43.98485,14.119 43.35975,13.8082 L43.04195,13.65 L42.57505,11.4226 C42.28035,10.0198 41.16105,8.939 39.74915,8.6933 L34.03715,7.7 L25.89965,1.127 C25.27735,0.6244 24.50105,0.35 23.70025,0.35 L9.57985,0.35 C8.45425,0.35 7.39795,0.8904 6.73995,1.8032 L3.49965,6.3 L1.23655,6.3 C0.69195,6.3 0.35595,6.8936 0.63595,7.3605 L2.09965,9.8 L2.09965,13.65 C1.19945,13.65 0.52815,14.4809 0.71645,15.3608 L1.39965,18.55 L3.49965,18.55" fill="#FFFFFF" opacity="0"></path>
                                    <path d="M34.99965,12.25 C37.51265,12.25 39.54965,14.287 39.54965,16.8 C39.54965,19.313 37.51265,21.35 34.99965,21.35 C32.48665,21.35 30.44965,19.313 30.44965,16.8 C30.44965,14.287 32.48665,12.25 34.99965,12.25 Z M9.45,12.25 C11.963,12.25 14,14.287 14,16.8 C14,19.313 11.963,21.35 9.45,21.35 C6.937,21.35 4.9,19.313 4.9,16.8 C4.9,14.287 6.937,12.25 9.45,12.25 Z M42.39816,10.85 C42.47096,11.0341 42.53326,11.2238 42.57526,11.4226 L42.57526,11.4226 L43.04216,13.65 L41.10106,13.65 L40.20786,11.8629 C39.97546,11.3974 40.31356,10.85 40.83366,10.85 L40.83366,10.85 Z M27.10407,2.10007 L34.03757,7.70007 L11.62497,7.70007 C10.40277,7.70007 9.55717,6.47927 9.98627,5.33547 L9.98627,5.33547 L10.77377,3.23547 C11.02997,2.55227 11.68307,2.10007 12.41247,2.10007 L12.41247,2.10007 L27.10407,2.10007 Z" id="White" fill="#FFFFFF"></path>
                                    <path d="M2.45,21 C2.6432,21 2.8,21.1568 2.8,21.35 C2.8,21.5432 2.6432,21.7 2.45,21.7 L0.35,21.7 C0.1568,21.7 9.09494702e-14,21.5432 9.09494702e-14,21.35 C9.09494702e-14,21.1568 0.1568,21 0.35,21 L2.45,21 Z M34.99965,11.9 C37.70095,11.9 39.89965,14.098 39.89965,16.8 C39.89965,18.5808171 38.9440878,20.1432026 37.5189126,21.0012072 L44.44965,21 C44.64285,21 44.79965,21.1568 44.79965,21.35 C44.79965,21.5432 44.64285,21.7 44.44965,21.7 L3.84965,21.7 C3.65645,21.7 3.49965,21.5432 3.49965,21.35 C3.49965,21.1568 3.65645,21 3.84965,21 L6.92981747,21.0008405 C5.50498591,20.1427575 4.55,18.5805635 4.55,16.8 C4.55,14.098 6.748,11.9 9.45,11.9 C12.152,11.9 14.35,14.098 14.35,16.8 C14.35,18.5805635 13.3950141,20.1427575 11.9701825,21.0008405 L32.4797785,21.0008405 C31.05494,20.1427575 30.09965,18.5805635 30.09965,16.8 C30.09965,14.098 32.29835,11.9 34.99965,11.9 Z M34.99965,12.6 C32.68335,12.6 30.79965,14.4837 30.79965,16.8 C30.79965,19.1163 32.68335,21 34.99965,21 C37.31595,21 39.19965,19.1163 39.19965,16.8 C39.19965,14.4837 37.31595,12.6 34.99965,12.6 Z M9.45,12.6 C7.1337,12.6 5.25,14.4837 5.25,16.8 C5.25,19.1163 7.1337,21 9.45,21 C11.7663,21 13.65,19.1163 13.65,16.8 C13.65,14.4837 11.7663,12.6 9.45,12.6 Z M34.99965,14 C36.54385,14 37.79965,15.2558 37.79965,16.8 C37.79965,18.3435 36.54385,19.6 34.99965,19.6 C33.45545,19.6 32.19965,18.3435 32.19965,16.8 C32.19965,15.2558 33.45545,14 34.99965,14 Z M9.45,14 C10.9942,14 12.25,15.2558 12.25,16.8 C12.25,18.3435 10.9942,19.6 9.45,19.6 C7.9058,19.6 6.65,18.3435 6.65,16.8 C6.65,15.2558 7.9058,14 9.45,14 Z M23.70025,0 C24.57735,0 25.43695,0.3038 26.11945,0.8547 L27.3175156,1.82181917 C27.319722,1.82349548 27.3219103,1.82519915 27.32408,1.82693 L34.189,7.371 L39.80935,8.3482 C41.37245,8.6198 42.59185,9.7986 42.91735,11.3512 L43.34995,13.412 L43.51585,13.4946 C44.29215,13.881 44.67085,14.7924 44.39715,15.6156 L43.38215,18.6606 C43.33385,18.8034 43.20015,18.9 43.04965,18.9 L40.94965,18.9 C40.75645,18.9 40.59965,18.7432 40.59965,18.55 C40.59965,18.3568 40.75645,18.2 40.94965,18.2 L42.79765,18.2 L43.73285,15.3937 C43.89735,14.9002 43.67055,14.3535 43.20435,14.1218 L42.962,14 L41.10113,14 C40.96883,14 40.84773,13.9251 40.78823,13.8068 L39.89503,12.0197 C39.73053,11.6914 39.74803,11.3099 39.94053,10.9984 C40.13303,10.6862 40.46693,10.5 40.83443,10.5 L41.8405614,10.4998212 C41.3784778,9.73812436 40.6055226,9.19732217 39.68895,9.0377 L34.005,8.049 L11.62518,8.04993 C10.93638,8.04993 10.29098,7.71183 9.89898,7.14623 C9.50698,6.58063 9.41668,5.85683 9.65818,5.21213 L10.44568,3.11213 C10.75158,2.29733 11.54188,1.74993 12.41268,1.74993 L26.112,1.749 L25.67985,1.3993 C25.12125,0.9478 24.41845,0.7 23.70025,0.7 L9.57985,0.7 C8.56975,0.7 7.61425,1.1886 7.02415,2.0083 L3.78385,6.5044 C3.71805,6.5961 3.61235,6.65 3.49965,6.65 L1.23655,6.65 C1.05175,6.65 0.96215,6.7739 0.93205,6.8271 C0.90195,6.881 0.84175,7.0217 0.93625,7.1799 L2.39995,9.6194 C2.43285,9.674 2.44965,9.7363 2.44965,9.8 L2.44965,13.65 C2.44965,13.8432 2.29355,14 2.09965,14 C1.77695,14 1.47525,14.1442 1.27225,14.3948 C1.06925,14.6468 0.99155,14.9716 1.05875,15.2873 L1.68315,18.2 L3.49965,18.2 C3.69355,18.2 3.84965,18.3568 3.84965,18.55 C3.84965,18.7432 3.69355,18.9 3.49965,18.9 L1.39965,18.9 C1.23515,18.9 1.09235,18.7845 1.05805,18.6228 L0.37485,15.4343 C0.26215,14.9107 0.39095,14.3717 0.72765,13.9552 C0.98945,13.6311 1.35065,13.4148 1.74965,13.3343 L1.74965,9.8973 L0.33565,7.5397 C0.13895,7.2114 0.13335,6.8159 0.32235,6.4827 C0.51135,6.1488 0.85295,5.95 1.23655,5.95 L3.32115,5.95 L6.45575,1.5988 C7.17745,0.5978 8.34505,0 9.57985,0 L23.70025,0 Z M34.99965,14.7 C33.84185,14.7 32.89965,15.6422 32.89965,16.8 C32.89965,17.9578 33.84185,18.9 34.99965,18.9 C36.15745,18.9 37.09965,17.9578 37.09965,16.8 C37.09965,15.6422 36.15745,14.7 34.99965,14.7 Z M9.45,14.7 C8.2922,14.7 7.35,15.6422 7.35,16.8 C7.35,17.9578 8.2922,18.9 9.45,18.9 C10.6078,18.9 11.55,17.9578 11.55,16.8 C11.55,15.6422 10.6078,14.7 9.45,14.7 Z M29.04965,18.2 C29.24285,18.2 29.39965,18.3568 29.39965,18.55 C29.39965,18.7432 29.24285,18.9 29.04965,18.9 L15.39965,18.9 C15.20645,18.9 15.04965,18.7432 15.04965,18.55 C15.04965,18.3568 15.20645,18.2 15.39965,18.2 L29.04965,18.2 Z M19.24965,8.75 C19.44285,8.75 19.59965,8.9068 19.59965,9.1 L19.59965,17.15 C19.59965,17.3432 19.44285,17.5 19.24965,17.5 C19.05645,17.5 18.89965,17.3432 18.89965,17.15 L18.89965,9.1 C18.89965,8.9068 19.05645,8.75 19.24965,8.75 Z M42.15183,11.2 L40.83443,11.2 C40.65803,11.2 40.56703,11.3162 40.53623,11.3659 C40.50543,11.4163 40.44173,11.5486 40.52083,11.7068 L41.31743,13.3 L42.61,13.299 L42.23205,11.4947 L42.1935254,11.3371293 C42.1810405,11.2922627 42.1671642,11.2466416 42.15183,11.2 Z M33.33715,8.75021 C33.53035,8.75021 33.68715,8.90631 33.68715,9.10021 L33.68715,11.16451 C33.68715,11.35771 33.53035,11.51451 33.33715,11.51451 C33.14395,11.51451 32.98715,11.35771 32.98715,11.16451 L32.98715,9.10021 C32.98715,8.90631 33.14395,8.75021 33.33715,8.75021 Z M6.3875,7.7 C6.9664,7.7 7.4375,8.1711 7.4375,8.75 L7.4375,10.1493 C7.4375,10.7282 6.9664,11.1993 6.3875,11.1993 L4.9875,11.1993 C4.4086,11.1993 3.9375,10.7282 3.9375,10.1493 L3.9375,8.75 C3.9375,8.1711 4.4086,7.7 4.9875,7.7 L6.3875,7.7 Z M6.3875,8.4 L4.9875,8.4 C4.7943,8.4 4.6375,8.5568 4.6375,8.75 L4.6375,10.1493 C4.6375,10.3425 4.7943,10.4993 4.9875,10.4993 L6.3875,10.4993 C6.5807,10.4993 6.7375,10.3425 6.7375,10.1493 L6.7375,8.75 C6.7375,8.5568 6.5807,8.4 6.3875,8.4 Z M18.899,2.449 L12.41268,2.44993 C11.83238,2.44993 11.30528,2.81533 11.10158,3.35853 L10.31408,5.45853 C10.15028,5.89463 10.20908,6.36433 10.47438,6.74723 C10.73968,7.13013 11.15898,7.34993 11.62518,7.34993 L18.899,7.349 L18.899,2.449 Z M26.979,2.449 L19.599,2.449 L19.599,7.349 L33.046,7.349 L26.979,2.449 Z" id="Line" fill="#0B0F17"></path>
                                </g>
                                <path d="M34.074675,22.75 C34.254075,22.75 34.399675,22.8956 34.399675,23.075 L34.399675,27.95 C34.399675,28.1294 34.254075,28.275 34.074675,28.275 C33.895275,28.275 33.749675,28.1294 33.749675,27.95 L33.749675,23.075 C33.749675,22.8956 33.895275,22.75 34.074675,22.75 Z M32.124675,23.775 C32.304075,23.775 32.449675,23.9206 32.449675,24.1 L32.449675,24.75 C32.449675,24.9294 32.304075,25.075 32.124675,25.075 C31.945275,25.075 31.799675,24.9294 31.799675,24.75 L31.799675,24.1 C31.799675,23.9206 31.945275,23.775 32.124675,23.775 Z M32.124675,17.6 C32.304075,17.6 32.449675,17.7456 32.449675,17.925 L32.449675,22.8 C32.449675,22.9794 32.304075,23.125 32.124675,23.125 C31.945275,23.125 31.799675,22.9794 31.799675,22.8 L31.799675,17.925 C31.799675,17.7456 31.945275,17.6 32.124675,17.6 Z M34.074675,20.8 C34.254075,20.8 34.399675,20.9456 34.399675,21.125 L34.399675,21.775 C34.399675,21.9544 34.254075,22.1 34.074675,22.1 C33.895275,22.1 33.749675,21.9544 33.749675,21.775 L33.749675,21.125 C33.749675,20.9456 33.895275,20.8 34.074675,20.8 Z" id="Speed" fill="#0B0F17"></path>
                                <path d="M32.3555616,8.72967286 C32.1601137,8.86995918 32.0308174,9.06084057 31.988721,9.27471971 C31.9249749,9.59726327 32.0723125,9.90945783 32.3555616,10.112988 L32.3555616,8.72967286 Z M33.6455174,14.1789915 C34.1897645,13.9881102 34.5920864,13.5810498 34.6877055,13.0952222 C34.8170018,12.440936 34.3647655,11.8038981 33.6455174,11.5503478 L33.6455174,14.1789915 Z M33.0002388,16.4 C32.6448244,16.4 32.3555616,16.1619732 32.3555616,15.8693267 L32.3555616,15.3093313 C31.2087337,15.1155752 30.2982474,14.3991951 30.0186066,13.4574369 C29.9777129,13.3194504 30.0047749,13.1774392 30.0943802,13.056126 C30.1839856,12.9353878 30.3253094,12.8502961 30.4918911,12.8163744 C30.5448124,12.8066004 30.5929226,12.8025757 30.6416342,12.8025757 C30.9423232,12.8025757 31.2015172,12.9687345 31.2718784,13.2061864 C31.4107967,13.6747657 31.8203351,14.0456046 32.3555616,14.2094636 L32.3555616,11.3031219 C31.2339916,11.005301 30.5243655,10.0779164 30.7156037,9.1056862 C30.86234,8.36285862 31.4943882,7.76606681 32.3555616,7.53953889 L32.3555616,6.93067326 C32.3555616,6.63802679 32.6448244,6.4 33.0002388,6.4 C33.3562546,6.4 33.6455174,6.63802679 33.6455174,6.93067326 L33.6455174,7.49181855 C34.4633915,7.6482033 35.1225018,8.14093026 35.3877095,8.80269074 C35.4995658,9.08038866 35.3155441,9.38108434 34.9775697,9.47192549 C34.909614,9.48974875 34.8434624,9.49837291 34.7767094,9.49837291 C34.49767,9.49837291 34.2505037,9.35233715 34.1633039,9.13558328 C34.0742999,8.91250503 33.8872714,8.73082274 33.6455174,8.62043351 L33.6455174,10.4395561 C35.2115057,10.7540505 36.2146043,11.9758064 35.9608228,13.2648307 C35.762368,14.2750072 34.8464693,15.0661301 33.6455174,15.2909331 L33.6455174,15.8693267 C33.6455174,16.1619732 33.3562546,16.4 33.0002388,16.4 L33.0002388,16.4 Z" id="White" fill="#FFFFFF"></path>
                                <path d="M33.1,2.4 C37.9736394,2.4 41.9361709,6.26042514 42.0149341,11.054444 L42.016129,11.2 L42.0149341,11.345556 C41.9361709,16.1395749 37.9736394,20 33.1,20 C28.1771319,20 24.183871,16.0611926 24.183871,11.2 C24.183871,6.33880741 28.1771319,2.4 33.1,2.4 Z M33.1,3.2 C28.6165197,3.2 24.983871,6.78311259 24.983871,11.2 C24.983871,15.6168874 28.6165197,19.2 33.1,19.2 C37.5367774,19.2 41.1403565,15.6911468 41.2149497,11.3377532 L41.216129,11.2 L41.2149497,11.0622468 C41.1403565,6.70885321 37.5367774,3.2 33.1,3.2 Z M32.9840078,6 C33.488756,6 33.8989733,6.35812551 33.8989733,6.7985311 L33.8989733,6.7985311 L33.8989733,7.18506988 C34.6861471,7.40941628 35.3105176,7.94571663 35.576021,8.64716909 C35.7335725,9.06508084 35.4721538,9.51732529 34.9854948,9.65702384 C34.8956321,9.68188545 34.8022683,9.69431625 34.708321,9.69431625 C34.3646254,9.69431625 34.0565248,9.52916415 33.8989733,9.27166895 L33.8989733,9.27166895 L33.8989733,10.2140422 C35.4184696,10.6195232 36.4028744,11.9549466 36.1420392,13.3602192 C35.942474,14.4345958 35.0671882,15.2905454 33.8989733,15.5995396 L33.8989733,15.5995396 L33.8989733,16.0020608 C33.8989733,16.4418745 33.488756,16.8 32.9840078,16.8 C32.4798432,16.8 32.0696258,16.4418745 32.0696258,16.0020608 L32.0696258,16.0020608 L32.0696258,15.6226254 C30.9568458,15.3479638 30.0891457,14.5748863 29.8102213,13.5780543 C29.7524524,13.3714662 29.7903815,13.1565908 29.9170061,12.9748643 C30.0442144,12.7925459 30.2443631,12.6640943 30.4911937,12.6114113 C30.5582989,12.5983886 30.6271547,12.5912853 30.6960106,12.5912853 C31.1213995,12.5912853 31.488436,12.8416772 31.5876351,13.1992107 C31.6623262,13.4673609 31.8350492,13.6970348 32.0696258,13.8627788 L32.0696258,13.8627788 L32.0696258,11.4754727 C30.963848,11.0765032 30.2852097,10.060137 30.4818573,8.99759934 C30.6294888,8.20025212 31.2334361,7.54911483 32.0696258,7.24899973 L32.0696258,7.24899973 L32.0696258,6.7985311 C32.0696258,6.35812551 32.4798432,6 32.9840078,6 Z M32.9840078,6.50492738 C32.7984472,6.50492738 32.6473145,6.63633872 32.6473145,6.7985311 L32.6473145,6.7985311 L32.6473145,7.61837216 C31.8473032,7.76931762 31.1914224,8.33107153 31.0531272,9.07869553 C30.87807,10.0210688 31.5893857,10.9072075 32.6473145,11.1066922 L32.6473145,11.1066922 L32.6473145,14.6163223 C32.6432299,14.6157303 32.6391452,14.6163223 32.634477,14.6157303 C31.8467197,14.505037 31.2153468,13.9953741 31.0262851,13.3193752 C30.988356,13.1838202 30.8477268,13.0962127 30.6960106,13.0962127 C30.6703355,13.0962127 30.6446605,13.0985804 30.6189854,13.103316 C30.4386765,13.1423842 30.327807,13.3010249 30.3721548,13.4584818 C30.6259877,14.3641546 31.4715138,15.0460729 32.5271086,15.1952425 L32.5271086,15.1952425 L32.6473145,15.2035297 L32.6473145,16.0020608 C32.6473145,16.1636613 32.7984472,16.2950726 32.9840078,16.2950726 C33.1701519,16.2950726 33.3207011,16.1636613 33.3207011,16.0020608 L33.3207011,16.0020608 L33.3207011,15.1964264 C34.4416505,15.0573198 35.381124,14.3037764 35.5713528,13.279123 C35.8053459,12.0194683 34.8203576,10.829071 33.3755524,10.6242587 L33.3755524,10.6242587 L33.3207011,10.6165634 L33.3207011,8.18367772 C33.8201976,8.26240614 34.2280808,8.56725678 34.3873828,8.9887202 C34.4340647,9.11243628 34.5659411,9.18998082 34.708321,9.18998082 C34.7427489,9.18998082 34.7777603,9.18524527 34.8121882,9.17577418 C34.988996,9.12545903 35.0846939,8.9585311 35.026925,8.80521787 C34.7859296,8.16769526 34.1644767,7.70538778 33.4053121,7.59824609 C33.3767194,7.59410249 33.3492938,7.59647027 33.3207011,7.59351055 L33.3207011,7.59351055 L33.3207011,6.7985311 C33.3207011,6.63633872 33.1701519,6.50492738 32.9840078,6.50492738 Z M33.3207011,11.2162017 C34.36871,11.3908249 35.0782751,12.261573 34.9073026,13.1855961 C34.7701745,13.9213812 34.1137101,14.4659688 33.3207011,14.6003398 L33.3207011,14.6003398 Z M33.8989733,12.0153247 L33.8989733,13.8035845 C34.1271312,13.62245 34.2852661,13.3785695 34.3366162,13.1050918 C34.4130579,12.6913237 34.232749,12.2858427 33.8989733,12.0153247 L33.8989733,12.0153247 Z M32.6473145,8.22807344 L32.6473145,10.5023184 C32.0153581,10.3205919 31.6074749,9.76298164 31.7171774,9.17222253 C31.7761133,8.85553302 31.9727609,8.57731981 32.2709416,8.38908194 C32.3876464,8.31568101 32.5154381,8.2659578 32.6473145,8.22807344 L32.6473145,8.22807344 Z" id="Combined-Shape" fill="#0B0F17"></path>
                            </g>
                        </g>
                    </g>
                </g>
            </g>
        </g>
    </g>
</svg>