<?xml version="1.0" encoding="UTF-8"?>
<svg width="48px" height="48px" viewBox="0 0 48 48" version="1.1" xmlns="http://www.w3.org/2000/svg" xmlns:xlink="http://www.w3.org/1999/xlink">
    <!-- Generator: sketchtool 64 (101010) - https://sketch.com -->
    <title>468E70DF-F28D-46A0-8C9E-162EACF68B1C</title>
    <desc>Created with sketchtool.</desc>
    <g id="New-Post" stroke="none" stroke-width="1" fill="none" fill-rule="evenodd">
        <g id="6.00-Full" transform="translate(-600.000000, -424.000000)">
            <g id="2" transform="translate(167.000000, 360.000000)">
                <g id="Box" transform="translate(0.000000, 48.000000)">
                    <g id="Left" transform="translate(368.000000, 8.000000)">
                        <g id="Illus-/-Car-Sell" transform="translate(65.000000, 8.000000)">
                            <g id="Group">
                                <g id="Car" transform="translate(1.600000, 26.000000)">
                                    <path d="M40.94965,18.55 L43.04965,18.55 L44.06465,15.5043 C44.28585,14.8421 43.98485,14.119 43.35975,13.8082 L43.04195,13.65 L42.57505,11.4226 C42.28035,10.0198 41.16105,8.939 39.74915,8.6933 L34.03715,7.7 L25.89965,1.127 C25.27735,0.6244 24.50105,0.35 23.70025,0.35 L9.57985,0.35 C8.45425,0.35 7.39795,0.8904 6.73995,1.8032 L3.49965,6.3 L1.23655,6.3 C0.69195,6.3 0.35595,6.8936 0.63595,7.3605 L2.09965,9.8 L2.09965,13.65 C1.19945,13.65 0.52815,14.4809 0.71645,15.3608 L1.39965,18.55 L3.49965,18.55" fill="#FFFFFF" opacity="0"></path>
                                    <path d="M34.99965,12.25 C37.51265,12.25 39.54965,14.287 39.54965,16.8 C39.54965,19.313 37.51265,21.35 34.99965,21.35 C32.48665,21.35 30.44965,19.313 30.44965,16.8 C30.44965,14.287 32.48665,12.25 34.99965,12.25 Z M9.45,12.25 C11.963,12.25 14,14.287 14,16.8 C14,19.313 11.963,21.35 9.45,21.35 C6.937,21.35 4.9,19.313 4.9,16.8 C4.9,14.287 6.937,12.25 9.45,12.25 Z M42.39816,10.85 C42.47096,11.0341 42.53326,11.2238 42.57526,11.4226 L42.57526,11.4226 L43.04216,13.65 L41.10106,13.65 L40.20786,11.8629 C39.97546,11.3974 40.31356,10.85 40.83366,10.85 L40.83366,10.85 Z M27.10407,2.10007 L34.03757,7.70007 L11.62497,7.70007 C10.40277,7.70007 9.55717,6.47927 9.98627,5.33547 L9.98627,5.33547 L10.77377,3.23547 C11.02997,2.55227 11.68307,2.10007 12.41247,2.10007 L12.41247,2.10007 L27.10407,2.10007 Z" id="White" fill="#FFFFFF" opacity="0"></path>
                                    <path d="M2.45,21 C2.6432,21 2.8,21.1568 2.8,21.35 C2.8,21.5432 2.6432,21.7 2.45,21.7 L0.35,21.7 C0.1568,21.7 9.09494702e-14,21.5432 9.09494702e-14,21.35 C9.09494702e-14,21.1568 0.1568,21 0.35,21 L2.45,21 Z M34.99965,11.9 C37.70095,11.9 39.89965,14.098 39.89965,16.8 C39.89965,18.5808171 38.9440878,20.1432026 37.5189126,21.0012072 L44.44965,21 C44.64285,21 44.79965,21.1568 44.79965,21.35 C44.79965,21.5432 44.64285,21.7 44.44965,21.7 L3.84965,21.7 C3.65645,21.7 3.49965,21.5432 3.49965,21.35 C3.49965,21.1568 3.65645,21 3.84965,21 L6.92981747,21.0008405 C5.50498591,20.1427575 4.55,18.5805635 4.55,16.8 C4.55,14.098 6.748,11.9 9.45,11.9 C12.152,11.9 14.35,14.098 14.35,16.8 C14.35,18.5805635 13.3950141,20.1427575 11.9701825,21.0008405 L32.4797785,21.0008405 C31.05494,20.1427575 30.09965,18.5805635 30.09965,16.8 C30.09965,14.098 32.29835,11.9 34.99965,11.9 Z M34.99965,12.6 C32.68335,12.6 30.79965,14.4837 30.79965,16.8 C30.79965,19.1163 32.68335,21 34.99965,21 C37.31595,21 39.19965,19.1163 39.19965,16.8 C39.19965,14.4837 37.31595,12.6 34.99965,12.6 Z M9.45,12.6 C7.1337,12.6 5.25,14.4837 5.25,16.8 C5.25,19.1163 7.1337,21 9.45,21 C11.7663,21 13.65,19.1163 13.65,16.8 C13.65,14.4837 11.7663,12.6 9.45,12.6 Z M34.99965,14 C36.54385,14 37.79965,15.2558 37.79965,16.8 C37.79965,18.3435 36.54385,19.6 34.99965,19.6 C33.45545,19.6 32.19965,18.3435 32.19965,16.8 C32.19965,15.2558 33.45545,14 34.99965,14 Z M9.45,14 C10.9942,14 12.25,15.2558 12.25,16.8 C12.25,18.3435 10.9942,19.6 9.45,19.6 C7.9058,19.6 6.65,18.3435 6.65,16.8 C6.65,15.2558 7.9058,14 9.45,14 Z M23.70025,0 C24.57735,0 25.43695,0.3038 26.11945,0.8547 L27.3175156,1.82181917 C27.319722,1.82349548 27.3219103,1.82519915 27.32408,1.82693 L34.189,7.371 L39.80935,8.3482 C41.37245,8.6198 42.59185,9.7986 42.91735,11.3512 L43.34995,13.412 L43.51585,13.4946 C44.29215,13.881 44.67085,14.7924 44.39715,15.6156 L43.38215,18.6606 C43.33385,18.8034 43.20015,18.9 43.04965,18.9 L40.94965,18.9 C40.75645,18.9 40.59965,18.7432 40.59965,18.55 C40.59965,18.3568 40.75645,18.2 40.94965,18.2 L42.79765,18.2 L43.73285,15.3937 C43.89735,14.9002 43.67055,14.3535 43.20435,14.1218 L42.962,14 L41.10113,14 C40.96883,14 40.84773,13.9251 40.78823,13.8068 L39.89503,12.0197 C39.73053,11.6914 39.74803,11.3099 39.94053,10.9984 C40.13303,10.6862 40.46693,10.5 40.83443,10.5 L41.8405614,10.4998212 C41.3784778,9.73812436 40.6055226,9.19732217 39.68895,9.0377 L34.005,8.049 L19.2588059,8.04988238 C19.2557634,8.04996063 19.2527113,8.05 19.24965,8.05 L19.24,8.049 L11.62518,8.04993 C10.93638,8.04993 10.29098,7.71183 9.89898,7.14623 C9.50698,6.58063 9.41668,5.85683 9.65818,5.21213 L10.44568,3.11213 C10.75158,2.29733 11.54188,1.74993 12.41268,1.74993 L26.112,1.749 L25.67985,1.3993 C25.12125,0.9478 24.41845,0.7 23.70025,0.7 L9.57985,0.7 C8.56975,0.7 7.61425,1.1886 7.02415,2.0083 L3.78385,6.5044 C3.71805,6.5961 3.61235,6.65 3.49965,6.65 L1.23655,6.65 C1.05175,6.65 0.96215,6.7739 0.93205,6.8271 C0.90195,6.881 0.84175,7.0217 0.93625,7.1799 L2.39995,9.6194 C2.43285,9.674 2.44965,9.7363 2.44965,9.8 L2.44965,13.65 C2.44965,13.8432 2.29355,14 2.09965,14 C1.77695,14 1.47525,14.1442 1.27225,14.3948 C1.06925,14.6468 0.99155,14.9716 1.05875,15.2873 L1.68315,18.2 L3.49965,18.2 C3.69355,18.2 3.84965,18.3568 3.84965,18.55 C3.84965,18.7432 3.69355,18.9 3.49965,18.9 L1.39965,18.9 C1.23515,18.9 1.09235,18.7845 1.05805,18.6228 L0.37485,15.4343 C0.26215,14.9107 0.39095,14.3717 0.72765,13.9552 C0.98945,13.6311 1.35065,13.4148 1.74965,13.3343 L1.74965,9.8973 L0.33565,7.5397 C0.13895,7.2114 0.13335,6.8159 0.32235,6.4827 C0.51135,6.1488 0.85295,5.95 1.23655,5.95 L3.32115,5.95 L6.45575,1.5988 C7.17745,0.5978 8.34505,0 9.57985,0 L23.70025,0 Z M34.99965,14.7 C33.84185,14.7 32.89965,15.6422 32.89965,16.8 C32.89965,17.9578 33.84185,18.9 34.99965,18.9 C36.15745,18.9 37.09965,17.9578 37.09965,16.8 C37.09965,15.6422 36.15745,14.7 34.99965,14.7 Z M9.45,14.7 C8.2922,14.7 7.35,15.6422 7.35,16.8 C7.35,17.9578 8.2922,18.9 9.45,18.9 C10.6078,18.9 11.55,17.9578 11.55,16.8 C11.55,15.6422 10.6078,14.7 9.45,14.7 Z M29.04965,18.2 C29.24285,18.2 29.39965,18.3568 29.39965,18.55 C29.39965,18.7432 29.24285,18.9 29.04965,18.9 L15.39965,18.9 C15.20645,18.9 15.04965,18.7432 15.04965,18.55 C15.04965,18.3568 15.20645,18.2 15.39965,18.2 L29.04965,18.2 Z M19.24965,8.75 C19.44285,8.75 19.59965,8.9068 19.59965,9.1 L19.59965,17.15 C19.59965,17.3432 19.44285,17.5 19.24965,17.5 C19.05645,17.5 18.89965,17.3432 18.89965,17.15 L18.89965,9.1 C18.89965,8.9068 19.05645,8.75 19.24965,8.75 Z M42.15183,11.2 L40.83443,11.2 C40.65803,11.2 40.56703,11.3162 40.53623,11.3659 C40.50543,11.4163 40.44173,11.5486 40.52083,11.7068 L41.31743,13.3 L42.61103,13.3 L42.604,13.265 L42.23205,11.4947 L42.1935254,11.3371293 C42.1810405,11.2922627 42.1671642,11.2466416 42.15183,11.2 Z M33.33715,8.75021 C33.53035,8.75021 33.68715,8.90631 33.68715,9.10021 L33.68715,11.16451 C33.68715,11.35771 33.53035,11.51451 33.33715,11.51451 C33.14395,11.51451 32.98715,11.35771 32.98715,11.16451 L32.98715,9.10021 C32.98715,8.90631 33.14395,8.75021 33.33715,8.75021 Z M6.3875,7.7 C6.9664,7.7 7.4375,8.1711 7.4375,8.75 L7.4375,10.1493 C7.4375,10.7282 6.9664,11.1993 6.3875,11.1993 L4.9875,11.1993 C4.4086,11.1993 3.9375,10.7282 3.9375,10.1493 L3.9375,8.75 C3.9375,8.1711 4.4086,7.7 4.9875,7.7 L6.3875,7.7 Z M6.3875,8.4 L4.9875,8.4 C4.7943,8.4 4.6375,8.5568 4.6375,8.75 L4.6375,10.1493 C4.6375,10.3425 4.7943,10.4993 4.9875,10.4993 L6.3875,10.4993 C6.5807,10.4993 6.7375,10.3425 6.7375,10.1493 L6.7375,8.75 C6.7375,8.5568 6.5807,8.4 6.3875,8.4 Z M18.899,2.449 L12.41268,2.44993 C11.83238,2.44993 11.30528,2.81533 11.10158,3.35853 L10.31408,5.45853 C10.15028,5.89463 10.20908,6.36433 10.47438,6.74723 C10.73968,7.13013 11.15898,7.34993 11.62518,7.34993 L18.899,7.349 L18.899,2.449 Z M26.979,2.449 L19.599,2.449 L19.599,7.349 L33.046,7.349 L26.979,2.449 Z" id="Line" fill="#0B0F17"></path>
                                </g>
                                <path d="M41.53346,18.55014 L28.23346,18.55014 C27.26746,18.55014 26.48346,17.76684 26.48346,16.80014 L26.48346,7.70014 C26.48346,6.73344 27.26746,5.95014 28.23346,5.95014 L41.53346,5.95014 C42.50016,5.95014 43.28346,6.73344 43.28346,7.70014 L43.28346,16.80014 C43.28346,17.76684 42.50016,18.55014 41.53346,18.55014" id="Badge" fill="#F9DF13"></path>
                                <path d="M32.68644,15.80488 C32.45264,15.80488 32.23354,15.71388 32.06764,15.54868 C31.72674,15.20708 31.72674,14.65268 32.06764,14.31108 L35.59494,10.78378 L33.22264,10.78378 C32.73964,10.78378 32.34764,10.39178 32.34764,9.90878 C32.34764,9.42648 32.73964,9.03378 33.22264,9.03378 L37.70754,9.03378 C38.18984,9.03378 38.58254,9.42648 38.58254,9.90878 L38.58254,14.39368 C38.58254,14.87668 38.18984,15.26868 37.70754,15.26868 C37.22454,15.26868 36.83254,14.87668 36.83254,14.39368 L36.83254,12.02138 L33.30524,15.54868 C33.13934,15.71388 32.92024,15.80488 32.68644,15.80488" id="Arrow" fill="#FFFFFF"></path>
                                <path d="M8.3375,14.83279 C8.5307,14.83279 8.6875,14.98959 8.6875,15.18279 C8.6875,15.37599 8.5307,15.53279 8.3375,15.53279 L7.6375,15.53279 C7.4443,15.53279 7.2875,15.37599 7.2875,15.18279 C7.2875,14.98959 7.4443,14.83279 7.6375,14.83279 L8.3375,14.83279 Z M18.1375,14.83279 C18.3307,14.83279 18.4875,14.98959 18.4875,15.18279 C18.4875,15.37599 18.3307,15.53279 18.1375,15.53279 L9.7375,15.53279 C9.5443,15.53279 9.3875,15.37599 9.3875,15.18279 C9.3875,14.98959 9.5443,14.83279 9.7375,14.83279 L18.1375,14.83279 Z M21.81796,12.73279 C22.01116,12.73279 22.16796,12.88959 22.16796,13.08279 C22.16796,13.27599 22.01116,13.43279 21.81796,13.43279 L13.41796,13.43279 C13.22476,13.43279 13.06796,13.27599 13.06796,13.08279 C13.06796,12.88959 13.22476,12.73279 13.41796,12.73279 L21.81796,12.73279 Z" id="Speed" fill="#0B0F17"></path>
                                <path d="M41.53381,5.60014 C42.69161,5.60014 43.63381,6.54234 43.63381,7.70014 L43.63381,16.80014 C43.63381,17.95794 42.69161,18.90014 41.53381,18.90014 L28.23381,18.90014 C27.07601,18.90014 26.13381,17.95794 26.13381,16.80014 L26.13381,7.70014 C26.13381,6.54234 27.07601,5.60014 28.23381,5.60014 L41.53381,5.60014 Z M41.53381,6.30014 L28.23381,6.30014 C27.46171,6.30014 26.83381,6.92734 26.83381,7.70014 L26.83381,16.80014 C26.83381,17.57224 27.46171,18.20014 28.23381,18.20014 L41.53381,18.20014 C42.30591,18.20014 42.93381,17.57224 42.93381,16.80014 L42.93381,7.70014 C42.93381,6.92734 42.30591,6.30014 41.53381,6.30014 Z M37.7074,8.68385 C38.3829,8.68385 38.9324,9.23335 38.9324,9.90885 L38.9324,9.90885 L38.9324,14.39375 C38.9324,15.06925 38.3829,15.61875 37.7074,15.61875 C37.0319,15.61875 36.4824,15.06925 36.4824,14.39375 L36.4824,14.39375 L36.4824,12.86635 L33.5522,15.79585 C33.3212,16.02755 33.0132,16.15495 32.6863,16.15495 C32.3594,16.15495 32.0514,16.02755 31.8204,15.79585 C31.3423,15.31845 31.3423,14.54145 31.8204,14.06405 L31.8204,14.06405 L34.7499,11.13385 L33.2225,11.13385 C32.547,11.13385 31.9975,10.58435 31.9975,9.90885 C31.9975,9.23335 32.547,8.68385 33.2225,8.68385 L33.2225,8.68385 Z M37.7074,9.38385 L33.2225,9.38385 C32.9327,9.38385 32.6975,9.61905 32.6975,9.90885 C32.6975,10.19865 32.9327,10.43385 33.2225,10.43385 L33.2225,10.43385 L36.4397,10.43385 L32.3153,14.55895 C32.1102,14.76405 32.1102,15.09585 32.3153,15.30095 C32.4175,15.40385 32.5519,15.45495 32.6863,15.45495 C32.8207,15.45495 32.9551,15.40385 33.0573,15.30095 L33.0573,15.30095 L37.1824,11.17655 L37.1824,14.39375 C37.1824,14.68355 37.4176,14.91875 37.7074,14.91875 C37.9972,14.91875 38.2324,14.68355 38.2324,14.39375 L38.2324,14.39375 L38.2324,9.90885 C38.2324,9.61905 37.9972,9.38385 37.7074,9.38385 L37.7074,9.38385 Z" id="Combined-Shape" fill="#0B0F17"></path>
                            </g>
                        </g>
                    </g>
                </g>
            </g>
        </g>
    </g>
</svg>