<?xml version="1.0" encoding="UTF-8"?>
<svg width="24px" height="24px" viewBox="0 0 24 24" version="1.1" xmlns="http://www.w3.org/2000/svg" xmlns:xlink="http://www.w3.org/1999/xlink">
    <title>7FA613EA-C532-4931-A448-41670AF3663C</title>
    <g id="New-Post" stroke="none" stroke-width="1" fill="none" fill-rule="evenodd">
        <g id="6.00-Full" transform="translate(-501.000000, -856.000000)" fill="#929495">
            <g id="4" transform="translate(167.000000, 744.000000)">
                <g id="Card" transform="translate(0.000000, 48.000000)">
                    <g id="1" transform="translate(16.000000, 16.000000)">
                        <g id="List" transform="translate(0.000000, 40.000000)">
                            <g id="Input/No-space">
                                <g id="Icon/_Navigation/Arrow-Right" transform="translate(318.000000, 8.000000)">
                                    <g id="Arrow-Right">
                                        <path d="M6.70693608,15.6947014 C6.45586161,15.954658 6.08405819,16.058914 5.73442876,15.9673985 C5.38479932,15.8758831 5.11175436,15.6028381 5.02023892,15.2532087 C4.92872348,14.9035793 5.0329795,14.5317759 5.29293608,14.2807014 L11.2929361,8.28070139 C11.6715486,7.90202902 12.2812592,7.8888032 12.6759361,8.25070139 L18.6759361,13.7507014 C19.0829699,14.1240459 19.1102806,14.7566675 18.7369361,15.1637014 C18.3635916,15.5707353 17.7309699,15.5980459 17.3239361,15.2247014 L12.0299361,10.3717014 L6.70693608,15.6947014 L6.70693608,15.6947014 Z" id="Main" transform="translate(11.993819, 11.993883) rotate(90.000000) translate(-11.993819, -11.993883) "></path>
                                    </g>
                                </g>
                            </g>
                        </g>
                    </g>
                </g>
            </g>
        </g>
    </g>
</svg>