<svg width="24" height="23" viewBox="0 0 24 23" fill="none" xmlns="http://www.w3.org/2000/svg">
<path d="M7.6683 18.5824C7.55748 18.4673 7.44667 18.4673 7.33585 18.4673C7.22503 18.4673 7.11421 18.5248 7.0034 18.5824C6.89258 18.6975 6.89258 18.8126 6.89258 18.9277C6.89258 19.0428 6.94799 19.158 7.0034 19.2731C7.11421 19.3882 7.22503 19.3882 7.33585 19.3882C7.44667 19.3882 7.55748 19.3306 7.6683 19.2731C7.77912 19.158 7.77912 19.0428 7.77912 18.9277C7.77912 18.8126 7.72371 18.6975 7.6683 18.5824Z" fill="#DADBDB"/>
<path d="M13.4863 2.69714C13.3755 2.58203 13.2647 2.58203 13.1538 2.58203C13.043 2.58203 12.9322 2.63959 12.8214 2.69714C12.7106 2.81225 12.7106 2.92736 12.7106 3.04248C12.7106 3.15759 12.766 3.2727 12.8214 3.38781C12.9322 3.50292 13.043 3.50292 13.1538 3.50292C13.2647 3.50292 13.3755 3.44536 13.4863 3.38781C13.5971 3.2727 13.5971 3.15759 13.5971 3.04248C13.5971 2.92736 13.5417 2.7547 13.4863 2.69714Z" fill="#DADBDB"/>
<path d="M15.5916 19.5033C15.4808 19.3882 15.37 19.3882 15.2592 19.3882C15.1484 19.3882 15.0376 19.4457 14.9267 19.5033C14.8159 19.6184 14.8159 19.7335 14.8159 19.8486C14.8159 19.9637 14.8713 20.0789 14.9267 20.194C15.0376 20.3091 15.1484 20.3091 15.2592 20.3091C15.37 20.3091 15.4808 20.2515 15.5916 20.194C15.7025 20.0789 15.7025 19.9637 15.7025 19.8486C15.7579 19.676 15.7025 19.5609 15.5916 19.5033Z" fill="#DADBDB"/>
<path d="M23.9584 5.97784L23.2935 4.59651V1.54607C23.2935 1.14318 23.1273 0.797844 22.8503 0.510067C22.5732 0.222289 22.1854 0.107178 21.7975 0.107178C21.0218 0.107178 20.4677 0.797844 20.4677 1.60362V2.58207H15.093C14.816 2.58207 14.6498 2.81229 14.6498 3.04251C14.6498 3.33029 14.8714 3.50295 15.093 3.50295H20.4677V4.4814H9.60755L9.16428 3.50295H11.2144C11.4915 3.50295 11.6577 3.27273 11.6577 3.04251C11.6577 2.75473 11.436 2.58207 11.2144 2.58207H8.72101L7.83447 0.682733C7.77906 0.510067 7.61284 0.394955 7.3912 0.394955H5.34107C5.17485 0.394955 5.00862 0.510067 4.8978 0.625178C4.78698 0.740289 4.78698 0.970511 4.8978 1.08562L6.67089 4.88429L0.132642 19.2732C-0.0335846 19.6185 -0.0335846 19.9638 0.0772331 20.3092C0.188051 20.6545 0.409686 20.9423 0.742139 21.0574C0.908366 21.1725 1.13 21.1725 1.29623 21.1725H12.5442C13.0429 22.2085 14.0403 22.8992 15.2593 22.8992C16.9215 22.8992 18.2513 21.5178 18.2513 19.7912C18.2513 19.043 17.9743 18.3523 17.5864 17.8343L21.9083 8.16495L23.1273 10.6398C23.1827 10.8125 23.3489 10.9276 23.5152 10.9276C23.5706 10.9276 23.5706 10.9276 23.626 10.9276C23.8476 10.8701 23.9584 10.6974 23.9584 10.4672V6.32318C24.0139 6.15051 24.0139 6.09295 23.9584 5.97784ZM20.2461 5.45984L15.3147 16.5105L10.1062 5.45984H20.2461ZM1.35164 20.1941C1.29623 20.1941 1.24082 20.1941 1.18541 20.1365C1.07459 20.079 1.01918 20.0214 1.01918 19.9063C0.963775 19.7912 0.963775 19.6761 1.01918 19.6185L7.22497 5.97784L7.66824 6.89873L1.68409 19.9638C1.62868 20.1365 1.46245 20.1941 1.35164 20.1941ZM12.5996 18.4674H9.55215C9.2751 18.4674 9.10887 18.6976 9.10887 18.9278C9.10887 19.2156 9.33051 19.3883 9.55215 19.3883H12.3226C12.3226 19.5034 12.3226 19.6185 12.3226 19.7912C12.3226 19.9063 12.3226 20.079 12.3226 20.1941H2.62604L2.95849 19.3883H5.28566C5.56271 19.3883 5.72894 19.1581 5.72894 18.9278C5.72894 18.6401 5.5073 18.4674 5.28566 18.4674H3.40176L8.16692 8.04984L12.8767 18.007C12.7659 18.1221 12.655 18.2947 12.5996 18.4674ZM6.06139 1.3734H7.11416L14.4281 16.8558C14.1511 16.971 13.8186 17.0861 13.597 17.2587L6.06139 1.3734ZM15.3147 21.9783C14.1511 21.9783 13.2645 20.9998 13.2645 19.8487C13.2645 18.6401 14.2065 17.7192 15.3147 17.7192C16.4228 17.7192 17.3648 18.6976 17.3648 19.8487C17.3648 20.9998 16.4228 21.9783 15.3147 21.9783ZM16.8661 17.2012C16.6445 17.0861 16.4228 16.971 16.2012 16.8558L20.911 6.26562L21.3542 7.12895L16.8661 17.2012ZM21.465 5.22962C21.4096 5.17207 21.4096 5.05695 21.4096 4.9994V1.60362C21.4096 1.31584 21.6313 1.08562 21.8529 1.08562C21.9637 1.08562 22.0745 1.14318 22.1854 1.20073C22.2962 1.31584 22.3516 1.43096 22.3516 1.54607V4.71162C22.3516 4.76918 22.3516 4.88429 22.407 4.94184L23.1273 6.32318V8.39518L21.465 5.22962Z" fill="#DADBDB"/>
</svg>
