<?xml version="1.0" encoding="UTF-8"?>
<svg width="25px" height="24px" viewBox="0 0 25 24" version="1.1" xmlns="http://www.w3.org/2000/svg" xmlns:xlink="http://www.w3.org/1999/xlink">
    <title>720B1D7B-F2EE-4683-83DB-1DD6A88CE6A7</title>
    <g id="New-Post" stroke="none" stroke-width="1" fill="none" fill-rule="evenodd">
        <g id="6.00-Full" transform="translate(-182.000000, -1772.000000)" fill="#DADBDB">
            <g id="Input-/-iLR" transform="translate(167.000000, 1760.000000)">
                <g id="Content" transform="translate(16.000000, 12.000000)">
                    <g id="Icon/Base">
                        <g id="Paint">
                            <path d="M16.9343586,3.01976781 C18.2289689,1.7878511 20.4044388,2.03475964 21.4483943,3.60382128 C22.1635171,4.82974614 21.9568394,6.36506649 20.9455683,7.37633755 L20.9455683,7.37633755 L16.913,11.408 L16.9391818,11.457354 C17.4365328,12.4839434 17.2913731,13.7416904 16.5057118,14.7038705 L16.5057118,14.7038705 L16.3763376,14.8532606 L15.8917222,15.337876 C15.757455,15.4721432 15.5945059,15.5602477 15.4225973,15.6021893 L11.8011086,21.1970974 C11.478308,21.6959711 10.8028939,21.7985031 10.348264,21.4439475 L10.2544317,21.3609529 L2.29289322,13.3994145 C1.70577444,12.8122957 2.04854425,11.8067859 2.87202866,11.7005298 C4.80274857,11.4514047 6.90989696,10.5281915 8.58257159,9.10714585 C8.55670943,8.82393817 8.65316951,8.53261693 8.8698163,8.31597014 L8.8698163,8.31597014 L9.35443168,7.83135476 C10.2299994,6.95578706 11.5256302,6.74565082 12.6028282,7.20094602 L12.6028282,7.20094602 L12.706,7.248 Z M5.19790537,13.2206044 L5.001,13.279 L10.793,19.071 L13.7068195,14.5673799 L9.81912947,10.6806666 C8.44204685,11.8367835 6.82808932,12.7041591 5.19790537,13.2206044 Z M19.7525651,4.6623925 C19.4161751,4.15780747 18.6608704,4.08914341 18.2455683,4.53787601 L18.2455683,4.53787601 L13.537876,9.24556832 C13.1473517,9.63609261 12.5141867,9.63609261 12.1236624,9.24556832 L12.1236624,9.24556832 L12.0235298,9.15856741 C11.7439797,8.94824745 11.3706379,8.91138725 11.0582124,9.04798681 L11.0582124,9.04798681 L11.03,9.061 L15.134,13.166 L15.1471821,13.1415582 C15.2962609,12.7958574 15.2481192,12.4147843 15.0104919,12.1343942 L15.0104919,12.1343942 L14.8346269,11.9514737 C14.5048612,11.5605682 14.5212831,10.9721956 14.8928932,10.6005855 L14.8928932,10.6005855 L19.5313548,5.96212399 C19.9031606,5.59031813 19.9760261,5.04903133 19.7525651,4.6623925 Z" id="Main"></path>
                        </g>
                    </g>
                </g>
            </g>
        </g>
    </g>
</svg>