<?xml version="1.0" encoding="UTF-8"?>
<svg width="24px" height="24px" viewBox="0 0 24 24" version="1.1" xmlns="http://www.w3.org/2000/svg" xmlns:xlink="http://www.w3.org/1999/xlink">
    <title>DBA54570-8122-4CBB-BA79-0C4FF65CDD05</title>
    <g id="New-Post" stroke="none" stroke-width="1" fill="none" fill-rule="evenodd">
        <g id="6.00-Full" transform="translate(-744.000000, -2036.000000)" fill="#DADBDB">
            <g id="Input-/-iL" transform="translate(728.000000, 2024.000000)">
                <g id="Content" transform="translate(16.000000, 12.000000)">
                    <g id="Icon/Base">
                        <g id="Money">
                            <path d="M12.000001,2 L12.4387,2.22229 L14.0372,3.03227 L16.5946,2.16836 C16.971,2.04121 17.3859,2.15636 17.6459,2.46012 C17.9058,2.76388 17.9596,3.19642 17.7822,3.55606 L16.1592,6.84562 L17.2575,7.81953 C22.8056,12.7393 19.3721,22 12.000001,22 C4.62788,22 1.19443,12.7393 6.74251,7.81952 L7.8408,6.84562 L6.21782,3.55606 C6.04038,3.19642 6.09419,2.76388 6.35415,2.46012 C6.6141,2.15636 7.02902,2.04121 7.40542,2.16836 L9.96282,3.03227 L11.5613,2.22229 L12.000001,2 Z M14.9683,4.81355 L14.0748,6.62445 C13.8675,7.02247 13.9481,7.52685 14.2969,7.83617 L15.9656,9.31585 C20.1503,13.0267 17.5606,20.0117 12,20.0117 C6.43944,20.0117 3.8497,13.0267 8.03444,9.31585 L9.70309,7.83617 C10.0519,7.52685 10.1325,7.02248 9.92517,6.62446 L9.03172,4.81355 L9.72788,5.04872 L10.1134,5.17894 L10.4768,4.99479 L12,4.22295 L13.5232,4.99479 L13.8866,5.17894 L14.2721,5.04872 L14.9683,4.81355 Z M12.9807,9.57334 C12.9807,9.02429 12.5415,8.57921 11.9998,8.57921 C11.458,8.57921 11.0188,9.02429 11.0188,9.57334 L11.0188,9.92756 C9.90973,10.0882 9.05713,11.0548 9.05713,12.2232 C9.05713,13.5039 10.0816,14.5422 11.3454,14.5422 L12.6564,14.5422 C12.8366,14.5422 12.9827,14.6903 12.9827,14.873 C12.9827,15.0557 12.8366,15.2038 12.6564,15.2038 L10.3652,15.2038 C9.82345,15.2038 9.38426,15.6489 9.38426,16.1979 C9.38426,16.7469 9.82345,17.192 10.3652,17.192 L11.0188,17.192 L11.0188,17.5228 C11.0188,18.0719 11.458,18.5169 11.9998,18.5169 C12.5415,18.5169 12.9807,18.0719 12.9807,17.5228 L12.9807,17.1689 C14.0909,17.0093 14.9447,16.0422 14.9447,14.873 C14.9447,13.5922 13.9202,12.5539 12.6564,12.5539 L11.3454,12.5539 C11.1652,12.5539 11.019,12.4058 11.019,12.2232 C11.019,12.0405 11.1652,11.8924 11.3454,11.8924 L13.6366,11.8924 C14.1783,11.8924 14.6175,11.4473 14.6175,10.8983 C14.6175,10.3492 14.1783,9.90412 13.6366,9.90412 L12.9807,9.90412 L12.9807,9.57334 Z" id="Main"></path>
                        </g>
                    </g>
                </g>
            </g>
        </g>
    </g>
</svg>