<?xml version="1.0" encoding="UTF-8"?>
<svg width="24px" height="24px" viewBox="0 0 24 24" version="1.1" xmlns="http://www.w3.org/2000/svg" xmlns:xlink="http://www.w3.org/1999/xlink">
    <title>6D0A63D2-09DE-4AF4-B47A-973F3E6909B6</title>
    <g id="New-Post" stroke="none" stroke-width="1" fill="none" fill-rule="evenodd">
        <g id="6.00-Full" transform="translate(-931.000000, -1708.000000)" fill="#DADBDB">
            <g id="Input-/-iLR" transform="translate(915.000000, 1696.000000)">
                <g id="Content" transform="translate(16.000000, 12.000000)">
                    <g id="Icon/Base">
                        <g id="Seat">
                            <path d="M18.5,17.0000001 C19.8807119,17.0000001 21,18.1192883 21,19.5000001 C21,20.8254835 19.9684641,21.9100388 18.6643757,21.9946824 L18.5,22.0000001 L5.5,22.0000001 C4.11928813,22.0000001 3,20.880712 3,19.5000001 C3,18.1745167 4.03153594,17.0899615 5.33562431,17.0053178 L5.5,17.0000001 L18.5,17.0000001 Z M18.5,19.0000001 L5.5,19.0000001 C5.22385763,19.0000001 5,19.2238578 5,19.5000001 C5,19.74546 5.17687516,19.9496085 5.41012437,19.9919445 L5.5,20.0000001 L18.5,20.0000001 C18.7761424,20.0000001 19,19.7761425 19,19.5000001 C19,19.2238578 18.7761424,19.0000001 18.5,19.0000001 Z M16.64,2.00000006 C17.5220903,2.00033273 18.3590147,2.38852284 18.9287707,3.06142426 C19.4546993,3.68256405 19.703821,4.48823805 19.6249715,5.29246335 L19.5983968,5.49338187 L18.0564605,14.745999 C17.9435532,15.4251422 17.3852428,15.934034 16.7120684,15.9940619 L16.576,16.0000001 L7.42553964,16.0000001 C6.73707579,16.001059 6.14279311,15.5346798 5.97201697,14.8798048 L5.94360608,14.7463992 L4.40170644,5.49500019 C4.25612941,4.62480825 4.50098538,3.73465254 5.07113657,3.06133663 C5.59742996,2.43981428 6.35163749,2.06122863 7.1583339,2.00680546 L7.361,2.00000006 L16.64,2.00000006 Z M16.64,4.00000009 L13,4.00000006 L13,14.0000001 L16.153,14.0000001 L17.6256229,5.1645001 C17.6601567,4.95742826 17.6283752,4.74699399 17.5381828,4.5619075 L17.4771214,4.45412702 L17.4024208,4.3538081 C17.2125021,4.12950762 16.9335273,4.0001109 16.64,4.00000009 Z M11,4.00000006 L7.36079364,4.00000009 C7.06669862,4.00000009 6.78748734,4.12934032 6.59743694,4.35377896 C6.4345366,4.54615494 6.3513004,4.79163453 6.36146476,5.04088821 L6.37439392,5.16560118 L7.846,13.9990001 L11,13.9990001 L11,4.00000006 Z" id="Main"></path>
                        </g>
                    </g>
                </g>
            </g>
        </g>
    </g>
</svg>