<?xml version="1.0" encoding="utf-8"?>
<!-- Generator: Adobe Illustrator 22.0.0, SVG Export Plug-In . SVG Version: 6.00 Build 0)  -->
<svg version="1.1" id="Layer_1" xmlns="http://www.w3.org/2000/svg" xmlns:xlink="http://www.w3.org/1999/xlink" x="0px" y="0px"
	 viewBox="0 0 110.7 110.7" style="enable-background:new 0 0 110.7 110.7;" xml:space="preserve">
<style type="text/css">
	.st0{fill:#FF2600;}
	.st1{fill:#FF3B19;}
	.st2{fill:#FF5132;}
	.st3{fill:#FF664C;}
	.st4{fill:#FF7C65;}
	.st5{fill:#FF917E;}
	.st6{fill:#FFA797;}
	.st7{fill:#FFBCB1;}
	.st8{fill:#FFD2CA;}
	.st9{fill:#FFE7E3;}
	.st10{fill:#FF5700;}
	.st11{fill:#FF6819;}
	.st12{fill:#FF7832;}
	.st13{fill:#FF894C;}
	.st14{fill:#FF9965;}
	.st15{fill:#FFAA7E;}
	.st16{fill:#FFBA97;}
	.st17{fill:#FFCBB1;}
	.st18{fill:#FFDBCA;}
	.st19{fill:#FFECE3;}
	.st20{fill:#FF3B00;}
	.st21{fill:#FF4E19;}
	.st22{fill:#FF6232;}
	.st23{fill:#FF754C;}
	.st24{fill:#FF8865;}
	.st25{fill:#FF9C7E;}
	.st26{fill:#FFAF97;}
	.st27{fill:#FFC2B1;}
	.st28{fill:#FFD6CA;}
	.st29{fill:#FFE9E3;}
	.st30{fill:#FF7900;}
	.st31{fill:#FF8619;}
	.st32{fill:#FF9332;}
	.st33{fill:#FFA14C;}
	.st34{fill:#FFAE65;}
	.st35{fill:#FFBB7E;}
	.st36{fill:#FFC897;}
	.st37{fill:#FFD6B1;}
	.st38{fill:#FFE3CA;}
	.st39{fill:#FFF0E3;}
	.st40{fill:#FF8700;}
	.st41{fill:#FF9319;}
	.st42{fill:#FF9F32;}
	.st43{fill:#FFAB4C;}
	.st44{fill:#FFB765;}
	.st45{fill:#FFC27E;}
	.st46{fill:#FFCE97;}
	.st47{fill:#FFDAB1;}
	.st48{fill:#FFE6CA;}
	.st49{fill:#FFF2E3;}
	.st50{fill:#FF9300;}
	.st51{fill:#FF9E19;}
	.st52{fill:#FFA832;}
	.st53{fill:#FFB34C;}
	.st54{fill:#FFBE65;}
	.st55{fill:#FFC87E;}
	.st56{fill:#FFD397;}
	.st57{fill:#FFDEB1;}
	.st58{fill:#FFE8CA;}
	.st59{fill:#FFF3E3;}
	.st60{fill:#FFB200;}
	.st61{fill:#FFBA19;}
	.st62{fill:#FFC132;}
	.st63{fill:#FFC94C;}
	.st64{fill:#FFD065;}
	.st65{fill:#FFD87E;}
	.st66{fill:#FFDF97;}
	.st67{fill:#FFE7B1;}
	.st68{fill:#FFEECA;}
	.st69{fill:#FFF6E3;}
	.st70{fill:#FFD000;}
	.st71{fill:#FFD519;}
	.st72{fill:#FFD932;}
	.st73{fill:#FFDE4C;}
	.st74{fill:#FFE365;}
	.st75{fill:#FFE77E;}
	.st76{fill:#FFEC97;}
	.st77{fill:#FFF1B1;}
	.st78{fill:#FFF5CA;}
	.st79{fill:#FFFAE3;}
	.st80{fill:#FFDF00;}
	.st81{fill:#FFE219;}
	.st82{fill:#FFE532;}
	.st83{fill:#FFE84C;}
	.st84{fill:#FFEB65;}
	.st85{fill:#FFEF7E;}
	.st86{fill:#FFF297;}
	.st87{fill:#FFF5B1;}
	.st88{fill:#FFF8CA;}
	.st89{fill:#FFFBE3;}
	.st90{fill:#FFED00;}
	.st91{fill:#FFEF19;}
	.st92{fill:#FFF132;}
	.st93{fill:#FFF24C;}
	.st94{fill:#FFF465;}
	.st95{fill:#FFF67E;}
	.st96{fill:#FFF897;}
	.st97{fill:#FFF9B1;}
	.st98{fill:#FFFBCA;}
	.st99{fill:#FFFDE3;}
	.st100{fill:#DCED00;}
	.st101{fill:#DFEF19;}
	.st102{fill:#E3F132;}
	.st103{fill:#E6F24C;}
	.st104{fill:#EAF465;}
	.st105{fill:#EDF67E;}
	.st106{fill:#F1F897;}
	.st107{fill:#F4F9B1;}
	.st108{fill:#F8FBCA;}
	.st109{fill:#FBFDE3;}
	.st110{fill:#BADF00;}
	.st111{fill:#C1E219;}
	.st112{fill:#C8E532;}
	.st113{fill:#CEE84C;}
	.st114{fill:#D5EB65;}
	.st115{fill:#DCEF7E;}
	.st116{fill:#E3F297;}
	.st117{fill:#E9F5B1;}
	.st118{fill:#F0F8CA;}
	.st119{fill:#F7FBE3;}
	.st120{fill:#70C700;}
	.st121{fill:#7ECD19;}
	.st122{fill:#8CD232;}
	.st123{fill:#9AD84C;}
	.st124{fill:#A8DD65;}
	.st125{fill:#B7E37E;}
	.st126{fill:#C5E897;}
	.st127{fill:#D3EEB1;}
	.st128{fill:#E1F3CA;}
	.st129{fill:#EFF9E3;}
	.st130{fill:#3BBE00;}
	.st131{fill:#4EC419;}
	.st132{fill:#62CB32;}
	.st133{fill:#75D14C;}
	.st134{fill:#88D865;}
	.st135{fill:#9CDE7E;}
	.st136{fill:#AFE597;}
	.st137{fill:#C2EBB1;}
	.st138{fill:#D6F2CA;}
	.st139{fill:#E9F8E3;}
	.st140{fill:#00B600;}
	.st141{fill:#19BD19;}
	.st142{fill:#32C432;}
	.st143{fill:#4CCC4C;}
	.st144{fill:#65D365;}
	.st145{fill:#7EDA7E;}
	.st146{fill:#97E197;}
	.st147{fill:#B1E9B1;}
	.st148{fill:#CAF0CA;}
	.st149{fill:#E3F7E3;}
	.st150{fill:#00BD4F;}
	.st151{fill:#19C460;}
	.st152{fill:#32CA72;}
	.st153{fill:#4CD183;}
	.st154{fill:#65D794;}
	.st155{fill:#7EDEA6;}
	.st156{fill:#97E4B7;}
	.st157{fill:#B1EBC8;}
	.st158{fill:#CAF1DA;}
	.st159{fill:#E3F8EB;}
	.st160{fill:#00C6A0;}
	.st161{fill:#19CCA9;}
	.st162{fill:#32D1B3;}
	.st163{fill:#4CD7BC;}
	.st164{fill:#65DDC5;}
	.st165{fill:#7EE2CF;}
	.st166{fill:#97E8D8;}
	.st167{fill:#B1EEE1;}
	.st168{fill:#CAF3EB;}
	.st169{fill:#E3F9F4;}
	.st170{fill:#00AFCF;}
	.st171{fill:#19B7D4;}
	.st172{fill:#32BFD9;}
	.st173{fill:#4CC7DD;}
	.st174{fill:#65CFE2;}
	.st175{fill:#7ED6E7;}
	.st176{fill:#97DEEC;}
	.st177{fill:#B1E6F0;}
	.st178{fill:#CAEEF5;}
	.st179{fill:#E3F6FA;}
	.st180{fill:#009BCC;}
	.st181{fill:#19A5D1;}
	.st182{fill:#32AFD6;}
	.st183{fill:#4CB9DB;}
	.st184{fill:#65C3E0;}
	.st185{fill:#7ECCE5;}
	.st186{fill:#97D6EA;}
	.st187{fill:#B1E0EF;}
	.st188{fill:#CAEAF4;}
	.st189{fill:#E3F4F9;}
	.st190{fill:#0087C3;}
	.st191{fill:#1993C9;}
	.st192{fill:#329FCF;}
	.st193{fill:#4CABD5;}
	.st194{fill:#65B7DB;}
	.st195{fill:#7EC2E0;}
	.st196{fill:#97CEE6;}
	.st197{fill:#B1DAEC;}
	.st198{fill:#CAE6F2;}
	.st199{fill:#E3F2F8;}
	.st200{fill:#0074BF;}
	.st201{fill:#1982C5;}
	.st202{fill:#3290CC;}
	.st203{fill:#4C9DD2;}
	.st204{fill:#65ABD8;}
	.st205{fill:#7EB9DF;}
	.st206{fill:#97C7E5;}
	.st207{fill:#B1D4EB;}
	.st208{fill:#CAE2F2;}
	.st209{fill:#E3F0F8;}
	.st210{fill:#0040BA;}
	.st211{fill:#1953C1;}
	.st212{fill:#3266C8;}
	.st213{fill:#4C79CE;}
	.st214{fill:#658CD5;}
	.st215{fill:#7E9EDC;}
	.st216{fill:#97B1E3;}
	.st217{fill:#B1C4E9;}
	.st218{fill:#CAD7F0;}
	.st219{fill:#E3EAF7;}
	.st220{fill:#0229BA;}
	.st221{fill:#1B3EC1;}
	.st222{fill:#3453C8;}
	.st223{fill:#4D68CE;}
	.st224{fill:#667DD5;}
	.st225{fill:#7F93DC;}
	.st226{fill:#98A8E3;}
	.st227{fill:#B1BDE9;}
	.st228{fill:#CAD2F0;}
	.st229{fill:#E3E7F7;}
	.st230{fill:#4D22B3;}
	.st231{fill:#5F38BB;}
	.st232{fill:#704EC2;}
	.st233{fill:#8263CA;}
	.st234{fill:#9379D1;}
	.st235{fill:#A58FD9;}
	.st236{fill:#B6A5E0;}
	.st237{fill:#C8BAE8;}
	.st238{fill:#D9D0EF;}
	.st239{fill:#EBE6F7;}
	.st240{fill:#7524AF;}
	.st241{fill:#833AB7;}
	.st242{fill:#904FBF;}
	.st243{fill:#9E65C7;}
	.st244{fill:#AC7BCF;}
	.st245{fill:#B990D6;}
	.st246{fill:#C7A6DE;}
	.st247{fill:#D5BCE6;}
	.st248{fill:#E2D1EE;}
	.st249{fill:#F0E7F6;}
	.st250{fill:#A92BBC;}
	.st251{fill:#B140C3;}
	.st252{fill:#BA55C9;}
	.st253{fill:#C26AD0;}
	.st254{fill:#CB7FD7;}
	.st255{fill:#D393DD;}
	.st256{fill:#DCA8E4;}
	.st257{fill:#E4BDEB;}
	.st258{fill:#EDD2F1;}
	.st259{fill:#F5E7F8;}
	.st260{fill:#C82DB3;}
	.st261{fill:#CD42BB;}
	.st262{fill:#D357C2;}
	.st263{fill:#D86BCA;}
	.st264{fill:#DE80D1;}
	.st265{fill:#E395D9;}
	.st266{fill:#E9AAE0;}
	.st267{fill:#EEBEE8;}
	.st268{fill:#F4D3EF;}
	.st269{fill:#F9E8F7;}
	.st270{fill:#D2278D;}
	.st271{fill:#D63C98;}
	.st272{fill:#DB52A3;}
	.st273{fill:#DF67AF;}
	.st274{fill:#E47CBA;}
	.st275{fill:#E892C5;}
	.st276{fill:#EDA7D0;}
	.st277{fill:#F1BCDC;}
	.st278{fill:#F6D2E7;}
	.st279{fill:#FAE7F2;}
	.st280{fill:#E5276F;}
	.st281{fill:#E83C7D;}
	.st282{fill:#EA528B;}
	.st283{fill:#ED679A;}
	.st284{fill:#EF7CA8;}
	.st285{fill:#F292B6;}
	.st286{fill:#F4A7C4;}
	.st287{fill:#F7BCD3;}
	.st288{fill:#F9D2E1;}
	.st289{fill:#FCE7EF;}
	.st290{fill:#F22540;}
	.st291{fill:#F33B53;}
	.st292{fill:#F55066;}
	.st293{fill:#F66679;}
	.st294{fill:#F77B8C;}
	.st295{fill:#F9919E;}
	.st296{fill:#FAA6B1;}
	.st297{fill:#FBBCC4;}
	.st298{fill:#FDD1D7;}
	.st299{fill:#FEE7EA;}
</style>
<g>
	<g>
		<g>
			<path class="st0" d="M55.3,5.2V0c-3.9,0-7.8,0.4-11.5,1.2l1.1,5.1C48.3,5.6,51.8,5.2,55.3,5.2z"/>
		</g>
		<g>
			<path class="st1" d="M55.3,10.4V5.2c-3.6,0-7.1,0.4-10.4,1.1l1.1,5.1C49,10.7,52.1,10.4,55.3,10.4z"/>
		</g>
		<g>
			<path class="st2" d="M55.3,15.6v-5.2c-3.2,0-6.3,0.3-9.4,1l1.1,5.1C49.7,15.9,52.5,15.6,55.3,15.6z"/>
		</g>
		<g>
			<path class="st3" d="M55.3,20.7v-5.2c-2.8,0-5.6,0.3-8.3,0.9l1.1,5.1C50.5,21,52.9,20.7,55.3,20.7z"/>
		</g>
		<g>
			<path class="st4" d="M55.3,25.9v-5.2c-2.5,0-4.9,0.3-7.2,0.7l1.1,5.1C51.2,26.1,53.2,25.9,55.3,25.9z"/>
		</g>
		<g>
			<path class="st5" d="M55.3,31.1v-5.2c-2.1,0-4.1,0.2-6.1,0.6l1.1,5.1C51.9,31.3,53.6,31.1,55.3,31.1z"/>
		</g>
		<g>
			<path class="st6" d="M55.3,36.3v-5.2c-1.7,0-3.4,0.2-5,0.5l1.1,5.1C52.7,36.4,54,36.3,55.3,36.3z"/>
		</g>
		<g>
			<path class="st7" d="M55.3,41.5v-5.2c-1.4,0-2.7,0.1-4,0.4l1.1,5.1C53.4,41.6,54.4,41.5,55.3,41.5z"/>
		</g>
		<g>
			<path class="st8" d="M55.3,46.6v-5.2c-1,0-2,0.1-2.9,0.3l1.1,5.1C54.1,46.7,54.7,46.6,55.3,46.6z"/>
		</g>
		<g>
			<path class="st9" d="M54.6,51.9c0.2,0,0.5-0.1,0.7-0.1v-5.2c-0.6,0-1.2,0.1-1.8,0.2L54.6,51.9z"/>
		</g>
	</g>
	<g>
		<g>
			<path class="st10" d="M34.9,9.5l-2.1-4.7c-3.6,1.6-7,3.5-10,5.8l3,4.2C28.6,12.7,31.7,11,34.9,9.5z"/>
		</g>
		<g>
			<path class="st11" d="M37,14.3l-2.1-4.7c-3.3,1.5-6.3,3.2-9.1,5.2l3,4.2C31.4,17.1,34.1,15.6,37,14.3z"/>
		</g>
		<g>
			<path class="st12" d="M39.2,19L37,14.3c-2.9,1.3-5.7,2.9-8.1,4.7l3,4.2C34.2,21.5,36.6,20.2,39.2,19z"/>
		</g>
		<g>
			<path class="st13" d="M41.3,23.7L39.2,19c-2.6,1.2-5,2.6-7.2,4.2l3,4.2C36.9,26,39,24.7,41.3,23.7z"/>
		</g>
		<g>
			<path class="st14" d="M43.4,28.5l-2.1-4.7c-2.3,1-4.3,2.2-6.3,3.6l3,4.2C39.7,30.4,41.5,29.3,43.4,28.5z"/>
		</g>
		<g>
			<path class="st15" d="M45.5,33.2l-2.1-4.7c-1.9,0.9-3.7,1.9-5.3,3.1l3,4.2C42.4,34.8,43.9,33.9,45.5,33.2z"/>
		</g>
		<g>
			<path class="st16" d="M47.6,37.9l-2.1-4.7c-1.6,0.7-3,1.6-4.4,2.5l3,4.2C45.2,39.2,46.3,38.5,47.6,37.9z"/>
		</g>
		<g>
			<path class="st17" d="M49.7,42.7l-2.1-4.7c-1.2,0.6-2.4,1.2-3.5,2l3,4.2C48,43.6,48.8,43.1,49.7,42.7z"/>
		</g>
		<g>
			<path class="st18" d="M51.8,47.4l-2.1-4.7c-0.9,0.4-1.7,0.9-2.5,1.4l3,4.2C50.7,48,51.2,47.7,51.8,47.4z"/>
		</g>
		<g>
			<path class="st19" d="M53.3,52.5c0.2-0.1,0.4-0.3,0.6-0.4l-2.1-4.7c-0.6,0.3-1.1,0.6-1.6,0.9L53.3,52.5z"/>
		</g>
	</g>
	<g>
		<g>
			<path class="st20" d="M44.9,6.3l-1.1-5.1c-3.9,0.8-7.5,2-11,3.6l2.1,4.7C38.1,8.1,41.4,7,44.9,6.3z"/>
		</g>
		<g>
			<path class="st21" d="M46,11.4l-1.1-5.1c-3.5,0.7-6.8,1.8-10,3.2l2.1,4.7C39.9,13,42.9,12,46,11.4z"/>
		</g>
		<g>
			<path class="st22" d="M47.1,16.4L46,11.4C42.9,12,39.9,13,37,14.3l2.1,4.7C41.6,17.9,44.3,17,47.1,16.4z"/>
		</g>
		<g>
			<path class="st23" d="M48.1,21.5l-1.1-5.1c-2.8,0.6-5.4,1.5-7.9,2.6l2.1,4.7C43.4,22.8,45.7,22,48.1,21.5z"/>
		</g>
		<g>
			<path class="st24" d="M49.2,26.6l-1.1-5.1c-2.4,0.5-4.7,1.3-6.9,2.2l2.1,4.7C45.2,27.6,47.2,27,49.2,26.6z"/>
		</g>
		<g>
			<path class="st25" d="M50.3,31.6l-1.1-5.1c-2.1,0.4-4,1.1-5.9,1.9l2.1,4.7C47,32.5,48.6,32,50.3,31.6z"/>
		</g>
		<g>
			<path class="st26" d="M51.4,36.7l-1.1-5.1c-1.7,0.4-3.3,0.9-4.8,1.6l2.1,4.7C48.8,37.4,50,37,51.4,36.7z"/>
		</g>
		<g>
			<path class="st27" d="M52.5,41.8l-1.1-5.1c-1.3,0.3-2.6,0.7-3.8,1.2l2.1,4.7C50.6,42.3,51.5,42,52.5,41.8z"/>
		</g>
		<g>
			<path class="st28" d="M53.5,46.8l-1.1-5.1c-1,0.2-1.9,0.5-2.8,0.9l2.1,4.7C52.3,47.2,52.9,47,53.5,46.8z"/>
		</g>
		<g>
			<path class="st29" d="M53.9,52.1c0.2-0.1,0.5-0.2,0.7-0.2l-1.1-5.1c-0.6,0.1-1.2,0.3-1.7,0.6L53.9,52.1z"/>
		</g>
	</g>
	<g>
		<g>
			<path class="st30" d="M25.9,14.8l-3-4.2c-3.2,2.3-6.1,4.9-8.6,7.7l3.9,3.5C20.4,19.2,23,16.9,25.9,14.8z"/>
		</g>
		<g>
			<path class="st31" d="M28.9,19l-3-4.2c-2.9,2.1-5.5,4.5-7.8,7l3.9,3.5C24,23,26.3,20.8,28.9,19z"/>
		</g>
		<g>
			<path class="st32" d="M32,23.2l-3-4.2c-2.6,1.9-4.9,4-7,6.3l3.9,3.5C27.6,26.7,29.7,24.8,32,23.2z"/>
		</g>
		<g>
			<path class="st33" d="M35,27.3l-3-4.2c-2.3,1.7-4.4,3.5-6.2,5.6l3.9,3.5C31.2,30.4,33,28.8,35,27.3z"/>
		</g>
		<g>
			<path class="st34" d="M38,31.5l-3-4.2c-2,1.5-3.8,3.1-5.4,4.8l3.9,3.5C34.8,34.2,36.3,32.8,38,31.5z"/>
		</g>
		<g>
			<path class="st35" d="M41.1,35.7l-3-4.2c-1.7,1.2-3.2,2.6-4.6,4.1l3.9,3.5C38.4,37.9,39.7,36.7,41.1,35.7z"/>
		</g>
		<g>
			<path class="st36" d="M44.1,39.9l-3-4.2c-1.4,1-2.7,2.2-3.8,3.4l3.9,3.5C42,41.6,43,40.7,44.1,39.9z"/>
		</g>
		<g>
			<path class="st37" d="M47.2,44.1l-3-4.2c-1.1,0.8-2.1,1.7-3,2.7l3.9,3.5C45.7,45.4,46.4,44.7,47.2,44.1z"/>
		</g>
		<g>
			<path class="st38" d="M50.2,48.3l-3-4.2c-0.8,0.6-1.5,1.2-2.2,1.9l3.9,3.5C49.3,49.1,49.7,48.7,50.2,48.3z"/>
		</g>
		<g>
			<path class="st39" d="M52.7,53c0.2-0.2,0.3-0.3,0.5-0.5l-3-4.2c-0.5,0.4-1,0.8-1.4,1.2L52.7,53z"/>
		</g>
	</g>
	<g>
		<g>
			<g>
				<path class="st40" d="M18.1,21.8l-3.9-3.5c-2.6,2.9-4.9,6.1-6.8,9.4l4.5,2.6C13.6,27.3,15.7,24.4,18.1,21.8z"/>
			</g>
		</g>
		<g>
			<g>
				<path class="st41" d="M21.9,25.3l-3.9-3.5c-2.4,2.7-4.4,5.5-6.2,8.5l4.5,2.6C17.9,30.2,19.8,27.6,21.9,25.3z"/>
			</g>
		</g>
		<g>
			<g>
				<path class="st42" d="M25.8,28.7l-3.9-3.5c-2.1,2.4-4,4.9-5.5,7.6l4.5,2.6C22.2,33.1,23.9,30.8,25.8,28.7z"/>
			</g>
		</g>
		<g>
			<g>
				<path class="st43" d="M29.6,32.2l-3.9-3.5c-1.9,2.1-3.5,4.4-4.9,6.7l4.5,2.6C26.6,36,28,34,29.6,32.2z"/>
			</g>
		</g>
		<g>
			<g>
				<path class="st44" d="M33.5,35.7l-3.9-3.5C28,34,26.6,36,25.4,38l4.5,2.6C30.9,38.9,32.1,37.2,33.5,35.7z"/>
			</g>
		</g>
		<g>
			<g>
				<path class="st45" d="M37.3,39.1l-3.9-3.5c-1.4,1.6-2.6,3.2-3.6,5l4.5,2.6C35.2,41.8,36.2,40.4,37.3,39.1z"/>
			</g>
		</g>
		<g>
			<g>
				<path class="st46" d="M41.2,42.6l-3.9-3.5c-1.2,1.3-2.2,2.7-3,4.1l4.5,2.6C39.5,44.7,40.3,43.6,41.2,42.6z"/>
			</g>
		</g>
		<g>
			<g>
				<path class="st47" d="M45,46.1l-3.9-3.5c-0.9,1-1.7,2.1-2.3,3.2l4.5,2.6C43.8,47.6,44.4,46.8,45,46.1z"/>
			</g>
		</g>
		<g>
			<g>
				<path class="st48" d="M48.9,49.5L45,46.1c-0.7,0.7-1.2,1.5-1.7,2.3l4.5,2.6C48.1,50.5,48.5,50,48.9,49.5z"/>
			</g>
		</g>
		<g>
			<g>
				<path class="st49" d="M52.3,53.6c0.1-0.2,0.3-0.4,0.4-0.6l-3.9-3.5c-0.4,0.5-0.8,1-1.1,1.5L52.3,53.6z"/>
			</g>
		</g>
	</g>
	<g>
		<g>
			<g>
				<path class="st50" d="M11.9,30.3l-4.5-2.6c-2,3.4-3.5,7-4.7,10.6l4.9,1.6C8.7,36.6,10.1,33.4,11.9,30.3z"/>
			</g>
		</g>
		<g>
			<g>
				<path class="st51" d="M16.4,32.9l-4.5-2.6c-1.8,3.1-3.2,6.3-4.3,9.6l4.9,1.6C13.5,38.5,14.8,35.6,16.4,32.9z"/>
			</g>
		</g>
		<g>
			<g>
				<path class="st52" d="M20.9,35.5l-4.5-2.6c-1.6,2.8-2.9,5.7-3.8,8.6l4.9,1.6C18.3,40.5,19.5,37.9,20.9,35.5z"/>
			</g>
		</g>
		<g>
			<g>
				<path class="st53" d="M25.4,38l-4.5-2.6c-1.4,2.5-2.5,5-3.4,7.6l4.9,1.6C23.2,42.4,24.1,40.2,25.4,38z"/>
			</g>
		</g>
		<g>
			<g>
				<path class="st54" d="M29.9,40.6L25.4,38c-1.2,2.1-2.2,4.4-2.9,6.6l4.9,1.6C28,44.3,28.8,42.5,29.9,40.6z"/>
			</g>
		</g>
		<g>
			<g>
				<path class="st55" d="M34.3,43.2l-4.5-2.6c-1,1.8-1.9,3.7-2.5,5.6l4.9,1.6C32.8,46.3,33.5,44.7,34.3,43.2z"/>
			</g>
		</g>
		<g>
			<g>
				<path class="st56" d="M38.8,45.8l-4.5-2.6c-0.9,1.5-1.6,3-2.1,4.6l4.9,1.6C37.6,48.2,38.2,47,38.8,45.8z"/>
			</g>
		</g>
		<g>
			<g>
				<path class="st57" d="M43.3,48.4l-4.5-2.6c-0.7,1.2-1.2,2.4-1.6,3.6l4.9,1.6C42.4,50.2,42.8,49.3,43.3,48.4z"/>
			</g>
		</g>
		<g>
			<g>
				<path class="st58" d="M47.8,51l-4.5-2.6c-0.5,0.9-0.9,1.7-1.2,2.7l4.9,1.6C47.3,52.1,47.5,51.5,47.8,51z"/>
			</g>
		</g>
		<g>
			<g>
				<path class="st59" d="M52,54.3c0.1-0.2,0.2-0.5,0.3-0.7L47.8,51c-0.3,0.5-0.6,1.1-0.7,1.7L52,54.3z"/>
			</g>
		</g>
	</g>
	<g>
		<g>
			<path class="st60" d="M7.6,39.8l-4.9-1.6c-1.2,3.8-2,7.5-2.4,11.3l5.2,0.5C5.8,46.7,6.5,43.3,7.6,39.8z"/>
		</g>
		<g>
			<path class="st61" d="M12.6,41.5l-4.9-1.6c-1.1,3.4-1.8,6.8-2.2,10.3l5.2,0.5C10.9,47.6,11.6,44.5,12.6,41.5z"/>
		</g>
		<g>
			<path class="st62" d="M17.5,43.1l-4.9-1.6c-1,3-1.6,6.1-2,9.2l5.2,0.5C16,48.5,16.6,45.8,17.5,43.1z"/>
		</g>
		<g>
			<path class="st63" d="M22.4,44.7l-4.9-1.6c-0.9,2.7-1.4,5.4-1.7,8.1l5.2,0.5C21.2,49.4,21.7,47,22.4,44.7z"/>
		</g>
		<g>
			<path class="st64" d="M27.4,46.3l-4.9-1.6c-0.8,2.3-1.3,4.7-1.5,7.1l5.2,0.5C26.3,50.3,26.7,48.3,27.4,46.3z"/>
		</g>
		<g>
			<path class="st65" d="M32.3,47.9l-4.9-1.6c-0.6,2-1.1,4-1.3,6l5.2,0.5C31.4,51.2,31.7,49.5,32.3,47.9z"/>
		</g>
		<g>
			<path class="st66" d="M37.2,49.5l-4.9-1.6c-0.5,1.6-0.9,3.3-1.1,5l5.2,0.5C36.5,52.1,36.8,50.8,37.2,49.5z"/>
		</g>
		<g>
			<path class="st67" d="M42.1,51.1l-4.9-1.6c-0.4,1.3-0.7,2.6-0.8,3.9l5.2,0.5C41.6,53,41.8,52,42.1,51.1z"/>
		</g>
		<g>
			<path class="st68" d="M47.1,52.7l-4.9-1.6c-0.3,0.9-0.5,1.9-0.6,2.8l5.2,0.5C46.8,53.8,46.9,53.3,47.1,52.7z"/>
		</g>
		<g>
			<path class="st69" d="M51.8,55c0-0.2,0.1-0.5,0.2-0.7l-4.9-1.6c-0.2,0.6-0.3,1.2-0.4,1.8L51.8,55z"/>
		</g>
	</g>
	<g>
		<g>
			<path class="st70" d="M5.5,50.1l-5.2-0.5c-0.4,3.9-0.4,7.8,0,11.6l5.2-0.5C5.1,57.2,5.1,53.7,5.5,50.1z"/>
		</g>
		<g>
			<path class="st71" d="M10.6,50.6l-5.2-0.5c-0.4,3.6-0.4,7.1,0,10.5l5.2-0.5C10.3,57,10.3,53.8,10.6,50.6z"/>
		</g>
		<g>
			<path class="st72" d="M15.8,51.2l-5.2-0.5c-0.3,3.2-0.3,6.3,0,9.4l5.2-0.5C15.5,56.8,15.5,54,15.8,51.2z"/>
		</g>
		<g>
			<path class="st73" d="M20.9,51.7l-5.2-0.5c-0.3,2.8-0.3,5.6,0,8.3l5.2-0.5C20.7,56.6,20.7,54.2,20.9,51.7z"/>
		</g>
		<g>
			<path class="st74" d="M26.1,52.3l-5.2-0.5c-0.3,2.5-0.3,4.9,0,7.2l5.2-0.5C25.9,56.4,25.9,54.4,26.1,52.3z"/>
		</g>
		<g>
			<path class="st75" d="M31.2,52.8l-5.2-0.5c-0.2,2.1-0.2,4.1,0,6.2l5.2-0.5C31.1,56.2,31,54.5,31.2,52.8z"/>
		</g>
		<g>
			<path class="st76" d="M36.4,53.4l-5.2-0.5c-0.2,1.7-0.2,3.4,0,5.1l5.2-0.5C36.2,56,36.2,54.7,36.4,53.4z"/>
		</g>
		<g>
			<path class="st77" d="M41.5,53.9l-5.2-0.5c-0.1,1.4-0.1,2.7,0,4l5.2-0.5C41.4,55.9,41.4,54.9,41.5,53.9z"/>
		</g>
		<g>
			<path class="st78" d="M46.7,54.4l-5.2-0.5c-0.1,1-0.1,2,0,2.9l5.2-0.5C46.6,55.7,46.6,55.1,46.7,54.4z"/>
		</g>
		<g>
			<path class="st79" d="M51.8,55.7c0-0.2,0-0.5,0-0.7l-5.2-0.5c-0.1,0.6-0.1,1.2,0,1.8L51.8,55.7z"/>
		</g>
	</g>
	<g>
		<g>
			<path class="st80" d="M5.5,60.6l-5.2,0.5c0.4,3.9,1.2,7.7,2.4,11.3l4.9-1.6C6.6,67.6,5.8,64.1,5.5,60.6z"/>
		</g>
		<g>
			<path class="st81" d="M10.6,60l-5.2,0.5c0.4,3.6,1.1,7,2.2,10.3l4.9-1.6C11.6,66.3,10.9,63.2,10.6,60z"/>
		</g>
		<g>
			<path class="st82" d="M15.8,59.5L10.6,60c0.3,3.2,1,6.3,1.9,9.2l4.9-1.6C16.6,65.1,16.1,62.3,15.8,59.5z"/>
		</g>
		<g>
			<path class="st83" d="M20.9,59l-5.2,0.5c0.3,2.8,0.9,5.5,1.7,8.1l4.9-1.6C21.7,63.8,21.2,61.4,20.9,59z"/>
		</g>
		<g>
			<path class="st84" d="M26.1,58.4L20.9,59c0.3,2.5,0.8,4.8,1.5,7.1l4.9-1.6C26.7,62.5,26.3,60.5,26.1,58.4z"/>
		</g>
		<g>
			<path class="st85" d="M31.2,57.9l-5.2,0.5c0.2,2.1,0.7,4.1,1.3,6l4.9-1.6C31.8,61.3,31.4,59.6,31.2,57.9z"/>
		</g>
		<g>
			<path class="st86" d="M36.4,57.3l-5.2,0.5c0.2,1.7,0.5,3.4,1,5l4.9-1.6C36.8,60,36.5,58.7,36.4,57.3z"/>
		</g>
		<g>
			<path class="st87" d="M41.5,56.8l-5.2,0.5c0.1,1.4,0.4,2.7,0.8,3.9l4.9-1.6C41.8,58.7,41.6,57.8,41.5,56.8z"/>
		</g>
		<g>
			<path class="st88" d="M46.7,56.3l-5.2,0.5c0.1,1,0.3,1.9,0.6,2.8l4.9-1.6C46.9,57.5,46.8,56.9,46.7,56.3z"/>
		</g>
		<g>
			<path class="st89" d="M52,56.4c-0.1-0.2-0.1-0.5-0.2-0.7l-5.2,0.5c0.1,0.6,0.2,1.2,0.4,1.8L52,56.4z"/>
		</g>
	</g>
	<g>
		<g>
			<path class="st90" d="M7.6,70.8l-4.9,1.6c1.2,3.8,2.8,7.3,4.7,10.6l4.5-2.6C10.2,77.5,8.7,74.2,7.6,70.8z"/>
		</g>
		<g>
			<path class="st91" d="M12.6,69.2l-4.9,1.6c1.1,3.4,2.5,6.6,4.3,9.6l4.5-2.6C14.8,75.2,13.6,72.3,12.6,69.2z"/>
		</g>
		<g>
			<path class="st92" d="M17.5,67.6l-4.9,1.6c1,3.1,2.3,5.9,3.8,8.6l4.5-2.6C19.5,72.9,18.4,70.3,17.5,67.6z"/>
		</g>
		<g>
			<path class="st93" d="M22.4,66l-4.9,1.6c0.9,2.7,2,5.2,3.4,7.6l4.5-2.6C24.2,70.6,23.2,68.4,22.4,66z"/>
		</g>
		<g>
			<path class="st94" d="M27.4,64.4L22.4,66c0.8,2.3,1.8,4.6,2.9,6.6l4.5-2.6C28.8,68.3,28,66.4,27.4,64.4z"/>
		</g>
		<g>
			<path class="st95" d="M32.3,62.8l-4.9,1.6c0.6,2,1.5,3.9,2.5,5.6l4.5-2.6C33.5,66,32.8,64.5,32.3,62.8z"/>
		</g>
		<g>
			<path class="st96" d="M37.2,61.2l-4.9,1.6c0.5,1.6,1.2,3.2,2.1,4.6l4.5-2.6C38.2,63.8,37.6,62.5,37.2,61.2z"/>
		</g>
		<g>
			<path class="st97" d="M42.1,59.6l-4.9,1.6c0.4,1.3,1,2.5,1.6,3.6l4.5-2.6C42.8,61.5,42.4,60.6,42.1,59.6z"/>
		</g>
		<g>
			<path class="st98" d="M47.1,58l-4.9,1.6c0.3,0.9,0.7,1.8,1.2,2.7l4.5-2.6C47.5,59.2,47.3,58.6,47.1,58z"/>
		</g>
		<g>
			<path class="st99" d="M52.3,57.1c-0.1-0.2-0.2-0.4-0.3-0.7L47.1,58c0.2,0.6,0.4,1.1,0.7,1.7L52.3,57.1z"/>
		</g>
	</g>
	<g>
		<g>
			<path class="st100" d="M11.9,80.4L7.4,83c2,3.4,4.3,6.5,6.8,9.4l3.9-3.5C15.8,86.4,13.7,83.5,11.9,80.4z"/>
		</g>
		<g>
			<path class="st101" d="M16.4,77.8l-4.5,2.6c1.8,3.1,3.9,5.9,6.2,8.5l3.9-3.5C19.9,83.2,18,80.6,16.4,77.8z"/>
		</g>
		<g>
			<path class="st102" d="M20.9,75.2l-4.5,2.6c1.6,2.8,3.5,5.3,5.5,7.6l3.9-3.5C23.9,80,22.3,77.7,20.9,75.2z"/>
		</g>
		<g>
			<path class="st103" d="M25.4,72.7l-4.5,2.6c1.4,2.5,3.1,4.7,4.9,6.7l3.9-3.5C28,76.7,26.6,74.8,25.4,72.7z"/>
		</g>
		<g>
			<path class="st104" d="M29.9,70.1l-4.5,2.6c1.2,2.1,2.7,4.1,4.2,5.9l3.9-3.5C32.1,73.5,30.9,71.9,29.9,70.1z"/>
		</g>
		<g>
			<path class="st105" d="M34.3,67.5l-4.5,2.6c1,1.8,2.3,3.5,3.6,5l3.9-3.5C36.2,70.3,35.2,69,34.3,67.5z"/>
		</g>
		<g>
			<path class="st106" d="M38.8,64.9l-4.5,2.6c0.9,1.5,1.9,2.9,3,4.1l3.9-3.5C40.3,67.1,39.5,66.1,38.8,64.9z"/>
		</g>
		<g>
			<path class="st107" d="M43.3,62.3l-4.5,2.6c0.7,1.2,1.5,2.3,2.3,3.2l3.9-3.5C44.4,63.9,43.8,63.1,43.3,62.3z"/>
		</g>
		<g>
			<path class="st108" d="M47.8,59.7l-4.5,2.6c0.5,0.9,1.1,1.6,1.7,2.3l3.9-3.5C48.5,60.7,48.1,60.2,47.8,59.7z"/>
		</g>
		<g>
			<path class="st109" d="M52.7,57.7c-0.2-0.2-0.3-0.4-0.4-0.6l-4.5,2.6c0.3,0.5,0.7,1,1.1,1.5L52.7,57.7z"/>
		</g>
	</g>
	<g>
		<g>
			<path class="st110" d="M18.1,88.9l-3.9,3.5c2.6,2.9,5.5,5.5,8.6,7.8l3-4.2C23.1,93.9,20.5,91.6,18.1,88.9z"/>
		</g>
		<g>
			<path class="st111" d="M21.9,85.4l-3.9,3.5c2.4,2.7,5,5,7.8,7l3-4.2C26.4,89.9,24.1,87.8,21.9,85.4z"/>
		</g>
		<g>
			<path class="st112" d="M25.8,82l-3.9,3.5c2.1,2.4,4.5,4.5,7,6.3l3-4.2C29.7,85.9,27.7,84.1,25.8,82z"/>
		</g>
		<g>
			<path class="st113" d="M29.6,78.5L25.8,82c1.9,2.1,4,4,6.2,5.6l3-4.2C33.1,82,31.3,80.3,29.6,78.5z"/>
		</g>
		<g>
			<path class="st114" d="M33.5,75l-3.9,3.5c1.7,1.8,3.5,3.5,5.4,4.8l3-4.2C36.4,78,34.9,76.6,33.5,75z"/>
		</g>
		<g>
			<path class="st115" d="M37.3,71.6L33.5,75c1.4,1.6,2.9,2.9,4.6,4.1l3-4.2C39.7,74,38.5,72.9,37.3,71.6z"/>
		</g>
		<g>
			<path class="st116" d="M41.2,68.1l-3.9,3.5c1.2,1.3,2.4,2.4,3.8,3.4l3-4.2C43.1,70,42.1,69.1,41.2,68.1z"/>
		</g>
		<g>
			<path class="st117" d="M45,64.6l-3.9,3.5c0.9,1,1.9,1.9,3,2.7l3-4.2C46.4,66,45.7,65.4,45,64.6z"/>
		</g>
		<g>
			<path class="st118" d="M48.9,61.2L45,64.6c0.7,0.7,1.4,1.4,2.2,1.9l3-4.2C49.7,62,49.3,61.6,48.9,61.2z"/>
		</g>
		<g>
			<path class="st119" d="M53.3,58.2c-0.2-0.1-0.4-0.3-0.5-0.5l-3.9,3.5c0.4,0.5,0.9,0.9,1.4,1.2L53.3,58.2z"/>
		</g>
	</g>
	<g>
		<g>
			<path class="st120" d="M25.9,95.9l-3,4.2c3.2,2.3,6.5,4.2,10,5.8l2.1-4.7C31.8,99.8,28.8,98,25.9,95.9z"/>
		</g>
		<g>
			<path class="st121" d="M28.9,91.7l-3,4.2c2.9,2.1,5.9,3.9,9.1,5.3l2.1-4.7C34.2,95.2,31.5,93.6,28.9,91.7z"/>
		</g>
		<g>
			<path class="st122" d="M32,87.5l-3,4.2c2.6,1.9,5.3,3.5,8.1,4.7l2.1-4.7C36.7,90.6,34.2,89.2,32,87.5z"/>
		</g>
		<g>
			<path class="st123" d="M35,83.3l-3,4.2c2.3,1.7,4.7,3.1,7.2,4.2l2.1-4.7C39.1,86,37,84.8,35,83.3z"/>
		</g>
		<g>
			<path class="st124" d="M38,79.2l-3,4.2c2,1.5,4.1,2.7,6.3,3.6l2.1-4.7C41.5,81.4,39.7,80.4,38,79.2z"/>
		</g>
		<g>
			<path class="st125" d="M41.1,75l-3,4.2c1.7,1.2,3.5,2.3,5.3,3.1l2.1-4.7C44,76.8,42.5,76,41.1,75z"/>
		</g>
		<g>
			<path class="st126" d="M44.1,70.8l-3,4.2c1.4,1,2.9,1.9,4.4,2.5l2.1-4.7C46.4,72.2,45.2,71.6,44.1,70.8z"/>
		</g>
		<g>
			<path class="st127" d="M47.2,66.6l-3,4.2c1.1,0.8,2.3,1.5,3.4,2l2.1-4.7C48.8,67.6,48,67.2,47.2,66.6z"/>
		</g>
		<g>
			<path class="st128" d="M50.2,62.4l-3,4.2c0.8,0.6,1.6,1.1,2.5,1.5l2.1-4.7C51.3,63.1,50.7,62.8,50.2,62.4z"/>
		</g>
		<g>
			<path class="st129" d="M53.9,58.6c-0.2-0.1-0.4-0.2-0.6-0.4l-3,4.2c0.5,0.4,1,0.7,1.6,0.9L53.9,58.6z"/>
		</g>
	</g>
	<g>
		<g>
			<path class="st130" d="M34.9,101.2l-2.1,4.7c3.6,1.6,7.3,2.8,11,3.6l1.1-5.1C41.5,103.7,38.2,102.6,34.9,101.2z"/>
		</g>
		<g>
			<path class="st131" d="M37,96.4l-2.1,4.7c3.3,1.5,6.6,2.5,10,3.3l1.1-5.1C43,98.7,40,97.7,37,96.4z"/>
		</g>
		<g>
			<path class="st132" d="M39.2,91.7L37,96.4c2.9,1.3,5.9,2.3,8.9,2.9l1.1-5.1C44.4,93.7,41.7,92.9,39.2,91.7z"/>
		</g>
		<g>
			<path class="st133" d="M41.3,87l-2.1,4.7c2.6,1.2,5.2,2,7.9,2.6l1.1-5.1C45.8,88.7,43.5,88,41.3,87z"/>
		</g>
		<g>
			<path class="st134" d="M43.4,82.2L41.3,87c2.3,1,4.6,1.7,6.9,2.2l1.1-5.1C47.2,83.7,45.3,83.1,43.4,82.2z"/>
		</g>
		<g>
			<path class="st135" d="M45.5,77.5l-2.1,4.7c1.9,0.9,3.9,1.5,5.8,1.9l1.1-5.1C48.7,78.7,47.1,78.2,45.5,77.5z"/>
		</g>
		<g>
			<path class="st136" d="M47.6,72.8l-2.1,4.7c1.6,0.7,3.2,1.2,4.8,1.6l1.1-5.1C50.1,73.7,48.8,73.3,47.6,72.8z"/>
		</g>
		<g>
			<path class="st137" d="M49.7,68l-2.1,4.7c1.2,0.6,2.5,1,3.8,1.2l1.1-5.1C51.5,68.7,50.6,68.4,49.7,68z"/>
		</g>
		<g>
			<path class="st138" d="M51.8,63.3L49.7,68c0.9,0.4,1.8,0.7,2.8,0.9l1.1-5.1C52.9,63.7,52.4,63.5,51.8,63.3z"/>
		</g>
		<g>
			<path class="st139" d="M54.6,58.8c-0.2-0.1-0.5-0.1-0.7-0.2l-2.1,4.7c0.6,0.3,1.1,0.4,1.7,0.6L54.6,58.8z"/>
		</g>
	</g>
	<g>
		<g>
			<path class="st140" d="M44.9,104.4l-1.1,5.1c3.9,0.8,7.7,1.2,11.5,1.2v-5.2C51.9,105.5,48.4,105.2,44.9,104.4z"/>
		</g>
		<g>
			<path class="st141" d="M46,99.3l-1.1,5.1c3.5,0.7,7,1.1,10.4,1.1v-5.2C52.3,100.3,49.1,100,46,99.3z"/>
		</g>
		<g>
			<path class="st142" d="M47.1,94.3L46,99.3c3.1,0.7,6.3,1,9.4,1v-5.2C52.6,95.1,49.8,94.9,47.1,94.3z"/>
		</g>
		<g>
			<path class="st143" d="M48.1,89.2l-1.1,5.1c2.8,0.6,5.5,0.9,8.3,0.9V90C53,90,50.6,89.7,48.1,89.2z"/>
		</g>
		<g>
			<path class="st144" d="M49.2,84.1l-1.1,5.1c2.4,0.5,4.8,0.8,7.2,0.8v-5.2C53.3,84.8,51.3,84.6,49.2,84.1z"/>
		</g>
		<g>
			<path class="st145" d="M50.3,79.1l-1.1,5.1c2.1,0.4,4.1,0.6,6.1,0.6v-5.2C53.7,79.6,52,79.4,50.3,79.1z"/>
		</g>
		<g>
			<path class="st146" d="M51.4,74l-1.1,5.1c1.7,0.4,3.4,0.5,5,0.5v-5.2C54,74.4,52.7,74.3,51.4,74z"/>
		</g>
		<g>
			<path class="st147" d="M52.5,68.9L51.4,74c1.3,0.3,2.7,0.4,4,0.4v-5.2C54.4,69.2,53.4,69.1,52.5,68.9z"/>
		</g>
		<g>
			<path class="st148" d="M53.5,63.9l-1.1,5.1c1,0.2,1.9,0.3,2.9,0.3v-5.2C54.7,64.1,54.1,64,53.5,63.9z"/>
		</g>
		<g>
			<path class="st149" d="M55.3,58.9c-0.2,0-0.5,0-0.7-0.1l-1.1,5.1c0.6,0.1,1.2,0.2,1.8,0.2V58.9z"/>
		</g>
	</g>
	<g>
		<g>
			<path class="st150" d="M55.3,105.5v5.2c3.9,0,7.8-0.4,11.5-1.2l-1.1-5.1C62.4,105.1,58.9,105.5,55.3,105.5z"/>
		</g>
		<g>
			<path class="st151" d="M55.3,100.3v5.2c3.6,0,7.1-0.4,10.4-1.1l-1.1-5.1C61.7,100,58.5,100.3,55.3,100.3z"/>
		</g>
		<g>
			<path class="st152" d="M55.3,95.1v5.2c3.2,0,6.3-0.3,9.4-1l-1.1-5.1C60.9,94.8,58.2,95.1,55.3,95.1z"/>
		</g>
		<g>
			<path class="st153" d="M55.3,90v5.2c2.8,0,5.6-0.3,8.3-0.9l-1.1-5.1C60.2,89.7,57.8,90,55.3,90z"/>
		</g>
		<g>
			<path class="st154" d="M55.3,84.8V90c2.5,0,4.9-0.3,7.2-0.7l-1.1-5.1C59.5,84.6,57.4,84.8,55.3,84.8z"/>
		</g>
		<g>
			<path class="st155" d="M55.3,79.6v5.2c2.1,0,4.1-0.2,6.1-0.6l-1.1-5.1C58.8,79.4,57.1,79.6,55.3,79.6z"/>
		</g>
		<g>
			<path class="st156" d="M55.3,74.4v5.2c1.7,0,3.4-0.2,5-0.5L59.3,74C58,74.3,56.7,74.4,55.3,74.4z"/>
		</g>
		<g>
			<path class="st157" d="M55.3,69.2v5.2c1.4,0,2.7-0.1,4-0.4l-1.1-5.1C57.3,69.1,56.3,69.2,55.3,69.2z"/>
		</g>
		<g>
			<path class="st158" d="M55.3,64v5.2c1,0,2-0.1,2.9-0.3l-1.1-5.1C56.6,64,56,64,55.3,64z"/>
		</g>
		<g>
			<path class="st159" d="M56.1,58.8c-0.2,0-0.5,0.1-0.7,0.1V64c0.6,0,1.2-0.1,1.8-0.2L56.1,58.8z"/>
		</g>
	</g>
	<g>
		<g>
			<path class="st160" d="M65.8,104.4l1.1,5.1c3.9-0.8,7.5-2,11-3.6l-2.1-4.7C72.6,102.6,69.3,103.7,65.8,104.4z"/>
		</g>
		<g>
			<path class="st161" d="M64.7,99.3l1.1,5.1c3.5-0.7,6.8-1.8,10-3.2l-2.1-4.7C70.8,97.7,67.8,98.7,64.7,99.3z"/>
		</g>
		<g>
			<path class="st162" d="M63.6,94.3l1.1,5.1c3.1-0.7,6.1-1.6,8.9-2.9l-2.1-4.7C69,92.8,66.4,93.7,63.6,94.3z"/>
		</g>
		<g>
			<path class="st163" d="M62.5,89.2l1.1,5.1c2.8-0.6,5.4-1.5,7.9-2.6L69.4,87C67.3,87.9,65,88.7,62.5,89.2z"/>
		</g>
		<g>
			<path class="st164" d="M61.5,84.1l1.1,5.1c2.4-0.5,4.7-1.3,6.9-2.2l-2.1-4.7C65.5,83.1,63.5,83.7,61.5,84.1z"/>
		</g>
		<g>
			<path class="st165" d="M60.4,79.1l1.1,5.1c2.1-0.4,4-1.1,5.9-1.9l-2.1-4.7C63.7,78.2,62.1,78.7,60.4,79.1z"/>
		</g>
		<g>
			<path class="st166" d="M59.3,74l1.1,5.1c1.7-0.4,3.3-0.9,4.8-1.6l-2.1-4.7C61.9,73.3,60.6,73.7,59.3,74z"/>
		</g>
		<g>
			<path class="st167" d="M58.2,68.9l1.1,5.1c1.3-0.3,2.6-0.7,3.8-1.2L61,68C60.1,68.4,59.2,68.7,58.2,68.9z"/>
		</g>
		<g>
			<path class="st168" d="M57.2,63.9l1.1,5.1c1-0.2,1.9-0.5,2.8-0.9l-2.1-4.7C58.3,63.5,57.8,63.7,57.2,63.9z"/>
		</g>
		<g>
			<path class="st169" d="M56.8,58.6c-0.2,0.1-0.5,0.2-0.7,0.2l1.1,5.1c0.6-0.1,1.2-0.3,1.7-0.6L56.8,58.6z"/>
		</g>
	</g>
	<g>
		<g>
			<path class="st170" d="M75.7,101.2l2.1,4.7c3.6-1.6,7-3.5,10-5.8l-3-4.2C82,98,79,99.7,75.7,101.2z"/>
		</g>
		<g>
			<path class="st171" d="M73.6,96.4l2.1,4.7c3.3-1.5,6.3-3.2,9.1-5.2l-3-4.2C79.3,93.6,76.6,95.1,73.6,96.4z"/>
		</g>
		<g>
			<path class="st172" d="M71.5,91.7l2.1,4.7c2.9-1.3,5.7-2.9,8.1-4.7l-3-4.2C76.5,89.1,74.1,90.5,71.5,91.7z"/>
		</g>
		<g>
			<path class="st173" d="M69.4,87l2.1,4.7c2.6-1.2,5-2.6,7.2-4.2l-3-4.2C73.8,84.7,71.7,86,69.4,87z"/>
		</g>
		<g>
			<path class="st174" d="M67.3,82.2l2.1,4.7c2.3-1,4.3-2.2,6.3-3.6l-3-4.2C71,80.3,69.2,81.4,67.3,82.2z"/>
		</g>
		<g>
			<path class="st175" d="M65.2,77.5l2.1,4.7c1.9-0.9,3.7-1.9,5.3-3.1l-3-4.2C68.3,75.9,66.8,76.8,65.2,77.5z"/>
		</g>
		<g>
			<path class="st176" d="M63.1,72.8l2.1,4.7c1.6-0.7,3-1.6,4.4-2.5l-3-4.2C65.5,71.5,64.3,72.2,63.1,72.8z"/>
		</g>
		<g>
			<path class="st177" d="M61,68l2.1,4.7c1.2-0.6,2.4-1.2,3.5-2l-3-4.2C62.7,67.1,61.9,67.6,61,68z"/>
		</g>
		<g>
			<path class="st178" d="M58.9,63.3L61,68c0.9-0.4,1.7-0.9,2.5-1.4l-3-4.2C60,62.7,59.4,63,58.9,63.3z"/>
		</g>
		<g>
			<path class="st179" d="M57.4,58.2c-0.2,0.1-0.4,0.3-0.6,0.4l2.1,4.7c0.6-0.3,1.1-0.6,1.6-0.9L57.4,58.2z"/>
		</g>
	</g>
	<g>
		<g>
			<path class="st180" d="M84.8,95.9l3,4.2c3.2-2.3,6.1-4.9,8.6-7.7l-3.9-3.5C90.3,91.5,87.7,93.8,84.8,95.9z"/>
		</g>
		<g>
			<path class="st181" d="M81.8,91.7l3,4.2c2.9-2.1,5.5-4.5,7.8-7l-3.9-3.5C86.7,87.7,84.4,89.8,81.8,91.7z"/>
		</g>
		<g>
			<path class="st182" d="M78.7,87.5l3,4.2c2.6-1.9,4.9-4,7-6.3L84.9,82C83.1,84,81,85.9,78.7,87.5z"/>
		</g>
		<g>
			<path class="st183" d="M75.7,83.3l3,4.2c2.3-1.7,4.4-3.5,6.2-5.6l-3.9-3.5C79.5,80.3,77.7,81.9,75.7,83.3z"/>
		</g>
		<g>
			<path class="st184" d="M72.6,79.2l3,4.2c2-1.5,3.8-3.1,5.4-4.8L77.2,75C75.9,76.5,74.3,77.9,72.6,79.2z"/>
		</g>
		<g>
			<path class="st185" d="M69.6,75l3,4.2c1.7-1.2,3.2-2.6,4.6-4.1l-3.9-3.5C72.3,72.8,71,73.9,69.6,75z"/>
		</g>
		<g>
			<path class="st186" d="M66.5,70.8l3,4.2c1.4-1,2.7-2.2,3.8-3.4l-3.9-3.5C68.6,69.1,67.6,70,66.5,70.8z"/>
		</g>
		<g>
			<path class="st187" d="M63.5,66.6l3,4.2c1.1-0.8,2.1-1.7,3-2.7l-3.9-3.5C65,65.3,64.3,66,63.5,66.6z"/>
		</g>
		<g>
			<path class="st188" d="M60.5,62.4l3,4.2c0.8-0.6,1.5-1.2,2.2-1.9l-3.9-3.5C61.4,61.6,61,62,60.5,62.4z"/>
		</g>
		<g>
			<path class="st189" d="M58,57.7c-0.2,0.2-0.3,0.3-0.5,0.5l3,4.2c0.5-0.4,1-0.8,1.4-1.2L58,57.7z"/>
		</g>
	</g>
	<g>
		<g>
			<path class="st190" d="M92.6,88.9l3.9,3.5c2.6-2.9,4.9-6.1,6.8-9.4l-4.5-2.6C97.1,83.4,95,86.3,92.6,88.9z"/>
		</g>
		<g>
			<path class="st191" d="M88.8,85.4l3.9,3.5c2.4-2.7,4.4-5.5,6.2-8.5l-4.5-2.6C92.8,80.5,90.9,83.1,88.8,85.4z"/>
		</g>
		<g>
			<path class="st192" d="M84.9,82l3.9,3.5c2.1-2.4,4-4.9,5.5-7.6l-4.5-2.6C88.4,77.6,86.8,79.9,84.9,82z"/>
		</g>
		<g>
			<path class="st193" d="M81.1,78.5l3.9,3.5c1.9-2.1,3.5-4.4,4.9-6.7l-4.5-2.6C84.1,74.7,82.7,76.7,81.1,78.5z"/>
		</g>
		<g>
			<path class="st194" d="M77.2,75l3.9,3.5c1.7-1.8,3.1-3.8,4.3-5.9l-4.5-2.6C79.8,71.8,78.6,73.5,77.2,75z"/>
		</g>
		<g>
			<path class="st195" d="M73.4,71.6l3.9,3.5c1.4-1.6,2.6-3.2,3.6-5l-4.5-2.6C75.5,68.9,74.5,70.3,73.4,71.6z"/>
		</g>
		<g>
			<path class="st196" d="M69.5,68.1l3.9,3.5c1.2-1.3,2.2-2.7,3-4.1l-4.5-2.6C71.2,66,70.4,67.1,69.5,68.1z"/>
		</g>
		<g>
			<path class="st197" d="M65.7,64.6l3.9,3.5c0.9-1,1.7-2.1,2.3-3.2l-4.5-2.6C66.9,63.1,66.3,63.9,65.7,64.6z"/>
		</g>
		<g>
			<path class="st198" d="M61.8,61.2l3.9,3.5c0.7-0.7,1.2-1.5,1.7-2.3l-4.5-2.6C62.6,60.2,62.2,60.7,61.8,61.2z"/>
		</g>
		<g>
			<path class="st199" d="M58.4,57.1c-0.1,0.2-0.3,0.4-0.4,0.6l3.9,3.5c0.4-0.5,0.8-1,1.1-1.5L58.4,57.1z"/>
		</g>
	</g>
	<g>
		<g>
			<path class="st200" d="M98.8,80.4l4.5,2.6c2-3.4,3.5-7,4.7-10.6l-4.9-1.6C102,74.1,100.6,77.3,98.8,80.4z"/>
		</g>
		<g>
			<path class="st201" d="M94.3,77.8l4.5,2.6c1.8-3.1,3.2-6.3,4.3-9.6l-4.9-1.6C97.2,72.2,95.9,75.1,94.3,77.8z"/>
		</g>
		<g>
			<path class="st202" d="M89.8,75.2l4.5,2.6c1.6-2.8,2.9-5.7,3.8-8.6l-4.9-1.6C92.3,70.2,91.2,72.8,89.8,75.2z"/>
		</g>
		<g>
			<path class="st203" d="M85.3,72.7l4.5,2.6c1.4-2.5,2.5-5,3.4-7.6L88.3,66C87.5,68.3,86.5,70.5,85.3,72.7z"/>
		</g>
		<g>
			<path class="st204" d="M80.8,70.1l4.5,2.6c1.2-2.1,2.2-4.4,2.9-6.6l-4.9-1.6C82.7,66.4,81.9,68.2,80.8,70.1z"/>
		</g>
		<g>
			<path class="st205" d="M76.3,67.5l4.5,2.6c1-1.8,1.9-3.7,2.5-5.6l-4.9-1.6C77.9,64.4,77.2,66,76.3,67.5z"/>
		</g>
		<g>
			<path class="st206" d="M71.9,64.9l4.5,2.6c0.9-1.5,1.6-3,2.1-4.6l-4.9-1.6C73.1,62.5,72.5,63.7,71.9,64.9z"/>
		</g>
		<g>
			<path class="st207" d="M67.4,62.3l4.5,2.6c0.7-1.2,1.2-2.4,1.6-3.6l-4.9-1.6C68.3,60.5,67.9,61.4,67.4,62.3z"/>
		</g>
		<g>
			<path class="st208" d="M62.9,59.7l4.5,2.6c0.5-0.9,0.9-1.7,1.2-2.7L63.6,58C63.4,58.6,63.2,59.2,62.9,59.7z"/>
		</g>
		<g>
			<path class="st209" d="M58.7,56.4c-0.1,0.2-0.2,0.5-0.3,0.7l4.5,2.6c0.3-0.5,0.6-1.1,0.7-1.7L58.7,56.4z"/>
		</g>
	</g>
	<g>
		<g>
			<path class="st210" d="M103,70.8l4.9,1.6c1.2-3.8,2-7.5,2.4-11.3l-5.2-0.5C104.9,64,104.1,67.4,103,70.8z"/>
		</g>
		<g>
			<path class="st211" d="M98.1,69.2l4.9,1.6c1.1-3.4,1.8-6.8,2.2-10.3l-5.2-0.5C99.8,63.1,99.1,66.2,98.1,69.2z"/>
		</g>
		<g>
			<path class="st212" d="M93.2,67.6l4.9,1.6c1-3,1.6-6.1,2-9.2l-5.2-0.5C94.6,62.2,94.1,64.9,93.2,67.6z"/>
		</g>
		<g>
			<path class="st213" d="M88.3,66l4.9,1.6c0.9-2.7,1.4-5.4,1.7-8.1L89.8,59C89.5,61.3,89,63.7,88.3,66z"/>
		</g>
		<g>
			<path class="st214" d="M83.3,64.4l4.9,1.6c0.8-2.3,1.3-4.7,1.5-7.1l-5.2-0.5C84.4,60.4,84,62.4,83.3,64.4z"/>
		</g>
		<g>
			<path class="st215" d="M78.4,62.8l4.9,1.6c0.6-2,1.1-4,1.3-6l-5.2-0.5C79.3,59.5,78.9,61.2,78.4,62.8z"/>
		</g>
		<g>
			<path class="st216" d="M73.5,61.2l4.9,1.6c0.5-1.6,0.9-3.3,1.1-5l-5.2-0.5C74.2,58.6,73.9,59.9,73.5,61.2z"/>
		</g>
		<g>
			<path class="st217" d="M68.5,59.6l4.9,1.6c0.4-1.3,0.7-2.6,0.8-3.9l-5.2-0.5C69.1,57.7,68.9,58.7,68.5,59.6z"/>
		</g>
		<g>
			<path class="st218" d="M63.6,58l4.9,1.6c0.3-0.9,0.5-1.9,0.6-2.8L64,56.3C63.9,56.9,63.8,57.4,63.6,58z"/>
		</g>
		<g>
			<path class="st219" d="M58.8,55.7c0,0.2-0.1,0.5-0.2,0.7l4.9,1.6c0.2-0.6,0.3-1.2,0.4-1.8L58.8,55.7z"/>
		</g>
	</g>
	<g>
		<g>
			<path class="st220" d="M105.2,60.6l5.2,0.5c0.4-3.9,0.4-7.8,0-11.6l-5.2,0.5C105.6,53.5,105.6,57,105.2,60.6z"/>
		</g>
		<g>
			<path class="st221" d="M100.1,60l5.2,0.5c0.4-3.6,0.4-7.1,0-10.5l-5.2,0.5C100.4,53.7,100.4,56.9,100.1,60z"/>
		</g>
		<g>
			<path class="st222" d="M94.9,59.5l5.2,0.5c0.3-3.2,0.3-6.3,0-9.4l-5.2,0.5C95.2,53.9,95.2,56.7,94.9,59.5z"/>
		</g>
		<g>
			<path class="st223" d="M89.8,59l5.2,0.5c0.3-2.8,0.3-5.6,0-8.3l-5.2,0.5C90,54.1,90,56.5,89.8,59z"/>
		</g>
		<g>
			<path class="st224" d="M84.6,58.4l5.2,0.5c0.3-2.5,0.3-4.9,0-7.2l-5.2,0.5C84.8,54.3,84.8,56.3,84.6,58.4z"/>
		</g>
		<g>
			<path class="st225" d="M79.5,57.9l5.2,0.5c0.2-2.1,0.2-4.1,0-6.2l-5.2,0.5C79.6,54.5,79.6,56.2,79.5,57.9z"/>
		</g>
		<g>
			<path class="st226" d="M74.3,57.3l5.2,0.5c0.2-1.7,0.2-3.4,0-5.1l-5.2,0.5C74.4,54.7,74.4,56,74.3,57.3z"/>
		</g>
		<g>
			<path class="st227" d="M69.1,56.8l5.2,0.5c0.1-1.4,0.1-2.7,0-4l-5.2,0.5C69.2,54.8,69.3,55.8,69.1,56.8z"/>
		</g>
		<g>
			<path class="st228" d="M64,56.3l5.2,0.5c0.1-1,0.1-2,0-2.9L64,54.4C64.1,55,64.1,55.6,64,56.3z"/>
		</g>
		<g>
			<path class="st229" d="M58.8,55c0,0.2,0,0.5,0,0.7l5.2,0.5c0.1-0.6,0.1-1.2,0-1.8L58.8,55z"/>
		</g>
	</g>
	<g>
		<g>
			<path class="st230" d="M105.2,50.1l5.2-0.5c-0.4-3.9-1.2-7.7-2.4-11.3l-4.9,1.6C104.1,43.1,104.8,46.5,105.2,50.1z"/>
		</g>
		<g>
			<path class="st231" d="M100.1,50.6l5.2-0.5c-0.4-3.6-1.1-7-2.2-10.3l-4.9,1.6C99.1,44.4,99.7,47.5,100.1,50.6z"/>
		</g>
		<g>
			<path class="st232" d="M94.9,51.2l5.2-0.5c-0.3-3.2-1-6.3-1.9-9.2l-4.9,1.6C94,45.6,94.6,48.4,94.9,51.2z"/>
		</g>
		<g>
			<path class="st233" d="M89.8,51.7l5.2-0.5c-0.3-2.8-0.9-5.5-1.7-8.1l-4.9,1.6C89,46.9,89.5,49.3,89.8,51.7z"/>
		</g>
		<g>
			<path class="st234" d="M84.6,52.3l5.2-0.5c-0.3-2.5-0.8-4.8-1.5-7.1l-4.9,1.6C84,48.2,84.4,50.2,84.6,52.3z"/>
		</g>
		<g>
			<path class="st235" d="M79.5,52.8l5.2-0.5c-0.2-2.1-0.7-4.1-1.3-6l-4.9,1.6C78.9,49.4,79.3,51.1,79.5,52.8z"/>
		</g>
		<g>
			<path class="st236" d="M74.3,53.4l5.2-0.5c-0.2-1.7-0.5-3.4-1-5l-4.9,1.6C73.9,50.7,74.2,52,74.3,53.4z"/>
		</g>
		<g>
			<path class="st237" d="M69.1,53.9l5.2-0.5c-0.1-1.4-0.4-2.7-0.8-3.9l-4.9,1.6C68.8,52,69,52.9,69.1,53.9z"/>
		</g>
		<g>
			<path class="st238" d="M64,54.4l5.2-0.5c-0.1-1-0.3-1.9-0.6-2.8l-4.9,1.6C63.8,53.2,63.9,53.8,64,54.4z"/>
		</g>
		<g>
			<path class="st239" d="M58.7,54.3c0.1,0.2,0.1,0.5,0.2,0.7l5.2-0.5c-0.1-0.6-0.2-1.2-0.4-1.8L58.7,54.3z"/>
		</g>
	</g>
	<g>
		<g>
			<path class="st240" d="M103,39.8l4.9-1.6c-1.2-3.8-2.8-7.3-4.7-10.6l-4.5,2.6C100.5,33.2,101.9,36.4,103,39.8z"/>
		</g>
		<g>
			<path class="st241" d="M98.1,41.5l4.9-1.6c-1.1-3.4-2.5-6.6-4.3-9.6l-4.5,2.6C95.8,35.5,97.1,38.4,98.1,41.5z"/>
		</g>
		<g>
			<path class="st242" d="M93.2,43.1l4.9-1.6c-1-3.1-2.3-5.9-3.8-8.6l-4.5,2.6C91.2,37.8,92.3,40.4,93.2,43.1z"/>
		</g>
		<g>
			<path class="st243" d="M88.3,44.7l4.9-1.6c-0.9-2.7-2-5.2-3.4-7.6L85.3,38C86.5,40.1,87.5,42.3,88.3,44.7z"/>
		</g>
		<g>
			<path class="st244" d="M83.3,46.3l4.9-1.6c-0.8-2.3-1.8-4.6-2.9-6.6l-4.5,2.6C81.8,42.4,82.7,44.3,83.3,46.3z"/>
		</g>
		<g>
			<path class="st245" d="M78.4,47.9l4.9-1.6c-0.6-2-1.5-3.9-2.5-5.6l-4.5,2.6C77.2,44.7,77.9,46.2,78.4,47.9z"/>
		</g>
		<g>
			<path class="st246" d="M73.5,49.5l4.9-1.6c-0.5-1.6-1.2-3.2-2.1-4.6l-4.5,2.6C72.5,46.9,73.1,48.2,73.5,49.5z"/>
		</g>
		<g>
			<path class="st247" d="M68.5,51.1l4.9-1.6c-0.4-1.3-1-2.5-1.6-3.6l-4.5,2.6C67.8,49.2,68.2,50.1,68.5,51.1z"/>
		</g>
		<g>
			<path class="st248" d="M63.6,52.7l4.9-1.6c-0.3-0.9-0.7-1.8-1.2-2.7L62.9,51C63.2,51.5,63.4,52.1,63.6,52.7z"/>
		</g>
		<g>
			<path class="st249" d="M58.4,53.6c0.1,0.2,0.2,0.4,0.3,0.7l4.9-1.6c-0.2-0.6-0.4-1.1-0.7-1.7L58.4,53.6z"/>
		</g>
	</g>
	<g>
		<g>
			<path class="st250" d="M98.8,30.3l4.5-2.6c-2-3.4-4.3-6.5-6.8-9.4l-3.9,3.5C94.9,24.3,97,27.2,98.8,30.3z"/>
		</g>
		<g>
			<path class="st251" d="M94.3,32.9l4.5-2.6c-1.8-3.1-3.9-5.9-6.2-8.5l-3.9,3.5C90.8,27.5,92.7,30.1,94.3,32.9z"/>
		</g>
		<g>
			<path class="st252" d="M89.8,35.5l4.5-2.6c-1.6-2.8-3.5-5.3-5.5-7.6l-3.9,3.5C86.7,30.7,88.4,33,89.8,35.5z"/>
		</g>
		<g>
			<path class="st253" d="M85.3,38l4.5-2.6c-1.4-2.5-3.1-4.7-4.9-6.7l-3.9,3.5C82.7,34,84.1,35.9,85.3,38z"/>
		</g>
		<g>
			<path class="st254" d="M80.8,40.6l4.5-2.6c-1.2-2.1-2.7-4.1-4.2-5.9l-3.9,3.5C78.6,37.2,79.8,38.8,80.8,40.6z"/>
		</g>
		<g>
			<path class="st255" d="M76.3,43.2l4.5-2.6c-1-1.8-2.3-3.5-3.6-5l-3.9,3.5C74.5,40.4,75.5,41.7,76.3,43.2z"/>
		</g>
		<g>
			<path class="st256" d="M71.9,45.8l4.5-2.6c-0.9-1.5-1.9-2.9-3-4.1l-3.9,3.5C70.4,43.6,71.2,44.6,71.9,45.8z"/>
		</g>
		<g>
			<path class="st257" d="M67.4,48.4l4.5-2.6c-0.7-1.2-1.5-2.3-2.3-3.2l-3.9,3.5C66.3,46.8,66.9,47.6,67.4,48.4z"/>
		</g>
		<g>
			<path class="st258" d="M62.9,51l4.5-2.6c-0.5-0.9-1.1-1.6-1.7-2.3l-3.9,3.5C62.2,50,62.6,50.5,62.9,51z"/>
		</g>
		<g>
			<path class="st259" d="M58,53c0.2,0.2,0.3,0.4,0.4,0.6l4.5-2.6c-0.3-0.5-0.7-1-1.1-1.5L58,53z"/>
		</g>
	</g>
	<g>
		<g>
			<path class="st260" d="M92.6,21.8l3.9-3.5c-2.6-2.9-5.5-5.5-8.6-7.8l-3,4.2C87.6,16.8,90.2,19.1,92.6,21.8z"/>
		</g>
		<g>
			<path class="st261" d="M88.8,25.3l3.9-3.5c-2.4-2.7-5-5-7.8-7l-3,4.2C84.3,20.8,86.6,22.9,88.8,25.3z"/>
		</g>
		<g>
			<path class="st262" d="M84.9,28.7l3.9-3.5c-2.1-2.4-4.5-4.5-7-6.3l-3,4.2C80.9,24.8,83,26.6,84.9,28.7z"/>
		</g>
		<g>
			<path class="st263" d="M81.1,32.2l3.9-3.5c-1.9-2.1-4-4-6.2-5.6l-3,4.2C77.6,28.7,79.4,30.4,81.1,32.2z"/>
		</g>
		<g>
			<path class="st264" d="M77.2,35.7l3.9-3.5c-1.7-1.8-3.5-3.5-5.4-4.8l-3,4.2C74.3,32.7,75.8,34.1,77.2,35.7z"/>
		</g>
		<g>
			<path class="st265" d="M73.4,39.1l3.9-3.5c-1.4-1.6-2.9-2.9-4.6-4.1l-3,4.2C70.9,36.7,72.2,37.8,73.4,39.1z"/>
		</g>
		<g>
			<path class="st266" d="M69.5,42.6l3.9-3.5c-1.2-1.3-2.4-2.4-3.8-3.4l-3,4.2C67.6,40.7,68.6,41.6,69.5,42.6z"/>
		</g>
		<g>
			<path class="st267" d="M65.7,46.1l3.9-3.5c-0.9-1-1.9-1.9-3-2.7l-3,4.2C64.3,44.7,65,45.3,65.7,46.1z"/>
		</g>
		<g>
			<path class="st268" d="M61.8,49.5l3.9-3.5c-0.7-0.7-1.4-1.4-2.2-1.9l-3,4.2C60.9,48.7,61.4,49.1,61.8,49.5z"/>
		</g>
		<g>
			<path class="st269" d="M57.4,52.5c0.2,0.1,0.4,0.3,0.5,0.5l3.9-3.5c-0.4-0.5-0.9-0.9-1.4-1.2L57.4,52.5z"/>
		</g>
	</g>
	<g>
		<g>
			<path class="st270" d="M84.8,14.8l3-4.2c-3.2-2.3-6.5-4.2-10-5.8l-2.1,4.7C78.9,10.9,81.9,12.7,84.8,14.8z"/>
		</g>
		<g>
			<path class="st271" d="M81.8,19l3-4.2c-2.9-2.1-5.9-3.9-9.1-5.3l-2.1,4.7C76.5,15.5,79.2,17.1,81.8,19z"/>
		</g>
		<g>
			<path class="st272" d="M78.7,23.2l3-4.2c-2.6-1.9-5.3-3.5-8.1-4.7L71.5,19C74,20.1,76.4,21.5,78.7,23.2z"/>
		</g>
		<g>
			<path class="st273" d="M75.7,27.3l3-4.2c-2.3-1.7-4.7-3.1-7.2-4.2l-2.1,4.7C71.6,24.7,73.7,25.9,75.7,27.3z"/>
		</g>
		<g>
			<path class="st274" d="M72.6,31.5l3-4.2c-2-1.5-4.1-2.7-6.3-3.6l-2.1,4.7C69.2,29.3,70.9,30.3,72.6,31.5z"/>
		</g>
		<g>
			<path class="st275" d="M69.6,35.7l3-4.2c-1.7-1.2-3.5-2.3-5.3-3.1l-2.1,4.7C66.7,33.9,68.2,34.7,69.6,35.7z"/>
		</g>
		<g>
			<path class="st276" d="M66.5,39.9l3-4.2c-1.4-1-2.9-1.9-4.4-2.5l-2.1,4.7C64.3,38.5,65.4,39.1,66.5,39.9z"/>
		</g>
		<g>
			<path class="st277" d="M63.5,44.1l3-4.2c-1.1-0.8-2.3-1.5-3.4-2L61,42.7C61.9,43.1,62.7,43.5,63.5,44.1z"/>
		</g>
		<g>
			<path class="st278" d="M60.5,48.3l3-4.2c-0.8-0.6-1.6-1.1-2.5-1.5l-2.1,4.7C59.4,47.6,60,47.9,60.5,48.3z"/>
		</g>
		<g>
			<path class="st279" d="M56.8,52.1c0.2,0.1,0.4,0.2,0.6,0.4l3-4.2c-0.5-0.4-1-0.7-1.6-0.9L56.8,52.1z"/>
		</g>
	</g>
	<g>
		<g>
			<path class="st280" d="M75.7,9.5l2.1-4.7c-3.6-1.6-7.3-2.8-11-3.6l-1.1,5.1C69.1,7,72.5,8.1,75.7,9.5z"/>
		</g>
		<g>
			<path class="st281" d="M73.6,14.3l2.1-4.7c-3.3-1.5-6.6-2.5-10-3.3l-1.1,5.1C67.7,12,70.7,13,73.6,14.3z"/>
		</g>
		<g>
			<path class="st282" d="M71.5,19l2.1-4.7c-2.9-1.3-5.9-2.3-8.9-2.9l-1.1,5.1C66.3,17,68.9,17.8,71.5,19z"/>
		</g>
		<g>
			<path class="st283" d="M69.4,23.7l2.1-4.7c-2.6-1.2-5.2-2-7.9-2.6l-1.1,5.1C64.9,22,67.2,22.7,69.4,23.7z"/>
		</g>
		<g>
			<path class="st284" d="M67.3,28.5l2.1-4.7c-2.3-1-4.6-1.7-6.9-2.2l-1.1,5.1C63.4,27,65.4,27.6,67.3,28.5z"/>
		</g>
		<g>
			<path class="st285" d="M65.2,33.2l2.1-4.7c-1.9-0.9-3.9-1.5-5.8-1.9l-1.1,5.1C62,32,63.6,32.5,65.2,33.2z"/>
		</g>
		<g>
			<path class="st286" d="M63.1,37.9l2.1-4.7c-1.6-0.7-3.2-1.2-4.8-1.6l-1.1,5.1C60.6,37,61.9,37.4,63.1,37.9z"/>
		</g>
		<g>
			<path class="st287" d="M61,42.7l2.1-4.7c-1.2-0.6-2.5-1-3.8-1.2l-1.1,5.1C59.2,42,60.1,42.3,61,42.7z"/>
		</g>
		<g>
			<path class="st288" d="M58.9,47.4l2.1-4.7c-0.9-0.4-1.8-0.7-2.8-0.9l-1.1,5.1C57.7,47,58.3,47.1,58.9,47.4z"/>
		</g>
		<g>
			<path class="st289" d="M56.1,51.9c0.2,0.1,0.5,0.1,0.7,0.2l2.1-4.7c-0.6-0.3-1.1-0.4-1.7-0.6L56.1,51.9z"/>
		</g>
	</g>
	<g>
		<g>
			<path class="st290" d="M65.8,6.3l1.1-5.1C63,0.4,59.1,0,55.3,0v5.2C58.8,5.2,62.3,5.5,65.8,6.3z"/>
		</g>
		<g>
			<path class="st291" d="M64.7,11.4l1.1-5.1c-3.5-0.7-7-1.1-10.4-1.1v5.2C58.4,10.4,61.6,10.7,64.7,11.4z"/>
		</g>
		<g>
			<path class="st292" d="M63.6,16.4l1.1-5.1c-3.1-0.7-6.3-1-9.4-1v5.2C58.1,15.6,60.8,15.8,63.6,16.4z"/>
		</g>
		<g>
			<path class="st293" d="M62.5,21.5l1.1-5.1c-2.8-0.6-5.5-0.9-8.3-0.9v5.2C57.7,20.7,60.1,21,62.5,21.5z"/>
		</g>
		<g>
			<path class="st294" d="M61.5,26.6l1.1-5.1c-2.4-0.5-4.8-0.8-7.2-0.8v5.2C57.4,25.9,59.4,26.1,61.5,26.6z"/>
		</g>
		<g>
			<path class="st295" d="M60.4,31.6l1.1-5.1c-2.1-0.4-4.1-0.6-6.1-0.6v5.2C57,31.1,58.7,31.3,60.4,31.6z"/>
		</g>
		<g>
			<path class="st296" d="M59.3,36.7l1.1-5.1c-1.7-0.4-3.4-0.5-5-0.5v5.2C56.6,36.3,58,36.4,59.3,36.7z"/>
		</g>
		<g>
			<path class="st297" d="M58.2,41.8l1.1-5.1c-1.3-0.3-2.7-0.4-4-0.4v5.2C56.3,41.5,57.3,41.6,58.2,41.8z"/>
		</g>
		<g>
			<path class="st298" d="M57.2,46.8l1.1-5.1c-1-0.2-1.9-0.3-2.9-0.3v5.2C55.9,46.6,56.5,46.7,57.2,46.8z"/>
		</g>
		<g>
			<path class="st299" d="M55.3,51.8c0.2,0,0.5,0,0.7,0.1l1.1-5.1c-0.6-0.1-1.2-0.2-1.8-0.2V51.8z"/>
		</g>
	</g>
</g>
</svg>
