<svg width="22" height="22" viewBox="0 0 22 22" fill="none" xmlns="http://www.w3.org/2000/svg">
<g clip-path="url(#clip0)">
<path d="M6.1875 17.4166C5.808 17.4166 5.5 17.1086 5.5 16.7291V10.7708C5.5 10.3913 5.808 10.0833 6.1875 10.0833C6.567 10.0833 6.875 10.3913 6.875 10.7708V16.7291C6.875 17.1086 6.567 17.4166 6.1875 17.4166Z" fill="#DADBDB"/>
<path d="M14.2083 17.4166C12.9452 17.4166 11.9167 16.389 11.9167 15.1249V12.3749C11.9167 11.1118 12.9452 10.0833 14.2083 10.0833C15.4715 10.0833 16.5 11.1118 16.5 12.3749V12.6041C16.5 12.9836 16.192 13.2916 15.8125 13.2916C15.433 13.2916 15.125 12.9836 15.125 12.6041V12.3749C15.125 11.8698 14.7134 11.4583 14.2083 11.4583C13.7033 11.4583 13.2917 11.8698 13.2917 12.3749V15.1249C13.2917 15.6309 13.7033 16.0416 14.2083 16.0416C14.7134 16.0416 15.125 15.6309 15.125 15.1249H14.4375C14.058 15.1249 13.75 14.8169 13.75 14.4374C13.75 14.0579 14.058 13.7499 14.4375 13.7499H15.8125C16.192 13.7499 16.5 14.0579 16.5 14.4374V15.1249C16.5 16.389 15.4715 17.4166 14.2083 17.4166Z" fill="#DADBDB"/>
<path d="M9.39583 17.4734C9.22624 17.4734 9.05574 17.4111 8.92283 17.2855L5.71449 14.2495C5.57699 14.1184 5.49908 13.9369 5.49999 13.7462C5.50091 13.5565 5.58066 13.3759 5.71999 13.2457L8.92833 10.2666C9.20699 10.009 9.64149 10.0237 9.89999 10.3032C10.1585 10.581 10.142 11.0164 9.86333 11.2749L7.19216 13.7545L9.86791 16.2872C10.1438 16.5485 10.1557 16.9839 9.89449 17.2598C9.75974 17.401 9.57824 17.4734 9.39583 17.4734Z" fill="#DADBDB"/>
<path d="M20.2143 22H1.78567C1.30809 22 0.859836 21.7901 0.553669 21.4234C0.247503 21.0568 0.121919 20.5773 0.207169 20.108L2.6235 6.81633C2.76284 6.05367 3.4265 5.5 4.202 5.5H17.7971C18.5726 5.5 19.2362 6.05367 19.3756 6.81725L21.7919 20.1089C21.8772 20.5773 21.7516 21.0568 21.4454 21.4234C21.1393 21.7901 20.691 22 20.2143 22ZM4.202 6.875C4.09109 6.875 3.99667 6.95383 3.9765 7.06383L1.56017 20.3555C1.54367 20.4481 1.584 20.5132 1.60967 20.5434C1.63534 20.5737 1.69217 20.6259 1.78567 20.6259H20.2143C20.3078 20.6259 20.3647 20.5737 20.3903 20.5434C20.416 20.5132 20.4563 20.4481 20.4398 20.3564L18.0235 7.06475C18.0033 6.95383 17.9089 6.875 17.798 6.875H4.202Z" fill="#DADBDB"/>
<path d="M11 6.41667C9.23085 6.41667 7.79169 4.9775 7.79169 3.20833C7.79169 1.43917 9.23085 0 11 0C12.7692 0 14.2084 1.43917 14.2084 3.20833C14.2084 4.9775 12.7692 6.41667 11 6.41667ZM11 1.375C9.98894 1.375 9.16669 2.19725 9.16669 3.20833C9.16669 4.21942 9.98894 5.04167 11 5.04167C12.0111 5.04167 12.8334 4.21942 12.8334 3.20833C12.8334 2.19725 12.0111 1.375 11 1.375Z" fill="#DADBDB"/>
</g>
<defs>
<clipPath id="clip0">
<rect width="22" height="22" fill="white"/>
</clipPath>
</defs>
</svg>
