<?xml version="1.0" encoding="UTF-8"?>
<svg width="24px" height="24px" viewBox="0 0 24 24" version="1.1" xmlns="http://www.w3.org/2000/svg" xmlns:xlink="http://www.w3.org/1999/xlink">
    <title>BBD5BC4A-631B-4867-BB9D-D53E91D4BD44</title>
    <g id="New-Post" stroke="none" stroke-width="1" fill="none" fill-rule="evenodd">
        <g id="6.00-Full" transform="translate(-183.000000, -2036.000000)" fill="#DADBDB">
            <g id="Group-2" transform="translate(167.000000, 2024.000000)">
                <g id="Input-/-iL">
                    <g id="Content" transform="translate(16.000000, 12.000000)">
                        <g id="Icon/Base">
                            <g id="Brand" transform="translate(0.000000, 0.000000)">
                                <path d="M12.7446154,6 C13.7357434,6 14.6577682,6.3907319 15.3653134,7.11520971 L15.4954292,7.25494647 L17.8140923,10.0615385 L19.4461538,10.0615385 C21.3537888,10.0615385 22.9199106,11.5799694 22.9970244,13.4693364 L23,13.6153846 L23,14.9692308 C23,15.8063078 22.4034008,16.4377853 21.5849103,16.4889551 L21.4769231,16.4923077 L19.4886822,16.4931333 C19.1270917,17.6686368 18.0325592,18.5230769 16.7384615,18.5230769 C15.4443639,18.5230769 14.3498314,17.6686368 13.9882409,16.4931333 L8.65791293,16.4931333 C8.29632246,17.6686368 7.20178998,18.5230769 5.90769231,18.5230769 C4.61359463,18.5230769 3.51906215,17.6686368 3.15747168,16.4931333 L2.52307692,16.4923077 C1.68599987,16.4923077 1.05452242,15.8957085 1.00335256,15.077218 L1,14.9692308 L1,12.2615385 C1,11.091396 1.92109909,10.1299472 3.0754575,10.0650317 L3.2,10.0615385 L3.35366154,10.0615385 L4.41806292,7.93422323 C5.02065722,6.81511951 6.18708448,6.0621148 7.44262734,6.00366499 L7.6,6 L12.7446154,6 Z M5.90769231,14.4615385 C5.2534473,14.4615385 4.72307692,14.9919088 4.72307692,15.6461538 C4.72307692,16.3003989 5.2534473,16.8307692 5.90769231,16.8307692 C6.56193732,16.8307692 7.09230769,16.3003989 7.09230769,15.6461538 C7.09230769,14.9919088 6.56193732,14.4615385 5.90769231,14.4615385 Z M16.7384615,14.4615385 C16.0842165,14.4615385 15.5538462,14.9919088 15.5538462,15.6461538 C15.5538462,16.3003989 16.0842165,16.8307692 16.7384615,16.8307692 C17.3927065,16.8307692 17.9230769,16.3003989 17.9230769,15.6461538 C17.9230769,14.9919088 17.3927065,14.4615385 16.7384615,14.4615385 Z M19.4461538,11.7538462 L3.2,11.7538462 C2.94581061,11.7538462 2.73103254,11.9474418 2.6970014,12.1932974 L2.69230769,12.2615385 L2.69230769,14.8 L3.15747168,14.7991744 C3.51906215,13.6236709 4.61359463,12.7692308 5.90769231,12.7692308 C7.20178998,12.7692308 8.29632246,13.6236709 8.65791293,14.7991744 L13.9882409,14.7991744 C14.3498314,13.6236709 15.4443639,12.7692308 16.7384615,12.7692308 C18.0325592,12.7692308 19.1270917,13.6236709 19.4886822,14.7991744 L21.3076923,14.8 L21.307,13.784 L20.1230769,13.7846154 C19.6557591,13.7846154 19.2769231,13.4057794 19.2769231,12.9384615 C19.2769231,12.500351 19.6098844,12.1400078 20.0365626,12.0966763 L20.1230769,12.0923077 L20.5120909,12.092643 C20.238391,11.8998711 19.9112917,11.7787051 19.5589162,11.757268 L19.4461538,11.7538462 Z M12.7446154,7.69230769 L10.492,7.692 L9.308,10.061 L15.619,10.061 L14.2106537,8.35600017 C13.8598231,7.96131577 13.3975628,7.7325334 12.8854671,7.69714386 L12.7446154,7.69230769 Z M8.6,7.692 L7.6,7.69230769 C6.96147166,7.69230769 6.32978469,8.05921065 5.98495758,8.60278252 L5.91989993,8.71379612 L5.245,10.061 L7.415,10.061 L8.6,7.692 Z" id="Main"></path>
                            </g>
                        </g>
                    </g>
                </g>
            </g>
        </g>
    </g>
</svg>