<svg width="20" height="17" viewBox="0 0 20 17" fill="none" xmlns="http://www.w3.org/2000/svg">
<path fill-rule="evenodd" clip-rule="evenodd" d="M6.91228 0H13.0175C14.4498 0 15.7462 0.864217 16.4185 2.21164L17.2876 4.21053H19.1228C19.6073 4.21053 20 4.60326 20 5.08772C20 5.5419 19.6548 5.91546 19.2125 5.96038L19.1228 5.96491H18.8893C19.5739 6.63461 20 7.56764 20 8.59649V11.4035C20 12.048 19.7304 12.6315 19.2982 13.0469V14.2105C19.2982 15.4669 18.2739 16.4912 17.0175 16.4912H15.614C14.3576 16.4912 13.3333 15.4669 13.3333 14.2105V13.6842H6.66667V14.2105C6.66667 15.4669 5.64235 16.4912 4.38596 16.4912H2.98246C1.72607 16.4912 0.701754 15.4669 0.701754 14.2105V13.0469C0.269571 12.6315 0 12.048 0 11.4035V8.59649C0 7.56764 0.426055 6.63461 1.11066 5.96491H0.877193C0.392733 5.96491 0 5.57218 0 5.08772C0 4.63354 0.345175 4.25998 0.787505 4.21506L0.877193 4.21053H2.71244L3.5797 2.21586C4.14727 0.891514 5.45832 0 6.91228 0ZM7.88842 11.9298H12.0688L11.6499 11.1175C11.5955 10.9907 11.467 10.9018 11.2778 10.8816L11.193 10.8772H8.73684C8.501 10.8772 8.34206 10.9726 8.26364 11.1533L7.88842 11.9298ZM14.0426 11.9298L13.2353 10.3689C12.9116 9.60774 12.1033 9.12281 11.193 9.12281H8.73684C7.82648 9.12281 7.01827 9.60774 6.66742 10.4264L5.94088 11.9298H5.78947H2.2807C1.99323 11.9298 1.75439 11.691 1.75439 11.4035V8.59649C1.75439 7.53709 2.62481 6.66667 3.68421 6.66667H16.3158C17.3752 6.66667 18.2456 7.53709 18.2456 8.59649V11.4035C18.2456 11.691 18.0068 11.9298 17.7193 11.9298H14.2105H14.0426ZM15.0877 14.2105V13.6842H17.5439V14.2105C17.5439 14.498 17.305 14.7368 17.0175 14.7368H15.614L15.5433 14.732C15.2884 14.6967 15.0877 14.474 15.0877 14.2105ZM2.45614 13.6842V14.2105C2.45614 14.474 2.65684 14.6967 2.91171 14.732L2.98246 14.7368H4.38596C4.67343 14.7368 4.91228 14.498 4.91228 14.2105V13.6842H2.45614ZM14.8295 2.9537L15.68 4.91228H4.32L5.19041 2.91116C5.48713 2.21884 6.17016 1.75439 6.91228 1.75439H13.0175L13.1482 1.75921C13.8423 1.81048 14.4858 2.26645 14.8295 2.9537ZM5.08772 8.42105C5.57218 8.42105 5.96491 8.81379 5.96491 9.29825C5.96491 9.75243 5.61974 10.126 5.17741 10.1709L5.08772 10.1754H2.98246C2.498 10.1754 2.10526 9.78271 2.10526 9.29825C2.10526 8.84406 2.45044 8.4705 2.89277 8.42558L2.98246 8.42105H5.08772ZM17.8947 9.29825C17.8947 8.81379 17.502 8.42105 17.0175 8.42105H14.9123L14.8226 8.42558C14.3803 8.4705 14.0351 8.84406 14.0351 9.29825C14.0351 9.78271 14.4278 10.1754 14.9123 10.1754H17.0175L17.1072 10.1709C17.5496 10.126 17.8947 9.75243 17.8947 9.29825Z" fill="#DADBDB"/>
</svg>
