<?xml version="1.0" encoding="UTF-8"?>
<svg width="24px" height="24px" viewBox="0 0 24 24" version="1.1" xmlns="http://www.w3.org/2000/svg" xmlns:xlink="http://www.w3.org/1999/xlink">
    <title>F1A1333B-4853-4415-85F6-FDC7A3E37236</title>
    <g id="Main-Feature" stroke="none" stroke-width="1" fill="none" fill-rule="evenodd">
        <g id="4.3-All-Noti" transform="translate(-167.000000, -559.000000)" fill="#FF7A1F">
            <g id="Dropdown" transform="translate(135.000000, 136.000000)">
                <g id="Dropdown-/-iL" transform="translate(32.000000, 411.000000)">
                    <g id="Icon/Base" transform="translate(0.000000, 12.000000)">
                        <g id="Follower">
                            <path d="M12,11 C10.3431,11 9,12.3431 9,14 L9,16.4286 L9,20 C9,20.5523 8.55228,21 8,21 C7.44772,21 7,20.5523 7,20 L7,16.4286 L7,14 L7.00012,13.9645 C6.83678,13.9879 6.6698,14 6.5,14 C6.38994,14 6.28108,13.9949 6.17361,13.985 C6.11723,13.9949 6.05921,14 6,14 L5.57143,14 C4.70355,14 4,14.7036 4,15.5714 L4,18 C4,18.5523 3.55228,19 3,19 C2.44772,19 2,18.5523 2,18 L2,15.5714 C2,14.3004 2.66396,13.1845 3.66396,12.5515 C3.24626,11.9751 3,11.2663 3,10.5 C3,8.567 4.567,7 6.5,7 C7.04254,7 7.55625,7.12344 8.01457,7.34378 C8.00492,7.23047 8,7.11581 8,7 C8,4.79086 9.79086,3 12,3 C14.2091,3 16,4.79086 16,7 C16,7.11581 15.9951,7.23047 15.9854,7.34378 C16.4438,7.12345 16.9575,7 17.5,7 C19.433,7 21,8.567 21,10.5 C21,11.2663 20.7537,11.9751 20.336,12.5515 C21.336,13.1845 22,14.3004 22,15.5714 L22,18 C22,18.5523 21.5523,19 21,19 C20.4477,19 20,18.5523 20,18 L20,15.5714 C20,14.7036 19.2964,14 18.4286,14 L18,14 C17.9408,14 17.8828,13.9949 17.8264,13.985 C17.7189,13.9949 17.6101,14 17.5,14 C17.3302,14 17.1632,13.9879 16.9999,13.9645 L17,14 L17,16.4286 L17,20 C17,20.5523 16.5523,21 16,21 C15.4477,21 15,20.5523 15,20 L15,16.4286 L15,14 C15,12.3431 13.6569,11 12,11 Z M12,9 C10.8954,9 10,8.10457 10,7 C10,5.89543 10.8954,5 12,5 C13.1046,5 14,5.89543 14,7 C14,8.10457 13.1046,9 12,9 Z M6.5,9 C5.67157,9 5,9.67157 5,10.5 C5,11.3284 5.67157,12 6.5,12 C7.32843,12 8,11.3284 8,10.5 C8,9.67157 7.32843,9 6.5,9 Z M17.5,9 C16.6716,9 16,9.67157 16,10.5 C16,11.3284 16.6716,12 17.5,12 C18.3284,12 19,11.3284 19,10.5 C19,9.67157 18.3284,9 17.5,9 Z" id="Main"></path>
                        </g>
                    </g>
                </g>
            </g>
        </g>
    </g>
</svg>