<?xml version="1.0" encoding="UTF-8"?>
<svg width="24px" height="24px" viewBox="0 0 24 24" version="1.1" xmlns="http://www.w3.org/2000/svg" xmlns:xlink="http://www.w3.org/1999/xlink">
    <title>93D5CA4D-4823-4168-AA38-06FBA47AB8C1</title>
    <g id="Main-Feature" stroke="none" stroke-width="1" fill="none" fill-rule="evenodd">
        <g id="4.3-All-Noti" transform="translate(-167.000000, -511.000000)" fill="#FF7A1F">
            <g id="Dropdown" transform="translate(135.000000, 136.000000)">
                <g id="Dropdown-/-iL" transform="translate(32.000000, 363.000000)">
                    <g id="Icon/Base" transform="translate(0.000000, 12.000000)">
                        <g id="Save">
                            <path d="M16,2 C16.2653142,2 16.5197536,2.10543429 16.7073062,2.29309268 L16.7073062,2.29309268 L20.7073062,6.29534963 C20.8947206,6.48286977 21,6.73713819 21,7.00225695 L21,7.00225695 L21,21 C21,21.5522847 20.5522847,22 20,22 L20,22 L4,22 C3.44771525,22 3,21.5522847 3,21 L3,21 L3,3 C3,2.44771525 3.44771525,2 4,2 L4,2 Z M8,4 L5,4 L5,20 L7,20 L7,13 C7,12.4871642 7.38604019,12.0644928 7.88337887,12.0067277 L8,12 L16,12 C16.5522847,12 17,12.4477153 17,13 L17,13 L17,20 L19,20 L19,7.417 L16,4.414 L16,7 C16,7.51283584 15.6139598,7.93550716 15.1166211,7.99327227 L15,8 L9,8 C8.44771525,8 8,7.55228475 8,7 L8,7 L8,4 Z M15,14 L9,14 L9,20 L15,20 L15,14 Z M14,4 L10,4 L10,6 L14,6 L14,4 Z" id="Main"></path>
                        </g>
                    </g>
                </g>
            </g>
        </g>
    </g>
</svg>