<?xml version="1.0" encoding="UTF-8"?>
<svg width="48px" height="48px" viewBox="0 0 48 48" version="1.1" xmlns="http://www.w3.org/2000/svg" xmlns:xlink="http://www.w3.org/1999/xlink">
    <title>7C99A290-42E9-41F7-9AAF-4BDDB97A96A2</title>
    <g id="Main-Feature" stroke="none" stroke-width="1" fill="none" fill-rule="evenodd">
        <g id="00.-Bosung" transform="translate(-210.000000, -880.000000)">
            <g id="Group-2" transform="translate(0.000000, 784.000000)">
                <g id="Type" transform="translate(135.000000, 80.000000)">
                    <g id="List" transform="translate(34.000000, 8.000000)">
                        <g id="1">
                            <g id="Icon/_Type/1/Cars" transform="translate(41.000000, 8.000000)">
                                <g id="Group">
                                    <path d="M43.1363226,32.4009223 L41.6080526,32.4009223 C41.299681,29.936969 39.1961865,28.0233289 36.650328,28.0233289 C34.104092,28.0233289 32.0005975,29.936969 31.6922259,32.4009223 L19.6317635,32.4009223 C19.3233919,29.936969 17.2198975,28.0233289 14.6736615,28.0233289 C12.1655473,28.0233289 10.0888514,29.8811074 9.7325444,32.291841 L4.32,31.6856663 L4.32,29.7059734 C4.32,29.5485794 4.38227823,29.4017537 4.49513393,29.292295 C4.60270542,29.1884979 4.74198219,29.1318814 4.91183191,29.1318814 C5.23379149,29.1299942 5.52517812,28.912964 5.58481425,28.5925142 C5.58481425,28.5925142 5.65841579,28.1965756 5.7859918,27.5088729 L7.64678984,27.5088729 C8.01140057,27.5088729 8.30731653,27.2133344 8.30731653,26.8483463 C8.30731653,26.4837355 8.01140057,26.1878196 7.64678984,26.1878196 L6.0305754,26.1878196 C6.14728671,25.5575785 6.35896191,24.4126992 6.66560099,22.7531816 C25.0301459,22.7974011 34.8994919,22.8967611 36.273639,23.0512614 L43.0638534,23.8023746 C43.0880098,23.8050167 43.1121662,23.8065265 43.1363226,23.8065265 C43.8874358,23.8065265 44.5460753,24.3390997 44.7027145,25.0743603 L44.9431462,26.1878196 L43.3239122,26.1878196 C42.9593014,26.1878196 42.6633855,26.4837355 42.6633855,26.8483463 C42.6633855,27.2133344 42.9593014,27.5088729 43.3239122,27.5088729 L45.2281163,27.5088729 L45.6199029,29.3243777 C45.7825812,30.078133 45.5976338,30.854535 45.1129959,31.4554255 C44.6279806,32.0563161 43.9074403,32.4009223 43.1363226,32.4009223 Z" id="Shade" fill="#FFFFFF" opacity="0"></path>
                                    <path d="M25.3513169,13.001517 C26.7082274,12.9475426 28.0636282,14.3414426 29.6254907,15.9670931 C30.2528024,16.6200709 30.9016283,17.2956954 31.5674392,17.8901694 C32.7677106,18.9636196 33.6932028,19.5441282 35.4211406,19.7381344 L35.4211406,19.7381344 L42.1762527,20.4854731 C43.5305211,20.5039679 44.7126752,21.4702241 44.9953806,22.7973165 L44.9953806,22.7973165 L45.9121916,27.0458242 C46.1594173,28.1913662 45.8789766,29.3720105 45.1418288,30.2850471 C44.4050585,31.1980837 43.3097165,31.7219757 42.137376,31.7219757 L42.137376,31.7219757 L40.5977826,31.7219757 C40.2565734,34.1496943 38.1715737,36.0255901 35.6513813,36.0255901 C33.1308115,36.0255901 31.0458118,34.1496943 30.7046026,31.7219757 L30.7046026,31.7219757 L18.6214936,31.7219757 C18.2802844,34.1496943 16.1952847,36.0255901 13.6747148,36.0255901 C11.1186653,36.0255901 9.00762199,34.0964748 8.71246092,31.6185561 L8.71246092,31.6185561 L2.58730259,30.9327407 C2.25288736,30.8953737 2,30.6126683 2,30.2763659 L2,30.2763659 L2,27.7059734 C2,27.1873656 2.20532944,26.7034826 2.57748905,26.3430238 C2.80584256,26.1222192 3.078357,25.96558 3.37389551,25.8817874 C3.63433175,24.4799611 4.44092919,20.1287887 5.29734922,15.4647154 L5.29734922,15.4647154 L4.91348886,15.4877395 C4.89990088,15.4884944 4.88669035,15.4888718 4.87347981,15.4888718 C4.52660894,15.4888718 4.23559975,15.2182446 4.21484034,14.8675993 C4.1929486,14.503366 4.47074726,14.1904651 4.83498054,14.1689508 L4.83498054,14.1689508 L6.06167296,14.0957267 L6.06167296,14.0957267 L6.06771206,14.0957267 L9.3858207,13.8968138 C15.1410841,13.5510752 20.1116418,13.2521397 25.3513169,13.001517 Z M35.6513813,27.3443822 C33.6222434,27.3443822 31.9713041,28.9953215 31.9713041,31.0244595 C31.9713041,33.0535975 33.6222434,34.7045368 35.6513813,34.7045368 C37.6805193,34.7045368 39.3314586,33.0535975 39.3314586,31.0244595 C39.3314586,28.9953215 37.6805193,27.3443822 35.6513813,27.3443822 Z M13.6747148,27.3443822 C11.6459543,27.3443822 9.99463758,28.9953215 9.99463758,31.0244595 C9.99463758,33.0535975 11.6459543,34.7045368 13.6747148,34.7045368 C15.7038528,34.7045368 17.3547921,33.0535975 17.3547921,31.0244595 C17.3547921,28.9953215 15.7038528,27.3443822 13.6747148,27.3443822 Z M35.6512304,28.2878786 C37.1602508,28.2878786 38.3876981,29.5153259 38.3876981,31.0243463 C38.3876981,32.5333667 37.1602508,33.760814 35.6512304,33.760814 C34.14221,33.760814 32.9147627,32.5333667 32.9147627,31.0243463 C32.9147627,29.5153259 34.14221,28.2878786 35.6512304,28.2878786 Z M13.6749036,28.2878786 C15.183924,28.2878786 16.4113713,29.5153259 16.4113713,31.0243463 C16.4113713,32.5333667 15.183924,33.760814 13.6749036,33.760814 C12.1658832,33.760814 10.9384359,32.5333667 10.9384359,31.0243463 C10.9384359,29.5153259 12.1658832,28.2878786 13.6749036,28.2878786 Z M35.6512304,29.6089319 C34.8706765,29.6089319 34.235816,30.2437925 34.235816,31.0243463 C34.235816,31.8049001 34.8706765,32.4397606 35.6512304,32.4397606 C36.4317842,32.4397606 37.0666447,31.8049001 37.0666447,31.0243463 C37.0666447,30.2437925 36.4317842,29.6089319 35.6512304,29.6089319 Z M13.6749036,29.6089319 C12.8943497,29.6089319 12.2594892,30.2437925 12.2594892,31.0243463 C12.2594892,31.8049001 12.8943497,32.4397606 13.6749036,32.4397606 C14.4554574,32.4397606 15.0903179,31.8049001 15.0903179,31.0243463 C15.0903179,30.2437925 14.4554574,29.6089319 13.6749036,29.6089319 Z M25.4135951,14.3210606 C20.1829787,14.5713059 15.215818,14.8698639 9.4650839,15.2156025 L9.4650839,15.2156025 L6.65539209,15.3839424 C6.02921279,18.7937699 5.42417035,22.0680951 5.03162877,24.1878196 L5.03162877,24.1878196 L6.64784322,24.1878196 C7.01245395,24.1878196 7.30836991,24.4837355 7.30836991,24.8483463 C7.30836991,25.2133344 7.01245395,25.5088729 6.64784322,25.5088729 L6.64784322,25.5088729 L4.78704518,25.5088729 C4.65946917,26.1965756 4.58586762,26.5925142 4.58586762,26.5925142 C4.5262315,26.912964 4.23484487,27.1299942 3.91288529,27.1318814 C3.74303557,27.1318814 3.6037588,27.1884979 3.49618731,27.292295 C3.38333161,27.4017537 3.32105338,27.5485794 3.32105338,27.7059734 L3.32105338,27.7059734 L3.32105338,29.6856663 L8.73359777,30.291841 C9.08990474,27.8811074 11.1666006,26.0233289 13.6747148,26.0233289 C16.2209509,26.0233289 18.3244453,27.936969 18.6328169,30.4009223 L18.6328169,30.4009223 L30.6932793,30.4009223 C31.0016509,27.936969 33.1051453,26.0233289 35.6513813,26.0233289 C38.1972399,26.0233289 40.3007343,27.936969 40.6091059,30.4009223 L40.6091059,30.4009223 L42.137376,30.4009223 C42.9084937,30.4009223 43.629034,30.0563161 44.1140493,29.4554255 C44.5986871,28.854535 44.7836346,28.078133 44.6209563,27.3243777 L44.6209563,27.3243777 L44.2291696,25.5088729 L42.3249656,25.5088729 C41.9603548,25.5088729 41.6644389,25.2133344 41.6644389,24.8483463 C41.6644389,24.4837355 41.9603548,24.1878196 42.3249656,24.1878196 L42.3249656,24.1878196 L43.9441995,24.1878196 L43.7037678,23.0743603 C43.5471286,22.3390997 42.8884892,21.8065265 42.137376,21.8065265 C42.1132196,21.8065265 42.0890632,21.8050167 42.0649068,21.8023746 L42.0649068,21.8023746 L35.2746924,21.0512614 C33.2134717,20.8195109 32.0320725,20.0778338 30.6872402,18.8752978 C29.9840624,18.2472313 29.3171191,17.5531121 28.6724451,16.882017 C27.5031241,15.6647606 26.1726347,14.2886005 25.4135951,14.3210606 Z M22.9161626,22.6781953 C23.2807733,22.6781953 23.5766893,22.9741112 23.5766893,23.3387219 C23.5766893,23.7033327 23.2807733,23.9992486 22.9161626,23.9992486 L22.9161626,23.9992486 L20.6514997,23.9992486 C20.2868889,23.9992486 19.990973,23.7033327 19.990973,23.3387219 C19.990973,22.9741112 20.2868889,22.6781953 20.6514997,22.6781953 L20.6514997,22.6781953 Z M16.8446768,15.3457829 C17.0247175,15.3359693 17.2040033,15.4001348 17.3361086,15.5246912 C17.468214,15.6496251 17.5433253,15.8232493 17.5433253,16.0051772 L17.5433253,16.0051772 L17.5433253,20.3193601 C17.5433253,20.6839708 17.2474093,20.9798868 16.8827986,20.9798868 L16.8827986,20.9798868 L6.99377048,20.9798868 C6.79749969,20.9798868 6.61141989,20.8926973 6.48610854,20.7417197 C6.36041975,20.5907422 6.3083325,20.3918293 6.34418966,20.1989555 L6.34418966,20.1989555 L7.03830885,16.4328211 C7.09341565,16.134263 7.34517068,15.9115712 7.64825807,15.8930764 L7.64825807,15.8930764 L9.70155246,15.7685199 L10.7657801,15.7044975 C12.8763403,15.5777953 14.8867139,15.459016 16.8446768,15.3457829 Z M25.3479954,14.8924728 C25.4393368,14.8886984 25.5303008,14.9026638 25.6156031,14.9355014 C26.2017733,15.1604579 27.1102806,16.073872 28.2369504,17.2447027 L28.2369504,17.2447027 L28.2667685,17.2760306 C28.9737207,18.015443 29.6142429,18.6767246 30.3079847,19.2995069 C30.5046329,19.4746408 30.6997713,19.6444905 30.8983068,19.8033944 C31.1176017,19.9785283 31.2021491,20.2729345 31.1092979,20.5379001 C31.0164467,20.8024882 30.7662015,20.9798868 30.4857607,20.9798868 L30.4857607,20.9798868 L19.1435739,20.9798868 C18.7789631,20.9798868 18.4830472,20.6839708 18.4830472,20.3193601 L18.4830472,20.3193601 L18.4830472,15.8768463 C18.4830472,15.5265785 18.7566939,15.237079 19.1065844,15.217452 C21.4867451,15.0834594 23.4698349,14.9804172 25.3479954,14.8924728 Z M16.2222719,16.7049581 C14.1576542,16.8253626 12.0288711,16.9518063 9.78157055,17.0873087 L9.78157055,17.0873087 L8.24424186,17.1805373 L7.78715739,19.6588334 L16.2222719,19.6588334 Z M25.2381592,16.2199428 C23.5819358,16.2980736 21.837013,16.3886601 19.8041005,16.5015158 L19.8041005,16.5015158 L19.8041005,19.6588334 L28.7574454,19.6588334 C28.2773369,19.1945775 27.8108163,18.7106945 27.3133454,18.1901995 L27.3133454,18.1901995 L27.2850371,18.1607589 C26.7936052,17.6500774 25.6918467,16.5049128 25.2381592,16.2199428 Z" id="Main" fill="#0B0F17"></path>
                                </g>
                            </g>
                        </g>
                    </g>
                </g>
            </g>
        </g>
    </g>
</svg>