<?xml version="1.0" encoding="UTF-8"?>
<svg width="48px" height="48px" viewBox="0 0 48 48" version="1.1" xmlns="http://www.w3.org/2000/svg" xmlns:xlink="http://www.w3.org/1999/xlink">
    <title>C6842FE6-F01B-40FD-9BD6-B7B9F06D7D39</title>
    <g id="Main-Feature" stroke="none" stroke-width="1" fill="none" fill-rule="evenodd">
        <g id="00.-Bosung" transform="translate(-1182.000000, -880.000000)">
            <g id="Group-2" transform="translate(0.000000, 784.000000)">
                <g id="Type" transform="translate(135.000000, 80.000000)">
                    <g id="List" transform="translate(34.000000, 8.000000)">
                        <g id="7" transform="translate(972.000000, 0.000000)">
                            <g id="Icon/_Type/1/Accessory" transform="translate(41.000000, 8.000000)">
                                <g id="Group">
                                    <path d="M25.9159328,7.512 C30.7145882,7.512 35.5135798,9.33855462 39.1666891,12.9916639 C42.7061849,16.5311597 44.6554286,21.237042 44.6554286,26.2427563 C44.6554286,31.2481345 42.7061849,35.9540168 39.1666891,39.4935126 C31.8604706,46.7997311 19.9717311,46.7997311 12.6651765,39.4935126 C9.12568067,35.9540168 7.17643697,31.2481345 7.17643697,26.2427563 C7.17643697,21.237042 9.12568067,16.5311597 12.6651765,12.9916639 C16.3182857,9.33855462 21.1172773,7.512 25.9159328,7.512 Z M25.9160672,13.7271261 C22.5678319,13.7271261 19.4236303,15.0276303 17.0622857,17.3889748 C12.1802689,22.2709916 12.1802689,30.214521 17.0622857,35.0962017 C19.4236303,37.4575462 22.5678319,38.7580504 25.9160672,38.7580504 C29.2643025,38.7580504 32.4081681,37.4575462 34.7698487,35.0962017 C39.6515294,30.2141849 39.6515294,22.2706555 34.7698487,17.3889748 C32.4081681,15.0276303 29.2643025,13.7271261 25.9160672,13.7271261 Z" id="Shade" fill="#FFFFFF" opacity="0"></path>
                                    <path d="M9.83357983,10.1600672 C17.5982857,2.39468908 30.2335798,2.39468908 37.9986218,10.1600672 C41.7603025,13.9214118 43.8318992,18.9227563 43.8318992,24.2427563 C43.8318992,29.5624202 41.7603025,34.5637647 37.9986218,38.3254454 C34.1159328,42.2077983 29.0161008,44.1493109 23.9159328,44.1493109 C18.8157647,44.1493109 13.7159328,42.2077983 9.83357983,38.3254454 C6.07156303,34.5637647 3.99996639,29.5624202 3.99996639,24.2427563 C3.99996639,18.9227563 6.07156303,13.9214118 9.83357983,10.1600672 Z M23.9159328,5.512 C19.1172773,5.512 14.3182857,7.33855462 10.6651765,10.9916639 C7.12568067,14.5311597 5.17643697,19.237042 5.17643697,24.2427563 C5.17643697,29.2481345 7.12568067,33.9540168 10.6651765,37.4935126 C17.9717311,44.7997311 29.8604706,44.7997311 37.1666891,37.4935126 C40.7061849,33.9540168 42.6554286,29.2481345 42.6554286,24.2427563 C42.6554286,19.237042 40.7061849,14.5311597 37.1666891,10.9916639 C33.5135798,7.33855462 28.7145882,5.512 23.9159328,5.512 Z M23.9160672,11.7271261 C27.2643025,11.7271261 30.4081681,13.0276303 32.7698487,15.3889748 C37.6515294,20.2706555 37.6515294,28.2141849 32.7698487,33.0962017 C30.4081681,35.4575462 27.2643025,36.7580504 23.9160672,36.7580504 C20.5678319,36.7580504 17.4236303,35.4575462 15.0622857,33.0962017 C10.1802689,28.214521 10.1802689,20.2709916 15.0622857,15.3889748 C17.4236303,13.0276303 20.5678319,11.7271261 23.9160672,11.7271261 Z M25.960437,29.4881345 C25.3170756,29.7378824 24.6276639,29.8730084 23.9160672,29.8730084 C23.2044706,29.8730084 22.5150588,29.7378824 21.8716975,29.4881345 L21.8716975,29.4881345 L18.0360672,33.9466218 C19.7893445,35.0114958 21.8078319,35.5815798 23.9160672,35.5815798 C26.0239664,35.5815798 28.0424538,35.0114958 29.7960672,33.9466218 L29.7960672,33.9466218 Z M28.6074958,27.3617479 C28.4021176,27.6693109 28.165479,27.9583866 27.8985882,28.2256134 C27.6316975,28.4925042 27.3422857,28.7291429 27.0350588,28.9341849 L27.0350588,28.9341849 L30.7732101,33.2790588 C31.1802689,32.9691429 31.5701849,32.632 31.937916,32.2642689 C32.3076639,31.8948571 32.6434622,31.5042689 32.9513613,31.0992269 L32.9513613,31.0992269 Z M19.2246387,27.362084 L14.8807731,31.0992269 C15.1886723,31.5042689 15.5244706,31.8948571 15.8938824,32.2642689 C16.2616134,32.632 16.6515294,32.9691429 17.0585882,33.2790588 L17.0585882,33.2790588 L20.7967395,28.9341849 C20.4895126,28.7291429 20.2001008,28.4925042 19.9332101,28.2256134 C19.6663193,27.9587227 19.4296807,27.6693109 19.2246387,27.362084 L19.2246387,27.362084 Z M33.617916,18.3647731 L29.1614454,22.1987227 C29.4111933,22.8417479 29.5463193,23.5311597 29.5463193,24.2427563 C29.5463193,24.9540168 29.4111933,25.6434286 29.1614454,26.2867899 L29.1614454,26.2867899 L33.6175798,30.1204034 C35.798084,26.5210756 35.798084,21.9641008 33.617916,18.3647731 L33.617916,18.3647731 Z M14.2142185,18.3647731 C12.0337143,21.9641008 12.0337143,26.5210756 14.2138824,30.1204034 L14.2138824,30.1204034 L18.6703529,26.2867899 C18.420605,25.6437647 18.2858151,24.9540168 18.2858151,24.2427563 C18.2858151,23.5311597 18.420605,22.8417479 18.6703529,22.1987227 L18.6703529,22.1987227 Z M23.9160672,19.7889748 C22.7241345,19.7889748 21.6051429,20.2514958 20.7651429,21.0914958 C19.9251429,21.9318319 19.4622857,23.0508235 19.4622857,24.2427563 C19.4622857,25.4346891 19.9251429,26.5536807 20.7651429,27.3936807 C21.6051429,28.2336807 22.7241345,28.6965378 23.9160672,28.6965378 C25.108,28.6965378 26.2269916,28.2336807 27.0669916,27.3936807 C27.9069916,26.5536807 28.3698487,25.4343529 28.3698487,24.2427563 C28.3698487,23.0508235 27.9069916,21.9318319 27.0669916,21.0914958 C26.2269916,20.2514958 25.108,19.7889748 23.9160672,19.7889748 Z M25.1041345,23.0542857 C25.7599328,23.7094118 25.7599328,24.7756303 25.1041345,25.4310924 C24.4490084,26.0865546 23.3827899,26.0865546 22.7276639,25.4310924 C22.0722017,24.7756303 22.0722017,23.7094118 22.7276639,23.0542857 C23.3827899,22.3988235 24.4490084,22.3988235 25.1041345,23.0542857 Z M17.0585882,15.2061176 C16.6515294,15.5160336 16.2616134,15.8531765 15.8938824,16.2209076 C15.5244706,16.5906555 15.1886723,16.9809076 14.8807731,17.3859496 L14.8807731,17.3859496 L19.2246387,21.1234286 C19.4296807,20.8158655 19.6663193,20.5267899 19.9332101,20.2598992 C20.2001008,19.9926723 20.4895126,19.7563697 20.7967395,19.5513277 L20.7967395,19.5513277 Z M30.7732101,15.2061176 L27.0350588,19.5513277 C27.3422857,19.7563697 27.6316975,19.9926723 27.8985882,20.2598992 C28.165479,20.5264538 28.4021176,20.8158655 28.6074958,21.1230924 L28.6074958,21.1230924 L32.9513613,17.3859496 C32.6434622,16.9809076 32.3076639,16.5906555 31.937916,16.2209076 C31.5701849,15.8531765 31.1802689,15.5160336 30.7732101,15.2061176 L30.7732101,15.2061176 Z M23.9160672,12.9035966 C21.8078319,12.9035966 19.7893445,13.4740168 18.0360672,14.5388908 L18.0360672,14.5388908 L21.8716975,18.997042 C22.5150588,18.7472941 23.2044706,18.6125042 23.9160672,18.6125042 C24.6276639,18.6125042 25.3170756,18.7472941 25.960437,18.997042 L25.960437,18.997042 L29.7960672,14.5388908 C28.0424538,13.4740168 26.0239664,12.9035966 23.9160672,12.9035966 Z" id="Main" fill="#0B0F17"></path>
                                </g>
                            </g>
                        </g>
                    </g>
                </g>
            </g>
        </g>
    </g>
</svg>