<?xml version="1.0" encoding="UTF-8"?>
<svg width="48px" height="48px" viewBox="0 0 48 48" version="1.1" xmlns="http://www.w3.org/2000/svg" xmlns:xlink="http://www.w3.org/1999/xlink">
    <title>D2F841FE-D4A8-427B-A03A-08E30ED6DECB</title>
    <g id="Main-Feature" stroke="none" stroke-width="1" fill="none" fill-rule="evenodd">
        <g id="00.-Bosung" transform="translate(-1020.000000, -880.000000)">
            <g id="Group-2" transform="translate(0.000000, 784.000000)">
                <g id="Type" transform="translate(135.000000, 80.000000)">
                    <g id="List" transform="translate(34.000000, 8.000000)">
                        <g id="6" transform="translate(810.000000, 0.000000)">
                            <g id="Icon/_Type/1/Other" transform="translate(41.000000, 8.000000)">
                                <g id="Group">
                                    <path d="M6,24 L11.9190211,24 L14.1468692,24 L18.1217215,24 L20.6499578,30.3103781 C20.749097,30.5567237 20.9874768,30.7184807 21.2533333,30.7184807 L26.205097,30.7184807 C26.2080675,30.7184807 26.2106667,30.7192227 26.2132658,30.7192227 C26.2154937,30.7192227 26.2177215,30.7184807 26.2203207,30.7184807 L34.2639662,30.7184807 L34.2639662,37.1015753 C33.3639156,36.1213872 32.0765907,35.5025554 30.6437131,35.5025554 C28.1526076,35.5025554 26.0925907,37.3642449 25.7721519,39.7675978 L16.9268523,39.7675978 C16.6064135,37.3642449 14.5463966,35.5025554 12.0552911,35.5025554 C9.56418565,35.5025554 7.50416878,37.3642449 7.18372996,39.7675978 L6,39.7675978 L6,24 Z" id="Shade" fill="#FFFFFF" opacity="0"></path>
                                    <path d="M40.2321688,6 C40.5908523,6 40.8819578,6.2904948 40.8819578,6.64925403 L40.8819578,6.64925403 L40.8819578,8.87526784 C40.8819578,9.23402706 40.5908523,9.52452186 40.2321688,9.52452186 L40.2321688,9.52452186 L38.2612658,9.52452186 L38.2612658,26.5824657 L39.1319831,26.5824657 L39.1319831,21.4181136 C39.1319831,21.0597254 39.4227173,20.7688596 39.7817722,20.7688596 C40.140827,20.7688596 40.4315612,21.0597254 40.4315612,21.4181136 L40.4315612,21.4181136 L40.4315612,35.5384612 L46.350211,35.5384612 C46.7092658,35.5384612 47,35.828956 47,36.1877153 C47,36.5464745 46.7092658,36.8369693 46.350211,36.8369693 L46.350211,36.8369693 L33.8631224,36.8369693 L33.8631224,38.4842195 C33.8631224,41.1947623 31.6560675,43.4 28.9432911,43.4 C26.4507004,43.4 24.3903122,41.5368264 24.0713586,39.1319895 L24.0713586,39.1319895 L15.2268017,39.1319895 C14.9078481,41.5368264 12.8474599,43.4 10.3548692,43.4 C7.86227848,43.4 5.80151899,41.5368264 5.48293671,39.1319895 L5.48293671,39.1319895 L3.64978903,39.1319895 C3.29073418,39.1319895 3,38.8411237 3,38.4827355 L3,38.4827355 L3,21.4166296 C3,21.0578704 3.29073418,20.7673756 3.64978903,20.7673756 L3.64978903,20.7673756 L9.56881013,20.7673756 L9.56881013,6.65036703 C9.56881013,6.29160781 9.8595443,6.00111301 10.2185992,6.00111301 L10.2185992,6.00111301 L25,6.00111301 C25.2695696,6.00111301 25.5109198,6.16695104 25.6070886,6.4188616 L25.6070886,6.4188616 L33.8204219,27.9036049 C33.8259916,27.917332 33.8274768,27.93143 33.8315612,27.9451571 C33.8389873,27.9692723 33.8467848,27.9926454 33.8512405,28.0178736 C33.8556962,28.0416177 33.8568101,28.0649909 33.8586667,28.088735 C33.8597806,28.1043171 33.8631224,28.1191572 33.8631224,28.1351103 L33.8631224,28.1351103 L33.8631224,35.5384612 L34.7338397,35.5384612 L34.7338397,6.64962503 C34.7338397,6.2908658 35.0245738,6 35.3836287,6 L35.3836287,6 Z M28.9432911,34.8669471 C26.9471392,34.8669471 25.323038,36.4897111 25.323038,38.4842195 C25.323038,40.4787279 26.9471392,42.1014919 28.9432911,42.1014919 C30.939443,42.1014919 32.5635443,40.4787279 32.5635443,38.4842195 C32.5635443,36.4897111 30.939443,34.8669471 28.9432911,34.8669471 Z M10.3548692,34.8669471 C8.36094515,34.8669471 6.73832911,36.4867431 6.73498734,38.4782835 C6.73498734,38.4797675 6.73535865,38.4812515 6.73535865,38.4827355 L6.735173,38.4851934 C6.73684388,40.4805829 8.35983122,42.1014919 10.3548692,42.1014919 C12.3510211,42.1014919 13.9751224,40.4787279 13.9751224,38.4842195 C13.9751224,36.4897111 12.3510211,34.8669471 10.3548692,34.8669471 Z M10.3547949,35.7946012 C11.8392844,35.7946012 13.0467781,37.0011007 13.0467781,38.4843679 C13.0467781,39.9676351 11.8392844,41.1741346 10.3547949,41.1741346 C8.87030549,41.1741346 7.66281181,39.9676351 7.66281181,38.4843679 C7.66281181,37.0011007 8.87030549,35.7946012 10.3547949,35.7946012 Z M28.9434025,35.7946012 C30.427892,35.7946012 31.6353857,37.0011007 31.6353857,38.4843679 C31.6353857,39.9676351 30.427892,41.1741346 28.9434025,41.1741346 C27.4589131,41.1741346 26.2514194,39.9676351 26.2514194,38.4843679 C26.2514194,37.0011007 27.4589131,35.7946012 28.9434025,35.7946012 Z M10.3547949,37.0931093 C9.58730127,37.0931093 8.96238987,37.7175062 8.96238987,38.4843679 C8.96238987,39.2512297 9.58730127,39.8756265 10.3547949,39.8756265 C11.1222886,39.8756265 11.7472,39.2512297 11.7472,38.4843679 C11.7472,37.7175062 11.1222886,37.0931093 10.3547949,37.0931093 Z M28.9434025,37.0931093 C28.1759089,37.0931093 27.5509975,37.7175062 27.5509975,38.4843679 C27.5509975,39.2512297 28.1759089,39.8756265 28.9434025,39.8756265 C29.7108962,39.8756265 30.3358076,39.2512297 30.3358076,38.4843679 C30.3358076,37.7175062 29.7108962,37.0931093 28.9434025,37.0931093 Z M16.4212996,22.0658837 L4.29957806,22.0658837 L4.29957806,37.8334815 L5.48330802,37.8334815 C5.80374684,35.4301286 7.86376371,33.568439 10.3548692,33.568439 C12.8459747,33.568439 14.9059916,35.4301286 15.2264304,37.8334815 L15.2264304,37.8334815 L24.07173,37.8334815 C24.3921688,35.4301286 26.4521857,33.568439 28.9432911,33.568439 C30.3761688,33.568439 31.6634937,34.1872709 32.5635443,35.1674589 L32.5635443,35.1674589 L32.5635443,28.7843643 L24.5162321,28.7847353 L24.5162321,28.7847353 C24.5102447,28.7851063 24.5076456,28.7843643 24.5046751,28.7843643 L19.5529114,28.7843643 C19.2870549,28.7843643 19.0486751,28.6226073 18.9495359,28.3762618 L18.9495359,28.3762618 L16.4212996,22.0658837 Z M36.9616878,7.29887906 L36.0334177,7.29887906 L36.0334177,35.5384612 L36.9616878,35.5384612 L36.9616878,7.29887906 Z M39.1319831,27.8809737 L38.2612658,27.8809737 L38.2612658,35.5384612 L39.1319831,35.5384612 L39.1319831,27.8809737 Z M13.0040034,26.3340425 C13.3630582,26.3340425 13.6537924,26.6245373 13.6537924,26.9832966 C13.6537924,27.3420558 13.3630582,27.6325506 13.0040034,27.6325506 L13.0040034,27.6325506 L7.43438312,27.6325506 C7.07532827,27.6325506 6.78459409,27.3420558 6.78459409,26.9832966 C6.78459409,26.6245373 7.07532827,26.3340425 7.43438312,26.3340425 L7.43438312,26.3340425 Z M28.7814008,24.5857313 L27.7547342,25.66609 C27.7513924,25.6698 27.7480506,25.673139 27.7443376,25.6772201 L27.7443376,25.6772201 L26.0262954,27.4858563 L29.8867848,27.4858563 L28.7814008,24.5857313 Z M23.0409789,9.52563487 L13.0962363,9.52563487 L13.0962363,20.7673756 L16.8609283,20.7673756 C17.1267848,20.7673756 17.3655359,20.9287616 17.4643038,21.1751071 L17.4643038,21.1751071 L19.9929114,27.4858563 L24.2343629,27.4858563 L26.4180253,25.186755 L21.0310886,17.9555492 L20.1306667,18.6252083 C20.0140759,18.7120229 19.8778059,18.7539461 19.7430211,18.7539461 C19.5447426,18.7539461 19.348692,18.6637926 19.2217046,18.4923895 C19.0074599,18.2044917 19.0668692,17.7982442 19.3546329,17.5838049 L19.3546329,17.5838049 L22.1973671,15.4694627 C22.4851308,15.2546524 22.8924557,15.3143838 23.1067004,15.6026526 C23.3209451,15.8901794 23.2615359,16.2967979 22.9734008,16.5108662 L22.9734008,16.5108662 L22.0729789,17.1805254 L27.3258734,24.2306821 L28.2678819,23.2389929 L23.0409789,9.52563487 Z M24.5525738,7.29962106 L10.8683882,7.29962106 L10.8683882,20.7673756 L11.7966582,20.7673756 L11.7966582,8.87638084 C11.7966582,8.51762162 12.0873924,8.22712682 12.4464473,8.22712682 L12.4464473,8.22712682 L23.4887764,8.22712682 C23.758346,8.22712682 24.0000675,8.39333585 24.0962363,8.64524641 L24.0962363,8.64524641 L29.6161013,23.1269502 C29.6175865,23.1299183 29.6183291,23.1328863 29.6198143,23.1354833 L29.6198143,23.1354833 L31.2773333,27.4858563 L32.2694684,27.4858563 L24.5525738,7.29962106 Z M13.0040034,23.7370264 C13.3630582,23.7370264 13.6537924,24.0275212 13.6537924,24.3862805 C13.6537924,24.7450397 13.3630582,25.0355345 13.0040034,25.0355345 L13.0040034,25.0355345 L7.43438312,25.0355345 C7.07532827,25.0355345 6.78459409,24.7450397 6.78459409,24.3862805 C6.78459409,24.0275212 7.07532827,23.7370264 7.43438312,23.7370264 L7.43438312,23.7370264 Z M39.5823797,7.29850805 L38.2612658,7.29850805 L38.2612658,8.22601381 L39.5823797,8.22601381 L39.5823797,7.29850805 Z" id="Main" fill="#0B0F17"></path>
                                </g>
                            </g>
                        </g>
                    </g>
                </g>
            </g>
        </g>
    </g>
</svg>