<?xml version="1.0" encoding="UTF-8"?>
<svg width="48px" height="48px" viewBox="0 0 48 48" version="1.1" xmlns="http://www.w3.org/2000/svg" xmlns:xlink="http://www.w3.org/1999/xlink">
    <title>A9070DD6-0AF1-4D32-90ED-F8EFD0F56953</title>
    <g id="Main-Feature" stroke="none" stroke-width="1" fill="none" fill-rule="evenodd">
        <g id="00.-Bosung" transform="translate(-534.000000, -880.000000)">
            <g id="Group-2" transform="translate(0.000000, 784.000000)">
                <g id="Type" transform="translate(135.000000, 80.000000)">
                    <g id="List" transform="translate(34.000000, 8.000000)">
                        <g id="3" transform="translate(324.000000, 0.000000)">
                            <g id="Icon/_Type/1/Truck" transform="translate(41.000000, 8.000000)">
                                <g id="Group">
                                    <path d="M5.5,14.5 L24.5,14.5 L24.5,34.5 L4.5,34.5 L4.5,15.5 C4.5,14.9477153 4.94771525,14.5 5.5,14.5 Z" id="Rectangle" fill="#FFFFFF" opacity="0"></path>
                                    <path d="M29.3691139,12 C30.2041857,12 30.9820759,12.4140084 31.4491814,13.1076118 L36.0236962,19.8988354 C36.0921978,20.0008889 36.1748787,20.0910189 36.2688501,20.1667411 C36.2807592,20.1773136 36.2937017,20.1873367 36.3068543,20.1971001 L36.2688501,20.1667411 C36.3495908,20.231802 36.4386664,20.2862265 36.5342447,20.3284388 C36.6270717,20.369654 36.7232405,20.398616 36.8227511,20.4156962 L44.8203544,21.7746835 C45.4853671,21.8686245 46,22.4612321 46,23.1503797 L46,33.8366245 C46,34.195308 45.7088945,34.4864135 45.350211,34.4864135 L42.2894624,34.4867248 C41.9702859,36.8932786 39.9047973,38.75627 37.4124253,38.75627 C34.9200534,38.75627 32.8545647,36.8932786 32.5353882,34.4867248 L18.7184582,34.4867248 C18.3992817,36.8932786 16.3337931,38.75627 13.8414211,38.75627 C11.3490491,38.75627 9.28356048,36.8932786 8.96438402,34.4867248 L2.64978903,34.4864135 C2.29110549,34.4864135 2,34.195308 2,33.8366245 L2,14.5063291 C2,13.1243207 3.12432068,12 4.50632911,12 L29.3691139,12 Z M37.4124253,30.2161857 C35.4162734,30.2161857 33.7921722,31.8402869 33.7921722,33.8364388 C33.7921722,35.8325907 35.4162734,37.456692 37.4124253,37.456692 C39.4052235,37.456692 41.0272201,35.8380435 41.0326647,33.8464969 C41.0319248,33.8434117 41.0318987,33.8400211 41.0318987,33.8366245 L41.032,33.826 L41.0276505,33.6444663 C40.9275106,31.7371962 39.3441852,30.2161857 37.4124253,30.2161857 Z M13.8414211,30.2161857 C11.8452692,30.2161857 10.2211679,31.8402869 10.2211679,33.8364388 C10.2211679,35.8325907 11.8452692,37.456692 13.8414211,37.456692 C15.837573,37.456692 17.4616743,35.8325907 17.4616743,33.8364388 C17.4616743,31.8402869 15.837573,30.2161857 13.8414211,30.2161857 Z M37.4124253,31.144827 C38.8969148,31.144827 40.1044084,32.3523207 40.1044084,33.8368101 C40.1044084,35.3212996 38.8969148,36.5287932 37.4124253,36.5287932 C35.9279359,36.5287932 34.7204422,35.3212996 34.7204422,33.8368101 C34.7204422,32.3523207 35.9279359,31.144827 37.4124253,31.144827 Z M13.8414211,31.144827 C15.3259105,31.144827 16.5334042,32.3523207 16.5334042,33.8368101 C16.5334042,35.3212996 15.3259105,36.5287932 13.8414211,36.5287932 C12.3569316,36.5287932 11.149438,35.3212996 11.149438,33.8368101 C11.149438,32.3523207 12.3569316,31.144827 13.8414211,31.144827 Z M37.4124253,32.4444051 C36.6445603,32.4444051 36.0200203,33.0689451 36.0200203,33.8368101 C36.0200203,34.6046751 36.6445603,35.2292152 37.4124253,35.2292152 C38.1802903,35.2292152 38.8048304,34.6046751 38.8048304,33.8368101 C38.8048304,33.0689451 38.1802903,32.4444051 37.4124253,32.4444051 Z M13.8414211,32.4444051 C13.0735561,32.4444051 12.449016,33.0689451 12.449016,33.8368101 C12.449016,34.6046751 13.0735561,35.2292152 13.8414211,35.2292152 C14.6092861,35.2292152 15.2338262,34.6046751 15.2338262,33.8368101 C15.2338262,33.0689451 14.6092861,32.4444051 13.8414211,32.4444051 Z M23.282,13.299 L4.50632911,13.2995781 C3.84094515,13.2995781 3.29957806,13.8409451 3.29957806,14.5063291 L3.299,24.635 L4.87763713,24.6356861 C5.23632068,24.6356861 5.52742616,24.9267916 5.52742616,25.2854751 C5.52742616,25.6441586 5.23632068,25.9352641 4.87763713,25.9352641 L3.299,25.935 L3.29957806,33.1868354 L8.96438402,33.1861529 C9.28356048,30.779599 11.3490491,28.9166076 13.8414211,28.9166076 C16.3337931,28.9166076 18.3992817,30.779599 18.7184582,33.1861529 L23.282,33.186 L23.282,13.299 Z M33.361,21.572 L24.582,21.572 L24.582,33.186 L32.5353882,33.1861529 C32.8545647,30.779599 34.9200534,28.9166076 37.4124253,28.9166076 C39.9047973,28.9166076 41.9702859,30.779599 42.2894624,33.1861529 L44.7004219,33.1868354 L44.7,25.935 L43.1223629,25.9352641 C42.7636793,25.9352641 42.4725738,25.6441586 42.4725738,25.2854751 C42.4725738,24.9267916 42.7636793,24.6356861 43.1223629,24.6356861 L44.7,24.635 L44.7004219,23.1503797 C44.7004219,23.1032236 44.6677468,23.0653502 44.6205907,23.0586667 L36.6047932,21.6967089 C36.4616569,21.6723398 36.321356,21.6357429 36.1857269,21.5875305 L33.361,21.572 Z M29.445789,23.150454 C29.8044726,23.150454 30.0955781,23.4415595 30.0955781,23.800243 C30.0955781,24.1589266 29.8044726,24.4500321 29.445789,24.4500321 L27.2179409,24.4500321 C26.8592574,24.4500321 26.5681519,24.1589266 26.5681519,23.800243 C26.5681519,23.4415595 26.8592574,23.150454 27.2179409,23.150454 L29.445789,23.150454 Z M26.253,13.299 L24.582,13.299 L24.582,20.273 L26.253,20.273 L26.253,13.299 Z M29.3690397,13.2998008 L27.5533435,13.2998008 L27.5533435,20.2428895 L33.552,20.273 L34.709,20.273 L34.601,20.112 L30.3708287,13.8337418 C30.145816,13.4995646 29.7711662,13.2998008 29.3690397,13.2998008 Z M16.774903,15.1363274 C17.1335865,15.1363274 17.424692,15.4274329 17.424692,15.7861165 C17.424692,16.1448 17.1335865,16.4359055 16.774903,16.4359055 L7.49220253,16.4359055 C7.13351899,16.4359055 6.8424135,16.1448 6.8424135,15.7861165 C6.8424135,15.4274329 7.13351899,15.1363274 7.49220253,15.1363274 L16.774903,15.1363274 Z" id="Main" fill="#0B0F17"></path>
                                </g>
                            </g>
                        </g>
                    </g>
                </g>
            </g>
        </g>
    </g>
</svg>