<?xml version="1.0" encoding="UTF-8"?>
<svg width="48px" height="48px" viewBox="0 0 48 48" version="1.1" xmlns="http://www.w3.org/2000/svg" xmlns:xlink="http://www.w3.org/1999/xlink">
    <title>FE0425F3-E5C5-4C51-8934-0C387017A49A</title>
    <g id="Main-Feature" stroke="none" stroke-width="1" fill="none" fill-rule="evenodd">
        <g id="00.-Bosung" transform="translate(-372.000000, -880.000000)">
            <g id="Group-2" transform="translate(0.000000, 784.000000)">
                <g id="Type" transform="translate(135.000000, 80.000000)">
                    <g id="List" transform="translate(34.000000, 8.000000)">
                        <g id="2" transform="translate(162.000000, 0.000000)">
                            <g id="Icon/_Type/1/Bike" transform="translate(41.000000, 8.000000)">
                                <g id="Group">
                                    <path d="M14.0993083,30.7653421 C13.8621075,26.8888248 10.4111345,22.9835899 5.30535024,20.846918 L5.30535024,18.2257747 C6.84118804,18.5733709 8.56536923,19.0653014 10.3745847,19.5822201 C12.1002577,20.0745236 13.8941819,20.5851021 15.688852,21.0207161 C15.6899708,21.021089 15.6910897,21.021462 15.6925815,21.0218349 C15.6944463,21.0225809 15.697057,21.0229538 15.6992948,21.0236997 C25.2011257,23.4684343 29.6941412,26.7333017 31.2068556,32.2926019 C31.2102122,32.3049095 31.2139418,32.31759 31.2180443,32.3295246 C31.2199091,32.3362379 31.221401,32.3418322 31.2221469,32.3448159 C31.2825659,32.5697091 31.3377636,32.7983319 31.3888588,33.0303112 L31.4380891,33.2742253 C31.4727741,33.4450397 31.5059673,33.6177189 31.5361768,33.7926358 C31.5514681,33.8813996 31.5660134,33.9709093 31.5798128,34.061165 C31.6089035,34.2461518 31.6353835,34.4341222 31.6596257,34.6228385 L31.6887163,34.8495965 C31.6928189,34.8865193 31.6958025,34.9253068 31.6999051,34.9626026 L19.3740422,34.9626026 C18.5979182,32.6976334 16.5597071,31.0133586 14.0993083,30.7653421 L14.0993083,30.7653421 Z" id="Path" fill="#FFFFFF" opacity="0"></path>
                                    <path d="M29.6995321,10 C29.9281549,10 30.1403675,10.1197193 30.258222,10.3155218 L30.258222,10.3155218 L34.6785109,17.6471147 C35.5396691,17.8872991 36.3486133,18.227809 37.1075812,18.6720011 C38.4304604,19.4470062 39.584763,20.5371601 40.5723537,21.9260528 C40.5865261,21.9424629 40.6033091,21.9562623 40.6159897,21.9741642 C40.6711874,22.0513664 40.7226555,22.1375195 40.7767343,22.2173323 C40.8255916,22.290059 40.874449,22.3635316 40.9225605,22.4377501 C41.0392961,22.6171425 41.1541669,22.8006374 41.2664271,22.9908456 C41.2884315,23.0281413 41.3093171,23.0665559 41.3313216,23.1042246 C41.7453041,23.8206754 42.130196,24.6012748 42.4725707,25.454228 C42.4781651,25.4676544 42.478538,25.4818268 42.4830135,25.4952533 C43.0439411,26.8957076 43.5052892,28.4680952 43.8625822,30.2139079 C43.8655659,30.2295721 43.8681766,30.2452363 43.8704143,30.2609005 C43.8715332,30.2724622 43.8726521,30.2862616 43.8741439,30.2978233 C45.1742727,31.4435478 46,33.115515 46,34.9803011 C46,38.4249339 43.1975995,41.2273344 39.7529667,41.2273344 C36.3083339,41.2273344 33.5059334,38.4249339 33.5059334,34.9803011 C33.5059334,34.7393707 33.5227165,34.5021699 33.5495694,34.2679528 L33.5495694,34.2679528 L30.4245609,34.2679528 C30.4230691,34.2679528 30.4215773,34.2683258 30.4204584,34.2683258 L30.4193395,34.2681393 L30.4182207,34.2679528 L17.6709161,34.2679528 C17.697769,34.5021699 17.7145521,34.7393707 17.7145521,34.9803011 C17.7145521,38.4249339 14.9121516,41.2273344 11.4675188,41.2273344 C8.02288601,41.2273344 5.22048552,38.4249339 5.22048552,34.9803011 C5.22048552,31.7639181 7.66447413,29.1092087 10.7924663,28.7713094 C10.5437038,25.3173527 7.24527022,21.7925341 2.4139825,19.8938089 C2.16410117,19.7957212 2,19.5547908 2,19.2862616 L2,19.2862616 L2,15.4190683 C2,15.2232657 2.08764494,15.038279 2.23906557,14.9140842 C2.39011324,14.7906354 2.58964535,14.7410321 2.78059944,14.7790737 C4.55438394,15.133756 6.58401709,15.7133315 8.73299654,16.3268461 C10.4426324,16.8146742 12.2216383,17.321523 13.9931851,17.7522886 C13.9954228,17.7526616 13.9972876,17.7526616 13.9995253,17.7534075 C14.0077304,17.7552723 14.0159354,17.757137 14.0245135,17.7597477 L14.0245135,17.7597477 L14.0411101,17.7638503 L14.0411101,17.7638503 L14.0577067,17.7683258 C18.0755747,18.7406252 22.0501797,19.309385 25.0815759,18.3404421 C28.0682173,17.3856717 30.6744423,17.0462806 32.9535838,17.3140639 L32.9535838,17.3140639 L29.3310504,11.3053502 L26.850139,11.3053502 C26.4898623,11.3053502 26.1974639,11.0129518 26.1974639,10.6526751 C26.1974639,10.2920255 26.4898623,10 26.850139,10 L26.850139,10 Z M39.7529667,30.038618 C37.0281413,30.038618 34.8112837,32.2554757 34.8112837,34.9803011 C34.8112837,37.7051265 37.0281413,39.9219841 39.7529667,39.9219841 C42.4777921,39.9219841 44.6946498,37.7051265 44.6946498,34.9803011 C44.6946498,32.2554757 42.4777921,30.038618 39.7529667,30.038618 Z M11.4701295,30.038618 C8.74269343,30.038618 6.52583576,32.2554757 6.52583576,34.9803011 C6.52583576,37.7051265 8.74269343,39.9219841 11.4675188,39.9219841 C14.1923442,39.9219841 16.4092019,37.7051265 16.4092019,34.9803011 C16.4092019,32.2562216 14.193836,30.0401099 11.4701295,30.038618 L11.4701295,30.038618 Z M39.7529667,31.717112 C41.5524853,31.717112 43.0163423,33.180969 43.0163423,34.9804876 C43.0163423,36.7800061 41.5524853,38.2438632 39.7529667,38.2438632 C37.9534482,38.2438632 36.4895911,36.7800061 36.4895911,34.9804876 C36.4895911,33.180969 37.9534482,31.717112 39.7529667,31.717112 Z M11.4675934,31.717112 C13.267112,31.717112 14.730969,33.180969 14.730969,34.9804876 C14.730969,36.7800061 13.267112,38.2438632 11.4675934,38.2438632 C9.66807486,38.2438632 8.20421781,36.7800061 8.20421781,34.9804876 C8.20421781,33.180969 9.66807486,31.717112 11.4675934,31.717112 Z M39.7529667,33.0224622 C38.6732556,33.0224622 37.7949413,33.9007764 37.7949413,34.9804876 C37.7949413,36.0601987 38.6732556,36.9385129 39.7529667,36.9385129 C40.8326778,36.9385129 41.7109921,36.0601987 41.7109921,34.9804876 C41.7109921,33.9007764 40.8326778,33.0224622 39.7529667,33.0224622 Z M11.4675934,33.0224622 C10.3878823,33.0224622 9.50956805,33.9007764 9.50956805,34.9804876 C9.50956805,36.0601987 10.3878823,36.9385129 11.4675934,36.9385129 C12.5473045,36.9385129 13.4256188,36.0601987 13.4256188,34.9804876 C13.4256188,33.9007764 12.5473045,33.0224622 11.4675934,33.0224622 Z M36.4478199,19.7983319 C33.6815963,18.1789517 30.0937479,18.1088357 25.4787753,19.5838815 C24.1555232,20.0071879 22.6898013,20.1608463 21.1431478,20.136977 C26.4096765,22.46423 29.2434054,25.5165118 30.4514138,29.8946565 C30.4577541,29.9114396 30.4629755,29.9285956 30.467824,29.9461246 C30.4708076,29.9561945 30.4805045,29.995355 30.4827423,30.0057978 C30.5480098,30.2500848 30.6084288,30.4981013 30.6636265,30.7502204 L30.6636265,30.7502204 L30.6990574,30.9228996 L30.7169594,31.0131552 C30.7546281,31.197769 30.790432,31.3835017 30.8225063,31.5714722 C30.8389164,31.6662033 30.8545806,31.7627992 30.8694989,31.8590222 C30.9004543,32.0559436 30.9287991,32.2554757 30.9545331,32.4576185 L30.9545331,32.4576185 L30.9851156,32.6985489 L30.9851156,32.6985489 L31.0115956,32.9626026 L33.8468163,32.9626026 C34.6882078,30.5063064 37.0150878,28.7332678 39.7529667,28.7332678 C40.6667119,28.7332678 41.5323456,28.9354106 42.3151827,29.289347 C42.0470265,28.1932257 41.7333695,27.1806469 41.3757035,26.2497457 L41.3757035,26.2497457 L35.6370109,24.8511562 C35.3446125,24.7799213 35.1387401,24.5181054 35.1387401,24.2171289 L35.1387401,24.2171289 L35.1387401,22.3523428 C35.1387401,21.9920662 35.4311385,21.6996677 35.7914152,21.6996677 L35.7914152,21.6996677 L38.7291992,21.6996677 C38.0403472,20.9242897 37.2813793,20.2865329 36.4478199,19.7983319 Z M3.30535024,16.2257747 L3.30535024,18.846918 C8.41113447,20.9835899 11.8621075,24.8888248 12.0993083,28.7653421 C14.5597071,29.0133586 16.5979182,30.6976334 17.3740422,32.9626026 L17.3740422,32.9626026 L29.6999051,32.9626026 C29.6958025,32.9253068 29.6928189,32.8865193 29.6887163,32.8495965 L29.6887163,32.8495965 L29.6596257,32.6228385 C29.6353835,32.4341222 29.6089035,32.2461518 29.5798128,32.061165 C29.5660134,31.9709093 29.5514681,31.8813996 29.5361768,31.7926358 C29.5059673,31.6177189 29.4727741,31.4450397 29.4380891,31.2742253 L29.4380891,31.2742253 L29.3888588,31.0303112 C29.3377636,30.7983319 29.2825659,30.5697091 29.2221469,30.3448159 C29.221401,30.3418322 29.2199091,30.3362379 29.2180443,30.3295246 C29.2139418,30.31759 29.2102122,30.3049095 29.2068556,30.2926019 C27.6941412,24.7333017 23.2011257,21.4684343 13.6992948,19.0236997 C13.697057,19.0229538 13.6944463,19.0225809 13.6925815,19.0218349 C13.6910897,19.021462 13.6899708,19.021089 13.688852,19.0207161 C11.8941819,18.5851021 10.1002577,18.0745236 8.37458466,17.5822201 C6.56536923,17.0653014 4.84118804,16.5733709 3.30535024,16.2257747 L3.30535024,16.2257747 Z M39.7339459,23.005018 L36.4440903,23.005018 L36.4440903,23.7043127 L40.7248932,24.7474741 C40.6939378,24.6840713 40.6644741,24.6180579 40.6327728,24.5554011 C40.5764562,24.442768 40.517529,24.3349834 40.4593477,24.2257069 C40.3146403,23.9541941 40.1650844,23.6927511 40.0103072,23.440632 C39.942429,23.3302367 39.8760426,23.2161118 39.8062996,23.109446 C39.7828033,23.0736421 39.7578151,23.0404489 39.7339459,23.005018 L39.7339459,23.005018 Z" id="Main" fill="#0B0F17"></path>
                                </g>
                            </g>
                        </g>
                    </g>
                </g>
            </g>
        </g>
    </g>
</svg>