<?xml version="1.0" encoding="UTF-8"?>
<svg width="48px" height="48px" viewBox="0 0 48 48" version="1.1" xmlns="http://www.w3.org/2000/svg" xmlns:xlink="http://www.w3.org/1999/xlink">
    <title>BC1809FD-D9CD-4EC8-A5A6-63341B48F489</title>
    <g id="Main-Feature" stroke="none" stroke-width="1" fill="none" fill-rule="evenodd">
        <g id="00.-Bosung" transform="translate(-858.000000, -880.000000)">
            <g id="Group-2" transform="translate(0.000000, 784.000000)">
                <g id="Type" transform="translate(135.000000, 80.000000)">
                    <g id="List" transform="translate(34.000000, 8.000000)">
                        <g id="5" transform="translate(648.000000, 0.000000)">
                            <g id="Icon/_Type/1/Bicycle" transform="translate(41.000000, 8.000000)">
                                <g id="Group">
                                    <path d="M12.5,24.5 C16.918278,24.5 20.5,28.081722 20.5,32.5 C20.5,36.918278 16.918278,40.5 12.5,40.5 C8.081722,40.5 4.5,36.918278 4.5,32.5 C4.5,28.081722 8.081722,24.5 12.5,24.5 Z M39.5,24.5 C43.918278,24.5 47.5,28.081722 47.5,32.5 C47.5,36.918278 43.918278,40.5 39.5,40.5 C35.081722,40.5 31.5,36.918278 31.5,32.5 C31.5,28.081722 35.081722,24.5 39.5,24.5 Z" id="Shade" fill="#FFFFFF" opacity="0"></path>
                                    <path d="M37.5152405,37.7560844 C33.5530127,37.7560844 30.3296878,34.5327595 30.3296878,30.5705316 C30.3296878,27.8458734 31.8550211,25.4702447 34.0962363,24.2527257 L37.3715443,31.2878987 C37.4818228,31.5247932 37.7164895,31.6636624 37.9611814,31.6636624 C38.0528945,31.6636624 38.1464641,31.6439831 38.2348354,31.6031392 C38.5604726,31.4516456 38.7011983,31.0647426 38.5500759,30.7398481 L35.2922194,23.7418059 C35.9928776,23.5130802 36.7388354,23.3857215 37.5152405,23.3857215 C41.477097,23.3857215 44.7004219,26.6090464 44.7004219,30.5705316 C44.7004219,34.5327595 41.477097,37.7560844 37.5152405,37.7560844 L37.5152405,37.7560844 Z M25.2431392,27.6928945 C23.8800675,27.6928945 22.7375527,28.6467848 22.4419916,29.9214852 L18.9420422,29.9214852 C18.7140591,26.9250295 16.9239831,24.3600338 14.3853502,23.0392911 L16.8801688,17.1577722 L30.2249789,17.1577722 L25.7388354,27.7385654 C25.5776878,27.710346 25.4124557,27.6928945 25.2431392,27.6928945 L25.2431392,27.6928945 Z M25.2431392,32.1485907 C24.3739072,32.1485907 23.667308,31.4423629 23.6654515,30.5735021 C23.6654515,30.5727595 23.6658228,30.5720169 23.6658228,30.5712743 C23.6658228,30.5701603 23.6654515,30.5694177 23.6654515,30.5686751 C23.6665654,29.6990717 24.3735359,28.9924726 25.2431392,28.9924726 C25.457384,28.9924726 25.6612321,29.0362869 25.8476287,29.1142616 C25.8520844,29.1157468 25.8554262,29.118346 25.8591392,29.1202025 C25.8621097,29.1216878 25.8654515,29.1216878 25.8687932,29.123173 C26.4283544,29.3656371 26.8211983,29.9225992 26.8211983,30.5705316 C26.8211983,31.4408776 26.1134852,32.1485907 25.2431392,32.1485907 L25.2431392,32.1485907 Z M13.8762869,24.2393586 C15.9515274,25.3555105 17.4152236,27.4615696 17.6368945,29.9214852 L11.4657553,29.9214852 L13.8762869,24.2393586 Z M10.4847595,37.7560844 C6.52253165,37.7560844 3.29957806,34.5327595 3.29957806,30.5705316 C3.29957806,26.6090464 6.52253165,23.3857215 10.4847595,23.3857215 C11.2503966,23.3857215 11.987443,23.5086245 12.6799325,23.7314093 L9.88955274,30.3098734 C9.80378059,30.5051814 9.81900422,30.7305654 9.93151055,30.9128776 C10.0499578,31.1044726 10.2590042,31.2210633 10.4843882,31.2210633 L17.6368945,31.2210633 C17.3068017,34.8791899 14.227173,37.7560844 10.4847595,37.7560844 L10.4847595,37.7560844 Z M37.5152405,22.0861435 C36.5431561,22.0861435 35.6096878,22.2524895 34.7393418,22.5551055 L31.8086076,16.2588354 C31.8067511,16.2551224 31.8045232,16.2514093 31.8026667,16.2469536 L29.9650633,12.2995781 L34.7679325,12.2995781 C35.126616,12.2995781 35.4177215,12.0088439 35.4177215,11.649789 C35.4177215,11.2911055 35.126616,11 34.7679325,11 L28.9458228,11 C28.7237806,11 28.5173333,11.1132489 28.3977722,11.3007595 C28.2785823,11.4878987 28.2629873,11.7229367 28.356557,11.9241857 L30.1882194,15.8581941 L16.8634599,15.8581941 L15.2025992,12.3010633 L16.4505654,12.3010633 C16.8092489,12.3010633 17.1003544,12.0103291 17.1003544,11.6512743 C17.1003544,11.2925907 16.8092489,11.0014852 16.4505654,11.0014852 L14.1737046,11.0014852 C14.1659072,11.0014852 14.1581097,11.0011139 14.1499409,11.0014852 L11.9124388,11.0014852 C11.5537553,11.0014852 11.2626498,11.2925907 11.2626498,11.6512743 C11.2626498,12.0103291 11.5537553,12.3010633 11.9124388,12.3010633 L13.7686076,12.3010633 L15.7387679,16.5209789 L13.1893671,22.5305992 C12.3390717,22.2439494 11.430481,22.0861435 10.4847595,22.0861435 C5.80627848,22.0861435 2,25.8924219 2,30.5705316 C2,35.249384 5.80627848,39.0556624 10.4847595,39.0556624 C14.9441688,39.0556624 18.6082363,35.5969283 18.9420422,31.2210633 L22.4423629,31.2210633 C22.7386667,32.4953924 23.8804388,33.4481688 25.2431392,33.4481688 C26.8301097,33.4481688 28.1207764,32.1575021 28.1207764,30.5705316 C28.1207764,29.61627 27.6521857,28.7715443 26.9348186,28.248 L31.2345654,18.1057215 L33.547443,23.0741941 C30.8632574,24.5003882 29.0301097,27.3249283 29.0301097,30.5705316 C29.0301097,35.249384 32.8363882,39.0556624 37.5152405,39.0556624 C42.1937215,39.0556624 46,35.249384 46,30.5705316 C46,25.8924219 42.1937215,22.0861435 37.5152405,22.0861435 L37.5152405,22.0861435 Z" id="Main" fill="#0B0F17"></path>
                                </g>
                            </g>
                        </g>
                    </g>
                </g>
            </g>
        </g>
    </g>
</svg>