<?xml version="1.0" encoding="UTF-8"?>
<svg width="48px" height="48px" viewBox="0 0 48 48" version="1.1" xmlns="http://www.w3.org/2000/svg" xmlns:xlink="http://www.w3.org/1999/xlink">
    <title>5B5A8C7C-F272-45AA-88F6-BB74BE214687</title>
    <g id="Main-Feature" stroke="none" stroke-width="1" fill="none" fill-rule="evenodd">
        <g id="00.-Bosung" transform="translate(-696.000000, -880.000000)">
            <g id="Group-2" transform="translate(0.000000, 784.000000)">
                <g id="Type" transform="translate(135.000000, 80.000000)">
                    <g id="List" transform="translate(34.000000, 8.000000)">
                        <g id="4" transform="translate(486.000000, 0.000000)">
                            <g id="Icon/_Type/1/e-bike" transform="translate(41.000000, 8.000000)">
                                <g id="Group">
                                    <path d="M19.6410098,30.7917599 C18.2831321,28.7606988 15.9776735,27.4566609 13.3944756,27.4566609 C10.8112776,27.4566609 8.505819,28.7606988 7.14794135,30.7917599 L4.72663424,30.7917599 C4.49122422,30.7917599 4.3,30.6001644 4.3,30.3647544 L4.3,27.1937741 C4.3,23.8664726 7.00647256,21.16 10.3337741,21.16 L22.8090196,21.16 L22.2520559,25.0101048 C22.1005617,26.0505131 20.8740357,30.7917599 21.924098,30.7917599 L19.6410098,30.7917599 Z" id="Shade" fill="#FFFFFF" opacity="0"></path>
                                    <path d="M32.6415468,32.1434582 C32.7837583,31.6782078 32.9794382,31.2396917 33.2185613,30.8308803 C33.2449242,30.7959772 33.2679454,30.758475 33.2865109,30.7183736 C34.3878139,28.9227224 36.3631787,27.7582969 38.5850928,27.7582969 C41.3513461,27.7582969 43.7388641,29.5613742 44.5286387,32.1434582 L32.6415468,32.1434582 Z M39.8661094,33.4430403 C39.9366581,33.611986 39.9775022,33.7920709 39.9775022,33.9784681 C39.9775022,34.7463355 39.3525888,35.3708775 38.5850928,35.3708775 C37.8172254,35.3708775 37.1926834,34.7463355 37.1926834,33.9784681 C37.1926834,33.7920709 37.2327848,33.611986 37.3040761,33.4430403 L39.8661094,33.4430403 Z M42.2053572,33.9784681 C42.2053572,35.9746262 40.5812509,37.5987326 38.5850928,37.5987326 C36.5889347,37.5987326 34.9648283,35.9746262 34.9648283,33.9784681 C34.9648283,33.7991258 34.980052,33.6205261 35.006415,33.4430403 L35.9532533,33.4430403 C35.9176077,33.6182982 35.8931013,33.7965266 35.8931013,33.9784681 C35.8931013,35.4625909 37.1005987,36.6704596 38.5850928,36.6704596 C40.0695868,36.6704596 41.2770843,35.4625909 41.2770843,33.9784681 C41.2770843,33.7965266 41.2522065,33.6182982 41.2169322,33.4430403 L42.1637706,33.4430403 C42.1901335,33.6205261 42.2053572,33.7991258 42.2053572,33.9784681 L42.2053572,33.9784681 Z M18.6405919,29.7938138 C17.2827142,27.7627526 14.9772556,26.4587148 12.3940577,26.4587148 C9.81085975,26.4587148 7.5054011,27.7627526 6.14752346,29.7938138 L3.72621634,29.7938138 C3.49080633,29.7938138 3.2995821,29.6022182 3.2995821,29.3668082 L3.2995821,26.1958279 C3.2995821,22.8685264 6.00605466,20.1620538 9.33335616,20.1620538 L21.8086017,20.1620538 L21.251638,24.0121586 C21.1001438,25.0525669 21.4087018,26.1055998 22.0974803,26.9016866 C22.7851449,27.6966596 23.7817387,28.1526272 24.831801,28.1526272 L29.4546002,28.1526272 C30.1118174,28.1526272 30.7675494,27.9996478 31.3456778,27.7126259 C31.9301185,27.429317 32.4525505,27.0037966 32.8569062,26.4821073 C33.7428498,25.3381037 33.9945975,23.8369007 33.530461,22.4675125 C32.9337672,20.7049078 31.5365307,17.049369 30.8882249,15.3647393 L31.7619154,15.3647393 L32.9824087,17.8261478 C32.9850078,17.8320888 32.9879783,17.8376584 32.9905775,17.843228 L37.3167006,26.5678797 C35.2570486,26.9169103 33.469195,28.1025005 32.3385586,29.7938138 L18.6405919,29.7938138 Z M6.45088305,32.1434582 C6.59346577,31.6767226 6.78988832,31.2363499 7.03012536,30.8264246 C7.05240391,30.7963485 7.07134068,30.7636733 7.0884209,30.7295129 C8.18823867,28.9275495 10.1676879,27.7582969 12.3940577,27.7582969 C14.6096595,27.7582969 16.579826,28.9167815 17.6833568,30.7038925 C17.7041501,30.7517914 17.7323696,30.7956059 17.7639309,30.8364499 C18.0011975,31.2437761 18.1961348,31.6804357 18.3376036,32.1434582 L6.45088305,32.1434582 Z M13.6739604,33.4430403 C13.7445091,33.611986 13.7853531,33.7920709 13.7853531,33.9784681 C13.7853531,34.7463355 13.1608111,35.3708775 12.3929437,35.3708775 C11.6250764,35.3708775 11.0005343,34.7463355 11.0005343,33.9784681 C11.0005343,33.7920709 11.041007,33.611986 11.1119271,33.4430403 L13.6739604,33.4430403 Z M16.0132082,33.9784681 C16.0132082,35.9746262 14.3891018,37.5987326 12.3929437,37.5987326 C10.3967856,37.5987326 8.77267931,35.9746262 8.77267931,33.9784681 C8.77267931,33.7991258 8.78790298,33.6205261 8.81426593,33.4430403 L9.76073301,33.4430403 C9.72545864,33.6182982 9.70095224,33.7965266 9.70095224,33.9784681 C9.70095224,35.4625909 10.9084497,36.6704596 12.3929437,36.6704596 C13.8770665,36.6704596 15.0849352,35.4625909 15.0849352,33.9784681 C15.0849352,33.7965266 15.0600575,33.6182982 15.0247832,33.4430403 L15.9712502,33.4430403 C15.9979845,33.6205261 16.0132082,33.7991258 16.0132082,33.9784681 L16.0132082,33.9784681 Z M9.86878398,18.7529355 C9.86878398,18.0879208 10.4101528,17.5461807 11.0755388,17.5461807 L21.9095978,17.5461807 L21.9095978,18.8617291 L9.86878398,18.8617291 L9.86878398,18.7529355 Z M34.3220922,15.1011098 L35.4958004,15.1011098 L35.4958004,17.1098924 L34.3220922,17.1098924 C34.2285222,17.1098924 34.1390367,17.0894704 34.0525217,17.0593944 L33.4881318,15.9213318 C33.4966719,15.4679633 33.8668671,15.1011098 34.3220922,15.1011098 L34.3220922,15.1011098 Z M45.9904829,32.6822278 C45.3715105,29.119145 42.3230622,26.5266644 38.7157936,26.4646557 L34.7223634,18.4094745 L36.1455915,18.4094745 C36.5042762,18.4094745 36.7953826,18.1187395 36.7953826,17.7596835 L36.7953826,14.4513188 C36.7953826,14.0926341 36.5042762,13.8015277 36.1455915,13.8015277 L34.3220922,13.8015277 C33.7109173,13.8015277 33.1602658,14.0610728 32.7707624,14.4743399 L32.7469986,14.426441 C32.6374624,14.2051408 32.4120778,14.0651572 32.1651572,14.0651572 L30.3877002,14.0651572 L29.3732835,11.4173515 C29.2771144,11.1656039 29.0357635,11 28.7665643,11 L25.9772898,11 C25.6182338,11 25.3274988,11.2907351 25.3274988,11.6497911 C25.3274988,12.0084757 25.6182338,12.2995821 25.9772898,12.2995821 L28.3195081,12.2995821 L29.3346673,14.9485017 C29.3346673,14.9492444 29.3346673,14.9496157 29.3350387,14.949987 C29.3361526,14.9525861 29.3424648,14.9692951 29.3513763,14.9923162 L30.5763252,18.1892882 C30.5763252,18.1900308 30.5766965,18.1904021 30.5766965,18.1907734 C31.2079221,19.8546098 31.9197218,21.7620251 32.2995711,22.8841214 C32.6233527,23.8402425 32.4477235,24.8877057 31.8294937,25.6863917 C31.54767,26.0502747 31.1841583,26.3465794 30.7731191,26.5459724 C30.3683921,26.7468507 29.9120531,26.8530451 29.4546002,26.8530451 L24.831801,26.8530451 C24.1593601,26.8530451 23.5210796,26.5608248 23.0799643,26.0513886 C22.6384777,25.5408385 22.4405699,24.8657984 22.5378529,24.1985558 L23.2024964,19.6050901 C23.2043529,19.5909803 23.2028677,19.5772419 23.2039816,19.5631321 C23.2050955,19.5456806 23.2091799,19.529343 23.2091799,19.5115202 L23.2091799,16.8963897 C23.2091799,16.537705 22.9180735,16.2465986 22.5593889,16.2465986 L11.0755388,16.2465986 C9.69352605,16.2465986 8.56920188,17.3709228 8.56920188,18.7529355 L8.56920188,18.9025731 C4.88321572,19.2861355 2,22.4103309 2,26.1958279 L2,29.3668082 C2,30.3188449 2.77417962,31.0933959 3.72621634,31.0933959 L5.45577447,31.0933959 C5.24784133,31.5965198 5.08557922,32.1256354 4.98866753,32.6822278 C4.95599232,32.8708529 5.00834692,33.0646763 5.13162156,33.2113434 C5.25526751,33.3583818 5.43720901,33.4430403 5.62880454,33.4430403 L7.5054011,33.4430403 C7.48572171,33.6208974 7.4730972,33.7991258 7.4730972,33.9784681 C7.4730972,36.691253 9.68015892,38.8983147 12.3929437,38.8983147 C15.1057286,38.8983147 17.3127903,36.691253 17.3127903,33.9784681 C17.3127903,33.7991258 17.3001658,33.6208974 17.2804864,33.4430403 L19.1593108,33.4430403 C19.3512776,33.4430403 19.5332191,33.3583818 19.6568651,33.2113434 C19.7801397,33.0646763 19.8324943,32.8708529 19.7998191,32.6818565 C19.7029074,32.1256354 19.5406453,31.5965198 19.3327122,31.0933959 L31.6460669,31.0933959 C31.4381338,31.5965198 31.2758717,32.1256354 31.1793313,32.6818565 C31.1466561,32.8708529 31.1986394,33.0646763 31.3222853,33.2113434 C31.44556,33.3583818 31.6278728,33.4430403 31.8194683,33.4430403 L33.6975501,33.4430403 C33.6778707,33.6208974 33.6652462,33.7991258 33.6652462,33.9784681 C33.6652462,36.691253 35.8723079,38.8983147 38.5850928,38.8983147 C41.2975063,38.8983147 43.5049393,36.691253 43.5049393,33.9784681 C43.5049393,33.7991258 43.4923148,33.6208974 43.4726354,33.4430403 L45.3503459,33.4430403 C45.5419414,33.4430403 45.7238829,33.3583818 45.8471576,33.2113434 C45.9708035,33.0646763 46.0231581,32.8708529 45.9904829,32.6822278 L45.9904829,32.6822278 Z" id="Main" fill="#0B0F17"></path>
                                </g>
                            </g>
                        </g>
                    </g>
                </g>
            </g>
        </g>
    </g>
</svg>