<?xml version="1.0" encoding="UTF-8"?>
<svg width="24px" height="24px" viewBox="0 0 24 24" version="1.1" xmlns="http://www.w3.org/2000/svg" xmlns:xlink="http://www.w3.org/1999/xlink">
    <title>D7AEA13A-B347-438B-8B96-32C4B9ADD8FD</title>
    <g id="Main-Feature" stroke="none" stroke-width="1" fill="none" fill-rule="evenodd">
        <g id="00.-Bosung" transform="translate(-551.000000, -120.000000)" fill="#0B0F17">
            <g id="Info" transform="translate(135.000000, 112.000000)">
                <g id="Card-/-Info" transform="translate(400.000000, 0.000000)">
                    <g id="Icon/Base" transform="translate(16.000000, 8.000000)">
                        <g id="Model" transform="translate(0.000000, -0.000000)">
                            <path d="M3,5.03583 C3,3.35919 4.34315,2 6,2 L18,2 C19.6569,2 21,3.35919 21,5.03583 L21,15.9283 C21,17.0782 20.358,18.1294 19.3416,18.6437 L13.3416,21.6795 C12.4971,22.1068 11.5029,22.1068 10.6584,21.6795 L4.65836,18.6437 C3.64201,18.1294 3,17.0782 3,15.9283 L3,5.03583 Z M6,4.02389 C5.44772,4.02389 5,4.47695 5,5.03583 L5,15.9283 C5,16.3116 5.214,16.662 5.55279,16.8334 L8,18.0717 L8,4.02389 L6,4.02389 Z M11.5528,19.8693 L10,19.0836 L10,4.02389 L14,4.02389 L14,19.0836 L12.4472,19.8693 C12.1657,20.0117 11.8343,20.0117 11.5528,19.8693 Z M16,18.0717 L18.4472,16.8334 C18.786,16.662 19,16.3116 19,15.9283 L19,5.03583 C19,4.47695 18.5523,4.02389 18,4.02389 L16,4.02389 L16,18.0717 Z" id="Main"></path>
                        </g>
                    </g>
                </g>
            </g>
        </g>
    </g>
</svg>