<?xml version="1.0" encoding="UTF-8"?>
<svg width="24px" height="24px" viewBox="0 0 24 24" version="1.1" xmlns="http://www.w3.org/2000/svg" xmlns:xlink="http://www.w3.org/1999/xlink">
    <title>A1D6A195-9DE1-4ADF-B805-E5FF145050CB</title>
    <g id="Main-Feature" stroke="none" stroke-width="1" fill="none" fill-rule="evenodd">
        <g id="00.-Bosung" transform="translate(-551.000000, -440.000000)" fill="#0B0F17">
            <g id="Info" transform="translate(135.000000, 384.000000)">
                <g id="Card-/-Info" transform="translate(400.000000, 48.000000)">
                    <g id="Icon/Base" transform="translate(16.000000, 8.000000)">
                        <g id="Country">
                            <path d="M6,2 C6.55228,2 7,2.44772 7,3 L7,4.06635 C7.05073,4.11031 7.10773,4.15831 7.1705,4.20911 C7.47301,4.45398 7.89109,4.74911 8.37147,4.97655 C9.32586,5.42841 10.3652,5.56065 11.3598,4.73178 C12.9678,3.39181 14.6992,3.30681 16.031,3.58713 C17.3308,3.86071 18.2898,4.48435 18.5275,4.64837 C18.843,4.86606 19,5.21359 19,5.5505 L19,12.573 C19,13.5987 17.8651,14.0796 17.1119,13.5938 C16.3327,13.0913 14.4983,12.2198 12.6402,13.7682 C11.7268,14.5294 10.7653,14.8667 9.83019,14.8979 C8.91357,14.9284 8.09048,14.6633 7.42779,14.3319 C7.27881,14.2574 7.13604,14.1787 7,14.0976 L7,21 C7,21.5523 6.55228,22 6,22 C5.44772,22 5,21.5523 5,21 L5,3 C5,2.44772 5.44772,2 6,2 Z M7,11.5955 L7,6.51359 C7.16279,6.6074 7.33505,6.69869 7.51564,6.78419 C8.85696,7.41924 10.8177,7.787 12.6402,6.26822 C13.6638,5.41525 14.7234,5.35573 15.6191,5.54425 C16.1906,5.66454 16.6776,5.88474 17,6.05866 L17,11.3047 C15.62,10.7667 13.4836,10.4619 11.3598,12.2318 C10.7732,12.7206 10.2347,12.8833 9.76356,12.899 C9.27393,12.9153 8.78452,12.7742 8.32221,12.5431 C7.86036,12.3121 7.4632,12.0099 7.17666,11.7575 C7.11068,11.6993 7.05159,11.6448 7,11.5955 Z" id="Main"></path>
                        </g>
                    </g>
                </g>
            </g>
        </g>
    </g>
</svg>