<?xml version="1.0" encoding="UTF-8"?>
<svg width="24px" height="24px" viewBox="0 0 24 24" version="1.1" xmlns="http://www.w3.org/2000/svg" xmlns:xlink="http://www.w3.org/1999/xlink">
    <title>61B3B3F3-03D7-4FB7-86D2-32AA9933E7E1</title>
    <g id="Main-Feature" stroke="none" stroke-width="1" fill="none" fill-rule="evenodd">
        <g id="00.-Bosung" transform="translate(-551.000000, -536.000000)" fill="#0B0F17">
            <g id="Info" transform="translate(135.000000, 384.000000)">
                <g id="Card-/-Info" transform="translate(400.000000, 144.000000)">
                    <g id="Icon/Base" transform="translate(16.000000, 8.000000)">
                        <g id="Power">
                            <path d="M13.9518483,2 C15.4653747,2 16.7060025,3.18657326 16.7926882,4.67867931 L16.7975265,4.84568145 L16.796876,12.947893 L17.0233797,12.9504 C17.4996792,12.9669548 17.9469273,13.0550242 18.336417,13.2208969 L18.5262157,13.3103459 L18.7055907,13.4129369 C20.029997,14.245014 20.1078636,15.3967716 19.5029669,16.8078307 L19.4271381,16.9783986 L19.3090102,17.2268632 C19.0607371,17.7371221 19.0350565,18.0854892 19.2412175,18.1969281 C19.4432063,18.306633 19.7248,18.2719329 19.8270141,18.1279359 C19.92524,17.990075 19.9884206,17.7735288 20.0424496,17.4350557 C20.2426275,16.196895 20.2661999,14.7259133 20.1130759,12.9373209 C20.0204608,11.8642639 19.808828,10.8820375 19.4844168,10.0184194 C19.3871751,9.75910832 19.2639394,9.50585351 19.0754192,9.1679512 L18.9755368,8.99152617 L18.7350578,8.57668094 C18.4083905,8.01324886 18.2120036,7.63573371 18.0563592,7.23164063 L17.9918878,7.05621115 L17.9134237,6.82706242 C17.662702,6.06065837 17.6264304,5.42863993 17.94236,4.80099313 C18.0646875,4.55814227 18.22013,4.34339205 18.4255605,4.11998012 L18.5892699,3.95022269 L19.0843687,3.47834441 L20.2675204,2.29519274 C20.6170975,1.94561558 21.1826147,1.94561558 21.5321919,2.29519274 C21.8526376,2.61563847 21.8793414,3.11753377 21.6122682,3.4682562 L21.5321463,3.55990978 L20.8517235,4.23914219 L21.0633469,4.72804555 L21.2035205,5.06418249 C21.3317436,5.38262661 21.3847598,5.62005383 21.3350482,5.93359962 C21.3080473,6.0985124 21.2554867,6.23971802 21.1795672,6.37648539 L21.0959429,6.51248701 L21.0561754,6.5701951 C20.9940941,6.65811373 20.9147769,6.75215161 20.7866425,6.8889403 L20.4964564,7.18924324 L20.1833957,7.50663117 L20.5934496,8.22039518 C20.7966059,8.57990175 20.9317819,8.84277043 21.0476114,9.11366987 L21.1041392,9.2502734 L21.1587935,9.39112284 C21.5417542,10.4116865 21.7889435,11.5536645 21.8941423,12.7862771 C22.0595476,14.7192871 22.0314669,16.3340105 21.8074281,17.7211973 C21.7111573,18.3247411 21.5690461,18.7644904 21.2838693,19.1661904 C20.8852682,19.7255293 20.213738,20.0497301 19.4988068,20.0497301 C19.1128307,20.0497301 18.7314562,19.9554077 18.3895687,19.7706036 C17.3613265,19.214616 17.0577233,18.0812181 17.5473697,16.7972858 L17.619063,16.6213112 L17.699345,16.4466768 C18.1844197,15.4447012 18.165688,15.1865599 17.7530875,14.9270385 C17.5958554,14.8279732 17.3654777,14.7660457 17.0956089,14.7437887 L16.9292179,14.7352152 L16.796876,14.7362798 L16.7959004,20.2116898 L17.2040519,20.2123403 C17.6247252,20.2123403 17.9772358,20.502451 18.0728341,20.8934114 L18.0923949,21.0023951 L18.0984079,21.1066963 C18.0984079,21.5653558 17.7533906,21.9433729 17.3084042,21.9950353 L17.2040519,22.0010523 L2.894356,22.0010523 C2.40013845,22.0010523 2,21.6006373 2,21.1066963 C2,20.6480368 2.34501734,20.2700196 2.78980837,20.2183573 L2.89411196,20.2123404 L3.30055623,20.2116898 L3.30088145,4.84567817 C3.30088145,3.39036433 4.39793513,2.18736061 5.8087981,2.01991137 L5.97955782,2.00483826 L6.14655962,2 L13.9518483,2 Z M13.9518483,3.78871199 L6.14655962,3.78871199 C5.60268254,3.78871199 5.15330769,4.20182837 5.09580828,4.73069618 L5.08959344,4.84568833 L5.08796734,20.2116898 L15.0084893,20.2116898 L15.0088145,4.84567817 C15.0088145,4.3018011 14.5956981,3.85242624 14.0668386,3.79492683 L13.9518483,3.78871199 Z M13.1794499,4.92698326 C13.4434684,4.92698326 13.6603249,5.12287952 13.7010561,5.37694345 L13.707933,5.46359686 L13.707933,10.7321667 C13.707933,10.9974564 13.5174783,11.2198817 13.2655325,11.2617138 L13.1794499,11.2687803 L6.91895798,11.2687803 C6.65493953,11.2687803 6.43808298,11.0728841 6.39735186,10.8188201 L6.39047489,10.7321667 L6.39047489,5.46359686 C6.39047489,5.19830713 6.58092958,4.9758819 6.83287547,4.93404975 L6.91895798,4.92698326 L13.1794499,4.92698326 Z M12.25,6.25 L7.75,6.25 L7.75,10 L12.25,10 L12.25,6.25 Z M19.6425521,4.71953833 L19.9544173,5.4465723 L20.0661131,5.72079185 L19.9833851,5.83109586 C19.957234,5.86596407 19.9152797,5.91396382 19.8550152,5.97879445 L19.7885542,6.04937238 L19.2054792,6.64629873 L19.0933242,6.23537365 C18.9973425,5.88370617 18.9883619,5.61790896 19.1043729,5.38703667 C19.140033,5.31571655 19.1841848,5.24564921 19.2388264,5.17294924 L19.3289057,5.06143915 L19.6425521,4.71953833 Z" id="Shape"></path>
                        </g>
                    </g>
                </g>
            </g>
        </g>
    </g>
</svg>