<?xml version="1.0" encoding="UTF-8"?>
<svg width="24px" height="24px" viewBox="0 0 24 24" version="1.1" xmlns="http://www.w3.org/2000/svg" xmlns:xlink="http://www.w3.org/1999/xlink">
    <title>38A4DE8C-6760-4309-A5FF-E1CBB52908A4</title>
    <g id="Main-Feature" stroke="none" stroke-width="1" fill="none" fill-rule="evenodd">
        <g id="00.-Bosung" transform="translate(-551.000000, -664.000000)" fill="#0B0F17">
            <g id="Info" transform="translate(135.000000, 656.000000)">
                <g id="Card-/-Info" transform="translate(400.000000, 0.000000)">
                    <g id="Icon/Base" transform="translate(16.000000, 8.000000)">
                        <g id="Transaction">
                            <path d="M18.6175107,9.40001685 C18.0546911,9.39781686 17.5164838,9.50159457 17.0212796,9.69203131 L14.3510402,5.38991407 C14.2005444,5.14745631 13.9354357,5 13.650068,5 L11.4500767,5 C11.1463061,5 10.9000789,5.24622714 10.9000789,5.54999781 L10.9000789,6.09999562 C10.9000789,6.40376628 11.1463061,6.64999343 11.4500767,6.64999343 L13.1911292,6.64999343 L13.7031771,7.47499014 L9.80011769,7.47499014 L9.80011769,6.92499233 C9.80011769,6.62122167 9.55389055,6.37499452 9.25011988,6.37499452 L6.24372873,6.37499452 C5.78169619,6.37499452 5.39202275,6.75308364 5.40030709,7.21501305 C5.40828206,7.66339877 5.7741681,8.02498795 6.22513193,8.02498795 L7.90008151,8.02498795 L6.88887616,9.65848145 C6.42711862,9.49245086 5.92967998,9.40125435 5.41103205,9.39998248 C2.99705728,9.39413875 1.01424643,11.3597622 1.00007596,13.7737026 C0.985887169,16.215796 2.9613418,18.1999474 5.40013521,18.1999474 C7.4503208,18.1999474 9.17305144,16.7976936 9.66148387,14.8999606 L11.4501111,14.8999606 C11.7358135,14.8999599 12.001178,14.7521407 12.1515646,14.5092215 L15.1064966,9.73582489 L15.6199883,10.5631247 C14.7449761,11.3691465 14.1973846,12.5252763 14.2000658,13.8093837 C14.2050501,16.1755086 16.190336,18.1767444 18.5563578,18.1997068 C20.9834294,18.2232536 22.9625621,16.2814863 22.9994807,13.8686116 C23.0368118,11.4300244 21.0564072,9.40950431 18.6175107,9.40001685 L18.6175107,9.40001685 Z M7.41958967,11.9358849 C7.75395397,12.2978178 7.99272176,12.7492285 8.09478073,13.2499671 L6.60614291,13.2499671 L7.41958967,11.9358849 Z M5.40013521,16.549954 C3.88379125,16.549954 2.65014617,15.3163089 2.65014617,13.799965 C2.65014617,12.283621 3.88379125,11.0499759 5.40013521,11.0499759 C5.60188129,11.0499759 5.79840238,11.0724227 5.987911,11.1138788 L4.42368285,13.6407406 C4.08402483,14.189329 4.47926701,14.8999606 5.12513631,14.8999606 L7.91981268,14.8999606 C7.49459562,15.8701911 6.52549948,16.549954 5.40013521,16.549954 Z M10.9905192,13.2499671 L9.76594908,13.2499671 C9.62982462,12.158359 9.09371425,11.1911191 8.30903925,10.4990843 L9.15967962,9.12498357 L13.5440903,9.12498357 L10.9905192,13.2499671 Z M18.4518239,16.5460353 C17.041217,16.4716137 15.9063996,15.3191277 15.8521561,13.9075926 C15.8242437,13.1815612 16.0801646,12.5147919 16.5167941,12.0079346 L18.0441724,14.4686935 C18.2043592,14.72678 18.5434329,14.8061172 18.8015193,14.6459303 L19.2688112,14.3559096 C19.5268977,14.1957228 19.6062693,13.8566491 19.446048,13.5985626 L17.9174666,11.1358443 C18.1405083,11.0787354 18.3698458,11.0498978 18.6000826,11.05001 C20.1164266,11.05001 21.3500717,12.2836554 21.3500717,13.7999993 C21.3500717,15.3654306 20.0351644,16.6296006 18.4518239,16.5460353 L18.4518239,16.5460353 Z" id="Shape"></path>
                        </g>
                    </g>
                </g>
            </g>
        </g>
    </g>
</svg>