<?xml version="1.0" encoding="UTF-8"?>
<svg width="24px" height="24px" viewBox="0 0 24 24" version="1.1" xmlns="http://www.w3.org/2000/svg" xmlns:xlink="http://www.w3.org/1999/xlink">
    <title>CA8D700F-DDA2-4B09-9799-6CB242DD426E</title>
    <g id="Main-Feature" stroke="none" stroke-width="1" fill="none" fill-rule="evenodd">
        <g id="00.-Bosung" transform="translate(-151.000000, -440.000000)" fill="#0B0F17">
            <g id="Info" transform="translate(135.000000, 384.000000)">
                <g id="Card-/-Info" transform="translate(0.000000, 48.000000)">
                    <g id="Icon/Base" transform="translate(16.000000, 8.000000)">
                        <g id="Transaction">
                            <path d="M12,3.41666667 C13.702878,3.41666667 15.0833333,4.79712202 15.0833333,6.5 C15.0833333,6.88124701 15.0141394,7.24633291 14.8876246,7.58338449 L18.7083333,7.58333333 C19.1684555,7.58333333 19.5691926,7.89730578 19.6792863,8.34406279 L19.6792863,8.34406279 L22.5542863,20.0107295 C22.7096167,20.6410559 22.2325167,21.25 21.5833333,21.25 L21.5833333,21.25 L2.41666667,21.25 C1.7674833,21.25 1.29038327,20.6410559 1.44571373,20.0107295 L1.44571373,20.0107295 L4.32071373,8.34406279 C4.43080742,7.89730578 4.83154446,7.58333333 5.29166667,7.58333333 L5.29166667,7.58333333 L9.11237535,7.58338449 C8.98586063,7.24633291 8.91666667,6.88124701 8.91666667,6.5 C8.91666667,4.79712202 10.297122,3.41666667 12,3.41666667 Z M17.925,9.583 L6.074,9.583 L3.692,19.25 L20.307,19.25 L17.925,9.583 Z M16.5833333,10.9166667 C17.1356181,10.9166667 17.5833333,11.3643819 17.5833333,11.9166667 C17.5833333,12.4295025 17.1972931,12.8521738 16.6999545,12.9099389 L16.5833333,12.9166667 L14.25,12.916 L14.25,13.672 L14.2912177,13.6363554 C14.4339416,13.5218093 14.6087614,13.4456117 14.8000455,13.4233944 L14.9166667,13.4166667 L16.5833333,13.4166667 C17.0961692,13.4166667 17.5188405,13.8027069 17.5766056,14.3000455 L17.5833333,14.4166667 L17.5833333,16.9166667 C17.5833333,17.4295025 17.1972931,17.8521738 16.6999545,17.9099389 L16.5833333,17.9166667 L13.25,17.9166667 C12.7371642,17.9166667 12.3144928,17.5306265 12.2567277,17.0332878 L12.25,16.9166667 L12.25,11.9166667 C12.25,11.4038308 12.6360402,10.9811595 13.1333789,10.9233944 L13.25,10.9166667 L16.5833333,10.9166667 Z M11.55,11.3166667 C11.8558808,11.7245077 11.803113,12.2899594 11.4456754,12.6351708 L11.35,12.7166667 L9.083,14.416 L11.35,16.1166667 C11.757841,16.4225475 11.8655105,16.980156 11.6190296,17.4116415 L11.55,17.5166667 C11.2441192,17.9245077 10.6865107,18.0321771 10.2550252,17.7856963 L10.15,17.7166667 L8.41618541,16.4166667 L8.41666667,16.9166667 C8.41666667,17.4689514 7.96895142,17.9166667 7.41666667,17.9166667 C6.90383083,17.9166667 6.48115951,17.5306265 6.4233944,17.0332878 L6.41666667,16.9166667 L6.41666667,11.9166667 C6.41666667,11.3643819 6.86438192,10.9166667 7.41666667,10.9166667 C7.92950251,10.9166667 8.35217383,11.3027069 8.40993894,11.8000455 L8.41666667,11.9166667 L8.41618541,12.4156667 L10.15,11.1166667 C10.5918278,10.7852958 11.2186292,10.8748389 11.55,11.3166667 Z M14.25,15.16 L14.25,15.916 L15.583,15.916 L15.583,15.416 L14.9166667,15.4166667 C14.6799732,15.4166667 14.4624864,15.3344333 14.2912177,15.1969779 L14.25,15.16 Z M12,5.41666667 C11.4016915,5.41666667 10.9166667,5.90169152 10.9166667,6.5 C10.9166667,7.09830848 11.4016915,7.58333333 12,7.58333333 C12.5983085,7.58333333 13.0833333,7.09830848 13.0833333,6.5 C13.0833333,5.90169152 12.5983085,5.41666667 12,5.41666667 Z" id="Combined-Shape"></path>
                        </g>
                    </g>
                </g>
            </g>
        </g>
    </g>
</svg>