<svg width="24" height="24" viewBox="0 0 24 24" fill="none" xmlns="http://www.w3.org/2000/svg">
<path fill-rule="evenodd" clip-rule="evenodd" d="M8.293 6.70711C8.03305 6.45603 7.92879 6.08423 8.02031 5.7346C8.11182 5.38497 8.38487 5.11192 8.7345 5.02041C9.08413 4.92889 9.45593 5.03315 9.707 5.29311L15.707 11.2931C16.0857 11.6717 16.0989 12.2814 15.737 12.6761L10.237 18.6761C9.86366 19.0831 9.23104 19.1105 8.824 18.7371C8.41697 18.3638 8.38966 17.7311 8.763 17.3241L13.616 12.0301L8.293 6.70711Z" fill="white"/>
<mask id="mask0" mask-type="alpha" maskUnits="userSpaceOnUse" x="7" y="4" width="9" height="16">
<path fill-rule="evenodd" clip-rule="evenodd" d="M8.293 6.70711C8.03305 6.45603 7.92879 6.08423 8.02031 5.7346C8.11182 5.38497 8.38487 5.11192 8.7345 5.02041C9.08413 4.92889 9.45593 5.03315 9.707 5.29311L15.707 11.2931C16.0857 11.6717 16.0989 12.2814 15.737 12.6761L10.237 18.6761C9.86366 19.0831 9.23104 19.1105 8.824 18.7371C8.41697 18.3638 8.38966 17.7311 8.763 17.3241L13.616 12.0301L8.293 6.70711V6.70711Z" fill="white"/>
</mask>
<g mask="url(#mask0)">
</g>
</svg>
