<?xml version="1.0" encoding="UTF-8"?>
<svg width="17px" height="16px" viewBox="0 0 17 16" version="1.1" xmlns="http://www.w3.org/2000/svg" xmlns:xlink="http://www.w3.org/1999/xlink">
    <title>DCAB33E5-E25C-4C2E-95B7-14156E0BE7C0</title>
    <g id="Main-Feature" stroke="none" stroke-width="1" fill="none" fill-rule="evenodd">
        <g id="1.-Home-page" transform="translate(-530.000000, -959.000000)" fill="#DADBDB">
            <g id="Danh-sách-tin" transform="translate(0.000000, 584.000000)">
                <g id="List" transform="translate(135.000000, 164.000000)">
                    <g id="Left">
                        <g id="Card-/-Product---Home" transform="translate(0.000000, 160.000000)">
                            <g id="Infomation" transform="translate(206.000000, 0.000000)">
                                <g id="2" transform="translate(190.000000, 48.000000)">
                                    <g id="Icon-/-Gear" transform="translate(0.000000, 3.000000)">
                                        <g id="Gear" transform="translate(-0.000000, -0.000000)">
                                            <path d="M6.51381307,2.02727327 C7.32934208,1.1019891 8.84726166,1.10201811 9.66268325,2.02737177 C10.0571338,2.47501604 10.2283805,3.0339106 10.1531798,3.62734973 C10.1482126,3.66654564 10.1435402,3.70372063 10.1390055,3.7402466 L10.1390055,3.7402466 L9.85585118,6.2350112 C9.81428186,6.56360885 9.53432474,6.80830148 9.20654693,6.80785845 L9.20654693,6.80785845 L8.7451501,6.80800975 L8.7451501,9.18667641 L8.8422872,9.18696231 C9.81560799,9.18696231 10.6615666,9.83139243 10.9379015,10.7403546 L10.9379015,10.7403546 L10.9558168,10.8073431 L11.0098901,10.8217471 C11.6548048,11.0185749 12.1513046,11.5800837 12.3460466,12.2771792 L12.3460466,12.2771792 L12.3558168,12.3173431 L12.3800026,12.3197644 C13.4018833,12.4391002 14.1222882,13.3131259 14.1742497,14.3960342 L14.1742497,14.3960342 L14.177258,14.5218811 C14.177258,14.8844657 13.8833123,15.1784113 13.5207277,15.1784113 L13.5207277,15.1784113 L2.65653021,15.1784113 C2.29394564,15.1784113 2,14.8844657 2,14.5218811 C2,13.9305183 2.19172594,13.3981661 2.55141814,12.9833988 C2.88191362,12.602308 3.29052054,12.381046 3.76984199,12.3219853 L3.76984199,12.3219853 L3.8211501,12.3166764 L3.8312216,12.2771693 C4.02598244,11.5800776 4.52245901,11.0185912 5.16736981,10.8217709 L5.16736981,10.8217709 L5.2211501,10.8073431 L5.23934855,10.7403876 C5.50364665,9.87094438 6.289134,9.24352626 7.20874787,9.19061173 L7.20874787,9.19061173 L7.33494477,9.1869883 L7.43181676,9.18667641 L7.43181676,6.80867641 L6.97094217,6.80934048 C6.64302038,6.80934048 6.37002921,6.56852684 6.32346553,6.27087546 L6.32346553,6.27087546 L6.31681754,6.20126146 C6.29487365,6.02717816 6.27552246,5.86582852 6.25360334,5.6734074 L6.25360334,5.6734074 L6.11136498,4.37532829 L6.02318928,3.62707473 C5.94807657,3.03362476 6.11936941,2.47476064 6.51381307,2.02727327 Z M12.1908252,13.3522904 L3.98645874,13.3522904 L3.98645874,13.3522904 C3.5442755,13.3522904 3.21008447,13.7182684 3.09525666,14.1320175 L13.0820273,14.1320175 C12.9672255,13.7182424 12.6330084,13.3522904 12.1908252,13.3522904 Z M10.5058869,11.7928363 L5.67139701,11.7928363 L5.67139701,11.7928363 C5.24662768,11.7928363 4.93782976,12.1739669 4.83373619,12.5725374 L11.3435478,12.5725374 C11.2394542,12.1739409 10.9306563,11.7928363 10.5058869,11.7928363 Z M8.84231319,10.2333821 L7.33497076,10.2333821 C6.83867446,10.2333821 6.40564003,10.5551235 6.25094217,11.0131092 L9.92634178,11.0131092 C9.77159194,10.5551235 9.33863548,10.2333821 8.84231319,10.2333821 Z M7.6308512,2.46717024 C7.38461339,2.57838532 7.16953866,2.82236192 7.09034438,3.07995777 C7.05060429,3.20926251 7.03968811,3.34875569 7.05834958,3.49612411 C7.1502794,4.22256985 7.23111111,5.04419428 7.31493177,5.76292073 L8.86188434,5.76292073 C8.94536712,5.04445419 9.02619883,4.22127031 9.11807667,3.49633203 C9.15555556,3.20060754 9.07589344,2.94311566 8.87786875,2.71839831 C8.57738791,2.37750162 8.03724496,2.28362248 7.6308512,2.46717024 Z" id="Main"></path>
                                        </g>
                                    </g>
                                </g>
                            </g>
                        </g>
                    </g>
                </g>
            </g>
        </g>
    </g>
</svg>