<svg width="48" height="48" viewBox="0 0 48 48" fill="none" xmlns="http://www.w3.org/2000/svg">
<path d="M47.5 24C47.5 36.9787 36.9787 47.5 24 47.5C11.0213 47.5 0.5 36.9787 0.5 24C0.5 11.0213 11.0213 0.5 24 0.5C36.9787 0.5 47.5 11.0213 47.5 24Z" stroke="#DADBDB"/>
<path fill-rule="evenodd" clip-rule="evenodd" d="M20.293 18.7071C20.0331 18.456 19.9288 18.0842 20.0204 17.7346C20.1119 17.385 20.3849 17.1119 20.7345 17.0204C21.0842 16.9289 21.456 17.0331 21.707 17.2931L27.707 23.2931C28.0857 23.6717 28.0989 24.2814 27.737 24.6761L22.237 30.6761C21.8637 31.0831 21.2311 31.1105 20.824 30.7371C20.417 30.3638 20.3897 29.7311 20.763 29.3241L25.616 24.0301L20.293 18.7071Z" fill="#0B0F17"/>
<mask id="mask0" mask-type="alpha" maskUnits="userSpaceOnUse" x="19" y="16" width="9" height="16">
<path fill-rule="evenodd" clip-rule="evenodd" d="M20.293 18.7071C20.0331 18.456 19.9288 18.0842 20.0204 17.7346C20.1119 17.385 20.3849 17.1119 20.7345 17.0204C21.0842 16.9289 21.456 17.0331 21.707 17.2931L27.707 23.2931C28.0857 23.6717 28.0989 24.2814 27.737 24.6761L22.237 30.6761C21.8637 31.0831 21.2311 31.1105 20.824 30.7371C20.417 30.3638 20.3897 29.7311 20.763 29.3241L25.616 24.0301L20.293 18.7071Z" fill="white"/>
</mask>
<g mask="url(#mask0)">
</g>
</svg>
