<svg width="48" height="48" viewBox="0 0 48 48" fill="none" xmlns="http://www.w3.org/2000/svg">
<path d="M47.5 24C47.5 36.9787 36.9787 47.5 24 47.5C11.0213 47.5 0.5 36.9787 0.5 24C0.5 11.0213 11.0213 0.5 24 0.5C36.9787 0.5 47.5 11.0213 47.5 24Z" stroke="#DADBDB"/>
<path fill-rule="evenodd" clip-rule="evenodd" d="M27.9797 17.7346C27.8882 17.385 27.6151 17.1119 27.2655 17.0204C26.9159 16.9289 26.5441 17.0331 26.293 17.2931L20.293 23.2931C19.9143 23.6717 19.9011 24.2814 20.263 24.6761L25.763 30.6761C26.1363 31.0831 26.769 31.1105 27.176 30.7371C27.583 30.3638 27.6103 29.7311 27.237 29.3241L22.384 24.0301L27.707 18.7071C27.967 18.456 28.0712 18.0842 27.9797 17.7346Z" fill="#0B0F17"/>
<mask id="mask0" mask-type="alpha" maskUnits="userSpaceOnUse" x="20" y="16" width="9" height="16">
<path fill-rule="evenodd" clip-rule="evenodd" d="M27.9797 17.7346C27.8882 17.385 27.6151 17.1119 27.2655 17.0204C26.9159 16.9289 26.5441 17.0331 26.293 17.2931L20.293 23.2931C19.9143 23.6717 19.9011 24.2814 20.263 24.6761L25.763 30.6761C26.1363 31.0831 26.769 31.1105 27.176 30.7371C27.583 30.3638 27.6103 29.7311 27.237 29.3241L22.384 24.0301L27.707 18.7071C27.967 18.456 28.0712 18.0842 27.9797 17.7346Z" fill="white"/>
</mask>
<g mask="url(#mask0)">
</g>
</svg>
