<?xml version="1.0" encoding="utf-8"?>
<svg width="48px" height="48px" viewBox="0 0 48 48" version="1.1" xmlns:xlink="http://www.w3.org/1999/xlink" xmlns="http://www.w3.org/2000/svg">
  <desc>Created with Lunacy</desc>
  <defs>
    <path d="M24 48C37.2548 48 48 37.2548 48 24C48 10.7452 37.2548 0 24 0C10.7452 0 0 10.7452 0 24C0 37.2548 10.7452 48 24 48Z" id="path_1" />
    <path d="M1.71931 7.70695C1.46824 7.96691 1.09644 8.07116 0.746806 7.97965C0.397176 7.88813 0.124131 7.61509 0.0326158 7.26546C-0.0588996 6.91583 0.0453564 6.54403 0.305313 6.29295L6.30531 0.29295C6.68393 -0.0857219 7.29364 -0.0989477 7.68831 0.26295L13.6883 5.76295C14.0953 6.1363 14.1227 6.76892 13.7493 7.17595C13.376 7.58298 12.7433 7.6103 12.3363 7.23695L7.04231 2.38395L1.71931 7.70695L1.71931 7.70695Z" transform="matrix(-4.371139E-08 1 -1 -4.371139E-08 15.99995 4.987687)" id="path_2" />
    <clipPath id="clip_1">
      <use xlink:href="#path_1" />
    </clipPath>
    <clipPath id="mask_1">
      <use xlink:href="#path_2" />
    </clipPath>
  </defs>
  <g id="Right">
    <g id="Oval">
      <g clip-path="url(#clip_1)">
        <use xlink:href="#path_1" fill="none" stroke="#FAFAFA" stroke-width="2" />
      </g>
    </g>
    <g id="3)-Icon-/-2)-Navigation-/-Arrow-Right" transform="translate(12 12)">
      <g id="Group">
        <path d="M1.71931 7.70695C1.46824 7.96691 1.09644 8.07116 0.746806 7.97965C0.397176 7.88813 0.124131 7.61509 0.0326158 7.26546C-0.0588996 6.91583 0.0453564 6.54403 0.305313 6.29295L6.30531 0.29295C6.68393 -0.0857219 7.29364 -0.0989477 7.68831 0.26295L13.6883 5.76295C14.0953 6.1363 14.1227 6.76892 13.7493 7.17595C13.376 7.58298 12.7433 7.6103 12.3363 7.23695L7.04231 2.38395L1.71931 7.70695L1.71931 7.70695Z" transform="matrix(-4.371139E-08 1 -1 -4.371139E-08 15.99995 4.987687)" id="🎨-Main" fill="#61BE5A" stroke="none" />
      </g>
    </g>
  </g>
</svg>