<?xml version="1.0" encoding="utf-8"?>
<svg width="19px" height="21px" viewBox="0 0 19 21" version="1.1" xmlns:xlink="http://www.w3.org/1999/xlink" xmlns="http://www.w3.org/2000/svg">
  <desc>Created with Lunacy</desc>
  <defs>
    <path d="M6.03478 3.44061C5.92211 2.55044 6.17905 1.71214 6.77072 1.04091C7.99401 -0.347016 10.2709 -0.346973 11.494 1.04106C12.0857 1.71252 12.3426 2.55087 12.2298 3.44102C12.2223 3.49982 12.2153 3.55558 12.2085 3.61037L11.7838 7.35252C11.7214 7.84541 11.3015 8.21245 10.8098 8.21179L10.1177 8.21201L10.1177 11.78L10.2634 11.7804C11.7234 11.7804 12.9923 12.7471 13.4069 14.1105L13.4337 14.211L13.5148 14.2326C14.4822 14.5279 15.227 15.3701 15.5191 16.4158L15.5337 16.476L15.57 16.4796C17.1028 16.6586 18.1834 17.9697 18.2614 19.5941L18.2659 19.7828C18.2659 20.3267 17.825 20.7676 17.2811 20.7676L0.984795 20.7676C0.440918 20.7676 0 20.3267 0 19.7828C0 18.8958 0.287589 18.0972 0.827127 17.4751C1.32287 16.9035 1.93578 16.5716 2.65476 16.483L2.73172 16.475L2.74683 16.4158C3.03897 15.3701 3.78369 14.5279 4.75105 14.2327L4.83172 14.211L4.85902 14.1106C5.25547 12.8064 6.4337 11.8653 7.81312 11.7859L8.00242 11.7805L8.14773 11.78L8.14773 8.21301L7.45641 8.21401C6.96453 8.21401 6.55504 7.85279 6.4852 7.40631L6.47523 7.30189C6.44231 7.04077 6.41328 6.79874 6.3804 6.51011L6.16705 4.56299L6.03478 3.44061ZM7.63549 2.61993C7.57588 2.81389 7.55951 3.02313 7.5875 3.24418C7.7254 4.33385 7.84664 5.56629 7.97237 6.64438L10.2928 6.64438C10.418 5.56668 10.5393 4.3319 10.6771 3.2445C10.7333 2.80091 10.6138 2.41467 10.3168 2.07759C9.86606 1.56625 9.05584 1.42543 8.44625 1.70075C8.0769 1.86758 7.75428 2.23354 7.63549 2.61993ZM10.2635 13.3501C11.008 13.3501 11.6574 13.8327 11.8896 14.5197L6.37646 14.5197C6.60851 13.8327 7.25806 13.3501 8.00251 13.3501L10.2635 13.3501ZM14.0152 16.8588C13.8591 16.2609 13.3959 15.6893 12.7587 15.6893L5.50698 15.6893C4.86983 15.6893 4.40663 16.261 4.25049 16.8588L14.0152 16.8588ZM1.64282 19.198C1.81506 18.5774 2.31635 18.0284 2.97963 18.0284L15.2862 18.0284C15.9494 18.0284 16.4508 18.5774 16.623 19.198L1.64282 19.198Z" id="path_1" />
    <clipPath id="mask_1">
      <use xlink:href="#path_1" />
    </clipPath>
  </defs>
  <path d="M6.03478 3.44061C5.92211 2.55044 6.17905 1.71214 6.77072 1.04091C7.99401 -0.347016 10.2709 -0.346973 11.494 1.04106C12.0857 1.71252 12.3426 2.55087 12.2298 3.44102C12.2223 3.49982 12.2153 3.55558 12.2085 3.61037L11.7838 7.35252C11.7214 7.84541 11.3015 8.21245 10.8098 8.21179L10.1177 8.21201L10.1177 11.78L10.2634 11.7804C11.7234 11.7804 12.9923 12.7471 13.4069 14.1105L13.4337 14.211L13.5148 14.2326C14.4822 14.5279 15.227 15.3701 15.5191 16.4158L15.5337 16.476L15.57 16.4796C17.1028 16.6586 18.1834 17.9697 18.2614 19.5941L18.2659 19.7828C18.2659 20.3267 17.825 20.7676 17.2811 20.7676L0.984795 20.7676C0.440918 20.7676 0 20.3267 0 19.7828C0 18.8958 0.287589 18.0972 0.827127 17.4751C1.32287 16.9035 1.93578 16.5716 2.65476 16.483L2.73172 16.475L2.74683 16.4158C3.03897 15.3701 3.78369 14.5279 4.75105 14.2327L4.83172 14.211L4.85902 14.1106C5.25547 12.8064 6.4337 11.8653 7.81312 11.7859L8.00242 11.7805L8.14773 11.78L8.14773 8.21301L7.45641 8.21401C6.96453 8.21401 6.55504 7.85279 6.4852 7.40631L6.47523 7.30189C6.44231 7.04077 6.41328 6.79874 6.3804 6.51011L6.16705 4.56299L6.03478 3.44061ZM7.63549 2.61993C7.57588 2.81389 7.55951 3.02313 7.5875 3.24418C7.7254 4.33385 7.84664 5.56629 7.97237 6.64438L10.2928 6.64438C10.418 5.56668 10.5393 4.3319 10.6771 3.2445C10.7333 2.80091 10.6138 2.41467 10.3168 2.07759C9.86606 1.56625 9.05584 1.42543 8.44625 1.70075C8.0769 1.86758 7.75428 2.23354 7.63549 2.61993ZM10.2635 13.3501C11.008 13.3501 11.6574 13.8327 11.8896 14.5197L6.37646 14.5197C6.60851 13.8327 7.25806 13.3501 8.00251 13.3501L10.2635 13.3501ZM14.0152 16.8588C13.8591 16.2609 13.3959 15.6893 12.7587 15.6893L5.50698 15.6893C4.86983 15.6893 4.40663 16.261 4.25049 16.8588L14.0152 16.8588ZM1.64282 19.198C1.81506 18.5774 2.31635 18.0284 2.97963 18.0284L15.2862 18.0284C15.9494 18.0284 16.4508 18.5774 16.623 19.198L1.64282 19.198Z" id="Main" fill="#DADBDB" fill-rule="evenodd" stroke="none" />
</svg>