<?xml version="1.0" encoding="utf-8"?>
<svg width="25px" height="25px" viewBox="0 0 25 25" version="1.1" xmlns:xlink="http://www.w3.org/1999/xlink" xmlns="http://www.w3.org/2000/svg">
  <desc>Created with Lunacy</desc>
  <defs>
    <path d="M1.71931 7.70695C1.46824 7.96691 1.09644 8.07116 0.746806 7.97965C0.397176 7.88813 0.124131 7.61509 0.0326158 7.26546C-0.0588996 6.91583 0.0453564 6.54403 0.305313 6.29295L6.30531 0.29295C6.68393 -0.0857219 7.29364 -0.0989477 7.68831 0.26295L13.6883 5.76295C14.0953 6.1363 14.1227 6.76892 13.7493 7.17595C13.376 7.58298 12.7433 7.6103 12.3363 7.23695L7.04231 2.38395L1.71931 7.70695L1.71931 7.70695Z" transform="matrix(-4.371139E-08 1 -1 -4.371139E-08 16 4.987686)" id="path_1" />
    <clipPath id="mask_1">
      <use xlink:href="#path_1" />
    </clipPath>
  </defs>
  <g id="Group" transform="translate(0.5 0.5)">
    <path d="M1.71931 7.70695C1.46824 7.96691 1.09644 8.07116 0.746806 7.97965C0.397176 7.88813 0.124131 7.61509 0.0326158 7.26546C-0.0588996 6.91583 0.0453564 6.54403 0.305313 6.29295L6.30531 0.29295C6.68393 -0.0857219 7.29364 -0.0989477 7.68831 0.26295L13.6883 5.76295C14.0953 6.1363 14.1227 6.76892 13.7493 7.17595C13.376 7.58298 12.7433 7.6103 12.3363 7.23695L7.04231 2.38395L1.71931 7.70695L1.71931 7.70695Z" transform="matrix(-4.371139E-08 1 -1 -4.371139E-08 16 4.987686)" id="🎨-Main" fill="#61BE5A" stroke="none" />
  </g>
</svg>