<svg width="24" height="24" viewBox="0 0 24 24" fill="none" xmlns="http://www.w3.org/2000/svg">
<path fill-rule="evenodd" clip-rule="evenodd" d="M8.29305 6.707C8.03309 6.45592 7.92884 6.08412 8.02035 5.73449C8.11187 5.38486 8.38491 5.11182 8.73454 5.0203C9.08417 4.92879 9.45598 5.03304 9.70705 5.293L15.707 11.293C16.0857 11.6716 16.0989 12.2813 15.737 12.676L10.237 18.676C9.86371 19.083 9.23108 19.1103 8.82405 18.737C8.41702 18.3637 8.38971 17.731 8.76305 17.324L13.616 12.03L8.29305 6.707Z" fill="#0B0F17"/>
<mask id="mask0" mask-type="alpha" maskUnits="userSpaceOnUse" x="7" y="4" width="9" height="15">
<path fill-rule="evenodd" clip-rule="evenodd" d="M8.29305 6.707C8.03309 6.45592 7.92884 6.08412 8.02035 5.73449C8.11187 5.38486 8.38491 5.11182 8.73454 5.0203C9.08417 4.92879 9.45598 5.03304 9.70705 5.293L15.707 11.293C16.0857 11.6716 16.0989 12.2813 15.737 12.676L10.237 18.676C9.86371 19.083 9.23108 19.1103 8.82405 18.737C8.41702 18.3637 8.38971 17.731 8.76305 17.324L13.616 12.03L8.29305 6.707Z" fill="white"/>
</mask>
<g mask="url(#mask0)">
</g>
</svg>
