<?xml version="1.0" encoding="utf-8"?>
<svg width="14px" height="21px" viewBox="0 0 14 21" version="1.1" xmlns:xlink="http://www.w3.org/1999/xlink" xmlns="http://www.w3.org/2000/svg">
  <desc>Created with Lunacy</desc>
  <defs>
    <path d="M8.09525 18.825L13.1803 11.093L13.1792 11.093C14.1764 9.05335 14.2686 6.6881 13.4332 4.57701C11.0032 -1.53499 2.95125 -1.52399 0.551249 4.60001C-0.275798 6.72027 -0.168288 9.0913 0.847249 11.128L5.97425 18.834L5.97525 18.835L6.02525 18.934L6.45325 19.644C6.55316 19.8626 6.77173 20.0024 7.01204 20.0016C7.25234 20.0007 7.46991 19.8593 7.56825 19.64L8.04525 18.927L8.09525 18.827L8.09525 18.825ZM11.5302 10.147L7.0272 16.703L2.4892 10.169C1.74449 8.67584 1.66567 6.93745 2.2722 5.38301C4.0292 0.90001 9.9322 0.88401 11.7162 5.36901C12.3288 6.91698 12.2613 8.65134 11.5302 10.147ZM7.03218 10.388C8.58018 10.384 9.83118 9.02903 9.82718 7.36103C9.82318 5.69303 8.56518 4.34503 7.01718 4.34803C5.46918 4.35203 4.21818 5.70703 4.22218 7.37503C4.22618 9.04303 5.48418 10.391 7.03218 10.388ZM7.95933 7.36601C7.96033 7.92201 7.54333 8.37301 7.02733 8.37501C6.51133 8.37501 6.09233 7.92601 6.09033 7.37001C6.08933 6.81401 6.50633 6.36301 7.02233 6.36201C7.53833 6.36001 7.95733 6.81001 7.95933 7.36601Z" id="path_1" />
    <clipPath id="mask_1">
      <use xlink:href="#path_1" />
    </clipPath>
  </defs>
  <path d="M8.09525 18.825L13.1803 11.093L13.1792 11.093C14.1764 9.05335 14.2686 6.6881 13.4332 4.57701C11.0032 -1.53499 2.95125 -1.52399 0.551249 4.60001C-0.275798 6.72027 -0.168288 9.0913 0.847249 11.128L5.97425 18.834L5.97525 18.835L6.02525 18.934L6.45325 19.644C6.55316 19.8626 6.77173 20.0024 7.01204 20.0016C7.25234 20.0007 7.46991 19.8593 7.56825 19.64L8.04525 18.927L8.09525 18.827L8.09525 18.825ZM11.5302 10.147L7.0272 16.703L2.4892 10.169C1.74449 8.67584 1.66567 6.93745 2.2722 5.38301C4.0292 0.90001 9.9322 0.88401 11.7162 5.36901C12.3288 6.91698 12.2613 8.65134 11.5302 10.147ZM7.03218 10.388C8.58018 10.384 9.83118 9.02903 9.82718 7.36103C9.82318 5.69303 8.56518 4.34503 7.01718 4.34803C5.46918 4.35203 4.21818 5.70703 4.22218 7.37503C4.22618 9.04303 5.48418 10.391 7.03218 10.388ZM7.95933 7.36601C7.96033 7.92201 7.54333 8.37301 7.02733 8.37501C6.51133 8.37501 6.09233 7.92601 6.09033 7.37001C6.08933 6.81401 6.50633 6.36301 7.02233 6.36201C7.53833 6.36001 7.95733 6.81001 7.95933 7.36601Z" id="Main" fill="#DADBDB" fill-rule="evenodd" stroke="none" />
</svg>