<svg width="16" height="16" viewBox="0 0 16 16" fill="none" xmlns="http://www.w3.org/2000/svg">
<path fill-rule="evenodd" clip-rule="evenodd" d="M5.52854 4.47134C5.35523 4.30395 5.28573 4.05608 5.34674 3.823C5.40775 3.58991 5.58978 3.40788 5.82287 3.34687C6.05595 3.28586 6.30382 3.35536 6.4712 3.52867L10.4712 7.52867C10.7237 7.78108 10.7325 8.18755 10.4912 8.45067L6.82454 12.4507C6.57564 12.722 6.15389 12.7402 5.88254 12.4913C5.61118 12.2424 5.59297 11.8207 5.84187 11.5493L9.0772 8.02L5.52854 4.47134Z" fill="#0B0F17"/>
<mask id="mask0" mask-type="alpha" maskUnits="userSpaceOnUse" x="5" y="3" width="6" height="10">
<path fill-rule="evenodd" clip-rule="evenodd" d="M5.52854 4.47134C5.35523 4.30395 5.28573 4.05608 5.34674 3.823C5.40775 3.58991 5.58978 3.40788 5.82287 3.34687C6.05595 3.28586 6.30382 3.35536 6.4712 3.52867L10.4712 7.52867C10.7237 7.78108 10.7325 8.18755 10.4912 8.45067L6.82454 12.4507C6.57564 12.722 6.15389 12.7402 5.88254 12.4913C5.61118 12.2424 5.59297 11.8207 5.84187 11.5493L9.0772 8.02L5.52854 4.47134Z" fill="white"/>
</mask>
<g mask="url(#mask0)">
</g>
</svg>
