<?xml version="1.0" encoding="UTF-8"?>
<svg width="25px" height="24px" viewBox="0 0 25 24" version="1.1" xmlns="http://www.w3.org/2000/svg" xmlns:xlink="http://www.w3.org/1999/xlink">
    <title>F97678B5-1EA3-4E25-A827-224F4166FF9E</title>
    <g id="Main-Feature" stroke="none" stroke-width="1" fill="none" fill-rule="evenodd" opacity="0.5">
        <g id="1.-Home-page" transform="translate(-990.000000, -14.000000)" fill="#929495">
            <g id="Menu-/-Full">
                <g id="Menu" transform="translate(504.000000, 6.000000)">
                    <g id="Menu-/-Page-/-Default" transform="translate(473.000000, 0.000000)">
                        <g id="Icon" transform="translate(13.000000, 8.000000)">
                            <g id="Icon/Base" transform="translate(0.500000, 0.000000)">
                                <g id="Blog">
                                    <path d="M5,22 L19,22 C20.6568542,22 22,20.6568542 22,19 L22,5 C22,3.34314575 20.6568542,2 19,2 L5,2 C3.34314575,2 2,3.34314575 2,5 L2,19 C2,20.6568542 3.34314575,22 5,22 Z M20,19 C20,19.5522847 19.5522847,20 19,20 L5,20 C4.44771525,20 4,19.5522847 4,19 L4,5 C4,4.44771525 4.44771525,4 5,4 L19,4 C19.5522847,4 20,4.44771525 20,5 L20,19 Z M16,14 C17.1045695,14 18,13.1045695 18,12 L18,8 C18,6.8954305 17.1045695,6 16,6 L8,6 C6.8954305,6 6,6.8954305 6,8 L6,12 C6,13.1045695 6.8954305,14 8,14 L16,14 Z M16,12 L8,12 L8,8 L16,8 L16,12 Z M6,17 C6,16.4477153 6.44771525,16 7,16 L12,16 C12.5522847,16 13,16.4477153 13,17 C13,17.5522847 12.5522847,18 12,18 L7,18 C6.44771525,18 6,17.5522847 6,17 Z M15,16 C14.4477153,16 14,16.4477153 14,17 C14,17.5522847 14.4477153,18 15,18 L16,18 C16.5522847,18 17,17.5522847 17,17 C17,16.4477153 16.5522847,16 16,16 L15,16 Z" id="Main"></path>
                                </g>
                            </g>
                        </g>
                    </g>
                </g>
            </g>
        </g>
    </g>
</svg>