<?xml version="1.0" encoding="utf-8"?>
<svg width="20px" height="20px" viewBox="0 0 20 20" version="1.1" xmlns:xlink="http://www.w3.org/1999/xlink" xmlns="http://www.w3.org/2000/svg">
  <desc>Created with Lunacy</desc>
  <defs>
    <path d="M17 20C18.6569 20 20 18.6569 20 17L20 3C20 1.34315 18.6569 0 17 0L3 0C1.34315 0 0 1.34315 0 3L0 17C0 18.6569 1.34315 20 3 20L17 20ZM17 18C17.5523 18 18 17.5523 18 17L18 3C18 2.44772 17.5523 2 17 2L3 2C2.44772 2 2 2.44772 2 3L2 17C2 17.5523 2.44772 18 3 18L17 18ZM14 12C15.1046 12 16 11.1046 16 10L16 6C16 4.89543 15.1046 4 14 4L6 4C4.89543 4 4 4.89543 4 6L4 10C4 11.1046 4.89543 12 6 12L14 12ZM6 10L14 10L14 6L6 6L6 10ZM4 15C4 14.4477 4.44772 14 5 14L10 14C10.5523 14 11 14.4477 11 15C11 15.5523 10.5523 16 10 16L5 16C4.44772 16 4 15.5523 4 15ZM12 15C12 14.4477 12.4477 14 13 14L14 14C14.5523 14 15 14.4477 15 15C15 15.5523 14.5523 16 14 16L13 16C12.4477 16 12 15.5523 12 15Z" id="path_1" />
    <clipPath id="mask_1">
      <use xlink:href="#path_1" />
    </clipPath>
  </defs>
  <path d="M17 20C18.6569 20 20 18.6569 20 17L20 3C20 1.34315 18.6569 0 17 0L3 0C1.34315 0 0 1.34315 0 3L0 17C0 18.6569 1.34315 20 3 20L17 20ZM17 18C17.5523 18 18 17.5523 18 17L18 3C18 2.44772 17.5523 2 17 2L3 2C2.44772 2 2 2.44772 2 3L2 17C2 17.5523 2.44772 18 3 18L17 18ZM14 12C15.1046 12 16 11.1046 16 10L16 6C16 4.89543 15.1046 4 14 4L6 4C4.89543 4 4 4.89543 4 6L4 10C4 11.1046 4.89543 12 6 12L14 12ZM6 10L14 10L14 6L6 6L6 10ZM4 15C4 14.4477 4.44772 14 5 14L10 14C10.5523 14 11 14.4477 11 15C11 15.5523 10.5523 16 10 16L5 16C4.44772 16 4 15.5523 4 15ZM12 15C12 14.4477 12.4477 14 13 14L14 14C14.5523 14 15 14.4477 15 15C15 15.5523 14.5523 16 14 16L13 16C12.4477 16 12 15.5523 12 15Z" id="🎨-Main" fill="#DADBDB" fill-rule="evenodd" stroke="none" />
</svg>