<svg width="14" height="20" viewBox="0 0 14 20" fill="none" xmlns="http://www.w3.org/2000/svg">
<path fill-rule="evenodd" clip-rule="evenodd" d="M1 0C1.55228 0 2 0.44772 2 1V2.06635C2.05073 2.11031 2.10773 2.15831 2.1705 2.20911C2.47301 2.45398 2.89109 2.74911 3.37147 2.97655C4.32586 3.42841 5.3652 3.56065 6.3598 2.73178C7.9678 1.39181 9.6992 1.30681 11.031 1.58713C12.3308 1.86071 13.2898 2.48435 13.5275 2.64837C13.843 2.86606 14 3.21359 14 3.5505V10.573C14 11.5987 12.8651 12.0796 12.1119 11.5938C11.3327 11.0913 9.4983 10.2198 7.6402 11.7682C6.7268 12.5294 5.7653 12.8667 4.83019 12.8979C3.91357 12.9284 3.09048 12.6633 2.42779 12.3319C2.27881 12.2574 2.13604 12.1787 2 12.0976V19C2 19.5523 1.55228 20 1 20C0.44772 20 0 19.5523 0 19V1C0 0.44772 0.44772 0 1 0ZM2 9.5955V4.51359C2.16279 4.6074 2.33505 4.69869 2.51564 4.78419C3.85696 5.41924 5.8177 5.787 7.6402 4.26822C8.6638 3.41525 9.7234 3.35573 10.6191 3.54425C11.1906 3.66454 11.6776 3.88474 12 4.05866V9.3047C10.62 8.7667 8.4836 8.4619 6.3598 10.2318C5.7732 10.7206 5.2347 10.8833 4.76356 10.899C4.27393 10.9153 3.78452 10.7742 3.32221 10.5431C2.86036 10.3121 2.4632 10.0099 2.17666 9.7575C2.11068 9.6993 2.05159 9.6448 2 9.5955Z" fill="#DADBDB"/>
</svg>
