<svg width="24" height="24" viewBox="0 0 24 24" fill="none" xmlns="http://www.w3.org/2000/svg">
<path fill-rule="evenodd" clip-rule="evenodd" d="M4.40077 9.2C4.02306 8.69639 3.9045 8.04433 4.08077 7.44L5.08377 4H7.99977V8C7.99977 9.10457 7.10434 10 5.99977 10C5.37125 10 4.77848 9.70361 4.40077 9.2ZM6.00077 12V16.5H10.9998V16C10.9716 14.9101 11.537 13.8907 12.4765 13.3375C13.4159 12.7842 14.5816 12.7842 15.5211 13.3375C16.4605 13.8907 17.0259 14.9101 16.9978 16V20H17.9978V12C16.8495 12.0014 15.7564 11.508 14.9978 10.646C14.2397 11.5076 13.1473 12.0009 11.9998 12C10.8515 12.0014 9.75836 11.508 8.99977 10.646C8.24072 11.5076 7.14834 12.0009 6.00077 12ZM15.9978 22H17.9978C19.1019 21.9994 19.9968 21.1042 19.9968 20V11.467C21.5937 10.5446 22.3536 8.65032 21.8368 6.88L20.7468 3.146C20.5491 2.46747 19.9275 2.00067 19.2208 2H4.77677C4.06977 2 3.44677 2.467 3.24977 3.146L2.16077 6.88C1.64394 8.65032 2.4038 10.5446 4.00077 11.467V20C4.00077 21.1046 4.8962 22 6.00077 22H15.9978ZM14.9978 20V16C14.9978 15.4477 14.5501 15 13.9978 15C13.4455 15 12.9978 15.4477 12.9978 16V20H14.9978ZM10.9978 18.5H6.00077V20H10.9998L10.9978 18.5ZM15.9978 4H18.9138L19.9168 7.44C20.1359 8.19127 19.8967 9.00131 19.3047 9.51307C18.7126 10.0248 17.8765 10.1443 17.1648 9.81876C16.4532 9.49324 15.9968 8.78257 15.9968 8L15.9978 4ZM9.99877 4H13.9988V8C13.9988 9.10457 13.1033 10 11.9988 10C10.8942 10 9.99877 9.10457 9.99877 8V4Z" fill="#DADBDB"/>
<mask id="mask0" mask-type="alpha" maskUnits="userSpaceOnUse" x="2" y="2" width="20" height="20">
<path fill-rule="evenodd" clip-rule="evenodd" d="M4.40077 9.2C4.02306 8.69639 3.9045 8.04433 4.08077 7.44L5.08377 4H7.99977V8C7.99977 9.10457 7.10434 10 5.99977 10C5.37125 10 4.77848 9.70361 4.40077 9.2ZM6.00077 12V16.5H10.9998V16C10.9716 14.9101 11.537 13.8907 12.4765 13.3375C13.4159 12.7842 14.5816 12.7842 15.5211 13.3375C16.4605 13.8907 17.0259 14.9101 16.9978 16V20H17.9978V12C16.8495 12.0014 15.7564 11.508 14.9978 10.646C14.2397 11.5076 13.1473 12.0009 11.9998 12C10.8515 12.0014 9.75836 11.508 8.99977 10.646C8.24072 11.5076 7.14834 12.0009 6.00077 12ZM15.9978 22H17.9978C19.1019 21.9994 19.9968 21.1042 19.9968 20V11.467C21.5937 10.5446 22.3536 8.65032 21.8368 6.88L20.7468 3.146C20.5491 2.46747 19.9275 2.00067 19.2208 2H4.77677C4.06977 2 3.44677 2.467 3.24977 3.146L2.16077 6.88C1.64394 8.65032 2.4038 10.5446 4.00077 11.467V20C4.00077 21.1046 4.8962 22 6.00077 22H15.9978ZM14.9978 20V16C14.9978 15.4477 14.5501 15 13.9978 15C13.4455 15 12.9978 15.4477 12.9978 16V20H14.9978ZM10.9978 18.5H6.00077V20H10.9998L10.9978 18.5ZM15.9978 4H18.9138L19.9168 7.44C20.1359 8.19127 19.8967 9.00131 19.3047 9.51307C18.7126 10.0248 17.8765 10.1443 17.1648 9.81876C16.4532 9.49324 15.9968 8.78257 15.9968 8L15.9978 4ZM9.99877 4H13.9988V8C13.9988 9.10457 13.1033 10 11.9988 10C10.8942 10 9.99877 9.10457 9.99877 8V4Z" fill="white"/>
</mask>
<g mask="url(#mask0)">
</g>
</svg>
