<svg width="24" height="24" viewBox="0 0 24 24" fill="none" xmlns="http://www.w3.org/2000/svg">
<path fill-rule="evenodd" clip-rule="evenodd" d="M12 22C6.477 22 2 17.523 2 12C2 6.477 6.477 2 12 2C17.523 2 22 6.477 22 12C22 17.523 17.523 22 12 22ZM12 4C7.58172 4 4 7.58172 4 12C4 16.4183 7.58172 20 12 20C16.4183 20 20 16.4183 20 12C20 7.58172 16.4183 4 12 4ZM15.707 8.293C16.0974 8.6835 16.0974 9.3165 15.707 9.707L13.414 12L15.707 14.293C16.086 14.6854 16.0806 15.3091 15.6948 15.6948C15.3091 16.0806 14.6854 16.086 14.293 15.707L12 13.414L9.707 15.707C9.31462 16.086 8.69092 16.0806 8.30518 15.6948C7.91945 15.3091 7.91403 14.6854 8.293 14.293L10.586 12L8.293 9.707C7.91403 9.31462 7.91945 8.69092 8.30518 8.30518C8.69092 7.91945 9.31462 7.91403 9.707 8.293L12 10.586L14.293 8.293C14.6835 7.90262 15.3165 7.90262 15.707 8.293Z" fill="#0B0F17"/>
<mask id="mask0" mask-type="alpha" maskUnits="userSpaceOnUse" x="2" y="2" width="20" height="20">
<path fill-rule="evenodd" clip-rule="evenodd" d="M12 22C6.477 22 2 17.523 2 12C2 6.477 6.477 2 12 2C17.523 2 22 6.477 22 12C22 17.523 17.523 22 12 22ZM12 4C7.58172 4 4 7.58172 4 12C4 16.4183 7.58172 20 12 20C16.4183 20 20 16.4183 20 12C20 7.58172 16.4183 4 12 4ZM15.707 8.293C16.0974 8.6835 16.0974 9.3165 15.707 9.707L13.414 12L15.707 14.293C16.086 14.6854 16.0806 15.3091 15.6948 15.6948C15.3091 16.0806 14.6854 16.086 14.293 15.707L12 13.414L9.707 15.707C9.31462 16.086 8.69092 16.0806 8.30518 15.6948C7.91945 15.3091 7.91403 14.6854 8.293 14.293L10.586 12L8.293 9.707C7.91403 9.31462 7.91945 8.69092 8.30518 8.30518C8.69092 7.91945 9.31462 7.91403 9.707 8.293L12 10.586L14.293 8.293C14.6835 7.90262 15.3165 7.90262 15.707 8.293Z" fill="white"/>
</mask>
<g mask="url(#mask0)">
</g>
</svg>
