<?xml version="1.0" encoding="UTF-8"?>
<svg width="16px" height="16px" viewBox="0 0 16 16" version="1.1" xmlns="http://www.w3.org/2000/svg" xmlns:xlink="http://www.w3.org/1999/xlink">
    <title>5BE5E99D-F2A8-41EE-BB91-64CF66F84E5F</title>
    <g id="Main-Feature" stroke="none" stroke-width="1" fill="none" fill-rule="evenodd">
        <g id="14.-Transaction" transform="translate(-1155.000000, -285.000000)" fill="#DADBDB">
            <g id="Right-Card" transform="translate(935.000000, 136.000000)">
                <g id="Money" transform="translate(32.000000, 32.000000)">
                    <g id="Select" transform="translate(0.000000, 56.000000)">
                        <g id="Select-/-Text-/-ILR-Money" transform="translate(0.000000, 57.000000)">
                            <g id="Right" transform="translate(188.000000, 0.000000)">
                                <g id="Icon/Coin" transform="translate(0.000000, 4.000000)">
                                    <g id="Coin">
                                        <path d="M4.66666667,11.3333333 C4.66666667,11.7015333 4.96514,12 5.33333333,12 L12.6666667,12 C13.0348667,12 13.3333333,11.7015333 13.3333333,11.3333333 L13.3333333,6.66666667 C13.3333333,6.29846667 13.0348667,6 12.6666667,6 L12.6666667,9.33333333 C12.6666667,10.4379333 11.7712667,11.3333333 10.6666667,11.3333333 L4.66666667,11.3333333 Z M12.6666667,4.66666667 C12.6666667,3.5621 11.7712667,2.66666667 10.6666667,2.66666667 L3.33333333,2.66666667 C2.22876667,2.66666667 1.33333333,3.5621 1.33333333,4.66666667 L1.33333333,9.33333333 C1.33333333,10.4379333 2.22876667,11.3333333 3.33333333,11.3333333 C3.33333333,12.4379333 4.22876667,13.3333333 5.33333333,13.3333333 L12.6666667,13.3333333 C13.7712667,13.3333333 14.6666667,12.4379333 14.6666667,11.3333333 L14.6666667,6.66666667 C14.6666667,5.5621 13.7712667,4.66666667 12.6666667,4.66666667 Z M10.6666667,10 C11.0348667,10 11.3333333,9.70153333 11.3333333,9.33333333 L11.3333333,4.66666667 C11.3333333,4.29848 11.0348667,4 10.6666667,4 L3.33333333,4 C2.96514667,4 2.66666667,4.29848 2.66666667,4.66666667 L2.66666667,9.33333333 C2.66666667,9.70153333 2.96514667,10 3.33333333,10 L10.6666667,10 Z M10.6666667,8.66666667 C10.6666667,8.29846667 10.3682,8 10,8 C9.6318,8 9.33333333,8.29846667 9.33333333,8.66666667 C9.33333333,9.03486667 9.6318,9.33333333 10,9.33333333 C10.3682,9.33333333 10.6666667,9.03486667 10.6666667,8.66666667 Z M4,4.66666667 C4.36818667,4.66666667 4.66666667,4.96514667 4.66666667,5.33333333 C4.66666667,5.70152667 4.36818667,6 4,6 C3.63181333,6 3.33333333,5.70152667 3.33333333,5.33333333 C3.33333333,4.96514667 3.63181333,4.66666667 4,4.66666667 Z M8.66666667,7 C8.66666667,6.2636 8.06973333,5.66666667 7.33333333,5.66666667 C6.59695333,5.66666667 6,6.2636 6,7 C6,7.7364 6.59695333,8.33333333 7.33333333,8.33333333 C8.06973333,8.33333333 8.66666667,7.7364 8.66666667,7 Z" id="Main"></path>
                                    </g>
                                </g>
                            </g>
                        </g>
                    </g>
                </g>
            </g>
        </g>
    </g>
</svg>