<?xml version="1.0" encoding="UTF-8"?>
<svg width="25px" height="24px" viewBox="0 0 25 24" version="1.1" xmlns="http://www.w3.org/2000/svg" xmlns:xlink="http://www.w3.org/1999/xlink">
    <!-- Generator: sketchtool 63.1 (101010) - https://sketch.com -->
    <title>1E9619A0-38F8-4243-B2A2-15B2A178FA88</title>
    <desc>Created with sketchtool.</desc>
    <g id="Website" stroke="none" stroke-width="1" fill="none" fill-rule="evenodd">
        <g id="10.1.1-Sign-In" transform="translate(-490.000000, -264.000000)" fill="#FFFFFF">
            <g id="Card" transform="translate(435.000000, 112.000000)">
                <g id="Social" transform="translate(32.000000, 100.000000)">
                    <g id="Btn-Social" transform="translate(0.000000, 40.000000)">
                        <g id="Btn-/-Social-/-Facebook">
                            <g id="Content" transform="translate(23.500000, 12.000000)">
                                <g id="☘️-icon">
                                    <g id="Group">
                                        <path d="M19.8571429,2 L4.14285714,2 C2.95938982,2 2,2.95938982 2,4.14285714 L2,19.8571429 C2,21.0406102 2.95938982,22 4.14285714,22 L10.2700893,22 L10.2700893,15.2004464 L7.45758929,15.2004464 L7.45758929,12 L10.2700893,12 L10.2700893,9.56071429 C10.2700893,6.78616071 11.921875,5.25357143 14.4517857,5.25357143 C15.6633929,5.25357143 16.9303571,5.46964286 16.9303571,5.46964286 L16.9303571,8.19285714 L15.534375,8.19285714 C14.1589286,8.19285714 13.7299107,9.04642857 13.7299107,9.921875 L13.7299107,12 L16.8004464,12 L16.309375,15.2004464 L13.7299107,15.2004464 L13.7299107,22 L19.8571429,22 C21.0406102,22 22,21.0406102 22,19.8571429 L22,4.14285714 C22,2.95938982 21.0406102,2 19.8571429,2 L19.8571429,2 Z" id="Main"></path>
                                    </g>
                                </g>
                            </g>
                        </g>
                    </g>
                </g>
            </g>
        </g>
    </g>
</svg>