<svg width="32" height="32" viewBox="0 0 32 32" fill="none" xmlns="http://www.w3.org/2000/svg">
<path fill-rule="evenodd" clip-rule="evenodd" d="M26.4762 2.66675H5.52377C3.94581 2.66675 2.66663 3.94593 2.66663 5.52389V26.4763C2.66663 28.0542 3.94581 29.3334 5.52377 29.3334H13.6934V20.2673H9.94341V16.0001H13.6934V12.7477C13.6934 9.0483 15.8958 7.00484 19.269 7.00484C20.8845 7.00484 22.5738 7.29294 22.5738 7.29294V10.9239H20.7125C18.8785 10.9239 18.3065 12.062 18.3065 13.2292V16.0001H22.4006L21.7458 20.2673H18.3065V29.3334H26.4762C28.0541 29.3334 29.3333 28.0542 29.3333 26.4763V5.52389C29.3333 3.94593 28.0541 2.66675 26.4762 2.66675V2.66675Z" fill="white"/>
</svg>
