<svg width="24" height="24" viewBox="0 0 24 24" fill="none" xmlns="http://www.w3.org/2000/svg">
<path fill-rule="evenodd" clip-rule="evenodd" d="M13.9272 20.722C13.3183 21.0817 12.5647 21.0931 11.9452 20.752L10.1272 19.752C9.4883 19.4005 9.09132 18.7292 9.0912 18V11.709L3.6142 6.442C3.02573 5.87644 2.83996 5.01005 3.14483 4.25295C3.44969 3.49584 4.18402 2.99995 5.0002 3H19.0002C19.8164 2.99995 20.5507 3.49584 20.8556 4.25295C21.1604 5.01005 20.9747 5.87644 20.3862 6.442L14.9092 11.709V19C14.9094 19.7073 14.536 20.362 13.9272 20.722ZM11.0902 18L12.9082 19V11.283C12.9085 11.0113 13.0193 10.7513 13.2152 10.563L19.0002 5H5.0002L10.7842 10.562C10.9799 10.7505 11.0907 11.0103 11.0912 11.282V18H11.0902Z" fill="#DADBDB"/>
<mask id="mask0" mask-type="alpha" maskUnits="userSpaceOnUse" x="3" y="3" width="19" height="18">
<path fill-rule="evenodd" clip-rule="evenodd" d="M13.9272 20.722C13.3183 21.0817 12.5647 21.0931 11.9452 20.752L10.1272 19.752C9.4883 19.4005 9.09132 18.7292 9.0912 18V11.709L3.6142 6.442C3.02573 5.87644 2.83996 5.01005 3.14483 4.25295C3.44969 3.49584 4.18402 2.99995 5.0002 3H19.0002C19.8164 2.99995 20.5507 3.49584 20.8556 4.25295C21.1604 5.01005 20.9747 5.87644 20.3862 6.442L14.9092 11.709V19C14.9094 19.7073 14.536 20.362 13.9272 20.722ZM11.0902 18L12.9082 19V11.283C12.9085 11.0113 13.0193 10.7513 13.2152 10.563L19.0002 5H5.0002L10.7842 10.562C10.9799 10.7505 11.0907 11.0103 11.0912 11.282V18H11.0902Z" fill="white"/>
</mask>
<g mask="url(#mask0)">
</g>
</svg>
