<?xml version="1.0" encoding="UTF-8"?>
<svg width="25px" height="24px" viewBox="0 0 25 24" version="1.1" xmlns="http://www.w3.org/2000/svg" xmlns:xlink="http://www.w3.org/1999/xlink">
    <!-- Generator: sketchtool 63.1 (101010) - https://sketch.com -->
    <title>25520082-F49B-4B9A-B10F-50688AEEC101</title>
    <desc>Created with sketchtool.</desc>
    <g id="Website" stroke="none" stroke-width="1" fill="none" fill-rule="evenodd">
        <g id="10.1.1-Sign-In" transform="translate(-674.000000, -264.000000)" fill="#FFFFFF">
            <g id="Card" transform="translate(435.000000, 112.000000)">
                <g id="Social" transform="translate(32.000000, 100.000000)">
                    <g id="Btn-Social" transform="translate(0.000000, 40.000000)">
                        <g id="Btn-/-Social-/-Facebook" transform="translate(174.000000, 0.000000)">
                            <g id="Content" transform="translate(33.500000, 12.000000)">
                                <g id="☘️-icon">
                                    <g id="Group">
                                        <path d="M19.8571429,2 L4.14285714,2 C2.95982143,2 2,2.95982143 2,4.14285714 L2,19.8571429 C2,21.0401786 2.95982143,22 4.14285714,22 L19.8571429,22 C21.0401786,22 22,21.0401786 22,19.8571429 L22,4.14285714 C22,2.95982143 21.0401786,2 19.8571429,2 Z M9.32142857,16.4642857 C6.85267857,16.4642857 4.85714286,14.46875 4.85714286,12 C4.85714286,9.53125 6.85267857,7.53571429 9.32142857,7.53571429 C10.5267857,7.53571429 11.53125,7.97321429 12.3125,8.70535714 L11.1026786,9.87053571 C10.7723214,9.55357143 10.1964286,9.18303571 9.32589286,9.18303571 C7.80357143,9.18303571 6.5625,10.4419643 6.5625,12.0044643 C6.5625,13.5625 7.80357143,14.8258929 9.32589286,14.8258929 C11.09375,14.8258929 11.7544643,13.5535714 11.8616071,12.9017857 L9.32142857,12.9017857 L9.32142857,11.3660714 L13.5357143,11.3660714 C13.5803571,11.5892857 13.6071429,11.8169643 13.6071429,12.1071429 C13.6071429,14.65625 11.8973214,16.4642857 9.32142857,16.4642857 L9.32142857,16.4642857 Z M19.1428571,12.8125 L17.8482143,12.8125 L17.8482143,14.1071429 L16.5446429,14.1071429 L16.5446429,12.8125 L15.25,12.8125 L15.25,11.5089286 L16.5446429,11.5089286 L16.5446429,10.2142857 L17.8482143,10.2142857 L17.8482143,11.5089286 L19.1428571,11.5089286 L19.1428571,12.8125 Z" id="Main"></path>
                                    </g>
                                </g>
                            </g>
                        </g>
                    </g>
                </g>
            </g>
        </g>
    </g>
</svg>