<svg width="24" height="24" viewBox="0 0 24 24" fill="none" xmlns="http://www.w3.org/2000/svg">
<path fill-rule="evenodd" clip-rule="evenodd" d="M2 12C2 17.5228 6.47715 22 12 22C17.5228 22 22 17.5228 22 12C22 6.47715 17.5228 2 12 2C6.47715 2 2 6.47715 2 12ZM4 12C4 7.58172 7.58172 4 12 4C16.4183 4 20 7.58172 20 12C20 16.4183 16.4183 20 12 20C7.58172 20 4 16.4183 4 12ZM12.5476 13.066C12.4916 13.43 12.1976 13.752 11.7916 13.752H11.6796C11.2736 13.752 10.9796 13.444 10.9236 13.066L10.7836 12.114C10.7136 11.652 10.9796 11.33 11.4276 11.274C12.6456 11.12 13.2056 10.742 13.2056 10.056V10.028C13.2056 9.398 12.7296 9.034 11.9176 9.034C11.3156 9.034 10.7976 9.216 10.2936 9.594C10.1256 9.72 9.90159 9.818 9.66359 9.818C9.13159 9.818 8.68359 9.37 8.68359 8.838C8.68359 8.572 8.79559 8.292 9.04759 8.082C9.78959 7.466 10.7276 7.074 11.9596 7.074C13.9756 7.074 15.3476 8.11 15.3476 9.972V10C15.3476 11.778 14.1156 12.506 12.5896 12.814L12.5476 13.066ZM10.4616 15.894V15.866C10.4616 15.194 10.9796 14.676 11.6796 14.676C12.3796 14.676 12.8976 15.194 12.8976 15.866V15.894C12.8976 16.566 12.3796 17.084 11.6796 17.084C10.9796 17.084 10.4616 16.566 10.4616 15.894Z" fill="#FF7A1F"/>
</svg>
