<svg width="24" height="24" viewBox="0 0 24 24" fill="none" xmlns="http://www.w3.org/2000/svg">
<path fill-rule="evenodd" clip-rule="evenodd" d="M8.4 9.33333H19.2V13.7778H12.9V12C12.9 11.5091 12.4971 11.1111 12 11.1111C11.5029 11.1111 11.1 11.5091 11.1 12V13.7778H4.8V9.33333H8.4ZM4.8 16.4444V15.5556H19.2V18.2222H4.8V16.4444ZM8.4 7.55556V6.66667C8.4 5.19391 9.60883 4 11.1 4H12.9C14.3912 4 15.6 5.19391 15.6 6.66667V7.55556H19.2C20.1941 7.55556 21 8.35149 21 9.33333V18.2222C21 19.2041 20.1941 20 19.2 20H4.8C3.80589 20 3 19.2041 3 18.2222V9.33333C3 8.35149 3.80589 7.55556 4.8 7.55556H8.4ZM13.8 7.55556V6.66667C13.8 6.17575 13.3971 5.77778 12.9 5.77778H11.1C10.6029 5.77778 10.2 6.17575 10.2 6.66667V7.55556H13.8Z" fill="#DADBDB"/>
<mask id="mask0" mask-type="alpha" maskUnits="userSpaceOnUse" x="3" y="4" width="18" height="16">
<path fill-rule="evenodd" clip-rule="evenodd" d="M8.4 9.33333H19.2V13.7778H12.9V12C12.9 11.5091 12.4971 11.1111 12 11.1111C11.5029 11.1111 11.1 11.5091 11.1 12V13.7778H4.8V9.33333H8.4ZM4.8 16.4444V15.5556H19.2V18.2222H4.8V16.4444ZM8.4 7.55556V6.66667C8.4 5.19391 9.60883 4 11.1 4H12.9C14.3912 4 15.6 5.19391 15.6 6.66667V7.55556H19.2C20.1941 7.55556 21 8.35149 21 9.33333V18.2222C21 19.2041 20.1941 20 19.2 20H4.8C3.80589 20 3 19.2041 3 18.2222V9.33333C3 8.35149 3.80589 7.55556 4.8 7.55556H8.4ZM13.8 7.55556V6.66667C13.8 6.17575 13.3971 5.77778 12.9 5.77778H11.1C10.6029 5.77778 10.2 6.17575 10.2 6.66667V7.55556H13.8Z" fill="white"/>
</mask>
<g mask="url(#mask0)">
</g>
</svg>
