<svg width="24" height="24" viewBox="0 0 24 24" fill="none" xmlns="http://www.w3.org/2000/svg">
<path fill-rule="evenodd" clip-rule="evenodd" d="M6.74742 16.6585C7.11111 17.0741 7.74287 17.1163 8.15851 16.7526C8.57414 16.3889 8.61626 15.7571 8.25258 15.3415L6.20377 13H16C16.5523 13 17 12.5523 17 12C17 11.4477 16.5523 11 16 11H6.20377L8.25258 8.65851C8.61626 8.24287 8.57414 7.61111 8.15851 7.24742C7.74287 6.88374 7.11111 6.92586 6.74743 7.3415L3.24742 11.3415C2.91753 11.7185 2.91753 12.2815 3.24742 12.6585L6.74742 16.6585ZM16 4C15.4477 4 15 3.55229 15 3C15 2.44772 15.4477 2 16 2H19C20.1046 2 21 2.89543 21 4V20C21 21.1046 20.1046 22 19 22H16C15.4477 22 15 21.5523 15 21C15 20.4477 15.4477 20 16 20H19V4H16Z" fill="#FF7A1F"/>
</svg>
