<?xml version="1.0" encoding="utf-8"?>
<svg width="20px" height="20px" viewBox="0 0 20 20" version="1.1" xmlns:xlink="http://www.w3.org/1999/xlink" xmlns="http://www.w3.org/2000/svg">
  <desc>Created with Lunacy</desc>
  <path d="M0 3.077C0 1.377 1.343 0 3 0L11.396 0C12.006 0 12.5 0.507 12.5 1.132L12.5 4.102L17.667 4.102C18.955 4.103 20 5.175 20 6.497L20 17.95C20 19.082 19.105 20 18 20L2.5 20C1.12 20 0 18.852 0 17.436L0 3.077ZM3 4.102L10.5 4.102L10.5 2.05L3 2.05C2.448 2.05 2 2.509 2 3.076C2 3.642 2.448 4.102 3 4.102ZM2 17.436C2 17.719 2.224 17.949 2.5 17.949L18 17.949L18 6.496C18 6.307 17.851 6.154 17.667 6.154L3 6.154C2.65 6.154 2.313 6.092 2 5.979L2 17.436ZM4 9.744C4 9.177 4.448 8.718 5 8.718L12 8.718C12.552 8.718 13 9.178 13 9.744C13 10.31 12.552 10.769 12 10.769L5 10.769C4.448 10.769 4 10.31 4 9.744ZM4 13.846C4 13.28 4.448 12.82 5 12.82L15 12.82C15.552 12.82 16 13.28 16 13.846C16 14.412 15.552 14.872 15 14.872L5 14.872C4.448 14.872 4 14.413 4 13.846Z" id="🎨-Main" fill="#DADBDB" fill-rule="evenodd" stroke="none" />
</svg>