<?xml version="1.0" encoding="utf-8"?>
<svg width="20px" height="20px" viewBox="0 0 20 20" version="1.1" xmlns:xlink="http://www.w3.org/1999/xlink" xmlns="http://www.w3.org/2000/svg">
  <desc>Created with Lunacy</desc>
  <defs>
    <path d="M20 10C20 4.47715 15.5228 0 10 0C4.47715 0 0 4.47715 0 10C0 15.5228 4.47715 20 10 20C15.5228 20 20 15.5228 20 10ZM1.66667 10C1.66667 5.39763 5.39763 1.66667 10 1.66667C14.6024 1.66667 18.3333 5.39763 18.3333 10C18.3333 14.6024 14.6024 18.3333 10 18.3333C5.39763 18.3333 1.66667 14.6024 1.66667 10ZM6.66667 10C6.66667 10.9205 5.92047 11.6667 5 11.6667C4.07953 11.6667 3.33333 10.9205 3.33333 10C3.33333 9.07952 4.07953 8.33333 5 8.33333C5.92047 8.33333 6.66667 9.07952 6.66667 10ZM10 11.6667C10.9205 11.6667 11.6667 10.9205 11.6667 10C11.6667 9.07952 10.9205 8.33333 10 8.33333C9.07952 8.33333 8.33333 9.07952 8.33333 10C8.33333 10.9205 9.07952 11.6667 10 11.6667ZM16.6667 10C16.6667 10.9205 15.9205 11.6667 15 11.6667C14.0795 11.6667 13.3333 10.9205 13.3333 10C13.3333 9.07952 14.0795 8.33333 15 8.33333C15.9205 8.33333 16.6667 9.07952 16.6667 10Z" id="path_1" />
    <clipPath id="mask_1">
      <use xlink:href="#path_1" />
    </clipPath>
  </defs>
  <path d="M20 10C20 4.47715 15.5228 0 10 0C4.47715 0 0 4.47715 0 10C0 15.5228 4.47715 20 10 20C15.5228 20 20 15.5228 20 10ZM1.66667 10C1.66667 5.39763 5.39763 1.66667 10 1.66667C14.6024 1.66667 18.3333 5.39763 18.3333 10C18.3333 14.6024 14.6024 18.3333 10 18.3333C5.39763 18.3333 1.66667 14.6024 1.66667 10ZM6.66667 10C6.66667 10.9205 5.92047 11.6667 5 11.6667C4.07953 11.6667 3.33333 10.9205 3.33333 10C3.33333 9.07952 4.07953 8.33333 5 8.33333C5.92047 8.33333 6.66667 9.07952 6.66667 10ZM10 11.6667C10.9205 11.6667 11.6667 10.9205 11.6667 10C11.6667 9.07952 10.9205 8.33333 10 8.33333C9.07952 8.33333 8.33333 9.07952 8.33333 10C8.33333 10.9205 9.07952 11.6667 10 11.6667ZM16.6667 10C16.6667 10.9205 15.9205 11.6667 15 11.6667C14.0795 11.6667 13.3333 10.9205 13.3333 10C13.3333 9.07952 14.0795 8.33333 15 8.33333C15.9205 8.33333 16.6667 9.07952 16.6667 10Z" id="Combined-Shape" fill="#DADBDB" fill-rule="evenodd" stroke="none" />
</svg>