<?xml version="1.0" encoding="UTF-8"?>
<svg width="16px" height="16px" viewBox="0 0 16 16" version="1.1" xmlns="http://www.w3.org/2000/svg" xmlns:xlink="http://www.w3.org/1999/xlink">
    <title>B5D00EAD-F28A-4203-9D5A-C550BB04FEBF</title>
    <g id="Main-Feature" stroke="none" stroke-width="1" fill="none" fill-rule="evenodd">
        <g id="1.-Home-page" transform="translate(-143.000000, -852.000000)" fill="#DADBDB">
            <g id="Danh-sách-tin" transform="translate(0.000000, 584.000000)">
                <g id="List" transform="translate(135.000000, 164.000000)">
                    <g id="Left">
                        <g id="Card-/-Product---Home">
                            <g id="Image">
                                <g id="Store" transform="translate(0.000000, 96.000000)">
                                    <g id="Icon-/-Mall" transform="translate(8.000000, 8.000000)">
                                        <g id="Mall">
                                            <path d="M5.59999853,3.79999963 L3.19999951,3.79999963 L3.19999951,3.19999975 L5.59999853,3.19999975 L5.59999853,3.79999963 Z M6.79999804,5.59999926 L6.79999804,4.99999938 L9.19999706,4.99999938 L9.19999706,5.59999926 C9.19999706,6.26274083 8.66273898,6.79999902 7.99999755,6.79999902 C7.33725612,6.79999902 6.79999804,6.26274083 6.79999804,5.59999926 Z M5.59999853,4.99999938 L5.59999853,5.59999926 C5.59999853,6.26274083 5.06274045,6.79999902 4.39999902,6.79999902 C3.73725759,6.79999902 3.19999951,6.26274083 3.19999951,5.59999926 L3.19999951,4.99999938 L5.59999853,4.99999938 Z M7.99999755,7.99999877 C7.31105239,8.00081617 6.65515086,7.70478589 6.19999828,7.18759894 C5.60326599,7.86661778 4.67494487,8.15161242 3.79999926,7.92439879 L3.79999926,12.7999978 L6.19999828,12.7999978 L6.19999828,10.3999983 C6.19999828,9.40588593 7.0058854,8.59999865 7.99999755,8.59999865 C8.99410969,8.59999865 9.79999926,9.40588593 9.79999926,10.3999983 L9.79999926,12.7999978 L12.1999958,12.7999978 L12.1999958,7.92439879 C11.3251155,8.14873228 10.3982912,7.86419715 9.79999926,7.18759894 C9.34484423,7.70478589 8.68894271,8.00081617 7.99999755,7.99999877 Z M9.19999706,14 L12.1999958,14 C12.8627373,14 13.3999953,13.4627393 13.3999953,12.7999978 L13.3999953,7.39999889 C13.3999356,7.33851075 13.3904245,7.27739713 13.3717953,7.21879893 C13.7766566,6.77698818 14.0008543,6.19925606 14,5.59999926 L14,3.19999975 C14,2.53725819 13.462737,2 12.7999956,2 L3.19999951,2 C2.53725808,2 2,2.53725819 2,3.19999975 L2,5.59999926 C2,6.22399913 2.2381999,6.79159902 2.62819974,7.21879893 C2.60957056,7.27739713 2.60005951,7.33851075 2.59999975,7.39999889 L2.59999975,12.7999978 C2.59999975,13.4627393 3.13725784,14 3.79999926,14 L9.19999706,14 Z M8.5999973,12.7999984 L8.5999973,10.3999983 C8.5999973,10.0686275 8.33136826,9.7999984 7.99999755,9.7999984 C7.66862683,9.7999984 7.39999779,10.0686275 7.39999779,10.3999983 L7.39999779,12.7999984 L8.5999973,12.7999984 Z M12.7999956,3.79999963 L12.7999956,3.19999975 L10.3999966,3.19999975 L10.3999966,3.79999963 L12.7999956,3.79999963 Z M10.3999966,4.99999938 L10.3999966,5.59999926 C10.3999966,6.26274083 10.9372546,6.79999902 11.5999961,6.79999902 C12.2627375,6.79999902 12.7999956,6.26274083 12.7999956,5.59999926 L12.7999956,4.99999938 L10.3999966,4.99999938 Z M9.19999706,3.79999963 L6.79999804,3.79999963 L6.79999804,3.19999975 L9.19999706,3.19999975 L9.19999706,3.79999963 Z" id="Main"></path>
                                        </g>
                                    </g>
                                </g>
                            </g>
                        </g>
                    </g>
                </g>
            </g>
        </g>
    </g>
</svg>