<?xml version="1.0" encoding="utf-8"?>
<svg width="25px" height="25px" viewBox="0 0 25 25" version="1.1" xmlns:xlink="http://www.w3.org/1999/xlink" xmlns="http://www.w3.org/2000/svg">
  <desc>Created with Lunacy</desc>
  <g id="Group" transform="translate(0.5 0.5)">
    <path d="M0 9.7004C0 4.12661 4.37581 0 10.0222 0C15.669 0 20 4.12661 20 9.7004C20 16.7621 13.3004 20.7177 7.11935 19.0165C6.8272 18.9371 6.75314 18.9702 5.61115 19.481C5.33931 19.6026 5.00697 19.7512 4.59677 19.9319C4.35293 20.0383 4.07219 20.0172 3.84708 19.8753C3.62198 19.7334 3.48173 19.4893 3.47258 19.2234C3.46219 18.884 3.45596 18.6004 3.45073 18.3617C3.42712 17.2857 3.42356 17.1233 3.14798 16.8754C1.19798 15.1351 0 12.6157 0 9.7004ZM13.0964 12.125L16.0399 7.46492C16.3242 7.01815 15.7718 6.51331 15.3508 6.83508L12.1891 9.22944C11.9741 9.39073 11.6784 9.39073 11.4633 9.22944L9.12218 7.47702C8.78604 7.22596 8.36044 7.12646 7.94783 7.20246C7.53523 7.27846 7.17301 7.52308 6.94839 7.87742L4.00484 12.5375C3.72056 12.9839 4.27298 13.4891 4.69476 13.1694L7.85484 10.7726C8.06989 10.6113 8.36559 10.6113 8.58065 10.7726L10.9226 12.5254C11.2588 12.7763 11.6843 12.8758 12.0969 12.7998C12.5095 12.7238 12.8717 12.4792 13.0964 12.125Z" transform="translate(2 2)" id="Main" fill="#009FFF" fill-rule="evenodd" stroke="none" />
  </g>
</svg>