<?xml version="1.0" encoding="UTF-8"?>
<svg width="40px" height="41px" viewBox="0 0 40 41" version="1.1" xmlns="http://www.w3.org/2000/svg" xmlns:xlink="http://www.w3.org/1999/xlink">
    <!-- Generator: sketchtool 64 (101010) - https://sketch.com -->
    <title>B1CB05C6-08DC-4BFC-A12A-53870314AE8A</title>
    <desc>Created with sketchtool.</desc>
    <g id="New-Post" stroke="none" stroke-width="1" fill="none" fill-rule="evenodd">
        <g id="6.18" transform="translate(-735.000000, -387.000000)" fill="#FF5656">
            <g id="Right" transform="translate(735.000000, 388.000000)">
                <g id="Icon-/-Check-NOT">
                    <g id="Check-NOT" transform="translate(-0.000000, -0.000000)">
                        <path d="M9.33652926,9.44251052 C10.0389113,8.68159664 11.225147,8.63414721 11.9860609,9.33652926 L11.9860609,9.33652926 L19.9992764,16.7342764 L28.0139391,9.33652926 C28.774853,8.63414721 29.9610887,8.68159664 30.6634707,9.44251052 C31.3156826,10.1490734 31.3213562,11.2223679 30.7096088,11.9344571 L30.5574895,12.0920422 L22.7632764,19.2852764 L30.5574895,26.4793864 L30.7096088,26.6369714 C31.3213562,27.3490607 31.3156826,28.4223552 30.6634707,29.128918 C29.9610887,29.8898319 28.774853,29.9372814 28.0139391,29.2348993 L28.0139391,29.2348993 L19.9992764,21.8362764 L11.9860609,29.2348993 C11.225147,29.9372814 10.0389113,29.8898319 9.33652926,29.128918 C8.68431736,28.4223552 8.67864382,27.3490607 9.29039117,26.6369714 L9.44251052,26.4793864 L17.2352764,19.2852764 L9.44251052,12.0920422 L9.29039117,11.9344571 C8.67864382,11.2223679 8.68431736,10.1490734 9.33652926,9.44251052 Z" id="Main"></path>
                    </g>
                </g>
            </g>
        </g>
    </g>
</svg>