<?xml version="1.0" encoding="utf-8"?>
<svg width="18px" height="20px" viewBox="0 0 18 20" version="1.1" xmlns:xlink="http://www.w3.org/1999/xlink" xmlns="http://www.w3.org/2000/svg">
  <desc>Created with Lunacy</desc>
  <defs>
    <path d="M7 2C7 0.895431 7.89543 0 9 0C10.1046 0 11 0.895431 11 2L11 2.341C13.3976 3.18933 15.0003 5.45671 15 8L15 11.6L16.617 13.824C17.0592 14.4323 17.1228 15.2372 16.7816 15.9074C16.4404 16.5776 15.752 16.9997 15 17L12 17C12 18.6569 10.6569 20 9 20C7.34315 20 6 18.6569 6 17L3 17C2.24796 16.9997 1.55964 16.5776 1.21842 15.9074C0.877214 15.2372 0.940798 14.4323 1.383 13.824L3 11.6L3 8C3 5.388 4.67 3.165 7 2.341L7 2ZM14.072 1.629C14.1705 1.38274 14.3628 1.1857 14.6066 1.08124C14.8504 0.976778 15.1257 0.973455 15.372 1.072L15.3537 1.11755C15.3723 1.072 15.3726 1.072 15.373 1.072L15.374 1.072L15.377 1.074L15.383 1.076L15.398 1.082C15.4475 1.10292 15.4959 1.12628 15.543 1.152C15.628 1.195 15.739 1.258 15.867 1.342C16.123 1.513 16.448 1.776 16.768 2.16C17.422 2.944 18 4.172 18 6C18 6.55228 17.5523 7 17 7C16.4477 7 16 6.55228 16 6C16 4.628 15.578 3.856 15.232 3.44C15.0955 3.27378 14.9359 3.12797 14.758 3.007C14.7111 2.97566 14.6624 2.94727 14.612 2.922C14.1096 2.71025 13.8695 2.13514 14.072 1.629ZM3.61879 1.21564C3.3382 0.994387 2.9609 0.939633 2.629 1.072L3 2C2.629 1.072 2.628 1.072 2.627 1.072L2.626 1.073L2.623 1.074L2.617 1.076L2.602 1.083C2.43863 1.15695 2.28146 1.24389 2.132 1.343C1.877 1.513 1.552 1.776 1.232 2.16C0.578 2.944 0 4.172 0 6C0 6.55229 0.447715 7 1 7C1.55228 7 2 6.55229 2 6C2 4.628 2.422 3.856 2.767 3.44C2.947 3.224 3.121 3.087 3.241 3.007C3.3 2.967 3.346 2.942 3.37 2.93C3.7019 2.79763 3.93797 2.49825 3.98929 2.14464C4.0406 1.79102 3.89937 1.43689 3.61879 1.21564ZM13.546 13L15 15L3 15L4.455 13L4.617 12.776C4.86571 12.4343 4.99979 12.0226 5 11.6L5 8C5 5.79086 6.79086 4 9 4C11.2091 4 13 5.79086 13 8L13 11.6C13.0002 12.0226 13.1343 12.4343 13.383 12.776L13.546 13ZM8 17C8 17.5523 8.44771 18 9 18C9.55228 18 10 17.5523 10 17L8 17Z" id="path_1" />
    <clipPath id="mask_1">
      <use xlink:href="#path_1" />
    </clipPath>
  </defs>
  <path d="M7 2C7 0.895431 7.89543 0 9 0C10.1046 0 11 0.895431 11 2L11 2.341C13.3976 3.18933 15.0003 5.45671 15 8L15 11.6L16.617 13.824C17.0592 14.4323 17.1228 15.2372 16.7816 15.9074C16.4404 16.5776 15.752 16.9997 15 17L12 17C12 18.6569 10.6569 20 9 20C7.34315 20 6 18.6569 6 17L3 17C2.24796 16.9997 1.55964 16.5776 1.21842 15.9074C0.877214 15.2372 0.940798 14.4323 1.383 13.824L3 11.6L3 8C3 5.388 4.67 3.165 7 2.341L7 2ZM14.072 1.629C14.1705 1.38274 14.3628 1.1857 14.6066 1.08124C14.8504 0.976778 15.1257 0.973455 15.372 1.072L15.3537 1.11755C15.3723 1.072 15.3726 1.072 15.373 1.072L15.374 1.072L15.377 1.074L15.383 1.076L15.398 1.082C15.4475 1.10292 15.4959 1.12628 15.543 1.152C15.628 1.195 15.739 1.258 15.867 1.342C16.123 1.513 16.448 1.776 16.768 2.16C17.422 2.944 18 4.172 18 6C18 6.55228 17.5523 7 17 7C16.4477 7 16 6.55228 16 6C16 4.628 15.578 3.856 15.232 3.44C15.0955 3.27378 14.9359 3.12797 14.758 3.007C14.7111 2.97566 14.6624 2.94727 14.612 2.922C14.1096 2.71025 13.8695 2.13514 14.072 1.629ZM3.61879 1.21564C3.3382 0.994387 2.9609 0.939633 2.629 1.072L3 2C2.629 1.072 2.628 1.072 2.627 1.072L2.626 1.073L2.623 1.074L2.617 1.076L2.602 1.083C2.43863 1.15695 2.28146 1.24389 2.132 1.343C1.877 1.513 1.552 1.776 1.232 2.16C0.578 2.944 0 4.172 0 6C0 6.55229 0.447715 7 1 7C1.55228 7 2 6.55229 2 6C2 4.628 2.422 3.856 2.767 3.44C2.947 3.224 3.121 3.087 3.241 3.007C3.3 2.967 3.346 2.942 3.37 2.93C3.7019 2.79763 3.93797 2.49825 3.98929 2.14464C4.0406 1.79102 3.89937 1.43689 3.61879 1.21564ZM13.546 13L15 15L3 15L4.455 13L4.617 12.776C4.86571 12.4343 4.99979 12.0226 5 11.6L5 8C5 5.79086 6.79086 4 9 4C11.2091 4 13 5.79086 13 8L13 11.6C13.0002 12.0226 13.1343 12.4343 13.383 12.776L13.546 13ZM8 17C8 17.5523 8.44771 18 9 18C9.55228 18 10 17.5523 10 17L8 17Z" id="🎨-Main" fill="#DADBDB" fill-rule="evenodd" stroke="none" />
</svg>