<?xml version="1.0" encoding="utf-8"?>
<svg width="22px" height="16px" viewBox="0 0 22 16" version="1.1" xmlns:xlink="http://www.w3.org/1999/xlink" xmlns="http://www.w3.org/2000/svg">
  <desc>Created with Lunacy</desc>
  <path d="M0 1C0 0.447715 0.447715 0 1 0L21 0C21.5523 0 22 0.447715 22 1C22 1.55228 21.5523 2 21 2L1 2C0.447715 2 0 1.55228 0 1ZM3.064 10.84Q3.248 10.84 3.384 10.704C3.47467 10.6133 3.52 10.5067 3.52 10.384L3.52 7.648Q3.52 7.644 3.522 7.642Q3.524 7.64 3.528 7.64C3.53333 7.64 3.536 7.64267 3.536 7.648L4.92 10.432Q5.12 10.84 5.576 10.84L6.184 10.84Q6.368 10.84 6.504 10.704C6.59467 10.6133 6.64 10.5067 6.64 10.384L6.64 5.456Q6.64 5.272 6.504 5.136Q6.368 5 6.184 5L5.576 5C5.45333 5 5.34667 5.04533 5.256 5.136Q5.12 5.272 5.12 5.456L5.12 8.192Q5.12 8.2 5.112 8.2Q5.104 8.2 5.104 8.192L3.72 5.408Q3.52 5 3.064 5L2.456 5Q2.272 5 2.136 5.136Q2 5.272 2 5.456L2 10.384C2 10.5067 2.04533 10.6133 2.136 10.704Q2.272 10.84 2.456 10.84L3.064 10.84ZM11.7406 10.704C11.6499 10.7947 11.5432 10.84 11.4206 10.84L8.49257 10.84C8.36991 10.84 8.26324 10.7947 8.17257 10.704C8.08191 10.6133 8.03657 10.5067 8.03657 10.384L8.03657 5.456Q8.03657 5.272 8.17257 5.136C8.26324 5.04533 8.36991 5 8.49257 5L11.4206 5C11.5432 5 11.6499 5.04533 11.7406 5.136Q11.8766 5.272 11.8766 5.456L11.8766 5.824Q11.8766 6.008 11.7406 6.144C11.6499 6.23467 11.5432 6.28 11.4206 6.28L9.70857 6.28C9.66057 6.28 9.63657 6.30133 9.63657 6.344L9.63657 7.168C9.63657 7.216 9.66057 7.24 9.70857 7.24L11.2606 7.24C11.3832 7.24 11.4899 7.28533 11.5806 7.376Q11.7166 7.512 11.7166 7.696L11.7166 7.984Q11.7166 8.168 11.5806 8.304C11.4899 8.39467 11.3832 8.44 11.2606 8.44L9.70857 8.44C9.66057 8.44 9.63657 8.46133 9.63657 8.504L9.63657 9.488C9.63657 9.536 9.66057 9.56 9.70857 9.56L11.4206 9.56C11.5432 9.56 11.6499 9.60533 11.7406 9.696C11.8312 9.78667 11.8766 9.89333 11.8766 10.016L11.8766 10.384C11.8766 10.5067 11.8312 10.6133 11.7406 10.704ZM15.2971 10.84C15.4251 10.84 15.5371 10.7973 15.6331 10.712C15.7291 10.6267 15.7851 10.52 15.8011 10.392L16.2251 6.608Q16.2251 6.6 16.2331 6.6Q16.2411 6.6 16.2411 6.608L16.6651 10.392C16.6811 10.52 16.7371 10.6267 16.8331 10.712C16.9291 10.7973 17.0411 10.84 17.1691 10.84L18.0971 10.84C18.2305 10.84 18.3478 10.7973 18.4491 10.712C18.5505 10.6267 18.6145 10.52 18.6411 10.392L19.5851 5.448C19.6065 5.33067 19.5798 5.22667 19.5051 5.136C19.4305 5.04533 19.3345 5 19.2171 5L18.5451 5C18.4171 5 18.3051 5.04267 18.2091 5.128Q18.0651 5.256 18.0411 5.448L17.6171 9.232Q17.6171 9.236 17.6151 9.238Q17.6131 9.24 17.6091 9.24Q17.6011 9.24 17.6011 9.232L17.2491 5.448Q17.2331 5.256 17.0891 5.128C16.9931 5.04267 16.8811 5 16.7531 5L15.7451 5C15.6171 5 15.5051 5.04267 15.4091 5.128Q15.2651 5.256 15.2491 5.448L14.8971 9.232Q14.8971 9.236 14.8951 9.238Q14.8931 9.24 14.8891 9.24Q14.8811 9.24 14.8811 9.232L14.4571 5.448Q14.4331 5.256 14.2891 5.128C14.1931 5.04267 14.0811 5 13.9531 5L13.2491 5C13.1318 5 13.0345 5.04533 12.9571 5.136C12.8798 5.22667 12.8545 5.33067 12.8811 5.448L13.8251 10.392Q13.8571 10.584 14.0131 10.712Q14.1691 10.84 14.3691 10.84L15.2971 10.84ZM1 14C0.447715 14 0 14.4477 0 15C0 15.5523 0.447715 16 1 16L21 16C21.5523 16 22 15.5523 22 15C22 14.4477 21.5523 14 21 14L1 14Z" id="Main" fill="#DADBDB" fill-rule="evenodd" stroke="none" />
</svg>