<?xml version="1.0" encoding="UTF-8"?>
<svg width="16px" height="16px" viewBox="0 0 16 16" version="1.1" xmlns="http://www.w3.org/2000/svg" xmlns:xlink="http://www.w3.org/1999/xlink">
    <title>5D28CC17-E479-4974-BCEE-6103AB69B65B</title>
    <g id="Main-Feature" stroke="none" stroke-width="1" fill="none" fill-rule="evenodd">
        <g id="1.-Home-page" transform="translate(-341.000000, -959.000000)" fill="#DADBDB">
            <g id="Danh-sách-tin" transform="translate(0.000000, 584.000000)">
                <g id="List" transform="translate(135.000000, 164.000000)">
                    <g id="Left">
                        <g id="Card-/-Product---Home" transform="translate(0.000000, 160.000000)">
                            <g id="Infomation" transform="translate(206.000000, 0.000000)">
                                <g id="1" transform="translate(0.000000, 48.000000)">
                                    <g id="Icon-/-Status---New" transform="translate(0.000000, 3.000000)">
                                        <g id="Status---New">
                                            <path d="M14.6666667,12 C15.0348565,12 15.3333333,12.2984768 15.3333333,12.6666667 C15.3333333,13.0348565 15.0348565,13.3333333 14.6666667,13.3333333 L14.6666667,13.3333333 L1.33333333,13.3333333 C0.9651435,13.3333333 0.666666667,13.0348565 0.666666667,12.6666667 C0.666666667,12.2984768 0.9651435,12 1.33333333,12 L1.33333333,12 Z M2.70933333,6 L2.80592593,6.00755556 C2.95901235,6.03274074 3.07259259,6.12088889 3.14666667,6.272 L3.14666667,6.272 L4.06933333,8.128 L4.07066667,8.132 C4.07822222,8.13333333 4.08,8.13155556 4.08,8.128 L4.08,8.128 L4.08,6.304 L4.08566667,6.24466667 C4.097,6.18733333 4.12533333,6.136 4.17066667,6.09066667 C4.23111111,6.03022222 4.30222222,6 4.384,6 L4.384,6 L4.78933333,6 L4.84866667,6.00566667 C4.906,6.017 4.95733333,6.04533333 5.00266667,6.09066667 C5.06311111,6.15111111 5.09333333,6.22222222 5.09333333,6.304 L5.09333333,6.304 L5.09333333,9.58933333 L5.08766667,9.64866667 C5.07633333,9.706 5.048,9.75733333 5.00266667,9.80266667 C4.94222222,9.86311111 4.87111111,9.89333333 4.78933333,9.89333333 L4.78933333,9.89333333 L4.384,9.89333333 L4.28740741,9.88577778 C4.13432099,9.86059259 4.02074074,9.77244444 3.94666667,9.62133333 L3.94666667,9.62133333 L3.024,7.76533333 L3.02266667,7.76133333 C3.01511111,7.76 3.01333333,7.76177778 3.01333333,7.76533333 L3.01333333,7.76533333 L3.01333333,9.58933333 L3.00766667,9.64866667 C2.99633333,9.706 2.968,9.75733333 2.92266667,9.80266667 C2.86222222,9.86311111 2.79111111,9.89333333 2.70933333,9.89333333 L2.70933333,9.89333333 L2.304,9.89333333 L2.24466667,9.88766667 C2.18733333,9.87633333 2.136,9.848 2.09066667,9.80266667 C2.03022222,9.74222222 2,9.67111111 2,9.58933333 L2,9.58933333 L2,6.304 L2.00566667,6.24466667 C2.017,6.18733333 2.04533333,6.136 2.09066667,6.09066667 C2.15111111,6.03022222 2.22222222,6 2.304,6 L2.304,6 L2.70933333,6 Z M8.28038095,6 L8.33971429,6.00566667 C8.39704762,6.017 8.44838095,6.04533333 8.49371429,6.09066667 C8.55415873,6.15111111 8.58438095,6.22222222 8.58438095,6.304 L8.58438095,6.304 L8.58438095,6.54933333 L8.57871429,6.60866667 C8.56738095,6.666 8.53904762,6.71733333 8.49371429,6.76266667 C8.43326984,6.82311111 8.36215873,6.85333333 8.28038095,6.85333333 L8.28038095,6.85333333 L7.13904762,6.85333333 L7.11238095,6.85807407 C7.09815873,6.86439506 7.09104762,6.87703704 7.09104762,6.896 L7.09104762,6.896 L7.09104762,7.44533333 L7.09638095,7.472 C7.10349206,7.48622222 7.11771429,7.49333333 7.13904762,7.49333333 L7.13904762,7.49333333 L8.17371429,7.49333333 L8.23304762,7.499 C8.29038095,7.51033333 8.34171429,7.53866667 8.38704762,7.584 C8.44749206,7.64444444 8.47771429,7.71555556 8.47771429,7.79733333 L8.47771429,7.79733333 L8.47771429,7.98933333 L8.47204762,8.04866667 C8.46071429,8.106 8.43238095,8.15733333 8.38704762,8.20266667 C8.32660317,8.26311111 8.25549206,8.29333333 8.17371429,8.29333333 L8.17371429,8.29333333 L7.13904762,8.29333333 L7.11238095,8.29807407 C7.09815873,8.30439506 7.09104762,8.31703704 7.09104762,8.336 L7.09104762,8.336 L7.09104762,8.992 L7.09638095,9.01866667 C7.10349206,9.03288889 7.11771429,9.04 7.13904762,9.04 L7.13904762,9.04 L8.28038095,9.04 L8.33971429,9.04566667 C8.39704762,9.057 8.44838095,9.08533333 8.49371429,9.13066667 C8.55415873,9.19111111 8.58438095,9.26222222 8.58438095,9.344 L8.58438095,9.344 L8.58438095,9.58933333 L8.57871429,9.64866667 C8.56738095,9.706 8.53904762,9.75733333 8.49371429,9.80266667 C8.43326984,9.86311111 8.36215873,9.89333333 8.28038095,9.89333333 L8.28038095,9.89333333 L6.32838095,9.89333333 L6.26904762,9.88766667 C6.21171429,9.87633333 6.16038095,9.848 6.11504762,9.80266667 C6.05460317,9.74222222 6.02438095,9.67111111 6.02438095,9.58933333 L6.02438095,9.58933333 L6.02438095,6.304 L6.03004762,6.24466667 C6.04138095,6.18733333 6.06971429,6.136 6.11504762,6.09066667 C6.17549206,6.03022222 6.24660317,6 6.32838095,6 L6.32838095,6 L8.28038095,6 Z M9.9687619,6 L10.0505397,6.00948148 C10.1026878,6.02212346 10.1500952,6.04740741 10.1927619,6.08533333 C10.2567619,6.14222222 10.2940952,6.21333333 10.3047619,6.29866667 L10.3047619,6.29866667 L10.5874286,8.82133333 L10.5887619,8.82533333 C10.5963175,8.82666667 10.5980952,8.82488889 10.5980952,8.82133333 L10.5980952,8.82133333 L10.8327619,6.29866667 L10.8434286,6.23733333 C10.8594286,6.17866667 10.8914286,6.128 10.9394286,6.08533333 C11.0034286,6.02844444 11.0780952,6 11.1634286,6 L11.1634286,6 L11.8354286,6 L11.9172063,6.00948148 C11.9693545,6.02212346 12.0167619,6.04740741 12.0594286,6.08533333 C12.1234286,6.14222222 12.1589841,6.21333333 12.1660952,6.29866667 L12.1660952,6.29866667 L12.4007619,8.82133333 L12.4020952,8.82533333 C12.4096508,8.82666667 12.4114286,8.82488889 12.4114286,8.82133333 L12.4114286,8.82133333 L12.6940952,6.29866667 L12.7136508,6.21807407 C12.7326138,6.16750617 12.7634286,6.12325926 12.8060952,6.08533333 C12.8700952,6.02844444 12.9447619,6 13.0300952,6 L13.0300952,6 L13.4780952,6 L13.5340952,6.00566667 C13.5874286,6.017 13.6327619,6.04533333 13.6700952,6.09066667 C13.719873,6.15111111 13.7376508,6.22044444 13.7234286,6.29866667 L13.7234286,6.29866667 L13.0940952,9.59466667 L13.0680212,9.67525926 C13.0451076,9.72582716 13.0111323,9.77007407 12.9660952,9.808 C12.8985397,9.86488889 12.8203175,9.89333333 12.7314286,9.89333333 L12.7314286,9.89333333 L12.1127619,9.89333333 L12.0309841,9.88385185 C11.978836,9.87120988 11.9314286,9.84592593 11.8887619,9.808 C11.8247619,9.75111111 11.7874286,9.68 11.7767619,9.59466667 L11.7767619,9.59466667 L11.4940952,7.072 L11.4927619,7.068 C11.4852063,7.06666667 11.4834286,7.06844444 11.4834286,7.072 L11.4834286,7.072 L11.2007619,9.59466667 L11.1812063,9.67525926 C11.1622434,9.72582716 11.1314286,9.77007407 11.0887619,9.808 C11.0247619,9.86488889 10.9500952,9.89333333 10.8647619,9.89333333 L10.8647619,9.89333333 L10.2460952,9.89333333 L10.1604656,9.88385185 C10.105552,9.87120988 10.0549841,9.84592593 10.0087619,9.808 C9.93942857,9.75111111 9.89765079,9.68 9.88342857,9.59466667 L9.88342857,9.59466667 L9.25409524,6.29866667 L9.2472619,6.24166667 C9.24692857,6.18633333 9.26609524,6.136 9.3047619,6.09066667 C9.35631746,6.03022222 9.42120635,6 9.49942857,6 L9.49942857,6 L9.9687619,6 Z M14.6666667,2.66666667 C15.0348565,2.66666667 15.3333333,2.9651435 15.3333333,3.33333333 C15.3333333,3.70152317 15.0348565,4 14.6666667,4 L1.33333333,4 C0.9651435,4 0.666666667,3.70152317 0.666666667,3.33333333 C0.666666667,2.9651435 0.9651435,2.66666667 1.33333333,2.66666667 L14.6666667,2.66666667 Z" id="Main"></path>
                                        </g>
                                    </g>
                                </g>
                            </g>
                        </g>
                    </g>
                </g>
            </g>
        </g>
    </g>
</svg>