<svg width="20" height="14" viewBox="0 0 20 14" fill="none" xmlns="http://www.w3.org/2000/svg">
<path fill-rule="evenodd" clip-rule="evenodd" d="M20 10C20 4.47715 15.5228 0 10 0C4.47715 0 0 4.47715 0 10C0 10.3379 0.331574 11.0011 0.946953 11.0011C1.56233 11.0011 3.7 11 3.7 11L3.81662 10.9933C4.31396 10.9355 4.7 10.5128 4.7 10C4.7 9.44771 4.25229 9 3.7 9L2.06189 9.00005C2.25941 7.41596 2.92007 5.9757 3.90408 4.81904L5.33812 6.25233L5.42534 6.33004C5.81786 6.64087 6.3897 6.61496 6.75233 6.25233C7.14286 5.86181 7.14286 5.22864 6.75233 4.83812L5.3811 3.4673C6.5586 2.63324 7.47146 2.09243 9.00052 1.99824L9 3.6829L9.00673 3.79952C9.06449 4.29686 9.48716 4.6829 10 4.6829C10.5523 4.6829 11 4.23518 11 3.6829V1.99824C12.3811 2.19036 14.1474 3.02478 15.181 3.90408L14.2477 4.83812L14.17 4.92534C13.8591 5.31786 13.885 5.8897 14.2477 6.25233C14.6382 6.64286 15.2714 6.64286 15.6619 6.25233L16.5327 5.3811C17.275 6.42901 17.7714 7.66332 17.9381 9.00005L16.8 9L16.6834 9.00673C16.186 9.06449 15.8 9.48716 15.8 10C15.8 10.5523 16.2477 11 16.8 11H19.0406C19.8092 11.0019 20 10.3379 20 10ZM10.9095 13.0041L10.5 8.5C10.4781 8.25863 10.2868 8.0674 10.0455 8.04545C9.76931 8.02035 9.5251 8.22386 9.5 8.5L9.09054 13.0041L9.08679 13.0868C9.08679 13.5911 9.49565 14 10 14L10.0827 13.9963C10.585 13.9506 10.9551 13.5064 10.9095 13.0041Z" fill="#DADBDB"/>
</svg>
