<?xml version="1.0" encoding="utf-8"?>
<svg width="24px" height="24px" viewBox="0 0 24 24" version="1.1" xmlns:xlink="http://www.w3.org/1999/xlink" xmlns="http://www.w3.org/2000/svg">
  <desc>Created with Lunacy</desc>
  <defs>
    <path d="M12.7102 0.0913087C12.2079 -0.13873 11.6141 0.0808081 11.3822 0.582309C11.2715 0.823184 11.2612 1.09825 11.3537 1.3467C11.4462 1.59515 11.6339 1.79653 11.8752 1.90631C14.2002 2.97031 16.8642 4.97031 18.0802 7.73031C18.3022 8.23531 18.8932 8.46431 19.4002 8.24231C19.643 8.13638 19.8336 7.93818 19.9301 7.69147C20.0265 7.44475 20.0208 7.16981 19.9142 6.92731C18.4302 3.55531 15.2872 1.27031 12.7112 0.0903087L12.7102 0.0913087ZM3.6162 0.395309C4.5602 -0.0486913 5.5372 0.414309 5.9922 1.13131L8.0892 4.43531C8.5132 5.10331 8.5422 6.08031 7.8532 6.74931C7.5582 7.03531 7.1472 7.38831 6.7642 7.71631C6.5542 7.89631 6.3542 8.06831 6.1842 8.21931C8.1772 11.6553 10.8412 13.2453 12.0532 13.8263L13.4022 12.1263C14.0377 11.3296 15.1671 11.1311 16.0362 11.6633C16.9916 12.2493 17.9598 12.8141 18.9402 13.3573C19.6082 13.7233 20.0852 14.4863 19.9502 15.3473C19.7072 16.8943 19.0722 18.0213 18.1682 18.7813C17.2782 19.5293 16.2192 19.8463 15.2492 19.9543C13.3402 20.1643 11.5152 19.5933 11.1812 19.4823C11.1022 19.4565 11.0253 19.4248 10.9512 19.3873C10.5942 19.2073 8.4852 18.1173 6.2212 16.3283C3.9822 14.5583 1.4572 11.9963 0.455202 8.83831C-0.281798 6.51831 -0.0637981 4.63831 0.679202 3.19231C1.4092 1.77231 2.5912 0.876309 3.6162 0.395309ZM4.3412 2.26431L6.3452 5.42331C6.1032 5.65031 5.8392 5.87631 5.5552 6.11831C5.3102 6.32631 5.0512 6.54831 4.7782 6.79331C4.11452 7.39218 3.96025 8.37371 4.4082 9.14731C6.7242 13.1823 9.8822 15.0193 11.2952 15.6773C12.1472 16.0753 13.0722 15.7623 13.5862 15.1133L14.9742 13.3643L14.9772 13.3633L14.9832 13.3633L14.9892 13.3653C15.9667 13.9654 16.9573 14.5439 17.9602 15.1003C17.7742 16.2123 17.3472 16.8603 16.8762 17.2563C16.3812 17.6723 15.7412 17.8913 15.0282 17.9703C13.6032 18.1283 12.1562 17.7003 11.8352 17.5953C10.2943 16.79 8.83193 15.8426 7.4672 14.7653C5.3292 13.0753 3.1852 10.8213 2.3652 8.23731C1.7652 6.34931 1.9922 5.02031 2.4632 4.10331C2.9182 3.21731 3.6552 2.61631 4.3412 2.26531L4.3412 2.26431ZM11.9692 3.63331C11.4746 3.38648 10.8735 3.5864 10.6252 4.08031C10.5067 4.31721 10.4873 4.59156 10.5713 4.84278C10.6554 5.094 10.836 5.30144 11.0732 5.41931C12.0142 5.88831 12.6662 6.33031 13.1922 6.85431C13.7182 7.37831 14.1622 8.02831 14.6322 8.96631C14.8792 9.45931 15.4822 9.65931 15.9762 9.41231C16.2137 9.29444 16.3945 9.08683 16.4785 8.83537C16.5626 8.58391 16.5431 8.30932 16.4242 8.07231C15.8932 7.01431 15.3342 6.16631 14.6082 5.44231C13.8822 4.71931 13.0312 4.16231 11.9682 3.63331L11.9692 3.63331Z" transform="translate(2 2)" id="path_1" />
    <clipPath id="mask_1">
      <use xlink:href="#path_1" />
    </clipPath>
  </defs>
  <g id="☘️-icon-L">
    <g id="Group">
      <path d="M12.7102 0.0913087C12.2079 -0.13873 11.6141 0.0808081 11.3822 0.582309C11.2715 0.823184 11.2612 1.09825 11.3537 1.3467C11.4462 1.59515 11.6339 1.79653 11.8752 1.90631C14.2002 2.97031 16.8642 4.97031 18.0802 7.73031C18.3022 8.23531 18.8932 8.46431 19.4002 8.24231C19.643 8.13638 19.8336 7.93818 19.9301 7.69147C20.0265 7.44475 20.0208 7.16981 19.9142 6.92731C18.4302 3.55531 15.2872 1.27031 12.7112 0.0903087L12.7102 0.0913087ZM3.6162 0.395309C4.5602 -0.0486913 5.5372 0.414309 5.9922 1.13131L8.0892 4.43531C8.5132 5.10331 8.5422 6.08031 7.8532 6.74931C7.5582 7.03531 7.1472 7.38831 6.7642 7.71631C6.5542 7.89631 6.3542 8.06831 6.1842 8.21931C8.1772 11.6553 10.8412 13.2453 12.0532 13.8263L13.4022 12.1263C14.0377 11.3296 15.1671 11.1311 16.0362 11.6633C16.9916 12.2493 17.9598 12.8141 18.9402 13.3573C19.6082 13.7233 20.0852 14.4863 19.9502 15.3473C19.7072 16.8943 19.0722 18.0213 18.1682 18.7813C17.2782 19.5293 16.2192 19.8463 15.2492 19.9543C13.3402 20.1643 11.5152 19.5933 11.1812 19.4823C11.1022 19.4565 11.0253 19.4248 10.9512 19.3873C10.5942 19.2073 8.4852 18.1173 6.2212 16.3283C3.9822 14.5583 1.4572 11.9963 0.455202 8.83831C-0.281798 6.51831 -0.0637981 4.63831 0.679202 3.19231C1.4092 1.77231 2.5912 0.876309 3.6162 0.395309ZM4.3412 2.26431L6.3452 5.42331C6.1032 5.65031 5.8392 5.87631 5.5552 6.11831C5.3102 6.32631 5.0512 6.54831 4.7782 6.79331C4.11452 7.39218 3.96025 8.37371 4.4082 9.14731C6.7242 13.1823 9.8822 15.0193 11.2952 15.6773C12.1472 16.0753 13.0722 15.7623 13.5862 15.1133L14.9742 13.3643L14.9772 13.3633L14.9832 13.3633L14.9892 13.3653C15.9667 13.9654 16.9573 14.5439 17.9602 15.1003C17.7742 16.2123 17.3472 16.8603 16.8762 17.2563C16.3812 17.6723 15.7412 17.8913 15.0282 17.9703C13.6032 18.1283 12.1562 17.7003 11.8352 17.5953C10.2943 16.79 8.83193 15.8426 7.4672 14.7653C5.3292 13.0753 3.1852 10.8213 2.3652 8.23731C1.7652 6.34931 1.9922 5.02031 2.4632 4.10331C2.9182 3.21731 3.6552 2.61631 4.3412 2.26531L4.3412 2.26431ZM11.9692 3.63331C11.4746 3.38648 10.8735 3.5864 10.6252 4.08031C10.5067 4.31721 10.4873 4.59156 10.5713 4.84278C10.6554 5.094 10.836 5.30144 11.0732 5.41931C12.0142 5.88831 12.6662 6.33031 13.1922 6.85431C13.7182 7.37831 14.1622 8.02831 14.6322 8.96631C14.8792 9.45931 15.4822 9.65931 15.9762 9.41231C16.2137 9.29444 16.3945 9.08683 16.4785 8.83537C16.5626 8.58391 16.5431 8.30932 16.4242 8.07231C15.8932 7.01431 15.3342 6.16631 14.6082 5.44231C13.8822 4.71931 13.0312 4.16231 11.9682 3.63331L11.9692 3.63331Z" transform="translate(2 2)" id="Main" fill="#61BE5A" fill-rule="evenodd" stroke="none" />
    </g>
  </g>
</svg>