<?xml version="1.0" encoding="UTF-8"?>
<svg width="24px" height="24px" viewBox="0 0 24 24" version="1.1" xmlns="http://www.w3.org/2000/svg" xmlns:xlink="http://www.w3.org/1999/xlink">
    <!-- Generator: sketchtool 63.1 (101010) - https://sketch.com -->
    <title>C2B51972-94CF-40D9-B64D-1B67D888286D</title>
    <desc>Created with sketchtool.</desc>
    <defs>
        <path d="M7.99220187,3.13130866 L10.0892019,6.43530866 C10.5132019,7.10330866 10.5422019,8.08030866 9.85320187,8.74930866 C9.55820187,9.03530866 9.14720187,9.38830866 8.76420187,9.71630866 C8.55420187,9.89630866 8.35420187,10.0683087 8.18420187,10.2193087 C10.1772019,13.6553087 12.8412019,15.2453087 14.0532019,15.8263087 L15.4022019,14.1263087 C16.0377092,13.3296448 17.1671112,13.1311205 18.0362019,13.6633087 C18.9916017,14.2493039 19.9598382,14.8141086 20.9402019,15.3573087 C21.6082019,15.7233087 22.0852019,16.4863087 21.9502019,17.3473087 C21.7072019,18.8943087 21.0722019,20.0213087 20.1682019,20.7813087 C19.2782019,21.5293087 18.2192019,21.8463087 17.2492019,21.9543087 C15.3402019,22.1643087 13.5152019,21.5933087 13.1812019,21.4823087 C13.1022318,21.4565344 13.0253423,21.4247757 12.9512019,21.3873087 C12.5942019,21.2073087 10.4852019,20.1173087 8.22120187,18.3283087 C5.98220187,16.5583087 3.45720187,13.9963087 2.45520187,10.8383087 C1.71820187,8.51830866 1.93620187,6.63830866 2.67920187,5.19230866 C3.40920187,3.77230866 4.59120187,2.87630866 5.61620187,2.39530866 C6.56020187,1.95130866 7.53720187,2.41430866 7.99220187,3.13130866 Z M6.34120187,4.26430866 C5.65520187,4.61630866 4.91820187,5.21730866 4.46320187,6.10330866 C3.99220187,7.02030866 3.76520187,8.34930866 4.36520187,10.2373087 C5.18520187,12.8213087 7.32920187,15.0753087 9.46720187,16.7653087 C10.8319331,17.8425556 12.294282,18.7900023 13.8352019,19.5953087 C14.1562019,19.7003087 15.6032019,20.1283087 17.0282019,19.9703087 C17.7412019,19.8913087 18.3812019,19.6723087 18.8762019,19.2563087 C19.3472019,18.8603087 19.7742019,18.2123087 19.9602019,17.1003087 C18.9572542,16.5438517 17.9666808,15.9653781 16.9892019,15.3653087 L16.9892019,15.3653087 L16.9832019,15.3633087 L16.9772019,15.3633087 L16.9742019,15.3643087 L15.5862019,17.1133087 C15.0722019,17.7623087 14.1472019,18.0753087 13.2952019,17.6773087 C11.8822019,17.0193087 8.72420187,15.1823087 6.40820187,11.1473087 C5.96024605,10.3737073 6.11452119,9.39218383 6.77820187,8.79330866 C7.05120187,8.54830866 7.31020187,8.32630866 7.55520187,8.11830866 C7.83920187,7.87630866 8.10320187,7.65030866 8.34520187,7.42330866 L8.34520187,7.42330866 L6.34120187,4.26430866 Z M12.6252019,6.08030866 C12.8734732,5.58639808 13.4745687,5.38648014 13.9692019,5.63330866 L13.9692019,5.63330866 C15.0312019,6.16230866 15.8822019,6.71930866 16.6082019,7.44230866 C17.3342019,8.16630866 17.8932019,9.01430866 18.4242019,10.0723087 C18.5430583,10.3093168 18.5626133,10.5839065 18.4785432,10.8353661 C18.3944732,11.0868256 18.2137033,11.2944411 17.9762019,11.4123087 C17.4822019,11.6593087 16.8792019,11.4593087 16.6322019,10.9663087 C16.1622019,10.0283087 15.7182019,9.37830866 15.1922019,8.85430866 C14.6662019,8.33030866 14.0142019,7.88830866 13.0732019,7.41930866 C12.8359619,7.30143801 12.6553853,7.09399749 12.5713327,6.84277759 C12.48728,6.59155769 12.5066626,6.31721523 12.6252019,6.08030866 Z M13.3822019,2.58230866 C13.6140752,2.08080809 14.2078573,1.86126968 14.7102019,2.09130866 L14.7102019,2.09130866 C17.2872019,3.27030866 20.4302019,5.55530866 21.9142019,8.92730866 C22.020795,9.16980567 22.0265047,9.44475299 21.9300708,9.69146618 C21.8336369,9.93817937 21.6429877,10.136375 21.4002019,10.2423087 C20.8932019,10.4643087 20.3022019,10.2353087 20.0802019,9.73030866 C18.8642019,6.97030866 16.2002019,4.97030866 13.8752019,3.90630866 C13.6338821,3.79652881 13.4462238,3.59515493 13.3537112,3.34670321 C13.2611986,3.0982515 13.271451,2.8231843 13.3822019,2.58230866 Z" id="path-1"></path>
    </defs>
    <g id="Website" stroke="none" stroke-width="1" fill="none" fill-rule="evenodd">
        <g id="3.2-Store-Detail" transform="translate(-179.000000, -446.000000)">
            <g id="Group" transform="translate(135.000000, 136.000000)">
                <g id="2)-Button-/-1)-Large-/-1)-Basic-/-1)-Primary" transform="translate(32.000000, 298.000000)">
                    <g id="Content" transform="translate(12.000000, 12.000000)">
                        <g id="☘️-icon">
                            <g id="Group">
                                <mask id="mask-2" fill="white">
                                    <use xlink:href="#path-1"></use>
                                </mask>
                                <use id="Main" fill="#FFFFFF" xlink:href="#path-1"></use>
                            </g>
                        </g>
                    </g>
                </g>
            </g>
        </g>
    </g>
</svg>