<?xml version="1.0" encoding="utf-8"?>
<svg width="24px" height="24px" viewBox="0 0 24 24" version="1.1" xmlns:xlink="http://www.w3.org/1999/xlink" xmlns="http://www.w3.org/2000/svg">
  <desc>Created with Lunacy</desc>
  <defs>
    <rect width="24" height="24" id="artboard_1" />
    <clipPath id="clip_1">
      <use xlink:href="#artboard_1" clip-rule="evenodd" />
    </clipPath>
  </defs>
  <g id="Icon-/-Quote" clip-path="url(#clip_1)">
    <use xlink:href="#artboard_1" stroke="none" fill="#FFFFFF" />
    <g id="Group">
      <path d="M4.27841 0C4.79292 0 5.21023 0.417312 5.21023 0.931818C5.21023 1.44632 4.79292 1.86364 4.27841 1.86364C3.00057 1.86364 1.95073 2.86236 1.86878 4.11992L1.86364 4.27841L1.863 5.181L6.95914 5.18182C7.85685 5.18182 8.60362 5.83603 8.74764 6.69281L8.76671 6.84602L8.77273 6.99455L8.77273 12.141C8.77273 13.0917 8.03912 13.8728 7.10776 13.9485L6.95914 13.9545L1.81359 13.9545C0.862894 13.9545 0.0817555 13.2209 0.00601831 12.2896L0 12.141L0 4.27841C0 1.9189 1.91859 0 4.27841 0ZM15.5057 0C16.0202 0 16.4375 0.417312 16.4375 0.931818C16.4375 1.44632 16.0202 1.86364 15.5057 1.86364C14.2278 1.86364 13.178 2.86236 13.0961 4.11992L13.0909 4.27841L13.09 5.181L18.1864 5.18182C19.0841 5.18182 19.8309 5.83603 19.9749 6.69281L19.994 6.84602L20 6.99455L20 12.141C20 13.0917 19.2664 13.8728 18.335 13.9485L18.1864 13.9545L13.0409 13.9545C12.0902 13.9545 11.309 13.2209 11.2333 12.2896L11.2273 12.141L11.2273 4.27841C11.2273 1.9189 13.1459 0 15.5057 0ZM6.909 7.045L1.863 7.045L1.863 12.09L6.909 12.09L6.909 7.045ZM18.136 7.045L13.09 7.045L13.09 12.09L18.136 12.09L18.136 7.045Z" transform="translate(2 5)" id="Main" fill="#DADBDB" fill-rule="evenodd" stroke="none" />
    </g>
  </g>
</svg>