<svg width="24" height="24" viewBox="0 0 24 24" fill="none" xmlns="http://www.w3.org/2000/svg">
<path fill-rule="evenodd" clip-rule="evenodd" d="M21.6774 17.6539L14.6804 3.65846C13.5748 1.44719 10.4192 1.44717 9.3137 3.65846L2.31663 17.6539C1.31937 19.6486 2.76988 21.9954 4.99997 21.9954H18.9941C21.2242 21.9954 22.6747 19.6486 21.6774 17.6539ZM11.1026 4.55282C11.4711 3.81573 12.523 3.81573 12.8915 4.55282L19.8885 18.5483C20.221 19.2132 19.7375 19.9954 18.9941 19.9954H4.99997C4.2566 19.9954 3.7731 19.2132 4.10552 18.5483L11.1026 4.55282ZM11.9935 6.81836C11.3405 6.81836 10.8187 7.38466 10.8448 8.0649L11.0602 13.6806C11.0803 14.2029 11.4922 14.6155 11.9935 14.6155C12.4948 14.6155 12.9067 14.2029 12.9267 13.6806L13.1422 8.0649C13.1683 7.38467 12.6464 6.81836 11.9935 6.81836ZM10.6176 17.5784C10.6176 16.8033 11.2203 16.1749 11.9637 16.1749C12.7071 16.1749 13.3098 16.8033 13.3098 17.5784C13.3098 18.3535 12.7071 18.9819 11.9637 18.9819C11.2203 18.9819 10.6176 18.3535 10.6176 17.5784Z" fill="#FF5656"/>
</svg>
