<?xml version="1.0" encoding="UTF-8"?>
<svg width="24px" height="24px" viewBox="0 0 24 24" version="1.1" xmlns="http://www.w3.org/2000/svg" xmlns:xlink="http://www.w3.org/1999/xlink">
    <!-- Generator: sketchtool 63.1 (101010) - https://sketch.com -->
    <title>04D79660-160B-48AB-95D4-1FEE402AF43F</title>
    <desc>Created with sketchtool.</desc>
    <defs>
        <path d="M6,10 C5.37048539,10 4.77770876,9.70361169 4.4,9.2 C4.02229124,8.69638831 3.90373591,8.04433402 4.08,7.44 L5.083,4 L7.999,4 L7.999,8 C7.999,9.1045695 7.1035695,10 5.999,10 L6,10 Z M8.998,10.646 C8.23995183,11.507561 7.14757293,12.000917 6,12 L6,16.5 L10.999,16.5 L10.999,16 C10.9708518,14.9100956 11.5362217,13.8907172 12.4756945,13.337477 C13.4151673,12.7842367 14.5808327,12.7842367 15.5203055,13.337477 C16.4597783,13.8907172 17.0251482,14.9100956 16.997,16 L16.997,20 L17.997,20 L17.997,12 C16.8487576,12.0013623 15.7555879,11.5079784 14.997,10.646 C14.2389518,11.507561 13.1465729,12.000917 11.999,12 C10.8507576,12.0013623 9.75758794,11.5079784 8.999,10.646 L8.998,10.646 Z M15.997,22 L17.997,22 C19.101179,21.9994479 19.9960001,21.1041791 19.996,20 L19.996,11.467 C21.5929685,10.5445991 22.3528291,8.65031621 21.836,6.88 L20.746,3.146 C20.5483261,2.46746642 19.9267407,2.00066637 19.22,2 L4.776,2 C4.069,2 3.446,2.467 3.249,3.146 L2.16,6.88 C1.64317095,8.65031621 2.40303153,10.5445991 4,11.467 L4,20 C4,21.1045695 4.8954305,22 6,22 L15.997,22 Z M14.997,20 L14.997,16 C14.997,15.4477153 14.5492847,15 13.997,15 C13.4447153,15 12.997,15.4477153 12.997,16 L12.997,20 L14.997,20 Z M10.997,20 L10.997,18.5 L6,18.5 L6,20 L10.999,20 L10.997,20 Z M15.997,8 L15.997,4 L18.913,4 L19.916,7.44 C20.1351191,8.19126552 19.8959434,9.0013132 19.3039015,9.51307428 C18.7118595,10.0248354 17.8757288,10.1442826 17.1640754,9.81876372 C16.452422,9.49324483 15.996,8.78256825 15.996,8 L15.997,8 Z M9.998,4 L13.998,4 L13.998,8 C13.998,9.1045695 13.1025695,10 11.998,10 C10.8934305,10 9.998,9.1045695 9.998,8 L9.998,4 Z" id="path-1"></path>
    </defs>
    <g id="Website" stroke="none" stroke-width="1" fill="none" fill-rule="evenodd">
        <g id="3.1-Store" transform="translate(-1155.000000, -288.000000)">
            <g id="Result" transform="translate(135.000000, 280.000000)">
                <g id="End">
                    <g id="2)-Button-/-1)-Large-/-1)-Basic-/-1)-Primary" transform="translate(1008.000000, 0.000000)">
                        <g id="Content" transform="translate(12.000000, 8.000000)">
                            <g id="â˜˜ï¸-icon">
                                <g id="Group">
                                    <mask id="mask-2" fill="white">
                                        <use xlink:href="#path-1"></use>
                                    </mask>
                                    <use id="ðŸŽ¨-Main" fill="#FFFFFF" xlink:href="#path-1"></use>
                                </g>
                            </g>
                        </g>
                    </g>
                </g>
            </g>
        </g>
    </g>
</svg>