<?xml version="1.0" encoding="utf-8"?>
<svg width="21px" height="22px" viewBox="0 0 21 22" version="1.1" xmlns:xlink="http://www.w3.org/1999/xlink" xmlns="http://www.w3.org/2000/svg">
  <desc>Created with Lunacy</desc>
  <defs>
    <path d="M9.05882 18.1176C5.82242 18.1176 2.83186 16.391 1.21365 13.5882C-0.404551 10.7854 -0.404551 7.33222 1.21365 4.52941C2.83186 1.7266 5.82242 0 9.05882 0C14.0619 0 18.1176 4.05577 18.1176 9.05882C18.1176 11.4241 17.2112 13.5776 15.7267 15.1909L20.3267 19.7909C20.8171 20.2987 20.8101 21.1059 20.3109 21.6051C19.8117 22.1042 19.0046 22.1113 18.4968 21.6208L13.71 16.834C12.3504 17.6491 10.7593 18.1176 9.05882 18.1176ZM9.05872 15.5294C12.6323 15.5294 15.5293 12.6324 15.5293 9.05881C15.5293 5.48521 12.6323 2.58823 9.05872 2.58823C5.48512 2.58823 2.58813 5.48521 2.58813 9.05881C2.58813 12.6324 5.48512 15.5294 9.05872 15.5294Z" id="path_1" />
    <clipPath id="mask_1">
      <use xlink:href="#path_1" />
    </clipPath>
  </defs>
  <path d="M9.05882 18.1176C5.82242 18.1176 2.83186 16.391 1.21365 13.5882C-0.404551 10.7854 -0.404551 7.33222 1.21365 4.52941C2.83186 1.7266 5.82242 0 9.05882 0C14.0619 0 18.1176 4.05577 18.1176 9.05882C18.1176 11.4241 17.2112 13.5776 15.7267 15.1909L20.3267 19.7909C20.8171 20.2987 20.8101 21.1059 20.3109 21.6051C19.8117 22.1042 19.0046 22.1113 18.4968 21.6208L13.71 16.834C12.3504 17.6491 10.7593 18.1176 9.05882 18.1176ZM9.05872 15.5294C12.6323 15.5294 15.5293 12.6324 15.5293 9.05881C15.5293 5.48521 12.6323 2.58823 9.05872 2.58823C5.48512 2.58823 2.58813 5.48521 2.58813 9.05881C2.58813 12.6324 5.48512 15.5294 9.05872 15.5294Z" id="🎨-Main" fill="#DADBDB" fill-rule="evenodd" stroke="none" />
</svg>