<svg width="24" height="24" viewBox="0 0 24 24" fill="none" xmlns="http://www.w3.org/2000/svg">
<path fill-rule="evenodd" clip-rule="evenodd" d="M8.4 5.7H4.8V4.8H8.4V5.7ZM10.2 8.4V7.5H13.8V8.4C13.8 9.39411 12.9941 10.2 12 10.2C11.0059 10.2 10.2 9.39411 10.2 8.4ZM8.4 7.5V8.4C8.4 9.39411 7.59411 10.2 6.6 10.2C5.60589 10.2 4.8 9.39411 4.8 8.4V7.5H8.4ZM12 12C10.9666 12.0012 9.98273 11.5572 9.3 10.7814C8.4049 11.7999 7.01242 12.2274 5.7 11.8866V19.2H9.3V15.6C9.3 14.1088 10.5088 12.9 12 12.9C13.4912 12.9 14.7 14.1088 14.7 15.6V19.2H18.3V11.8866C16.9877 12.2231 15.5974 11.7963 14.7 10.7814C14.0173 11.5572 13.0334 12.0012 12 12ZM13.8 21H18.3C19.2941 21 20.1 20.1941 20.1 19.2V11.1C20.0999 11.0078 20.0856 10.9161 20.0577 10.8282C20.665 10.1655 21.0013 9.29888 21 8.4V4.8C21 3.80589 20.1941 3 19.2 3H4.8C3.80589 3 3 3.80589 3 4.8V8.4C3 9.336 3.3573 10.1874 3.9423 10.8282C3.91436 10.9161 3.90009 11.0078 3.9 11.1V19.2C3.9 20.1941 4.70589 21 5.7 21H13.8ZM12.9 19.2V15.6C12.9 15.1029 12.4971 14.7 12 14.7C11.5029 14.7 11.1 15.1029 11.1 15.6V19.2H12.9ZM19.2 5.7V4.8H15.6V5.7H19.2ZM15.6 7.5V8.4C15.6 9.39411 16.4059 10.2 17.4 10.2C18.3941 10.2 19.2 9.39411 19.2 8.4V7.5H15.6ZM13.8 5.7H10.2V4.8H13.8V5.7Z" fill="#DADBDB"/>
<mask id="mask0" mask-type="alpha" maskUnits="userSpaceOnUse" x="3" y="3" width="18" height="18">
<path fill-rule="evenodd" clip-rule="evenodd" d="M8.4 5.7H4.8V4.8H8.4V5.7ZM10.2 8.4V7.5H13.8V8.4C13.8 9.39411 12.9941 10.2 12 10.2C11.0059 10.2 10.2 9.39411 10.2 8.4ZM8.4 7.5V8.4C8.4 9.39411 7.59411 10.2 6.6 10.2C5.60589 10.2 4.8 9.39411 4.8 8.4V7.5H8.4ZM12 12C10.9666 12.0012 9.98273 11.5572 9.3 10.7814C8.4049 11.7999 7.01242 12.2274 5.7 11.8866V19.2H9.3V15.6C9.3 14.1088 10.5088 12.9 12 12.9C13.4912 12.9 14.7 14.1088 14.7 15.6V19.2H18.3V11.8866C16.9877 12.2231 15.5974 11.7963 14.7 10.7814C14.0173 11.5572 13.0334 12.0012 12 12ZM13.8 21H18.3C19.2941 21 20.1 20.1941 20.1 19.2V11.1C20.0999 11.0078 20.0856 10.9161 20.0577 10.8282C20.665 10.1655 21.0013 9.29888 21 8.4V4.8C21 3.80589 20.1941 3 19.2 3H4.8C3.80589 3 3 3.80589 3 4.8V8.4C3 9.336 3.3573 10.1874 3.9423 10.8282C3.91436 10.9161 3.90009 11.0078 3.9 11.1V19.2C3.9 20.1941 4.70589 21 5.7 21H13.8ZM12.9 19.2V15.6C12.9 15.1029 12.4971 14.7 12 14.7C11.5029 14.7 11.1 15.1029 11.1 15.6V19.2H12.9ZM19.2 5.7V4.8H15.6V5.7H19.2ZM15.6 7.5V8.4C15.6 9.39411 16.4059 10.2 17.4 10.2C18.3941 10.2 19.2 9.39411 19.2 8.4V7.5H15.6ZM13.8 5.7H10.2V4.8H13.8V5.7Z" fill="white"/>
</mask>
<g mask="url(#mask0)">
</g>
</svg>
