<svg width="24" height="24" viewBox="0 0 24 24" fill="none" xmlns="http://www.w3.org/2000/svg">
<path fill-rule="evenodd" clip-rule="evenodd" d="M15 2H16C16.2653 2 16.5198 2.10543 16.7073 2.29309L20.7073 6.29535C20.8947 6.48287 21 6.73714 21 7.00226V21C21 21.5523 20.5523 22 20 22H16H8H4C3.44772 22 3 21.5523 3 21V3C3 2.44772 3.44772 2 4 2H9H15ZM14 4H10V6H14V4ZM8 4V7C8 7.55228 8.44772 8 9 8H15C15.5523 8 16 7.55228 16 7V4.41436L19 7.417V20H17V13C17 12.4477 16.5523 12 16 12H8C7.44772 12 7 12.4477 7 13V20H5V4H8ZM15 20H9V14H15V20Z" fill="#FF7A1F"/>
</svg>
