<?xml version="1.0" encoding="UTF-8"?>
<svg width="24px" height="24px" viewBox="0 0 24 24" version="1.1" xmlns="http://www.w3.org/2000/svg" xmlns:xlink="http://www.w3.org/1999/xlink">
    <title>D9040381-0E7F-424C-9160-A9DB7A8F4CA5</title>
    <g id="Main-Feature" stroke="none" stroke-width="1" fill="none" fill-rule="evenodd">
        <g id="00.-Bosung" transform="translate(-797.000000, -104.000000)" fill="#FF7A1F">
            <g id="Dropdown" transform="translate(781.000000, 80.000000)">
                <g id="1" transform="translate(4.000000, 16.000000)">
                    <g id="Dropdown-/-iL">
                        <g id="Icon/Base" transform="translate(12.000000, 8.000000)">
                            <g id="User">
                                <path d="M17.502,2 C19.7103579,2.00110418 21.5,3.79164181 21.5,6 L21.5,18 C21.5,20.2083582 19.7103579,21.9988958 17.502,22 L11.498,22 C9.28964209,21.9988958 7.5,20.2083582 7.5,18 L7.5,17 C7.5,16.4477153 7.94771525,16 8.5,16 C9.05228475,16 9.5,16.4477153 9.5,17 L9.5,18 C9.5,19.1037889 10.3942116,19.9988962 11.498,20 L17.502,20 C18.6057884,19.9988962 19.5,19.1037889 19.5,18 L19.5,6 C19.5,4.8954305 18.6045695,4 17.5,4 L11.506,4 C10.401821,4.00055209 9.50699986,4.89582091 9.507,6 L9.507,7 L9.506,7 C9.506,7.55228475 9.05828475,8 8.506,8 C7.95371525,8 7.506,7.55228475 7.506,7 L7.506,6 C7.506,3.790861 9.296861,2 11.506,2 L17.502,2 Z M13.207,8.293 L16.207,11.293 C16.5973819,11.6834999 16.5973819,12.3165001 16.207,12.707 L13.207,15.707 C12.9559255,15.9669566 12.5841221,16.0712126 12.2344927,15.9796972 C11.8848632,15.8881817 11.6118183,15.6151368 11.5203028,15.2655073 C11.4287874,14.9158779 11.5330434,14.5440745 11.793,14.293 L13.085,13 L3.5,13 C2.94771525,13 2.5,12.5522847 2.5,12 C2.5,11.4477153 2.94771525,11 3.5,11 L13.085,11 L11.793,9.707 C11.4140278,9.31462111 11.4194476,8.69091522 11.8051814,8.30518142 C12.1909152,7.91944763 12.8146211,7.91402779 13.207,8.293 Z" id="Main"></path>
                            </g>
                        </g>
                    </g>
                </g>
            </g>
        </g>
    </g>
</svg>