<?xml version="1.0" encoding="utf-8"?>
<svg width="24px" height="24px" viewBox="0 0 24 24" version="1.1" xmlns:xlink="http://www.w3.org/1999/xlink" xmlns="http://www.w3.org/2000/svg">
  <desc>Created with Lunacy</desc>
  <defs>
    <rect width="24" height="24" id="artboard_1" />
    <clipPath id="clip_1">
      <use xlink:href="#artboard_1" clip-rule="evenodd" />
    </clipPath>
  </defs>
  <g id="Icon-/-Share" clip-path="url(#clip_1)">
    <use xlink:href="#artboard_1" stroke="none" fill="#FFFFFF" />
    <g id="Group">
      <path d="M16 8C15.181 8 14.4196 7.75388 13.7855 7.33158L8.236 10.0133L13.6115 12.7911C14.2781 12.2942 15.1047 12 16 12C18.2091 12 20 13.7909 20 16C20 18.2091 18.2091 20 16 20C13.7909 20 12 18.2091 12 16C12 15.4253 12.1212 14.8789 12.3394 14.385L7.52292 11.8961C6.84729 13.1488 5.52306 14 4 14C1.79086 14 0 12.2091 0 10C0 7.79086 1.79086 6 4 6C5.53358 6 6.86559 6.86304 7.53684 8.1299L12.4136 5.77328C12.1488 5.23886 12 4.63681 12 4C12 1.79086 13.7909 0 16 0C18.2091 0 20 1.79086 20 4C20 6.20914 18.2091 8 16 8ZM14 4C14 2.89543 14.8954 2 16 2C17.1046 2 18 2.89543 18 4C18 5.10457 17.1046 6 16 6C14.8954 6 14 5.10457 14 4ZM4 8C2.89543 8 2 8.8954 2 10C2 11.1046 2.89543 12 4 12C5.10457 12 6 11.1046 6 10C6 8.8954 5.10457 8 4 8ZM16 14C14.8954 14 14 14.8954 14 16C14 17.1046 14.8954 18 16 18C17.1046 18 18 17.1046 18 16C18 14.8954 17.1046 14 16 14Z" transform="translate(2 2)" id="Main" fill="#DADBDB" fill-rule="evenodd" stroke="none" />
    </g>
  </g>
</svg>