<svg width="32" height="32" viewBox="0 0 32 32" fill="none" xmlns="http://www.w3.org/2000/svg">
<path fill-rule="evenodd" clip-rule="evenodd" d="M21.1941 21.2275C20.7262 21.8931 20.0409 22.416 19.1384 22.7915C18.2364 23.1706 17.1671 23.3586 15.9304 23.3586C14.4471 23.3586 13.2246 23.1012 12.2601 22.5857C11.5781 22.2149 11.0222 21.7187 10.5946 21.0997C10.1683 20.4813 9.95465 19.8786 9.95465 19.2928C9.95465 18.9541 10.0824 18.6631 10.3386 18.422C10.5946 18.1785 10.9215 18.0578 11.3173 18.0578C11.6385 18.0578 11.9111 18.1515 12.1324 18.3413C12.3552 18.5302 12.5449 18.8088 12.701 19.1804C12.893 19.6203 13.0992 19.9886 13.3221 20.2835C13.5434 20.5792 13.8569 20.8236 14.2586 21.0149C14.6625 21.2056 15.1926 21.3026 15.8483 21.3026C16.7499 21.3026 17.4832 21.1104 18.0471 20.7224C18.6104 20.3371 18.8936 19.8534 18.8936 19.2747C18.8936 18.8162 18.7407 18.4424 18.437 18.158C18.1324 17.8712 17.7395 17.6529 17.2578 17.5022C16.776 17.3507 16.1321 17.1902 15.325 17.0208C14.2453 16.7895 13.3416 16.5157 12.6145 16.2052C11.8871 15.8934 11.3087 15.4696 10.8824 14.9322C10.4548 14.3935 10.2418 13.7256 10.2418 12.928C10.2418 12.1663 10.4664 11.491 10.9185 10.9004C11.3692 10.309 12.021 9.85432 12.8764 9.53666C13.7306 9.219 14.7348 9.06091 15.8898 9.06091C16.8118 9.06091 17.6101 9.1668 18.2829 9.3762C18.9558 9.58708 19.5135 9.86737 19.9579 10.2162C20.4024 10.5656 20.7277 10.9313 20.9318 11.3151C21.1372 11.6971 21.2397 12.0735 21.2397 12.4359C21.2397 12.769 21.112 13.0713 20.8554 13.3376C20.5997 13.6049 20.2803 13.7395 19.8978 13.7395C19.5481 13.7395 19.2832 13.6585 19.1025 13.4981C18.9215 13.3376 18.7244 13.0754 18.5135 12.7106C18.2397 12.1892 17.9129 11.7816 17.5286 11.4901C17.1458 11.1967 16.5318 11.0511 15.6838 11.0511C14.8992 11.0511 14.2649 11.2083 13.7831 11.5269C13.301 11.8436 13.0601 12.2265 13.0601 12.6729C13.0601 12.9482 13.1431 13.1887 13.3066 13.3898C13.4693 13.5918 13.6957 13.7629 13.9834 13.908C14.2693 14.0521 14.56 14.1654 14.8536 14.2485C15.1475 14.3301 15.6326 14.449 16.3105 14.6062C17.1567 14.7886 17.9232 14.9906 18.6104 15.2098C19.2972 15.4304 19.8815 15.6977 20.3632 16.0106C20.845 16.3259 21.2213 16.7242 21.4909 17.2056C21.7606 17.6855 21.8963 18.2755 21.8963 18.9734C21.8963 19.8092 21.661 20.5605 21.1941 21.2275ZM27.5348 16.0456C27.5348 9.47378 22.2124 4.1462 15.6471 4.1462C15.0331 4.1462 14.4352 4.20552 13.8462 4.29599C12.6613 3.28338 11.1265 2.66675 9.44559 2.66675C5.70248 2.66675 2.66663 5.70455 2.66663 9.45361C2.66663 10.9826 3.17892 12.3894 4.03255 13.5242C3.85803 14.3381 3.75996 15.1795 3.75996 16.0456C3.75996 22.6189 9.08114 27.9468 15.6471 27.9468C16.4909 27.9468 17.3134 27.8545 18.1072 27.687C19.2977 28.728 20.8515 29.361 22.5543 29.361C26.2983 29.361 29.3333 26.3232 29.3333 22.5759C29.3333 20.7224 28.5908 19.0451 27.3869 17.8217C27.4746 17.2391 27.5348 16.6501 27.5348 16.0456Z" fill="white"/>
</svg>
