<?xml version="1.0" encoding="UTF-8"?>
<svg width="24px" height="24px" viewBox="0 0 24 24" version="1.1" xmlns="http://www.w3.org/2000/svg" xmlns:xlink="http://www.w3.org/1999/xlink">
    <title>7579C511-1429-483D-93DF-29266719112B</title>
    <g id="Main-Feature" stroke="none" stroke-width="1" fill="none" fill-rule="evenodd">
        <g id="00.-Bosung" transform="translate(-797.000000, -148.000000)" fill="#FF7A1F">
            <g id="Dropdown" transform="translate(781.000000, 80.000000)">
                <g id="1" transform="translate(4.000000, 16.000000)">
                    <g id="Dropdown-/-iL" transform="translate(0.000000, 44.000000)">
                        <g id="Icon/Base" transform="translate(12.000000, 8.000000)">
                            <g id="User">
                                <path d="M11.85,2 C14.7218807,2 17.05,4.3281193 17.05,7.2 C17.05,8.79596132 16.3310194,10.2239957 15.1992898,11.1778717 C15.7867253,11.4655701 16.3426131,11.8328717 16.8496762,12.2759464 L17.0663636,12.4727415 L15.6936364,13.9272585 C14.0678075,12.3928526 11.6851417,11.972424 9.63234805,12.8577258 C7.65288557,13.7114023 6.34589189,15.6214761 6.25506003,17.7613343 L6.25,18 L6.249,20 L13.05,20 L13.05,22 L5.25,22 C4.73716416,22 4.31449284,21.6139598 4.25672773,21.1166211 L4.25,21 L4.25,18 C4.25,15.0906033 5.90926587,12.4484964 8.50215173,11.1769565 C7.36940595,10.2248404 6.65,8.79643335 6.65,7.2 C6.65,4.3281193 8.9781193,2 11.85,2 Z M17.65,15 L17.65,17 L19.65,17 L19.65,19 L17.65,19 L17.65,21 L15.65,21 L15.65,19 L13.65,19 L13.65,17 L15.65,17 L15.65,15 L17.65,15 Z M11.85,4 C10.0826888,4 8.65,5.4326888 8.65,7.2 C8.65,8.9673112 10.0826888,10.4 11.85,10.4 C13.6173112,10.4 15.05,8.9673112 15.05,7.2 C15.05,5.4326888 13.6173112,4 11.85,4 Z" id="Main"></path>
                            </g>
                        </g>
                    </g>
                </g>
            </g>
        </g>
    </g>
</svg>