<?xml version="1.0" encoding="UTF-8"?>
<svg width="24px" height="24px" viewBox="0 0 24 24" version="1.1" xmlns="http://www.w3.org/2000/svg" xmlns:xlink="http://www.w3.org/1999/xlink">
    <!-- Generator: sketchtool 64 (101010) - https://sketch.com -->
    <title>2D685B63-28CB-4FA0-B60F-3F5B0C21112C</title>
    <desc>Created with sketchtool.</desc>
    <g id="Main-Feature" stroke="none" stroke-width="1" fill="none" fill-rule="evenodd">
        <g id="7.3.2-Edit" transform="translate(-183.000000, -454.000000)" fill="#DADBDB">
            <g id="Info" transform="translate(135.000000, 136.000000)">
                <g id="Input" transform="translate(32.000000, 100.000000)">
                    <g id="Input-/-Label" transform="translate(0.000000, 180.000000)">
                        <g id="Input-/-iLR" transform="translate(0.000000, 26.000000)">
                            <g id="Content" transform="translate(16.000000, 12.000000)">
                                <g id="Icon/Base">
                                    <g id="Sex">
                                        <path d="M16.3163335,3.03058264 C18.2185183,3.28997146 19.6820602,4.9509095 19.7745029,6.89589203 L19.7791423,7.09129571 L19.7791423,8.438469 C19.7791423,8.84963976 19.4714625,9.18894805 19.0737805,9.23871636 L18.9726109,9.24500038 C18.7799112,9.24500038 18.6446806,9.38023099 18.6446806,9.57293073 C18.6446806,10.8938826 18.0239701,12.1328714 17.0328208,12.9158512 L16.9876574,12.9483798 L16.9954129,12.9873024 C17.1555298,13.6492557 17.6683742,14.2142351 18.3390765,14.4291397 L18.4851436,14.4697401 C20.1979591,14.959116 21.5137183,16.3134637 21.9172627,18.0014055 L21.9466732,18.1405984 L21.9673584,18.2026778 C22.1343007,18.832632 21.6385025,19.4600254 20.9905186,19.5211899 L20.8870151,19.5260597 L14.586353,19.525924 C14.6002541,19.5770102 14.6131675,19.6284537 14.6250713,19.6802346 L14.6659585,19.881737 L14.7302913,20.333442 L14.7359437,20.3528796 C14.8910806,21.0405161 14.3550136,21.5922869 13.7552622,21.6484633 L13.6548216,21.6531755 L3.16105067,21.6531755 C2.46358842,21.6531755 1.90497857,20.9929032 2.08070736,20.3297936 L2.08940976,20.3011807 L2.15408025,19.8556345 C2.28552664,19.1107716 2.63352984,18.423816 3.13796971,17.8561296 C2.42118815,16.1162939 2,14.088068 2,12.2672773 C2,9.99279611 2.63615278,8.21954471 3.7572074,7.01193853 C3.84292103,6.78929936 4.02609104,6.61249545 4.258115,6.5370398 C5.34784145,5.62653223 6.78790675,5.15030261 8.47883999,5.15030261 C9.29783733,5.15030261 10.0579832,5.26202198 10.7480008,5.48065807 C10.9026769,5.23662219 11.0994491,5.02166988 11.3274685,4.84589386 L11.4692102,4.74437802 C11.9941799,4.35065072 12.5098378,4.18934219 13.0641228,4.19323416 L13.0978718,4.19359686 L13.2017185,4.08714278 C14.0198406,3.28104055 15.1283603,2.88204286 16.3163335,3.03058264 Z M5.81094132,11.0793213 L5.81108235,12.1254696 C5.81108235,13.1348732 6.32460446,14.0410887 7.14238152,14.5668025 C7.37322898,14.7152044 7.51277493,14.9708059 7.51277493,15.2452393 C7.51277493,16.5967036 6.71214345,17.7562388 5.50045461,18.1275339 C4.64767057,18.4473279 3.98574156,19.1570957 3.78144329,19.9502143 L3.76146453,20.0394037 L13.0517843,20.0394037 L13.0378689,19.9717246 C12.8440825,19.2114407 12.2559863,18.542977 11.506542,18.204818 L11.3435621,18.1374979 C10.1421082,17.7370133 9.30309733,16.5623981 9.30309733,15.2452393 C9.30309733,14.9708059 9.44264328,14.7152044 9.67349075,14.5668025 C10.2895076,14.1707916 10.7235757,13.608003 10.9071021,12.96591 C8.90484639,12.8068368 7.11001087,12.1209921 5.81094132,11.0793213 Z M14.0873351,5.51900267 C13.9066009,5.75998159 13.6066423,5.88016235 13.3095171,5.83064149 C12.9582585,5.7720984 12.7339467,5.81215407 12.4005121,6.0606778 C12.3403743,6.10076971 12.2860407,6.14482769 12.2377552,6.19233839 C13.9514056,7.33889305 14.95768,9.4066594 14.95768,12.2672773 C14.95768,13.9953972 14.5782743,15.9103744 13.9273706,17.5897213 L13.797,17.912 L20.1962697,17.9129261 L20.1495833,17.8021451 C19.7861032,17.0113245 19.1005565,16.3834067 18.2610374,16.0883911 L18.0788449,16.0303308 C16.4986967,15.6585312 15.3299252,14.1907717 15.3299252,12.5508927 C15.3299252,12.2614634 15.48501,11.9942246 15.736305,11.8506274 C16.463441,11.4351211 16.9656555,10.6299586 17.025592,9.74985698 L17.0316178,9.57293073 C17.0316178,8.81914311 17.4465524,8.17479491 18.0639032,7.8524045 L18.1656541,7.80224869 L18.1660795,7.09129571 C18.1660795,5.91386964 17.3324984,4.88024225 16.2556219,4.65558048 L16.1073226,4.6300215 C15.3081125,4.53012025 14.5825947,4.85865663 14.0873351,5.51900267 Z M13.3250071,12.9150528 L13.0568722,12.9453485 C12.8917175,12.9608434 12.7248092,12.9732351 12.5567115,12.9824929 C12.3846373,13.9712927 11.8598853,14.8559934 11.0861891,15.5211486 L10.9649419,15.6196117 L10.968672,15.6349486 C11.0828891,16.0508595 11.3750872,16.3989474 11.7627286,16.5709622 L11.8818018,16.6171762 C12.0848704,16.6933269 12.2811848,16.7837237 12.4693134,16.8870584 C12.9418776,15.63046 13.247285,14.225848 13.3250071,12.9150528 Z M4.21903357,9.17357394 L4.20291734,9.20637254 C3.81788306,10.0217669 3.61306276,11.0418038 3.61306276,12.2672773 C3.61306276,13.7331535 3.92836304,15.376841 4.46744622,16.8303479 C4.57005366,16.7755675 4.67466716,16.7263772 4.78149049,16.6808684 L4.98007307,16.6014893 C5.42014033,16.466084 5.73640971,16.1155959 5.85174655,15.6499217 L5.85660262,15.622377 L5.75492885,15.5381763 C4.83993334,14.7460301 4.26453806,13.6050472 4.20342931,12.3483866 L4.19801959,12.1254696 L4.19801959,9.36021915 C4.19801959,9.29658558 4.2053889,9.23467321 4.21932065,9.17528891 C4.21972301,9.17492046 4.21937821,9.17424723 4.21903357,9.17357394 Z M8.47883999,6.76336537 C7.23044819,6.76336537 6.18320529,7.07515012 5.38392897,7.70023032 C5.87139683,9.76491165 8.52419001,11.3898421 11.8113213,11.3898421 C12.3200404,11.3898421 12.823411,11.3576835 13.2993685,11.2951887 C13.1070353,9.40148852 12.3430833,8.10464205 11.1270506,7.39819227 C11.104044,7.39886112 11.0816271,7.39660851 11.0591258,7.39339404 C10.8610142,7.36509238 10.6900628,7.26704405 10.567568,7.12764412 C9.95750303,6.8845924 9.2572765,6.76336537 8.47883999,6.76336537 Z" id="Main"></path>
                                    </g>
                                </g>
                            </g>
                        </g>
                    </g>
                </g>
            </g>
        </g>
    </g>
</svg>