<?xml version="1.0" encoding="utf-8"?>
<svg width="25px" height="25px" viewBox="0 0 25 25" version="1.1" xmlns:xlink="http://www.w3.org/1999/xlink" xmlns="http://www.w3.org/2000/svg">
  <desc>Created with Lunacy</desc>
  <defs>
    <linearGradient x1="0.5" y1="0" x2="0.5" y2="1" id="gradient_1">
      <stop offset="0" stop-color="#00D6F7" />
      <stop offset="1" stop-color="#007ED7" />
    </linearGradient>
  </defs>
  <g id="Group" transform="translate(0.5 0.5)">
    <path d="M9.73533 1.10959C14.6593 1.10959 18.6511 5.10527 18.6511 10.0341C18.6511 10.4875 18.606 10.9293 18.5402 11.3662C19.4431 12.2838 20 13.5418 20 14.9319C20 17.7423 17.7238 20.0207 14.9158 20.0207C13.6387 20.0207 12.4733 19.546 11.5804 18.7652C10.9851 18.8908 10.3682 18.96 9.73533 18.96C4.81089 18.96 0.82 14.9641 0.82 10.0341C0.82 9.38458 0.893556 8.75348 1.02444 8.14307C0.384222 7.29197 0 6.23688 0 5.09015C0 2.27835 2.27689 0 5.08422 0C6.34489 0 7.496 0.462478 8.38467 1.22193C8.82644 1.15408 9.27489 1.10959 9.73533 1.10959ZM12.3538 15.0936C13.0307 14.812 13.5447 14.4198 13.8956 13.9206C14.2458 13.4203 14.4222 12.8568 14.4222 12.23C14.4222 11.7065 14.3204 11.2641 14.1182 10.9041C13.916 10.5431 13.6338 10.2444 13.2724 10.0079C12.9111 9.7732 12.4729 9.57277 11.9578 9.40727C11.4424 9.24288 10.8676 9.09139 10.2329 8.95458C9.72444 8.83668 9.36067 8.74748 9.14022 8.6863C8.92 8.62402 8.702 8.53904 8.48756 8.43093C8.27178 8.32215 8.102 8.19379 7.98 8.0423C7.85733 7.89148 7.79511 7.71107 7.79511 7.50464C7.79511 7.16985 7.97578 6.88266 8.33733 6.64508C8.69867 6.40617 9.17444 6.28827 9.76289 6.28827C10.3989 6.28827 10.8593 6.39749 11.1464 6.6175C11.4347 6.83617 11.6798 7.14182 11.8851 7.53289C12.0433 7.80651 12.1911 8.00315 12.3269 8.1235C12.4624 8.24385 12.6611 8.30457 12.9233 8.30457C13.2102 8.30457 13.4498 8.20358 13.6416 8.00315C13.834 7.80339 13.9298 7.57671 13.9298 7.3269C13.9298 7.05506 13.8529 6.77277 13.6989 6.48625C13.5458 6.1984 13.3018 5.92412 12.9684 5.66207C12.6351 5.40047 12.2169 5.19025 11.7122 5.03208C11.2076 4.87503 10.6089 4.79562 9.91733 4.79562C9.05111 4.79562 8.298 4.91419 7.65733 5.15243C7.01578 5.39068 6.52689 5.7317 6.18889 6.17527C5.84978 6.61817 5.68133 7.12469 5.68133 7.69595C5.68133 8.29412 5.84111 8.79508 6.16178 9.19905C6.48156 9.60214 6.91533 9.92002 7.46089 10.1538C8.00622 10.3867 8.684 10.592 9.49378 10.7656C10.0991 10.8926 10.582 11.0129 10.9433 11.1266C11.3047 11.2396 11.5993 11.4033 11.8278 11.6184C12.0556 11.8318 12.1702 12.1121 12.1702 12.456C12.1702 12.89 11.9578 13.2528 11.5353 13.5418C11.1124 13.8327 10.5624 13.9769 9.88622 13.9769C9.39444 13.9769 8.99689 13.9041 8.694 13.7611C8.39267 13.6176 8.15756 13.4343 7.99156 13.2125C7.82444 12.9914 7.66978 12.7151 7.52578 12.3852C7.40867 12.1065 7.26644 11.8976 7.09933 11.7559C6.93333 11.6135 6.72889 11.5433 6.488 11.5433C6.19111 11.5433 5.946 11.6338 5.754 11.8164C5.56178 11.9973 5.466 12.2155 5.466 12.4695C5.466 12.9089 5.62622 13.3609 5.946 13.8247C6.26667 14.289 6.68356 14.6611 7.19511 14.9392C7.91844 15.3258 8.83533 15.5189 9.94778 15.5189C10.8753 15.5189 11.6773 15.3779 12.3538 15.0936Z" transform="translate(2 2)" id="Main" fill="url(#gradient_1)" fill-rule="evenodd" stroke="none" />
  </g>
</svg>