<?xml version="1.0" encoding="UTF-8"?>
<svg width="32px" height="32px" viewBox="0 0 32 32" version="1.1" xmlns="http://www.w3.org/2000/svg" xmlns:xlink="http://www.w3.org/1999/xlink">
    <title>56C4B3FF-AFB8-41F9-A66A-A39466D3235F</title>
    <g id="Main-Feature" stroke="none" stroke-width="1" fill="none" fill-rule="evenodd">
        <g id="1.-Home-page" transform="translate(-1081.000000, -3736.000000)" fill="#0B0F17">
            <g id="Menu-/-Footer" transform="translate(0.000000, 3367.000000)">
                <g id="8.-Footer">
                    <g id="Group-15" transform="translate(0.000000, 329.000000)">
                        <g id="Copy-Rights">
                            <g id="Icon/_Social/Skype" transform="translate(1081.000000, 40.000000)">
                                <g id="Group">
                                    <path d="M21.1940741,21.2274628 C20.7262222,21.8930389 20.0408889,22.4159493 19.1383704,22.7914481 C18.2364444,23.1705062 17.1671111,23.3585523 15.9303704,23.3585523 C14.4471111,23.3585523 13.2245926,23.1011012 12.2601481,22.585606 C11.5780741,22.2148527 11.0222222,21.7186366 10.5946667,21.099627 C10.1682963,20.4812107 9.95466667,19.8785142 9.95466667,19.2927241 C9.95466667,18.954004 10.0823704,18.6630369 10.3386667,18.421899 C10.5946667,18.1783883 10.9214815,18.057671 11.3173333,18.057671 C11.6385185,18.057671 11.9111111,18.1513974 12.1324444,18.3412231 C12.3552593,18.5301589 12.5448889,18.8086687 12.701037,19.1803118 C12.893037,19.6201734 13.0992593,19.9885538 13.3220741,20.2833767 C13.5434074,20.5790895 13.8568889,20.82349 14.2586667,21.0147987 C14.6625185,21.2055142 15.1925926,21.3025032 15.8482963,21.3025032 C16.7499259,21.3025032 17.4832593,21.1103047 18.0471111,20.7223486 C18.6103704,20.3370618 18.8936296,19.853303 18.8936296,19.2746314 C18.8936296,18.8160838 18.7407407,18.4423646 18.437037,18.1579227 C18.1324444,17.871108 17.7395556,17.6528085 17.2577778,17.5021344 C16.776,17.3505705 16.1321481,17.1901085 15.325037,17.0207484 C14.2453333,16.7893984 13.3416296,16.5156342 12.6145185,16.2050913 C11.8871111,15.893362 11.3087407,15.4695169 10.8823704,14.932073 C10.4548148,14.3934428 10.2417778,13.7254938 10.2417778,12.9279294 C10.2417778,12.166254 10.4663704,11.4908899 10.9185185,10.9003542 C11.3691852,10.3089287 12.021037,9.85423692 12.8764444,9.53657556 C13.7306667,9.2189142 14.7348148,9.06082503 15.8897778,9.06082503 C16.8118519,9.06082503 17.6100741,9.16671215 18.282963,9.37611357 C18.9558519,9.586998 19.5134815,9.86728744 19.9579259,10.2160921 C20.4023704,10.5654899 20.7277037,10.9312009 20.9318519,11.3150046 C21.1371852,11.6970287 21.2397037,12.0734174 21.2397037,12.4358658 C21.2397037,12.7689505 21.112,13.0711885 20.8554074,13.3375376 C20.5997037,13.6047765 20.2802963,13.7394341 19.8977778,13.7394341 C19.5481481,13.7394341 19.2832593,13.6584616 19.1025185,13.4979996 C18.9214815,13.3375376 18.7244444,13.0753409 18.5134815,12.7105197 C18.2397037,12.1890924 17.9128889,11.7815605 17.5285926,11.4900001 C17.1457778,11.1966602 16.5318519,11.0510283 15.6838519,11.0510283 C14.8992593,11.0510283 14.2648889,11.2082277 13.7831111,11.5267789 C13.301037,11.8435504 13.0601481,12.2264643 13.0601481,12.6728512 C13.0601481,12.9480984 13.1431111,13.1886431 13.3066667,13.3897396 C13.4693333,13.591726 13.6957037,13.7628657 13.9834074,13.9079043 C14.2693333,14.0520532 14.56,14.1653554 14.8536296,14.2484041 C15.1475556,14.3299698 15.6325926,14.4489074 16.3105185,14.6061068 C17.1567407,14.7885174 17.9232593,14.9905038 18.6103704,15.2096931 C19.2971852,15.4303654 19.8814815,15.6976043 20.3632593,16.01052 C20.845037,16.3258086 21.2213333,16.7241458 21.490963,17.2055318 C21.7605926,17.6854348 21.8962963,18.2753773 21.8962963,18.9732832 C21.8962963,19.8091092 21.661037,20.5604036 21.1940741,21.2274628 M27.5348148,16.0455191 C27.5348148,9.47369582 22.2124444,4.14612032 15.6471111,4.14612032 C15.0331852,4.14612032 14.4352593,4.20544084 13.8462222,4.29590462 C12.6613333,3.28330342 11.1265185,2.66666667 9.44562963,2.66666667 C5.70251852,2.66666667 2.66666667,5.70447026 2.66666667,9.45352684 C2.66666667,10.9825131 3.17896296,12.3892992 4.03259259,13.5241006 C3.85807407,14.3379781 3.76,15.1794396 3.76,16.0455191 C3.76,22.6188254 9.08118519,27.9466975 15.6471111,27.9466975 C16.490963,27.9466975 17.3134815,27.8544541 18.1072593,27.6868737 C19.2977778,28.7279487 20.8515556,29.3608986 22.5543704,29.3608986 C26.2983704,29.3608986 29.3333333,26.323095 29.3333333,22.5758181 C29.3333333,20.7223486 28.5908148,19.045061 27.386963,17.8215754 C27.4746667,17.2390479 27.5348148,16.6499952 27.5348148,16.0455191" id="Main"></path>
                                </g>
                            </g>
                        </g>
                    </g>
                </g>
            </g>
        </g>
    </g>
</svg>