<?xml version="1.0" encoding="UTF-8"?>
<svg width="24px" height="24px" viewBox="0 0 24 24" version="1.1" xmlns="http://www.w3.org/2000/svg" xmlns:xlink="http://www.w3.org/1999/xlink">
    <title>03B370B1-276F-4819-B96E-F6D543DE5B38</title>
    <g id="New-Post" stroke="none" stroke-width="1" fill="none" fill-rule="evenodd">
        <g id="6.03" transform="translate(-1065.000000, -288.000000)" fill="#61BE5A">
            <g id="Inphut" transform="translate(334.000000, 276.000000)">
                <g id="Icon/_Feature/Search" transform="translate(731.000000, 12.000000)">
                    <g id="Search">
                        <path d="M11.0588237,1 C16.0618738,1 20.1176472,5.05577344 20.1176472,10.0588235 C20.1176472,12.4241414 19.2111154,14.5777275 17.7265361,16.1910975 L22.326706,20.7909412 C22.8171406,21.2987256 22.8101267,22.1058744 22.3109418,22.6050593 C21.8117569,23.1042442 21.0046081,23.1112582 20.4968237,22.6208235 L15.7097138,17.834198 C14.3501995,18.649151 12.7592231,19.1176471 11.0588237,19.1176471 C7.8224177,19.1176471 4.83185524,17.3910451 3.21365225,14.5882353 C1.59544925,11.7854256 1.59544925,8.3322215 3.21365225,5.52941173 C4.83185524,2.72660195 7.8224177,1 11.0588237,1 Z M11.0588237,3.58823529 C7.48521646,3.58823529 4.58823543,6.48521632 4.58823543,10.0588235 C4.58823543,13.6324307 7.48521646,16.5294118 11.0588237,16.5294118 C14.6324309,16.5294118 17.5294119,13.6324307 17.5294119,10.0588235 C17.5294119,6.48521632 14.6324309,3.58823529 11.0588237,3.58823529 Z" id="Main"></path>
                    </g>
                </g>
            </g>
        </g>
    </g>
</svg>