<?xml version="1.0" encoding="utf-8"?>
<svg width="20px" height="20px" viewBox="0 0 20 20" version="1.1" xmlns:xlink="http://www.w3.org/1999/xlink" xmlns="http://www.w3.org/2000/svg">
  <desc>Created with Lunacy</desc>
  <defs>
    <path d="M20 10C20 15.523 15.523 20 10 20C4.477 20 0 15.523 0 10C0 4.477 4.477 0 10 0C15.523 0 20 4.477 20 10ZM10 18C14.4183 18 18 14.4183 18 10C18 5.58172 14.4183 2 10 2C5.58172 2 2 5.58172 2 10C2 14.4183 5.58172 18 10 18ZM10 4C10.5523 4 11 4.44772 11 5L11 9.5L14.6 12.2C15.0418 12.5314 15.1314 13.1582 14.8 13.6C14.4686 14.0418 13.8418 14.1314 13.4 13.8L9.4 10.8C9.14819 10.6111 9 10.3148 9 10L9 5C9 4.44772 9.44771 4 10 4Z" id="path_1" />
    <clipPath id="mask_1">
      <use xlink:href="#path_1" />
    </clipPath>
  </defs>
  <path d="M20 10C20 15.523 15.523 20 10 20C4.477 20 0 15.523 0 10C0 4.477 4.477 0 10 0C15.523 0 20 4.477 20 10ZM10 18C14.4183 18 18 14.4183 18 10C18 5.58172 14.4183 2 10 2C5.58172 2 2 5.58172 2 10C2 14.4183 5.58172 18 10 18ZM10 4C10.5523 4 11 4.44772 11 5L11 9.5L14.6 12.2C15.0418 12.5314 15.1314 13.1582 14.8 13.6C14.4686 14.0418 13.8418 14.1314 13.4 13.8L9.4 10.8C9.14819 10.6111 9 10.3148 9 10L9 5C9 4.44772 9.44771 4 10 4Z" id="Main" fill="#DADBDB" fill-rule="evenodd" stroke="none" />
</svg>