<?xml version="1.0" encoding="UTF-8"?>
<svg width="16px" height="16px" viewBox="0 0 16 16" version="1.1" xmlns="http://www.w3.org/2000/svg" xmlns:xlink="http://www.w3.org/1999/xlink">
    <title>C1E2A59D-DE8C-4437-804C-C05A8439FEF7</title>
    <g id="Main-Feature" stroke="none" stroke-width="1" fill="none" fill-rule="evenodd">
        <g id="1.-Home-page" transform="translate(-341.000000, -981.000000)" fill="#DADBDB">
            <g id="Danh-sách-tin" transform="translate(0.000000, 584.000000)">
                <g id="List" transform="translate(135.000000, 164.000000)">
                    <g id="Left">
                        <g id="Card-/-Product---Home" transform="translate(0.000000, 160.000000)">
                            <g id="Infomation" transform="translate(206.000000, 0.000000)">
                                <g id="3" transform="translate(0.000000, 70.000000)">
                                    <g id="Icon-/-Timer" transform="translate(0.000000, 3.000000)">
                                        <g id="Timer">
                                            <path d="M13.3333333,8 C13.3333333,10.9455187 10.9455187,13.3333333 8,13.3333333 C5.05448133,13.3333333 2.66666667,10.9455187 2.66666667,8 C2.66666667,5.05448133 5.05448133,2.66666667 8,2.66666667 C10.9455187,2.66666667 13.3333333,5.05448133 13.3333333,8 Z M14.6666667,8 C14.6666667,11.682 11.682,14.6666667 8,14.6666667 C4.318,14.6666667 1.33333333,11.682 1.33333333,8 C1.33333333,4.318 4.318,1.33333333 8,1.33333333 C11.682,1.33333333 14.6666667,4.318 14.6666667,8 Z M8.66666667,4.66666667 C8.66666667,4.29847683 8.36818983,4 8,4 C7.63181017,4 7.33333333,4.29847683 7.33333333,4.66666667 L7.33333333,8 C7.33333333,8.2098382 7.43212944,8.40743041 7.6,8.53333333 L10.2666667,10.5333333 C10.5612185,10.7542472 10.9790861,10.6945519 11.2,10.4 C11.4209139,10.1054481 11.3612185,9.68758057 11.0666667,9.46666667 L8.66666667,7.66666667 L8.66666667,4.66666667 Z" id="Main"></path>
                                        </g>
                                    </g>
                                </g>
                            </g>
                        </g>
                    </g>
                </g>
            </g>
        </g>
    </g>
</svg>