<svg width="24" height="24" viewBox="0 0 24 24" fill="none" xmlns="http://www.w3.org/2000/svg">
<path fill-rule="evenodd" clip-rule="evenodd" d="M13 3.98996L12 3.98753H11H6.5C6.22386 3.98753 6 4.20999 6 4.48441V17.4071V17.8875V18.9539V19.3005C6 19.7867 6.63021 19.9835 6.91011 19.5847L7.10959 19.3005L7.72346 18.4258L8 18.0317L8.07396 17.9264C8.43412 17.4132 9.17616 17.3544 9.61352 17.8045L11.6116 19.8607C11.8188 20.0739 12.1664 20.0607 12.3565 19.8324L13.9923 17.8685C14.3944 17.3857 15.1403 17.3888 15.5383 17.8749L16 18.4388L16.2155 18.702L16.8554 19.4836L17.1122 19.7972C17.4092 20.1599 18 19.9512 18 19.4836V19.0793V18.0717V17.7324V4.49781C18 4.22386 17.7769 4.0016 17.5012 4.00093L13 3.98996ZM17.5061 2.01341L12.0049 2H12H6.5C5.11929 2 4 3.11231 4 4.48441V19.3005C4 21.7317 7.15102 22.7158 8.55055 20.7217L9.01912 20.054L10.173 21.2414C11.2086 22.3071 12.9466 22.241 13.8972 21.0997L14.756 20.0686L15.5608 21.0516C17.0458 22.8652 20 21.8217 20 19.4836V4.49781C20 3.12808 18.8844 2.01676 17.5061 2.01341ZM12.9998 6.96881C12.9998 6.41997 12.552 5.97505 11.9998 5.97505C11.4475 5.97505 10.9998 6.41997 10.9998 6.96881V7.32291C9.86915 7.48349 9 8.4497 9 9.61765C9 10.898 10.0444 11.9358 11.3327 11.9358H12.6691C12.8529 11.9358 13.0018 12.0839 13.0018 12.2665C13.0018 12.4491 12.8529 12.5971 12.6691 12.5971H10.3335C9.7812 12.5971 9.33349 13.0421 9.33349 13.5909C9.33349 14.1397 9.7812 14.5847 10.3335 14.5847H10.9998V14.9153C10.9998 15.4642 11.4475 15.9091 11.9998 15.9091C12.552 15.9091 12.9998 15.4642 12.9998 14.9153V14.5616C14.1315 14.402 15.0018 13.4352 15.0018 12.2665C15.0018 10.9862 13.9574 9.94831 12.6691 9.94831H11.3327C11.149 9.94831 11 9.80027 11 9.61765C11 9.43504 11.149 9.287 11.3327 9.287H13.6683C14.2206 9.287 14.6683 8.84207 14.6683 8.29323C14.6683 7.74439 14.2206 7.29947 13.6683 7.29947H12.9998V6.96881Z" fill="#61BE5A"/>
</svg>
