<svg width="24" height="24" viewBox="0 0 24 24" fill="none" xmlns="http://www.w3.org/2000/svg">
<path fill-rule="evenodd" clip-rule="evenodd" d="M12 15.5997C11.3158 15.5997 10.7662 15.6474 10.299 15.7176C8.36875 16.0083 6.75 18.028 6.75 20.0999C6.75 20.597 6.35825 21 5.875 21C5.39175 21 5 20.597 5 20.0999C5 17.7661 6.42188 15.4737 8.465 14.4449C6.28639 12.8605 5.35547 10.0078 6.16355 7.3922C6.97163 4.77661 9.33278 3 12.0009 3C14.669 3 17.0301 4.77661 17.8382 7.3922C18.6463 10.0078 17.7154 12.8605 15.5367 14.4449C17.5781 15.4737 19 17.7661 19 20.0999C19 20.597 18.6082 21 18.125 21C17.6418 21 17.25 20.597 17.25 20.0999C17.25 18.028 15.6313 16.0083 13.701 15.7176C13.1376 15.6354 12.569 15.596 12 15.5997ZM12 13.7996C9.58375 13.7996 7.625 11.7847 7.625 9.2993C7.625 6.81386 9.58375 4.79902 12 4.79902C14.4162 4.79902 16.375 6.81386 16.375 9.2993C16.375 11.7847 14.4162 13.7996 12 13.7996Z" fill="#DADBDB"/>
<mask id="mask0" mask-type="alpha" maskUnits="userSpaceOnUse" x="5" y="3" width="14" height="18">
<path fill-rule="evenodd" clip-rule="evenodd" d="M12 15.5997C11.3158 15.5997 10.7662 15.6474 10.299 15.7176C8.36875 16.0083 6.75 18.028 6.75 20.0999C6.75 20.597 6.35825 21 5.875 21C5.39175 21 5 20.597 5 20.0999C5 17.7661 6.42188 15.4737 8.465 14.4449C6.28639 12.8605 5.35547 10.0078 6.16355 7.3922C6.97163 4.77661 9.33278 3 12.0009 3C14.669 3 17.0301 4.77661 17.8382 7.3922C18.6463 10.0078 17.7154 12.8605 15.5367 14.4449C17.5781 15.4737 19 17.7661 19 20.0999C19 20.597 18.6082 21 18.125 21C17.6418 21 17.25 20.597 17.25 20.0999C17.25 18.028 15.6313 16.0083 13.701 15.7176C13.1376 15.6354 12.569 15.596 12 15.5997ZM12 13.7996C9.58375 13.7996 7.625 11.7847 7.625 9.2993C7.625 6.81386 9.58375 4.79902 12 4.79902C14.4162 4.79902 16.375 6.81386 16.375 9.2993C16.375 11.7847 14.4162 13.7996 12 13.7996Z" fill="white"/>
</mask>
<g mask="url(#mask0)">
</g>
</svg>
