<?xml version="1.0" encoding="UTF-8"?>
<svg width="24px" height="24px" viewBox="0 0 24 24" version="1.1" xmlns="http://www.w3.org/2000/svg" xmlns:xlink="http://www.w3.org/1999/xlink">
    <!-- Generator: sketchtool 63.1 (101010) - https://sketch.com -->
    <title>DB2A83DC-39A1-4D1A-A883-92128AC1E202</title>
    <desc>Created with sketchtool.</desc>
    <defs>
        <path d="M16,5 C17.1045695,5 18,5.8954305 18,7 L18,18.727 C18,19.1236526 17.7656345,19.4828345 17.4025373,19.642502 C17.03944,19.8021694 16.6162939,19.7321372 16.324,19.464 L12.676,16.119 C12.2935984,15.7682022 11.7064016,15.7682022 11.324,16.119 L7.676,19.464 C7.38370606,19.7321372 6.96055995,19.8021694 6.59746273,19.642502 C6.23436551,19.4828345 6,19.1236526 6,18.727 L6,7 C6,5.8954305 6.8954305,5 8,5 L16,5 Z M16,7 L8,7 L8,16.453 L9.972,14.6451968 C11.0714047,13.636653 12.7350626,13.5946303 13.8811969,14.5188615 L14.0276688,14.644893 L16,16.453 L16,7 Z" id="path-1"></path>
    </defs>
    <g id="Website" stroke="none" stroke-width="1" fill="none" fill-rule="evenodd">
        <g id="8.-More" transform="translate(-797.000000, -258.000000)">
            <g id="Dropdown" transform="translate(781.000000, 80.000000)">
                <g id="1" transform="translate(4.000000, 161.000000)">
                    <g transform="translate(0.000000, 9.000000)" id="☘️-iL">
                        <g transform="translate(12.000000, 8.000000)">
                            <g id="Group">
                                <circle id="Base" fill="#FFFFFF" opacity="0" cx="12" cy="12" r="12"></circle>
                                <mask id="mask-2" fill="white">
                                    <use xlink:href="#path-1"></use>
                                </mask>
                                <use id="Main" fill="#FF7A1F" xlink:href="#path-1"></use>
                            </g>
                        </g>
                    </g>
                </g>
            </g>
        </g>
    </g>
</svg>