<svg width="32" height="32" viewBox="0 0 32 32" fill="none" xmlns="http://www.w3.org/2000/svg">
<path fill-rule="evenodd" clip-rule="evenodd" d="M25.9418 26.5561C27.3383 26.322 28.4688 25.0732 28.7348 23.4341C29.0008 21.639 29.2668 18.9854 29.3333 15.7073C29.3333 12.4293 29.0008 9.77561 28.7348 7.98049C28.4688 6.34146 27.3383 5.09268 25.9418 4.85854C23.6808 4.46829 20.0897 4 15.9667 4C11.8437 4 8.18616 4.46829 5.99165 4.85854C4.59514 5.09268 3.46463 6.34146 3.19863 7.98049C2.93263 9.77561 2.66663 12.4293 2.66663 15.7073C2.66663 18.9854 2.93263 21.639 3.19863 23.4341C3.46463 25.0732 4.59514 26.322 5.99165 26.5561C8.25266 26.9463 11.9102 27.4146 15.9667 27.4146C20.0897 27.4146 23.7473 26.9463 25.9418 26.5561ZM21.2867 15.7073L13.3067 10.2439V21.1707L21.2867 15.7073Z" fill="white"/>
</svg>
