<svg width="24" height="24" viewBox="0 0 24 24" fill="none" xmlns="http://www.w3.org/2000/svg">
<path fill-rule="evenodd" clip-rule="evenodd" d="M7 17C7 17.5523 7.44771 18 8 18H19C19.5523 18 20 17.5523 20 17V10C20 9.4477 19.5523 9 19 9V14C19 15.6569 17.6569 17 16 17H7ZM19 7C19 5.34315 17.6569 4 16 4H5C3.34315 4 2 5.34315 2 7V14C2 15.6569 3.34315 17 5 17C5 18.6569 6.34315 20 8 20H19C20.6569 20 22 18.6569 22 17V10C22 8.34315 20.6569 7 19 7ZM16 15C16.5523 15 17 14.5523 17 14V7C17 6.44772 16.5523 6 16 6H5C4.44772 6 4 6.44772 4 7V14C4 14.5523 4.44772 15 5 15H16ZM16 13C16 12.4477 15.5523 12 15 12C14.4477 12 14 12.4477 14 13C14 13.5523 14.4477 14 15 14C15.5523 14 16 13.5523 16 13ZM6 7C6.55228 7 7 7.44772 7 8C7 8.55229 6.55228 9 6 9C5.44772 9 5 8.55229 5 8C5 7.44772 5.44772 7 6 7ZM13 10.5C13 9.3954 12.1046 8.5 11 8.5C9.89543 8.5 9 9.3954 9 10.5C9 11.6046 9.89543 12.5 11 12.5C12.1046 12.5 13 11.6046 13 10.5Z" fill="#DADBDB"/>
</svg>
