<?xml version="1.0" encoding="UTF-8"?>
<svg width="24px" height="24px" viewBox="0 0 24 24" version="1.1" xmlns="http://www.w3.org/2000/svg" xmlns:xlink="http://www.w3.org/1999/xlink">
    <!-- Generator: sketchtool 63.1 (101010) - https://sketch.com -->
    <title>A74A0045-E5AE-4F33-9532-36892075FCE4</title>
    <desc>Created with sketchtool.</desc>
    <g id="Website" stroke="none" stroke-width="1" fill="none" fill-rule="evenodd">
        <g id="10.1.1-Sign-In" transform="translate(-860.000000, -264.000000)" fill="#FFFFFF">
            <g id="Card" transform="translate(435.000000, 112.000000)">
                <g id="Social" transform="translate(32.000000, 100.000000)">
                    <g id="Btn-Social" transform="translate(0.000000, 40.000000)">
                        <g id="Btn-/-Social-/-Facebook" transform="translate(348.000000, 0.000000)">
                            <g id="Content" transform="translate(45.000000, 12.000000)">
                                <g id="☘️-icon">
                                    <g id="Group">
                                        <path d="M4.38095238,2 C3.071659,2 2,3.071659 2,4.38095238 L2,19.6190476 C2,20.928341 3.071659,22 4.38095238,22 L19.6190476,22 C20.928341,22 22,20.928341 22,19.6190476 L22,4.38095238 C22,3.071659 20.928341,2 19.6190476,2 L4.38095238,2 Z M4.38095238,2.95238095 L7.51432286,2.95238095 C5.81380476,4.72175519 4.85714286,7.00861095 4.85714286,9.38095238 C4.85714286,11.8380952 5.86197905,14.1904019 7.67150286,15.9713543 C7.72864571,16.0713543 7.77615333,16.5616814 7.55710571,17.1283481 C7.41901048,17.485491 7.1427081,17.9519719 6.60937524,18.1281624 C6.40461333,18.194829 6.27142857,18.3956471 6.28571429,18.6099329 C6.3,18.8242186 6.45751476,19.0051338 6.66703857,19.047991 C8.03370524,19.3194195 8.91871286,18.909561 9.63299857,18.5857514 C10.2758557,18.2905133 10.7002976,18.09029 11.3526786,18.3569567 C12.6860119,18.8760043 14.1047619,19.1428571 15.5714286,19.1428571 C17.5208024,19.1428571 19.3959329,18.6670148 21.047619,17.768229 L21.047619,19.6190476 C21.047619,20.4135638 20.4135638,21.047619 19.6190476,21.047619 L4.38095238,21.047619 C3.58643624,21.047619 2.95238095,20.4135638 2.95238095,19.6190476 L2.95238095,4.38095238 C2.95238095,3.58643624 3.58643624,2.95238095 4.38095238,2.95238095 Z M15.8095238,7.23809524 C16.0714286,7.23809524 16.2857143,7.45238095 16.2857143,7.71428571 L16.2857143,12 C16.2857143,12.2619048 16.0714286,12.4761905 15.8095238,12.4761905 C15.547619,12.4761905 15.3333333,12.2619048 15.3333333,12 L15.3333333,7.71428571 C15.3333333,7.45238095 15.547619,7.23809524 15.8095238,7.23809524 Z M8.66666667,7.71428571 L11.047619,7.71428571 C11.2190476,7.71428571 11.3813614,7.80930048 11.4670757,7.96168143 C11.5480281,8.10930048 11.542671,8.29490333 11.4521948,8.44252238 L9.52418143,11.5238095 L11.047619,11.5238095 C11.3095238,11.5238095 11.5238095,11.7380952 11.5238095,12 C11.5238095,12.2619048 11.3095238,12.4761905 11.047619,12.4761905 L8.66666667,12.4761905 C8.4952381,12.4761905 8.33292429,12.3811757 8.24721,12.2287948 C8.16625762,12.0811757 8.17161476,11.8955729 8.26209095,11.7479538 L10.1901043,8.66666667 L8.66666667,8.66666667 C8.4047619,8.66666667 8.19047619,8.45238095 8.19047619,8.19047619 C8.19047619,7.92857143 8.4047619,7.71428571 8.66666667,7.71428571 Z M13.1904762,9.14285714 C13.4809524,9.14285714 13.7521205,9.22343762 13.9949776,9.35677095 C14.0806919,9.23296143 14.2142857,9.14285714 14.3809524,9.14285714 C14.6428571,9.14285714 14.8571429,9.35714286 14.8571429,9.61904762 L14.8571429,12 C14.8571429,12.2619048 14.6428571,12.4761905 14.3809524,12.4761905 C14.2142857,12.4761905 14.0806919,12.3860862 13.9949776,12.2622767 C13.7521205,12.39561 13.4809524,12.4761905 13.1904762,12.4761905 C12.2714286,12.4761905 11.5238095,11.7285714 11.5238095,10.8095238 C11.5238095,9.89047619 12.2714286,9.14285714 13.1904762,9.14285714 Z M18.4285714,9.14285714 C19.347619,9.14285714 20.0952381,9.89047619 20.0952381,10.8095238 C20.0952381,11.7285714 19.347619,12.4761905 18.4285714,12.4761905 C17.5095238,12.4761905 16.7619048,11.7285714 16.7619048,10.8095238 C16.7619048,9.89047619 17.5095238,9.14285714 18.4285714,9.14285714 Z M13.1904762,10.0952381 C13.1410714,10.0952381 13.0928667,10.1006233 13.0463171,10.110119 C12.9532181,10.129111 12.8665367,10.1657924 12.7905505,10.2170757 C12.7145648,10.2683595 12.6493119,10.3336124 12.5980281,10.4095981 C12.5467448,10.4855843 12.5100633,10.5722657 12.4910714,10.6653648 C12.4815757,10.7119143 12.4761905,10.760119 12.4761905,10.8095238 C12.4761905,10.8589286 12.4815757,10.9071333 12.4910714,10.9536829 C12.5005671,11.0002324 12.513951,11.0448662 12.5319943,11.0876114 C12.5500371,11.1303571 12.5723867,11.1714567 12.5980281,11.2094495 C12.62367,11.2474424 12.6531624,11.2822543 12.6854538,11.3145462 C12.7177457,11.3468376 12.7525576,11.37633 12.7905505,11.4019719 C12.8665367,11.4532552 12.9532181,11.4899367 13.0463171,11.5089286 C13.0928667,11.5184243 13.1410714,11.5238095 13.1904762,11.5238095 C13.239881,11.5238095 13.2880857,11.5184243 13.3346352,11.5089286 C13.6604819,11.4424571 13.9047619,11.1553571 13.9047619,10.8095238 C13.9047619,10.4142857 13.5857143,10.0952381 13.1904762,10.0952381 Z M18.4285714,10.0952381 C18.3791667,10.0952381 18.3309619,10.1006233 18.2844124,10.110119 C18.2378629,10.1196148 18.193229,10.1329986 18.1504838,10.1510419 C18.1077381,10.1690848 18.0666386,10.1914343 18.0286457,10.2170757 C17.9906529,10.2427176 17.955841,10.27221 17.923549,10.3045014 C17.8589657,10.3690848 17.8061757,10.4459448 17.7700895,10.5314362 C17.7520462,10.5741814 17.7386624,10.6188152 17.7291667,10.6653648 C17.719671,10.7119143 17.7142857,10.760119 17.7142857,10.8095238 C17.7142857,10.8589286 17.719671,10.9071333 17.7291667,10.9536829 C17.7386624,11.0002324 17.7520462,11.0448662 17.7700895,11.0876114 C17.7881324,11.1303571 17.8104819,11.1714567 17.8361233,11.2094495 C17.8617652,11.2474424 17.8912576,11.2822543 17.923549,11.3145462 C17.955841,11.3468376 17.9906529,11.37633 18.0286457,11.4019719 C18.0666386,11.4276133 18.1077381,11.4499629 18.1504838,11.4680057 C18.193229,11.486049 18.2378629,11.4994329 18.2844124,11.5089286 C18.3309619,11.5184243 18.3791667,11.5238095 18.4285714,11.5238095 C18.4779762,11.5238095 18.526181,11.5184243 18.5727305,11.5089286 C18.8985771,11.4424571 19.1428571,11.1553571 19.1428571,10.8095238 C19.1428571,10.4142857 18.8238095,10.0952381 18.4285714,10.0952381 Z" id="Main"></path>
                                    </g>
                                </g>
                            </g>
                        </g>
                    </g>
                </g>
            </g>
        </g>
    </g>
</svg>