<svg width="32" height="32" viewBox="0 0 32 32" fill="none" xmlns="http://www.w3.org/2000/svg">
<path fill-rule="evenodd" clip-rule="evenodd" d="M5.84123 2.66675C4.0955 2.66675 2.66663 4.09563 2.66663 5.84135V26.1588C2.66663 27.9045 4.0955 29.3334 5.84123 29.3334H26.1587C27.9044 29.3334 29.3333 27.9045 29.3333 26.1588V5.84135C29.3333 4.09563 27.9044 2.66675 26.1587 2.66675H5.84123ZM5.84123 3.93659H10.0191C7.7517 6.29576 6.47615 9.3449 6.47615 12.508C6.47615 15.7842 7.81594 18.9206 10.2286 21.2952C10.3048 21.4286 10.3682 22.0823 10.0761 22.8379C9.89198 23.3141 9.52357 23.936 8.81246 24.171C8.53945 24.2599 8.36187 24.5276 8.38092 24.8133C8.39996 25.099 8.60998 25.3403 8.88935 25.3974C10.7116 25.7593 11.8916 25.2128 12.844 24.7811C13.7011 24.3874 14.267 24.1205 15.1369 24.476C16.9146 25.1681 18.8063 25.5239 20.7619 25.5239C23.361 25.5239 25.8612 24.8894 28.0635 23.6911V26.1588C28.0635 27.2182 27.218 28.0636 26.1587 28.0636H5.84123C4.78188 28.0636 3.93647 27.2182 3.93647 26.1588V5.84136C3.93647 4.782 4.78188 3.93659 5.84123 3.93659ZM21.0793 9.65088C21.4285 9.65088 21.7142 9.93659 21.7142 10.2858V16.0001C21.7142 16.3493 21.4285 16.635 21.0793 16.635C20.7301 16.635 20.4444 16.3493 20.4444 16.0001V10.2858C20.4444 9.93659 20.7301 9.65088 21.0793 9.65088ZM11.5555 10.2858H14.7301C14.9587 10.2858 15.1751 10.4125 15.2894 10.6157C15.3973 10.8125 15.3902 11.06 15.2696 11.2568L12.6989 15.3652H14.7301C15.0793 15.3652 15.3651 15.6509 15.3651 16.0001C15.3651 16.3493 15.0793 16.635 14.7301 16.635H11.5555C11.327 16.635 11.1105 16.5083 10.9963 16.3051C10.8883 16.1083 10.8955 15.8608 11.0161 15.664L13.5868 11.5556H11.5555C11.2063 11.5556 10.9206 11.2699 10.9206 10.9207C10.9206 10.5715 11.2063 10.2858 11.5555 10.2858ZM17.5873 12.1906C17.9746 12.1906 18.3362 12.298 18.66 12.4758C18.7743 12.3107 18.9524 12.1906 19.1746 12.1906C19.5238 12.1906 19.8095 12.4763 19.8095 12.8255V16.0001C19.8095 16.3493 19.5238 16.635 19.1746 16.635C18.9524 16.635 18.7743 16.5149 18.66 16.3498C18.3362 16.5276 17.9746 16.635 17.5873 16.635C16.3619 16.635 15.3651 15.6382 15.3651 14.4128C15.3651 13.1874 16.3619 12.1906 17.5873 12.1906ZM24.5714 12.1906C25.7968 12.1906 26.7936 13.1874 26.7936 14.4128C26.7936 15.6382 25.7968 16.635 24.5714 16.635C23.346 16.635 22.3492 15.6382 22.3492 14.4128C22.3492 13.1874 23.346 12.1906 24.5714 12.1906ZM17.5872 13.4604C17.5213 13.4604 17.4571 13.4676 17.395 13.4802C17.2709 13.5056 17.1553 13.5545 17.054 13.6228C16.9527 13.6912 16.8657 13.7782 16.7973 13.8795C16.7289 13.9809 16.68 14.0964 16.6547 14.2206C16.642 14.2826 16.6348 14.3469 16.6348 14.4128C16.6348 14.4786 16.642 14.5429 16.6547 14.605C16.6673 14.667 16.6852 14.7266 16.7092 14.7836C16.7333 14.8405 16.7631 14.8953 16.7973 14.946C16.8315 14.9967 16.8708 15.0431 16.9139 15.0861C16.9569 15.1292 17.0033 15.1685 17.054 15.2027C17.1553 15.2711 17.2709 15.32 17.395 15.3453C17.4571 15.358 17.5213 15.3652 17.5872 15.3652C17.6531 15.3652 17.7174 15.358 17.7794 15.3453C18.2139 15.2567 18.5396 14.8739 18.5396 14.4128C18.5396 13.8858 18.1142 13.4604 17.5872 13.4604ZM24.5714 13.4604C24.5055 13.4604 24.4413 13.4676 24.3792 13.4802C24.3171 13.4929 24.2576 13.5107 24.2006 13.5348C24.1436 13.5589 24.0888 13.5887 24.0382 13.6228C23.9875 13.657 23.9411 13.6964 23.8981 13.7394C23.8119 13.8255 23.7416 13.928 23.6934 14.042C23.6694 14.099 23.6515 14.1585 23.6389 14.2206C23.6262 14.2826 23.619 14.3469 23.619 14.4128C23.619 14.4786 23.6262 14.5429 23.6389 14.605C23.6515 14.667 23.6694 14.7266 23.6934 14.7836C23.7175 14.8405 23.7473 14.8953 23.7815 14.946C23.8157 14.9967 23.855 15.0431 23.8981 15.0861C23.9411 15.1292 23.9875 15.1685 24.0382 15.2027C24.0888 15.2369 24.1436 15.2667 24.2006 15.2907C24.2576 15.3148 24.3171 15.3327 24.3792 15.3453C24.4413 15.358 24.5055 15.3652 24.5714 15.3652C24.6373 15.3652 24.7016 15.358 24.7636 15.3453C25.1981 15.2567 25.5238 14.8739 25.5238 14.4128C25.5238 13.8858 25.0984 13.4604 24.5714 13.4604Z" fill="white"/>
</svg>
