<?xml version="1.0" encoding="utf-8"?>
<svg width="25px" height="25px" viewBox="0 0 25 25" version="1.1" xmlns:xlink="http://www.w3.org/1999/xlink" xmlns="http://www.w3.org/2000/svg">
  <desc>Created with Lunacy</desc>
  <g id="Group" transform="translate(0.5 0.5)">
    <path d="M2.38095 0C1.07166 0 0 1.07166 0 2.38095L0 17.619C0 18.9283 1.07166 20 2.38095 20L17.619 20C18.9283 20 20 18.9283 20 17.619L20 2.38095C20 1.07166 18.9283 0 17.619 0L2.38095 0ZM5.51432 0.952381L2.38095 0.952381C1.58644 0.952381 0.952381 1.58644 0.952381 2.38095L0.952381 17.619C0.952381 18.4136 1.58644 19.0476 2.38095 19.0476L17.619 19.0476C18.4136 19.0476 19.0476 18.4136 19.0476 17.619L19.0476 15.7682C17.3959 16.667 15.5208 17.1429 13.5714 17.1429C12.1048 17.1429 10.686 16.876 9.35268 16.357C8.70631 16.0927 8.2837 16.2869 7.6507 16.5776L7.633 16.5858L7.61258 16.595C6.90184 16.9173 6.02071 17.3168 4.66704 17.048C4.45751 17.0051 4.3 16.8242 4.28571 16.6099C4.27143 16.3956 4.40461 16.1948 4.60938 16.1282C5.14271 15.952 5.41901 15.4855 5.55711 15.1283C5.77615 14.5617 5.72865 14.0714 5.6715 13.9714C3.86198 12.1904 2.85714 9.83809 2.85714 7.38095C2.85714 5.00861 3.8138 2.72176 5.51432 0.952381ZM13.8095 5.2381C14.0714 5.2381 14.2857 5.45238 14.2857 5.71429L14.2857 10C14.2857 10.2619 14.0714 10.4762 13.8095 10.4762C13.5476 10.4762 13.3333 10.2619 13.3333 10L13.3333 5.71429C13.3333 5.45238 13.5476 5.2381 13.8095 5.2381ZM9.04762 5.71429L6.66667 5.71429C6.40476 5.71429 6.19048 5.92857 6.19048 6.19048C6.19048 6.45238 6.40476 6.66667 6.66667 6.66667L8.1901 6.66667L6.26209 9.74795C6.17161 9.89557 6.16626 10.0812 6.24721 10.2288C6.33292 10.3812 6.49524 10.4762 6.66667 10.4762L9.04762 10.4762C9.30952 10.4762 9.52381 10.2619 9.52381 10C9.52381 9.7381 9.30952 9.52381 9.04762 9.52381L7.52418 9.52381L9.4522 6.44252C9.54267 6.2949 9.54803 6.1093 9.46708 5.96168C9.38136 5.8093 9.21905 5.71429 9.04762 5.71429ZM11.1905 7.14286C11.481 7.14286 11.7521 7.22344 11.995 7.35677C12.0807 7.23296 12.2143 7.14286 12.381 7.14286C12.6429 7.14286 12.8571 7.35714 12.8571 7.61905L12.8571 10C12.8571 10.2619 12.6429 10.4762 12.381 10.4762C12.2143 10.4762 12.0807 10.3861 11.995 10.2623C11.7521 10.3956 11.481 10.4762 11.1905 10.4762C10.2714 10.4762 9.52381 9.72857 9.52381 8.80952C9.52381 7.89048 10.2714 7.14286 11.1905 7.14286ZM18.0952 8.80952C18.0952 7.89048 17.3476 7.14286 16.4286 7.14286C15.5095 7.14286 14.7619 7.89048 14.7619 8.80952C14.7619 9.72857 15.5095 10.4762 16.4286 10.4762C17.3476 10.4762 18.0952 9.72857 18.0952 8.80952ZM11.1905 8.09524C11.1411 8.09524 11.0929 8.10062 11.0463 8.11012C10.9532 8.12911 10.8665 8.16579 10.7906 8.21708C10.7146 8.26836 10.6493 8.33361 10.598 8.4096C10.5467 8.48558 10.5101 8.57227 10.4911 8.66536C10.4816 8.71191 10.4762 8.76012 10.4762 8.80952C10.4762 8.85893 10.4816 8.90713 10.4911 8.95368C10.5006 9.00023 10.514 9.04487 10.532 9.08761C10.55 9.13036 10.5724 9.17146 10.598 9.20945C10.6237 9.24744 10.6532 9.28225 10.6855 9.31455C10.7177 9.34684 10.7526 9.37633 10.7906 9.40197C10.8665 9.45325 10.9532 9.48994 11.0463 9.50893C11.0929 9.51842 11.1411 9.52381 11.1905 9.52381C11.2399 9.52381 11.2881 9.51842 11.3346 9.50893C11.6605 9.44246 11.9048 9.15536 11.9048 8.80952C11.9048 8.41429 11.5857 8.09524 11.1905 8.09524ZM16.2844 8.11012C16.331 8.10062 16.3792 8.09524 16.4286 8.09524C16.8238 8.09524 17.1429 8.41429 17.1429 8.80952C17.1429 9.15536 16.8986 9.44246 16.5727 9.50893C16.5262 9.51842 16.478 9.52381 16.4286 9.52381C16.3792 9.52381 16.331 9.51842 16.2844 9.50893C16.2379 9.49943 16.1932 9.48605 16.1505 9.46801C16.1077 9.44996 16.0666 9.42761 16.0286 9.40197C15.9907 9.37633 15.9558 9.34684 15.9235 9.31455C15.8913 9.28225 15.8618 9.24744 15.8361 9.20945C15.8105 9.17146 15.7881 9.13036 15.7701 9.08761C15.752 9.04487 15.7387 9.00023 15.7292 8.95368C15.7197 8.90713 15.7143 8.85893 15.7143 8.80952C15.7143 8.76012 15.7197 8.71191 15.7292 8.66536C15.7387 8.61882 15.752 8.57418 15.7701 8.53144C15.8062 8.44594 15.859 8.36908 15.9235 8.3045C15.9558 8.27221 15.9907 8.24272 16.0286 8.21708C16.0666 8.19143 16.1077 8.16908 16.1505 8.15104C16.1932 8.133 16.2379 8.11961 16.2844 8.11012Z" transform="translate(2 2)" id="Main" fill="#0267FB" fill-rule="evenodd" stroke="none" />
  </g>
</svg>