<svg width="24" height="24" viewBox="0 0 24 24" fill="none" xmlns="http://www.w3.org/2000/svg">
<path fill-rule="evenodd" clip-rule="evenodd" d="M19 5H5C3.34315 5 2 6.34315 2 8V16C2 17.6569 3.34315 19 5 19H19C20.6569 19 22 17.6569 22 16V8C22 6.34315 20.6569 5 19 5ZM4 8C4 7.44772 4.44772 7 5 7H19C19.5523 7 20 7.44772 20 8V8.5H4V8ZM4 10.5V16C4 16.5523 4.44772 17 5 17H19C19.5523 17 20 16.5523 20 16V10.5H4ZM6 14C6 13.4477 6.44772 13 7 13H10C10.5523 13 11 13.4477 11 14C11 14.5523 10.5523 15 10 15H7C6.44772 15 6 14.5523 6 14ZM13 13C12.4477 13 12 13.4477 12 14C12 14.5523 12.4477 15 13 15H14C14.5523 15 15 14.5523 15 14C15 13.4477 14.5523 13 14 13H13Z" fill="#DADBDB"/>
</svg>
