<?xml version="1.0" encoding="UTF-8"?>
<svg width="24px" height="24px" viewBox="0 0 24 24" version="1.1" xmlns="http://www.w3.org/2000/svg" xmlns:xlink="http://www.w3.org/1999/xlink">
    <!-- Generator: sketchtool 64 (101010) - https://sketch.com -->
    <title>BF55B712-3547-43B2-8C65-FDFB7F01799E</title>
    <desc>Created with sketchtool.</desc>
    <g id="New-Post" stroke="none" stroke-width="1" fill="none" fill-rule="evenodd">
        <g id="6.21" transform="translate(-445.000000, -372.000000)" fill="#FFFFFF">
            <g id="Image" transform="translate(336.000000, 364.000000)">
                <g id="Icon/_Navigation/Close" transform="translate(109.000000, 8.000000)">
                    <g id="Close">
                        <path d="M12,22 C6.477,22 2,17.523 2,12 C2,6.477 6.477,2 12,2 C17.523,2 22,6.477 22,12 C22,17.523 17.523,22 12,22 Z M12,4 C7.581722,4 4,7.581722 4,12 C4,16.418278 7.581722,20 12,20 C16.418278,20 20,16.418278 20,12 C20,7.581722 16.418278,4 12,4 Z M15.707,8.293 C16.0973819,8.68349985 16.0973819,9.31650015 15.707,9.707 L13.414,12 L15.707,14.293 C16.0859722,14.6853789 16.0805524,15.3090848 15.6948186,15.6948186 C15.3090848,16.0805524 14.6853789,16.0859722 14.293,15.707 L12,13.414 L9.707,15.707 C9.31462111,16.0859722 8.69091522,16.0805524 8.30518142,15.6948186 C7.91944763,15.3090848 7.91402779,14.6853789 8.293,14.293 L10.586,12 L8.293,9.707 C7.91402779,9.31462111 7.91944763,8.69091522 8.30518142,8.30518142 C8.69091522,7.91944763 9.31462111,7.91402779 9.707,8.293 L12,10.586 L14.293,8.293 C14.6834999,7.90261806 15.3165001,7.90261806 15.707,8.293 L15.707,8.293 Z" id="Main"></path>
                    </g>
                </g>
            </g>
        </g>
    </g>
</svg>