<?xml version="1.0" encoding="UTF-8"?>
<svg width="96px" height="96px" viewBox="0 0 96 96" version="1.1" xmlns="http://www.w3.org/2000/svg" xmlns:xlink="http://www.w3.org/1999/xlink">
    <!-- Generator: sketchtool 64 (101010) - https://sketch.com -->
    <title>0074C3B2-4FD7-44AD-9803-285F22814BF7</title>
    <desc>Created with sketchtool.</desc>
    <g id="New-Post" stroke="none" stroke-width="1" fill="none" fill-rule="evenodd">
        <g id="6.03" transform="translate(-872.000000, -292.000000)">
            <g id="2" transform="translate(735.000000, 276.000000)">
                <g id="Icon-/-_News-/-semi-specialized" transform="translate(137.000000, 16.000000)">
                    <g id="semi-specialized">
                        <path d="M82.8722296,64 C84.1959334,64 84.5990386,64.0778432 85.0104937,64.2978918 C85.3138086,64.4601064 85.5398936,64.6861914 85.7021082,64.9895063 C85.9221568,65.4009614 86,65.8040666 86,67.1277704 L86,82.8722296 C86,84.1959334 85.9221568,84.5990386 85.7021082,85.0104937 C85.5398936,85.3138086 85.3138086,85.5398936 85.0104937,85.7021082 C84.5990386,85.9221568 84.1959334,86 82.8722296,86 L21.1277704,86 C19.8040666,86 19.4009614,85.9221568 18.9895063,85.7021082 C18.6861914,85.5398936 18.4601064,85.3138086 18.2978918,85.0104937 C18.1053493,84.6504704 18.0216828,84.2968402 18.0037746,83.3272798 L18,64 L82.8722296,64 Z" id="Shade" fill="#DADBDB"></path>
                        <path d="M56,18 C59.3137085,18 62,20.6862915 62,24 L62,24 L62,30 L78.8722296,30 C80.6864062,30 81.7027953,30.1756659 82.7082937,30.6734866 L82.8968891,30.770639 C83.8972779,31.3056528 84.6943472,32.1027221 85.229361,33.1031109 C85.8016896,34.1732724 86,35.2002077 86,37.1277704 L86,37.1277704 L86,74.8722296 C86,76.7997923 85.8016896,77.8267276 85.229361,78.8968891 C84.6943472,79.8972779 83.8972779,80.6943472 82.8968891,81.229361 C81.8267276,81.8016896 80.7997923,82 78.8722296,82 L78.8722296,82 L17.1277704,82 C15.2002077,82 14.1732724,81.8016896 13.1031109,81.229361 C12.1027221,80.6943472 11.3056528,79.8972779 10.770639,78.8968891 C10.1983104,77.8267276 10,76.7997923 10,74.8722296 L10,74.8722296 L10,37.1277704 C10,35.2002077 10.1983104,34.1732724 10.770639,33.1031109 C11.3056528,32.1027221 12.1027221,31.3056528 13.1031109,30.770639 C14.1732724,30.1983104 15.2002077,30 17.1277704,30 L17.1277704,30 L34,30 L34,24 C34,20.7616031 36.5655749,18.1224282 39.7750617,18.0041385 L40,18 Z M82,60 L14.002,60 L14.0037746,75.3272798 C14.0203052,76.2222586 14.0928666,76.5924212 14.255372,76.9272416 L14.2978918,77.0104937 C14.4601064,77.3138086 14.6861914,77.5398936 14.9895063,77.7021082 C15.4009614,77.9221568 15.8040666,78 17.1277704,78 L17.1277704,78 L78.8722296,78 C80.1959334,78 80.5990386,77.9221568 81.0104937,77.7021082 C81.3138086,77.5398936 81.5398936,77.3138086 81.7021082,77.0104937 C81.9221568,76.5990386 82,76.1959334 82,74.8722296 L82,74.8722296 L82,60 Z M79.1098626,34.0009279 L78.8722296,34 L16.6727202,34.0037746 C15.7031598,34.0216828 15.3495296,34.1053493 14.9895063,34.2978918 C14.6861914,34.4601064 14.4601064,34.6861914 14.2978918,34.9895063 C14.0778432,35.4009614 14,35.8040666 14,37.1277704 L14,37.1277704 L14.001,56 L46,56 L46,50 C46,48.8954305 46.8954305,48 48,48 C48.9818396,48 49.7984335,48.7075006 49.9677773,49.6404975 L50,50 L50,56 L82,56 L82,37.1277704 C82,35.8867981 81.9315831,35.4549457 81.7417166,35.0667831 L81.7021082,34.9895063 C81.5398936,34.6861914 81.3138086,34.4601064 81.0104937,34.2978918 C80.5990386,34.0778432 80.1959334,34 78.8722296,34 Z M56,22 L40,22 C38.8954305,22 38,22.8954305 38,24 L38,24 L38,30 L58,30 L58,24 C58,23.0181604 57.2924994,22.2015665 56.3595025,22.0322227 L56.3595025,22.0322227 L56,22 Z" id="Main" fill="#0B0F17"></path>
                    </g>
                </g>
            </g>
        </g>
    </g>
</svg>