<?xml version="1.0" encoding="UTF-8"?>
<svg width="96px" height="96px" viewBox="0 0 96 96" version="1.1" xmlns="http://www.w3.org/2000/svg" xmlns:xlink="http://www.w3.org/1999/xlink">
    <!-- Generator: sketchtool 64 (101010) - https://sketch.com -->
    <title>34098ABB-B96A-4FE3-A092-337A91B02AB9</title>
    <desc>Created with sketchtool.</desc>
    <g id="New-Post" stroke="none" stroke-width="1" fill="none" fill-rule="evenodd">
        <g id="6.03" transform="translate(-472.000000, -292.000000)">
            <g id="1" transform="translate(335.000000, 276.000000)">
                <g id="Icon-/-_News-/-User" transform="translate(137.000000, 16.000000)">
                    <g id="User">
                        <circle id="Shade" fill="#DADBDB" cx="52" cy="40" r="20"></circle>
                        <path d="M48,14 C60.1502645,14 70,23.8497355 70,36 C70,44.2547661 65.4536522,51.4476759 58.7282847,55.2114012 C74.4441212,58.8476322 86,70.2794637 86,84 C86,85.1045695 85.1045695,86 84,86 C82.8954305,86 82,85.1045695 82,84 C82,69.7661764 66.8720589,58 48,58 C29.1279411,58 14,69.7661764 14,84 C14,85.1045695 13.1045695,86 12,86 C10.8954305,86 10,85.1045695 10,84 C10,70.2794637 21.5558788,58.8476322 37.2713492,55.210433 C30.5463478,51.4476759 26,44.2547661 26,36 C26,23.8497355 35.8497355,14 48,14 Z M48,18 C38.0588745,18 30,26.0588745 30,36 C30,45.9411255 38.0588745,54 48,54 C57.9411255,54 66,45.9411255 66,36 C66,26.0588745 57.9411255,18 48,18 Z" id="Main" fill="#0B0F17"></path>
                    </g>
                </g>
            </g>
        </g>
    </g>
</svg>